<?xml version="1.0" standalone="no"?> <!DOCTYPE svg PUBLIC "-//W3C//DTD SVG 1.0//EN" "http://www.w3.org/TR/2001/REC-SVG-20010904/DTD/svg10.dtd" > <svg xmlns="http://www.w3.org/2000/svg" width="100%" height="100%">
<defs >
<font id="GentiumBookBasic-BoldItalic" horiz-adv-x="957" ><font-face
    font-family="Gentium Book Basic"
    units-per-em="2048"
    panose-1="2 0 6 6 8 0 0 2 0 4"
    ascent="1788"
    descent="-537"
    alphabetic="0" />
<missing-glyph horiz-adv-x="1024" d="M102 0V1092H922V0H102ZM205 102H819V989H205V102Z" />
<glyph unicode=" " glyph-name="space" horiz-adv-x="516" />
<glyph unicode="!" glyph-name="exclam" horiz-adv-x="499" d="M373 172Q373 137 360 100Q348 65 324 37Q295 6 260 -12Q223 -30 174 -31Q104 -31 74 2Q41 39 41 88Q41 125 55 156Q73 197 94 219Q123 250 158 268Q195 286 242 287Q308 287 340 254T373 172ZM315
420Q299 410 291 406Q287 404 277 399T262 391L231 379Q223 375 215 374T203 371L178 391L223 1315L281 1343L356 1380Q376 1390 395 1397T430 1413Q469 1431 485 1436L530 1401L315 420Z" />
<glyph unicode="&quot;" glyph-name="quotedbl" horiz-adv-x="921" d="M342 850Q330 842 319 840Q315 840 303 838T287 834Q267 830 256 829Q250 829 241 828T227 827L211 1341Q217 1343 238 1354Q244 1356 251 1359T267 1365T283 1370L336 1389L389 1407L434
1421Q438 1423 444 1424T455 1427T461 1430L508 1399L342 850ZM731 850Q719 842 709 840L678 834Q658 830 645 829Q639 829 631 828T618 827L600 1341Q612 1345 629 1354Q635 1358 652 1363T674 1370Q684 1374 690 1376T705 1381T725 1389L780 1407L823 1421Q827
1423 833 1424T844 1427T850 1430L897 1399L731 850Z" />
<glyph unicode="#" glyph-name="numbersign" horiz-adv-x="966" d="M864 981H1008L1028 956Q1025 944 1016 926L997 889L977 852Q967 832 963 825H801L715 610H858L874 584Q866 559 864 555L846 518L827 481Q825 475 820 467T813 455H651L537 170Q528 164 512
158Q502 154 477 145Q467 143 459 140T440 135Q434 133 410 127L387 147L512 455H354L240 170Q234 166 213 158Q203 154 178 145L143 135Q137 133 113 127L90 147L215 455H55L37 479Q41 491 49 508L68 545L86 582Q94 598 102 610H276L365 825H207L186 850Q188 858
199 879Q207 897 217 918L238 954Q248 974 252 981H426L535 1251Q541 1255 563 1264Q590 1272 598 1274L633 1282Q643 1284 659 1292L682 1270L565 981H723L831 1251Q833 1253 860 1264Q878 1272 895 1274Q913 1278 930 1282Q938 1284 956 1292L981 1270L864 981ZM416
610H573L662 825H504L416 610Z" />
<glyph unicode="$" glyph-name="dollar" horiz-adv-x="966" d="M330 950Q330 919 334 905Q340 885 352 866Q362 850 387 829Q407 813 446 793L489 1100Q456 1094 424 1081Q399 1071 375 1047Q355 1027 343 1002T330 950ZM653 342Q653 393 625 434T535 510L479
125Q569 141 610 195Q653 250 653 342ZM942 1145Q944 1143 942 1124Q940 1112 928 1079Q924 1069 917 1051T905 1024Q901 1012 892 995T879 969Q869 944 855 924T836 901L768 911Q762 944 750 971Q740 996 719 1022Q705 1042 676 1063Q649 1083 616 1092L567 741Q630
716 696 682Q749 653 795 612Q832 577 856 526Q879 477 879 418Q879 340 854 269T776 138T647 37Q577 0 461 -20L444 -127Q421 -145 397 -158Q368 -172 344 -178L313 -147L330 -31H322Q277 -31 215 -14Q164 0 109 27Q62 50 27 82Q-6 113 -6 137Q-6 147 0 170Q6
188 20 219Q22 225 30 243T45 272Q60 300 76 322Q90 345 104 356Q118 370 128 370T147 356L157 343Q166 330 170 319Q178 303 199 266Q211 246 236 213Q259 184 287 162Q312 144 352 129L414 565Q410 565 404 569T395 573Q379 579 375 582Q307 607 262 633Q207
664 176 694Q141 729 123 772Q103 819 102 874Q102 927 124 984T194 1089T319 1174Q387 1207 508 1223L524 1337Q565 1362 573 1370Q589 1384 623 1397L653 1364L635 1231H639Q668 1231 725 1223Q770 1217 809 1204Q842 1194 883 1176Q905 1165 942 1145Z" />
<glyph unicode="%" glyph-name="percent" horiz-adv-x="1409" d="M1130 426Q1130 467 1124 497T1110 544T1087 571Q1077 579 1059 580Q1028 580 1006 557Q983 532 967 500Q949 459 940 422Q928 365 924 336T916 254T911 190Q911 110 930 78Q948 43 987 43T1051
80Q1078 119 1096 176Q1112 229 1122 301Q1130 360 1130 426ZM1337 408Q1337 330 1313 250Q1290 176 1239 109Q1192 46 1118 6Q1046 -33 950 -33Q891 -33 848 -12Q802 10 768 43Q733 78 715 121Q695 168 694 213Q694 285 721 371Q746 449 799 512Q850 573 924 612Q996
651 1094 651Q1149 651 1190 635Q1233 619 1268 586Q1301 555 1319 510Q1337 463 1337 408ZM272 2Q258 -6 242 -8Q238 -8 224 -11T201 -16Q191 -18 180 -19T158 -23L125 -31L106 0L1137 1202Q1139 1202 1144 1205T1155 1210T1167 1212Q1171 1212 1185 1215T1208
1221L1249 1229Q1263 1231 1280 1235L1300 1206L272 2ZM504 1014Q504 1055 498 1085T483 1133Q477 1145 461 1157Q451 1165 432 1165Q399 1165 379 1145T342 1087Q324 1046 315 1010L297 924Q293 895 289 842Q287 815 287 776Q287 694 303 664Q321 629 362 629Q397
629 424 668T469 764Q485 817 496 889Q504 948 504 1014ZM713 995Q713 923 686 838Q661 758 614 697T492 594Q420 555 326 555Q265 555 221 575Q172 598 141 629Q106 664 88 707T70 801Q70 879 94 958Q119 1036 172 1100Q223 1161 297 1200Q369 1239 467 1239Q522
1239 563 1223Q606 1207 641 1174Q674 1143 692 1098Q713 1046 713 995Z" />
<glyph unicode="&amp;" glyph-name="ampersand" horiz-adv-x="1325" d="M1401 748Q1395 742 1370 713Q1354 693 1335 672Q1323 658 1300 635Q1280 615 1272 608Q1247 622 1204 641Q1167 656 1137 659Q1155 630 1155 604Q1155 584 1151 543Q1141 477 1106 406T1008
262Q1022 248 1034 233L1061 207Q1108 160 1159 147Q1211 135 1257 147L1264 66Q1221 48 1171 29Q1120 11 1077 -2Q1003 -22 999 -23Q991 -25 980 -27T963 -30T954 -31Q934 -31 889 -2Q848 25 795 78Q713 27 625 0Q527 -31 440 -31Q239 -31 139 66Q43 160 68 352Q80
448 156 557Q228 659 377 768Q355 845 346 922Q338 992 348 1073Q360 1157 399 1223Q442 1295 500 1343Q559 1394 633 1421Q709 1450 786 1450Q862 1450 911 1430Q962 1410 993 1374Q1020 1343 1034 1296Q1044 1257 1038 1204Q1032 1157 995 1096Q960 1039 909
988T797 887Q740 842 676 803L659 791Q704 685 772 575Q831 481 911 377Q927 404 942 440Q950 460 958 502Q964 543 958 575Q954 604 934 631Q920 651 895 663T844 676L819 713L838 731Q854 747 864 756Q868 758 877 767T893 780Q916 794 918 795H1376L1401 748ZM526
125Q581 125 616 137Q669 155 705 176Q619 280 561 371Q491 482 436 602Q391 545 371 492Q353 445 342 373Q334 305 346 256Q358 211 387 178Q412 149 451 137Q487 125 526 125ZM596 1130Q588 1071 594 1026Q600 967 614 918Q657 945 686 973Q706 993 735 1038Q753
1069 768 1106Q770 1114 782 1171Q788 1202 784 1233Q782 1258 768 1278Q756 1296 742 1304T709 1313Q684 1313 668 1298Q650 1284 635 1260Q623 1240 612 1202Q600 1157 596 1130Z" />
<glyph unicode="&apos;" glyph-name="quotesingle" horiz-adv-x="499" d="M342 850Q330 842 319 840Q315 840 303 838T287 834Q267 830 256 829Q250 829 241 828T227 827L211 1341Q217 1343 238 1354Q244 1356 251 1359T267 1365T283 1370L336 1389L389 1407L434
1421Q438 1423 444 1424T455 1427T461 1430L508 1399L342 850Z" />
<glyph unicode="(" glyph-name="parenleft" horiz-adv-x="638" d="M762 1520Q690 1457 637 1384Q576 1302 528 1204Q479 1100 442 971Q403 836 383 682Q358 518 356 406Q352 261 367 160Q383 41 418 -53T516 -229L449 -315Q353 -254 272 -152Q198 -58 151 71T92
344T102 651Q122 811 180 963Q235 1113 313 1231Q393 1354 496 1450Q588 1536 719 1604L762 1520Z" />
<glyph unicode=")" glyph-name="parenright" horiz-adv-x="638" d="M559 639Q539 479 481 328Q426 181 346 57Q270 -62 164 -160Q66 -252 -57 -315L-100 -229Q-24 -159 25 -96Q84 -18 133 86Q184 195 219 317Q258 452 279 606Q304 770 305 885Q309 1030 295 1130Q281
1241 242 1343Q205 1443 145 1520L213 1604Q311 1541 389 1442Q461 1350 510 1217Q557 1088 569 944Q582 803 559 639Z" />
<glyph unicode="*" glyph-name="asterisk" horiz-adv-x="745" d="M453 1231L666 1409Q668 1407 672 1404T682 1396T692 1386L727 1352Q731 1348 744 1336T764 1317Q778 1301 784 1290L766 1231L494 1137L721 1051L717 1036Q713 1022 711 1012Q705 985 696 956L680
901Q671 876 668 864L610 846L430 1038L446 774Q442 772 410 760Q400 756 387 750T358 737Q348 733 330 727T305 719Q289 713 270 707L233 748L328 1036L115 858Q113 860 109 863T98 871T88 881Q70 897 52 915T16 952Q12 958 4 966T-6 977L14 1036L289 1133L59
1217Q59 1223 62 1232T70 1255T78 1285T86 1311Q88 1319 92 1338T100 1366Q102 1372 105 1381T111 1396T115 1405L170 1423L348 1229L336 1493Q363 1507 371 1509L422 1530Q440 1538 473 1550Q481 1552 510 1561L547 1520L453 1231Z" />
<glyph unicode="+" glyph-name="plus" horiz-adv-x="833" d="M784 606Q782 598 772 578Q770 572 764 561T754 543Q750 535 747 530T741 521T735 510Q726 495 723 485H487L453 221Q451 221 428 211Q414 205 397 199Q393 197 381 193T365 186Q359 184 350 182T338
180L311 213L348 485H82L55 518Q59 532 68 547L84 580Q94 598 102 614Q104 618 109 626T117 639H371L408 905Q410 905 418 909T430 915Q438 919 446 921T463 926Q467 928 479 932T496 938L520 944L547 911L510 639H758L784 606Z" />
<glyph unicode="," glyph-name="comma" horiz-adv-x="499" d="M399 123Q399 78 383 25T340 -76Q312 -125 279 -174Q250 -215 205 -264Q162 -311 127 -340Q87 -374 53 -395L-10 -340Q39 -287 57 -258Q90 -207 104 -176Q124 -133 133 -98Q143 -57 143 -31Q143 -19
135 6Q127 29 115 41Q99 57 80 66Q58 75 31 72L27 160Q31 162 61 180Q75 188 112 204T170 229Q178 233 189 236T213 244T231 250Q243 254 285 264Q301 268 326 268Q367 241 381 217Q399 184 399 123Z" />
<glyph unicode="-" glyph-name="hyphen" horiz-adv-x="690" d="M649 551Q647 541 637 524L621 489L602 459Q593 444 590 434H51L23 469Q25 479 35 496Q37 500 43 512T53 528L72 559L86 586H621L649 551Z" />
<glyph unicode="." glyph-name="period" horiz-adv-x="499" d="M373 172Q373 137 360 100Q348 65 324 37Q295 6 260 -12Q223 -30 174 -31Q104 -31 74 2Q41 39 41 88Q41 125 55 156Q73 197 94 219Q123 250 158 268Q195 286 242 287Q308 287 340 254T373 172Z" />
<glyph unicode="/" glyph-name="slash" horiz-adv-x="909" d="M121 -264Q103 -276 84 -283Q78 -285 59 -292T27 -303T-1 -313T-33 -324Q-47 -328 -72 -336L-111 -301L784 1530Q800 1542 823 1550L879 1569Q916 1581 932 1587Q955 1595 973 1599L1014 1567L121 -264Z" />
<glyph unicode="0" glyph-name="zero" horiz-adv-x="966" d="M659 815Q659 899 651 948Q641 1005 625 1036Q605 1071 584 1085Q561 1099 532 1100Q481 1100 444 1059Q405 1016 379 954Q350 888 336 811T311 649Q299 540 297 498Q295 451 295 381Q295 234 325 170T428
106Q471 106 504 139Q541 176 563 227Q592 293 608 356Q622 411 637 508Q649 590 655 666Q659 719 659 815ZM928 784Q928 704 922 633Q918 586 897 496Q881 420 856 365Q831 308 791 236Q754 177 715 131Q678 90 618 47Q567 12 506 -10Q447 -30 375 -31Q298 -31
233 6Q172 41 123 106Q76 169 51 252Q26 336 27 422Q27 483 35 578Q41 639 57 711Q69 762 98 834Q121 891 158 961Q185 1010 233 1067Q280 1120 332 1155Q393 1196 449 1214Q510 1234 584 1235Q654 1235 715 1204Q781 1171 825 1114Q874 1051 901 973Q928 893 928
784Z" />
<glyph unicode="1" glyph-name="one" horiz-adv-x="966" d="M807 0H72L84 92Q170 102 209 113Q258 125 289 137Q324 151 332 160Q346 174 348 182L446 899Q450 926 451 963Q451 983 442 997Q434 1005 424 1008Q408 1012 383 1012Q369 1012 311 1004Q260 996 205
983L190 1075Q237 1085 258 1092Q262 1094 350 1120Q368 1126 383 1131T412 1141T449 1153L549 1188Q576 1196 598 1205T635 1221Q692 1241 700 1245L737 1200L598 182Q596 176 606 162Q616 150 639 137Q653 129 707 115Q756 101 817 92L807 0Z" />
<glyph unicode="2" glyph-name="two" horiz-adv-x="966" d="M922 1026Q922 985 909 942Q893 885 872 848Q839 791 799 735Q762 688 682 596Q588 490 514 416L287 190H641Q657 190 671 198T698 223Q708 237 719 256Q723 262 728 276T735 295Q755 346 764 399L848
377L780 0H6L-10 74Q166 254 293 395Q418 534 498 643Q570 737 612 834Q647 910 647 977Q647 1051 621 1079Q594 1110 539 1110Q500 1110 477 1094Q450 1074 436 1049Q424 1024 416 985Q410 954 414 913Q410 911 365 893Q338 883 299 872Q291 870 267 863T229 854Q221
852 174 846L150 926Q156 975 197 1032Q236 1085 301 1133Q366 1179 449 1206Q535 1235 623 1235Q672 1235 733 1225Q782 1217 829 1190Q872 1165 897 1126Q922 1085 922 1026Z" />
<glyph unicode="3" glyph-name="three" horiz-adv-x="966" d="M872 1001Q872 942 856 901Q838 855 807 815Q782 782 733 748Q698 723 643 698Q695 692 735 668Q774 645 799 606Q828 563 838 524Q850 479 850 428Q850 336 809 250Q768 166 700 104Q634 45 541 6Q452
-31 350 -31Q316 -31 270 -18Q219 -4 178 14Q127 39 86 68Q43 99 8 139L68 246Q146 176 213 150Q285 123 354 123Q397 123 438 141T510 197Q539 230 557 285Q575 337 575 401Q575 501 530 547Q483 594 412 594H391Q389 594 383 593T375 592T367 591T356 590Q354
590 334 586L328 686Q604 754 604 989Q604 1055 584 1081Q561 1110 520 1110Q500 1110 475 1100Q453 1091 438 1069Q420 1044 416 1020Q410 985 412 952Q404 948 387 940T360 928Q340 918 295 901Q261 889 227 883Q182 875 170 874L145 944Q151 993 186 1038Q227
1093 281 1133Q342 1178 413 1206T575 1235Q663 1235 721 1217Q774 1201 811 1163Q842 1132 858 1087Q872 1046 872 1001Z" />
<glyph unicode="4" glyph-name="four" horiz-adv-x="966" d="M911 451L883 416Q867 398 852 383L821 352Q817 348 808 341T795 330H737L711 143Q711 133 715 129Q725 119 733 115Q737 113 770 100Q774 98 834 84L821 0H256L266 84Q352 102 367 104Q422 116 430
121Q459 133 463 137Q471 145 471 156L496 330H61L27 373L578 1163L635 1182Q651 1188 666 1194T698 1204L764 1225Q782 1231 795 1236T819 1245L856 1200L758 481H891L911 451ZM256 481H516L582 961L256 481Z" />
<glyph unicode="5" glyph-name="five" horiz-adv-x="966" d="M948 1184Q934 1164 915 1139L868 1085Q860 1075 848 1062T823 1036Q796 1009 788 1004H377Q365 945 362 940Q358 922 353 906T344 872Q340 852 335 836T326 807T318 777T311 754Q346 774 406 786Q474
800 522 801Q608 801 676 772Q735 747 780 698Q819 657 842 594Q862 539 862 477Q862 414 848 356Q832 286 807 240Q776 177 737 133Q692 80 641 47Q590 12 514 -10Q446 -30 362 -31Q309 -31 270 -20Q215 -6 176 12Q129 35 88 63Q41 98 10 133L72 231Q146 178 156
172Q203 147 231 137Q284 119 299 117Q322 113 365 113Q416 113 455 135Q500 162 532 203Q565 246 584 301Q604 367 604 424Q604 471 592 512Q580 555 555 581T496 625Q465 639 420 639Q340 639 279 615T166 551L123 584L152 670L182 776Q190 807 198 837T213 895Q217
911 228 951T244 1012Q252 1041 257 1067T268 1118Q278 1159 287 1204H805Q836 1204 850 1206T885 1212Q901 1214 915 1223L948 1184Z" />
<glyph unicode="6" glyph-name="six" horiz-adv-x="966" d="M506 639Q473 639 426 610Q385 585 334 535Q330 508 326 455Q324 428 324 373Q324 299 336 248Q350 189 365 164Q385 129 410 119Q439 107 467 106Q494 106 520 123Q543 137 563 168Q581 197 594 231Q610
280 616 305T627 381Q631 434 631 453Q631 516 621 547Q609 586 592 604Q576 624 551 631Q522 639 506 639ZM899 1151Q784 1131 692 1085Q598 1040 539 983Q478 924 432 848Q389 774 365 688Q435 743 485 764Q553 791 598 791Q664 791 721 768Q772 748 815 705Q850
670 874 606Q897 549 897 483Q897 424 883 369Q869 316 840 254Q815 201 772 145Q735 96 678 53Q625 12 563 -8Q495 -31 426 -31Q350 -31 281 -2Q220 23 164 78Q113 129 82 201Q53 267 53 360Q53 466 78 571Q103 680 147 768Q196 864 264 942Q336 1022 428 1087Q510
1144 635 1192Q744 1233 887 1249L899 1151Z" />
<glyph unicode="7" glyph-name="seven" horiz-adv-x="966" d="M1006 1167L891 950L782 735L682 528L592 342Q576 307 556 264T516 180L461 53Q443 41 412 29Q400 25 377 18T346 6Q317 -4 281 -14Q271 -16 251 -22T223 -31L180 12L305 205Q397 352 414 377L508
535Q533 578 555 618T594 688L680 842L768 1006H344Q334 1006 313 1001Q297 997 276 981Q264 971 236 932Q209 895 182 840L115 868L127 909Q135 936 143 968T162 1036T180 1104Q196 1161 197 1163Q201 1171 205 1185T211 1204H979L1006 1167Z" />
<glyph unicode="8" glyph-name="eight" horiz-adv-x="966" d="M418 940Q418 903 430 879Q444 850 463 831Q477 817 514 793Q537 779 575 760Q615 800 643 852Q674 909 674 974T643 1075T555 1110Q524 1110 502 1096Q475 1080 459 1057Q441 1032 428 1001Q418 975
418 940ZM623 342Q623 383 608 426Q598 459 571 487Q551 510 516 535Q487 553 453 573Q412 532 395 510Q366 469 350 438Q332 403 319 360Q307 320 307 274Q307 233 319 199T350 143Q366 123 393 111Q413 101 444 100Q483 100 516 121Q553 146 573 176Q596 213
608 254Q623 303 623 342ZM934 1001Q934 952 911 907Q895 874 854 829Q821 794 776 762Q719 721 690 705Q733 682 768 655Q813 622 834 594Q861 557 879 510Q897 461 897 397Q897 317 854 236T748 98Q678 37 592 4Q504 -31 412 -31Q314 -31 240 -8Q169 14 123 53Q78
92 56 143T33 250Q33 316 59 369Q92 432 129 473Q172 519 227 559Q274 594 342 629Q309 645 276 670Q247 690 221 723Q198 752 182 793Q170 826 170 889Q170 965 205 1026Q242 1089 301 1134T444 1208Q522 1235 614 1235Q698 1235 759 1217T858 1169Q897 1140 915
1096Q934 1052 934 1001Z" />
<glyph unicode="9" glyph-name="nine" horiz-adv-x="966" d="M473 575Q528 575 573 602Q612 627 657 674Q667 766 668 856Q668 936 659 977Q650 1023 635 1051Q619 1080 596 1090Q571 1100 547 1100Q496 1100 459 1069Q424 1040 401 989Q383 946 373 883Q363 817
362 770Q362 721 373 680Q381 649 399 618Q413 595 434 585T473 575ZM942 862Q942 692 889 537Q838 387 730 262T467 59Q307 -23 100 -43L86 55Q213 84 299 125Q399 172 457 223Q525 284 565 354Q608 426 633 522Q578 473 516 444Q450 413 381 414Q309 414 252
440Q199 465 164 510Q130 553 115 608Q99 667 98 725Q98 815 135 907Q168 989 240 1071Q301 1141 395 1190Q483 1235 590 1235Q668 1235 735 1212Q800 1190 846 1145Q893 1098 918 1028Q942 957 942 862Z" />
<glyph unicode=":" glyph-name="colon" horiz-adv-x="499" d="M467 848Q467 819 453 776Q441 737 416 711Q389 682 354 664Q313 644 268 643Q196 643 166 678Q133 715 133 764Q133 801 147 831Q163 866 188 895Q215 924 250 942Q287 960 334 961Q402 961 434 928T467
848ZM373 172Q373 137 360 100Q348 65 324 37Q295 6 260 -12Q223 -30 174 -31Q104 -31 74 2Q41 39 41 88Q41 125 55 156Q73 197 94 219Q123 250 158 268Q195 286 242 287Q308 287 340 254T373 172Z" />
<glyph unicode=";" glyph-name="semicolon" horiz-adv-x="499" d="M469 848Q469 819 455 776Q443 737 418 711Q391 682 356 664Q315 644 270 643Q198 643 168 678Q135 715 135 764Q135 801 150 831Q166 866 190 895Q217 924 252 942Q289 960 336 961Q404 961 436
928T469 848ZM399 123Q399 78 383 25T340 -76Q312 -125 279 -174Q250 -215 205 -264Q162 -311 127 -340Q87 -374 53 -395L-10 -340Q39 -287 57 -258Q90 -207 104 -176Q124 -133 133 -98Q143 -57 143 -31Q143 -19 135 6Q127 29 115 41Q99 57 80 66Q58 75 31 72L27
160Q31 162 61 180Q75 188 112 204T170 229Q178 233 189 236T213 244T231 250Q243 254 285 264Q301 268 326 268Q367 241 381 217Q399 184 399 123Z" />
<glyph unicode="&lt;" glyph-name="less" horiz-adv-x="899" d="M866 893L856 862L840 821Q836 811 833 802T825 782Q823 776 818 766T813 754L322 569L772 383L791 336Q787 332 781 327T766 313L737 285Q735 283 705 258Q685 242 674 236L86 479L59 524Q61 530
65 538T72 555Q78 571 86 589T102 625Q106 637 115 653L840 928L866 893Z" />
<glyph unicode="=" glyph-name="equal" horiz-adv-x="899" d="M850 756Q848 748 838 727Q836 721 830 710T819 692T810 677T801 659Q787 636 786 635H106L82 670Q86 686 92 696T111 731Q115 737 118 743T123 753T129 764Q137 780 143 791H823L850 756ZM809 457Q807
449 797 428Q795 422 789 411T778 393Q768 375 760 358Q758 354 753 347T745 336H66L41 369Q45 389 51 397Q63 417 70 430Q80 448 88 465Q90 469 102 489H782L809 457Z" />
<glyph unicode="&gt;" glyph-name="greater" horiz-adv-x="899" d="M831 639Q823 619 819 606Q815 596 805 571Q797 553 788 537Q784 527 776 510L51 236L25 270L35 301L51 342Q53 346 58 359T67 381T75 397T80 410L569 594L119 780L100 827Q104 831 111 836T127
850L156 879Q166 889 186 905T217 928L805 682L831 639Z" />
<glyph unicode="?" glyph-name="question" horiz-adv-x="899" d="M543 172Q543 137 530 100Q518 65 494 37Q465 6 430 -12Q393 -30 344 -31Q274 -31 244 2Q211 39 211 88Q211 125 225 156Q243 197 264 219Q293 250 328 268Q365 286 412 287Q478 287 510 254T543
172ZM920 1186Q920 1103 889 1038Q852 962 815 918Q776 873 717 815Q705 803 685 785T648 751T616 721Q555 655 532 621Q497 568 489 506L479 420Q463 410 455 406Q451 404 441 399T424 391L391 379Q366 369 365 369L342 389L346 514Q349 575 371 631Q391 682 426
733Q471 799 496 829Q545 890 565 922Q596 967 618 1020Q638 1067 639 1128Q639 1155 631 1200Q625 1237 610 1260Q592 1289 575 1300Q555 1314 524 1315Q491 1315 473 1298Q446 1275 436 1249T422 1178Q418 1137 428 1087Q420 1083 399 1076T371 1067Q330 1053
299 1044Q244 1030 229 1028Q219 1026 209 1025T188 1022T172 1020L141 1061Q141 1124 176 1190Q211 1258 274 1309Q346 1366 426 1397Q512 1430 621 1430Q693 1430 748 1411Q807 1391 842 1360T899 1282Q920 1241 920 1186Z" />
<glyph unicode="@" glyph-name="at" horiz-adv-x="1728" d="M948 334Q950 369 961 426Q965 451 970 479T979 537L997 645Q1001 665 1006 696T1012 733Q998 747 965 768Q945 780 918 780Q881 780 850 762T793 711Q775 688 752 639Q742 616 723 553Q711 510 705
463Q699 418 699 379T707 287Q713 254 723 223Q731 203 745 188Q757 176 768 176Q782 176 799 184Q817 194 838 211Q877 244 889 258Q923 297 948 334ZM1659 549Q1645 455 1612 385Q1573 303 1526 242T1418 125T1300 35Q1241 -2 1188 -20Q1127 -40 1094 -41Q1078
-41 1059 -33T1018 -2Q1000 16 979 61Q963 98 952 162Q927 123 893 84Q858 47 821 18Q786 -9 745 -25Q706 -41 676 -41Q639 -41 600 -23T524 39Q489 78 465 145Q442 204 442 305Q442 385 463 459Q490 551 520 604Q561 676 614 733Q665 790 739 842Q751 850 805
877Q844 895 881 907Q914 917 958 928Q993 936 1030 936Q1070 936 1110 918Q1176 887 1186 881L1255 909Q1261 913 1283 922T1315 936L1350 860Q1325 840 1321 836Q1307 822 1300 811Q1290 793 1284 774Q1278 749 1272 721Q1268 703 1245 584Q1227 492 1225 465Q1215
377 1214 371Q1210 318 1210 309Q1210 248 1227 215Q1241 184 1266 184Q1315 184 1356 262Q1395 336 1419 510Q1444 682 1417 805Q1390 924 1323 1012Q1262 1090 1161 1133Q1063 1174 954 1174Q833 1174 729 1120Q623 1065 541 975Q455 881 401 760Q346 637 328
504Q310 379 324 283Q340 181 375 104Q410 30 469 -33Q518 -84 594 -129Q657 -166 739 -186Q825 -206 893 -207Q930 -207 1004 -195Q1063 -185 1110 -168Q1171 -145 1208 -129Q1269 -100 1296 -86Q1327 -70 1368 -41Q1411 -10 1421 -2L1458 -106Q1409 -155 1358
-193Q1293 -239 1210 -279Q1118 -324 1026 -348Q928 -375 809 -375Q688 -375 588 -348Q475 -317 393 -270Q297 -215 233 -147Q161 -73 119 20Q74 114 59 225Q43 346 59 465Q75 576 119 686Q164 799 229 891Q292 979 383 1067Q469 1150 573 1208T795 1300Q908 1333
1038 1333Q1179 1333 1309 1280Q1436 1227 1520 1128Q1608 1024 1647 883Q1686 735 1659 549Z" />
<glyph unicode="A" glyph-name="A" horiz-adv-x="1208" d="M371 424L250 152Q238 121 264 106Q287 94 369 84L358 0H-55L-43 84Q22 96 55 109Q90 121 102 152L563 1196Q604 1229 625 1239Q648 1251 692 1272Q723 1286 758 1298Q770 1302 790 1308T819 1317L1051
152Q1053 138 1059 127Q1065 115 1075 107T1106 92Q1120 88 1153 84L1143 0H657L668 84Q748 90 768 102Q797 118 791 152L737 424H371ZM713 555L623 1004L428 555H713Z" />
<glyph unicode="B" glyph-name="B" horiz-adv-x="1112" d="M532 1176L471 745H506Q557 745 600 760Q653 778 686 803Q721 830 748 879Q773 926 772 987Q772 1040 754 1077Q738 1112 707 1135Q676 1160 641 1167Q608 1175 571 1176H532ZM557 629H522Q512 629 496
625Q492 625 485 624T473 621Q471 619 465 619T455 616L387 143Q385 137 403 121Q438 105 471 98Q508 92 547 92Q602 92 647 115Q694 138 721 174Q750 211 764 262Q778 311 778 375Q778 420 768 471Q760 514 731 553Q706 587 664 608Q623 629 557 629ZM1055 410Q1055
312 1012 231Q969 153 893 92Q823 37 719 2Q621 -31 502 -31H451Q435 -31 385 -27Q367 -27 349 -25T309 -20Q297 -20 272 -19T233 -16Q182 -12 45 0H-10L-4 84Q66 100 92 113Q123 127 127 143L268 1159Q258 1157 233 1154T195 1149T161 1142T131 1135V1227Q172
1237 233 1251Q270 1259 352 1272Q362 1274 481 1284Q549 1290 618 1290Q837 1290 942 1223Q1048 1153 1049 1040Q1049 936 983 852Q918 769 786 723Q843 717 895 688Q948 659 979 618Q1014 573 1034 525T1055 410Z" />
<glyph unicode="C" glyph-name="C" horiz-adv-x="1054" d="M1096 1190Q1098 1188 1092 1169Q1088 1157 1073 1128Q1065 1112 1045 1075T1014 1022Q994 989 983 975Q965 948 961 946L891 965Q875 1010 862 1032Q842 1069 819 1092Q794 1119 760 1133Q723 1149 686
1149Q645 1149 615 1141T541 1100Q482 1055 436 977Q397 909 371 821Q348 743 338 659Q328 571 328 516Q328 403 354 336Q379 270 424 223Q461 182 512 164Q561 146 602 145Q629 145 659 152Q708 162 731 170Q771 185 823 213Q868 236 938 287Q942 285 948 272Q950
268 954 261T960 250T971 225Q973 215 977 211Q914 148 842 98Q772 51 711 25Q648 -2 592 -14Q534 -26 487 -27Q395 -27 317 6Q237 39 180 100Q125 157 90 252Q55 344 55 459Q55 557 75 651T137 840Q176 932 240 1016Q299 1096 387 1167Q432 1202 469 1219Q526
1246 565 1257Q616 1273 666 1282Q713 1290 764 1290Q819 1290 862 1282Q895 1276 956 1260Q999 1248 1038 1229Q1076 1210 1096 1190Z" />
<glyph unicode="D" glyph-name="D" horiz-adv-x="1236" d="M594 1176Q574 1176 564 1174T535 1171L399 170Q395 139 422 127Q447 115 514 115T639 139Q690 159 743 211Q792 256 827 315Q860 370 887 442Q907 499 922 584Q936 670 936 727Q936 835 918 918Q900
998 858 1059Q819 1116 754 1147Q694 1176 594 1176ZM1217 756Q1217 672 1194 578Q1171 482 1130 403Q1083 311 1028 246Q969 174 889 117Q813 62 719 31Q627 0 520 0H-10L0 84Q70 100 96 113Q127 127 131 143L270 1149L133 1126V1229Q149 1233 256 1253Q299 1261
385 1274Q448 1282 512 1286Q594 1290 627 1290Q783 1290 893 1253Q1008 1216 1075 1147Q1149 1073 1182 979Q1217 879 1217 756Z" />
<glyph unicode="E" glyph-name="E" horiz-adv-x="1028" d="M977 324Q963 252 956 231L932 133L911 51Q905 24 895 0H-10L0 84Q78 102 100 113Q131 127 135 143L268 1114Q271 1126 244 1145Q219 1161 152 1178L162 1260H1006L1040 1225Q1038 1217 1036 1208T1031
1183T1026 1157Q1020 1128 1004 1071Q1000 1059 993 1030T981 987Q965 934 963 930H883Q891 1022 879 1077Q867 1130 834 1130H530L475 735H844L872 696Q870 692 850 664L821 623Q809 607 793 586Q775 563 768 559Q752 579 741 586Q721 598 707 602Q680 610 657
612Q639 614 592 614H459L401 195Q399 183 406 168Q412 156 428 147Q446 139 485 135Q559 129 584 129H666Q705 129 741 143Q776 157 801 182Q828 209 852 252Q872 289 903 352L977 324Z" />
<glyph unicode="F" glyph-name="F" horiz-adv-x="972" d="M846 696L837 682Q828 668 821 659L793 618Q789 614 781 602T766 584Q748 566 739 559Q721 582 715 586Q695 598 680 602Q653 610 631 612Q613 614 563 614H459L395 143Q395 135 399 131Q407 123 422 117Q442
109 467 100Q479 96 541 84L530 0H-10L0 84Q78 102 100 113Q131 127 135 143L268 1114Q271 1126 244 1145Q219 1161 152 1178L162 1260H1014L1047 1225Q1044 1200 1034 1157Q1022 1100 1014 1071Q1010 1059 1003 1030T991 987Q979 944 971 930H891Q901 1028 889
1077Q877 1130 842 1130H530L475 735H815L846 696Z" />
<glyph unicode="G" glyph-name="G" horiz-adv-x="1134" d="M1141 549Q1088 535 1063 512T1034 467Q1028 412 1026 397Q1022 360 1016 313Q1010 270 1006 231Q1002 190 999 174Q923 115 856 74Q793 37 731 10Q678 -13 623 -23Q580 -31 532 -31Q438 -31 352 6Q264
43 201 111Q133 183 94 276Q55 372 55 494Q55 584 78 680Q101 774 137 852Q178 938 231 1006Q290 1082 350 1133Q395 1172 440 1198T543 1247Q594 1267 662 1280Q715 1290 803 1290Q826 1290 887 1282Q938 1276 981 1264Q1016 1254 1067 1231Q1112 1211 1135 1188Q1139
1184 1133 1167Q1129 1155 1114 1126L1087 1073Q1081 1063 1069 1045T1053 1020Q1043 1004 1022 975Q1006 952 997 946L930 963Q912 1010 896 1038T846 1100Q815 1131 776 1145Q733 1161 686 1161Q645 1161 594 1139Q551 1121 496 1065Q457 1024 430 969Q391 893
375 834Q346 736 338 684Q326 607 326 537Q326 431 350 354Q373 284 418 229Q455 184 510 160Q561 137 610 137Q635 137 672 143Q707 149 743 176L786 467Q786 481 784 487Q780 499 760 508Q737 518 696 526Q630 540 580 549L586 633H1147L1141 549Z" />
<glyph unicode="H" glyph-name="H" horiz-adv-x="1327" d="M664 1178Q586 1160 563 1147Q532 1131 528 1114L473 725H930L983 1114Q983 1128 959 1144T866 1178L879 1260H1391L1378 1178Q1304 1160 1280 1147Q1245 1129 1243 1114L1110 143Q1108 133 1137 115Q1157
101 1229 84L1219 0H707L717 84Q791 102 815 113Q849 128 852 143L913 596H457L395 143Q393 133 420 115Q443 101 512 84L502 0H-10L0 84Q78 102 100 113Q131 127 135 143L268 1114Q271 1126 244 1145Q219 1161 152 1178L162 1260H674L664 1178Z" />
<glyph unicode="I" glyph-name="I" horiz-adv-x="651" d="M682 1178Q608 1160 584 1147Q553 1131 549 1114L416 143Q414 133 440 115Q460 101 532 84L520 0H10L20 84Q94 102 119 113Q150 127 154 143L287 1114Q290 1126 262 1145Q237 1161 170 1178L182 1260H692L682
1178Z" />
<glyph unicode="J" glyph-name="J" horiz-adv-x="657" d="M707 1178Q633 1160 608 1147Q573 1129 571 1114L451 205Q437 96 401 16Q368 -60 326 -119Q281 -180 238 -217Q197 -252 150 -289Q130 -305 86 -330Q47 -353 10 -367Q-30 -382 -70 -391Q-115 -401 -145
-401Q-184 -401 -223 -389Q-270 -375 -295 -362Q-328 -346 -344 -330Q-364 -310 -365 -301Q-365 -291 -352 -276Q-348 -270 -338 -259T-322 -242L-281 -201Q-267 -187 -238 -162Q-224 -150 -199 -133Q-181 -121 -172 -121Q-162 -121 -147 -135Q-143 -139 -136 -145T-120
-159T-106 -170Q-88 -186 -57 -203Q-30 -217 0 -217Q29 -217 49 -207Q78 -193 96 -160Q119 -121 139 -53Q162 19 176 133L311 1114Q311 1124 307 1128T283 1143Q271 1149 233 1159Q194 1169 147 1178L158 1260H719L707 1178Z" />
<glyph unicode="K" glyph-name="K" horiz-adv-x="1236" d="M664 1178Q586 1160 563 1147Q532 1131 528 1114L467 664L858 1087Q864 1095 878 1109T897 1130Q909 1144 905 1155Q901 1167 885 1169Q842 1175 829 1178L842 1260H1270L1257 1178Q1245 1176 1228 1173T1206
1169Q1188 1167 1169 1159Q1163 1157 1153 1150T1141 1141Q1135 1137 1125 1128T1110 1114L653 678L1010 217Q1020 203 1044 197Q1064 191 1092 190Q1108 190 1145 199Q1178 207 1194 213L1223 131Q1190 102 1149 80Q1108 60 1055 35Q1000 10 963 0Q914 -14 897
-14Q870 -14 850 -4T815 29L461 621L395 143Q393 133 420 115Q443 101 512 84L502 0H-10L0 84Q78 102 100 113Q131 127 135 143L268 1114Q271 1126 244 1145Q219 1161 152 1178L162 1260H674L664 1178Z" />
<glyph unicode="L" glyph-name="L" horiz-adv-x="1017" d="M969 324Q967 310 946 231Q940 208 935 183T924 133Q920 119 901 51Q891 10 887 0H-10L0 84Q78 102 100 113Q131 127 135 143L268 1114Q271 1126 244 1145Q219 1161 152 1178L162 1260H674L664 1178Q586
1160 563 1147Q532 1131 528 1114L403 205Q401 187 407 173T432 150Q448 142 483 135Q516 129 565 129H662Q701 129 735 143T793 182Q826 219 844 252Q864 289 895 352L969 324Z" />
<glyph unicode="M" glyph-name="M" horiz-adv-x="1636" d="M1665 1178Q1624 1178 1544 1151L1415 143Q1413 137 1420 131T1446 115Q1469 103 1542 84L1532 0H1026L1038 84Q1112 102 1141 113Q1178 127 1182 143L1280 922L764 0H662L408 922L293 143Q291 133 317
115Q337 101 410 84L399 0H6L16 84Q94 102 117 113Q148 127 152 143L297 1145Q270 1163 236 1169Q195 1177 176 1178L188 1260H528Q540 1260 545 1257Q553 1253 559 1245Q563 1239 571 1219L586 1176L809 365L1266 1176Q1284 1213 1292 1223Q1308 1243 1312 1247T1329
1257Q1333 1259 1346 1260H1675L1665 1178Z" />
<glyph unicode="N" glyph-name="N" horiz-adv-x="1271" d="M1358 1178Q1290 1168 1257 1149Q1226 1131 1223 1114L1067 -31Q1020 -29 977 -14Q930 0 906 12T856 49Q833 72 823 90L393 895L291 143Q291 135 295 129T313 113Q315 111 350 96Q358 92 408 84L397 0H-2L8
84Q80 94 109 111Q140 129 141 143L272 1102Q260 1118 217 1151Q192 1171 158 1178L170 1260H451Q465 1260 471 1257Q483 1253 489 1247Q493 1243 506 1223Q510 1215 516 1205T528 1182L971 352L1075 1114Q1075 1118 1071 1130Q1069 1136 1055 1147Q1053 1149 1018
1163Q1002 1171 958 1178L969 1260H1368L1358 1178Z" />
<glyph unicode="O" glyph-name="O" horiz-adv-x="1189" d="M911 756Q911 836 895 913Q881 987 850 1040Q821 1093 774 1124Q729 1155 672 1155Q617 1155 569 1126Q526 1099 487 1049Q450 1000 424 939T379 805Q359 725 350 666Q342 603 342 532Q342 432 356 360Q372
278 401 227Q432 172 475 142T575 111Q636 111 682 139Q733 170 768 221Q803 270 831 338Q856 393 877 475Q893 536 903 621Q911 686 911 756ZM1180 774Q1180 700 1165 631Q1147 547 1126 485Q1106 428 1063 348Q1030 287 981 225Q936 168 885 125Q819 70 770 43Q719
14 643 -10Q582 -30 512 -31Q412 -31 326 10Q246 49 186 121Q133 187 100 287Q69 381 70 485Q70 642 119 774Q168 909 248 1018Q299 1084 342 1124Q393 1171 457 1210Q516 1247 590 1268Q668 1291 745 1290Q849 1290 936 1249Q1012 1212 1071 1137Q1126 1067 1153
973Q1180 880 1180 774Z" />
<glyph unicode="P" glyph-name="P" horiz-adv-x="1093" d="M1124 1028T1124 942T1087 780Q1050 702 985 643Q922 586 834 551Q740 514 653 514Q620 514 575 524Q538 532 510 549L492 664Q521 652 551 639Q574 631 612 631Q727 631 788 702Q851 776 852 905Q852
991 828 1042T764 1124Q727 1153 672 1165Q629 1175 565 1176H553H541L397 143Q395 137 401 131T424 117Q434 111 471 100Q479 98 549 84L539 0H-10L0 84Q70 100 96 113Q127 127 131 143L270 1151L201 1139Q185 1135 166 1131T131 1124V1225Q174 1237 244 1251Q291
1261 369 1272Q387 1274 408 1276T454 1280T494 1284Q555 1290 608 1290Q727 1290 827 1268Q923 1245 989 1202Q1057 1157 1090 1094Q1124 1028 1124 942Z" />
<glyph unicode="Q" glyph-name="Q" horiz-adv-x="1220" d="M911 756Q911 836 895 913Q881 987 850 1040Q821 1093 774 1124Q729 1155 672 1155Q617 1155 569 1126Q526 1099 487 1049Q450 1000 424 939T379 805Q359 725 350 666Q342 603 342 532Q342 432 356 360Q372
278 401 227Q432 172 475 142T575 111Q636 111 682 139Q733 170 768 221Q803 270 831 338Q856 393 877 475Q893 536 903 621Q911 686 911 756ZM1303 -127Q1272 -174 1243 -209Q1208 -250 1182 -274Q1143 -309 1126 -319Q1099 -335 1087 -336Q1044 -336 999 -319Q970
-309 913 -276Q882 -258 829 -217Q821 -211 746 -150T662 -82Q633 -59 575 -27Q563 -29 543 -29Q539 -29 529 -30T512 -31Q412 -31 326 10Q246 49 186 121Q133 187 100 287Q69 381 70 485Q70 642 119 774Q168 909 248 1018Q299 1084 342 1124Q393 1171 457 1210Q516
1247 590 1268Q668 1291 745 1290Q849 1290 936 1249Q1012 1212 1071 1137Q1126 1067 1153 973Q1180 881 1180 774Q1180 700 1165 631Q1147 547 1126 485Q1106 428 1063 348Q1030 287 981 226T877 117Q814 64 752 33Q789 21 854 -12L946 -63Q999 -92 1034 -104Q1079
-120 1122 -121Q1128 -121 1144 -117T1171 -109Q1175 -107 1179 -105T1187 -100T1196 -94T1206 -88T1260 -51L1303 -127Z" />
<glyph unicode="R" glyph-name="R" horiz-adv-x="1165" d="M1188 119Q1143 92 1100 70Q1047 43 1006 27Q986 19 924 -2Q887 -14 874 -14Q864 -14 840 -10Q824 -8 807 8Q789 26 774 49Q754 82 741 117L578 578Q539 578 518 580Q493 582 459 590L397 143Q395 133
426 115Q449 101 520 84L510 0H-10L0 84Q70 100 96 113Q127 127 131 143L268 1151Q229 1145 195 1139Q183 1137 160 1132T129 1124L131 1227Q184 1241 233 1251Q276 1259 356 1272Q366 1274 492 1284Q562 1290 629 1290Q856 1290 971 1208Q1088 1126 1087 971Q1087
920 1067 866Q1044 809 1004 762Q961 713 901 672Q840 629 770 606L985 223Q995 205 1014 190Q1028 178 1049 176Q1067 174 1096 180Q1139 190 1159 197L1188 119ZM578 1176H557H537L475 713Q489 709 518 705Q532 703 565 702Q610 702 659 719Q704 733 739 766Q773
797 795 840Q815 881 815 942Q815 1012 793 1061Q773 1106 736 1132T660 1167T578 1176Z" />
<glyph unicode="S" glyph-name="S" horiz-adv-x="999" d="M991 1198Q995 1194 991 1178Q989 1168 977 1139T954 1090Q946 1074 926 1040L899 999Q889 983 881 979L811 985Q797 1040 780 1067Q760 1100 733 1122Q704 1147 678 1155Q643 1165 616 1165Q565 1165
530 1151Q487 1133 471 1114Q451 1091 438 1059Q426 1028 426 995Q426 981 434 948Q440 925 463 899Q479 879 526 844Q565 815 633 780Q709 741 770 700Q838 655 866 621Q903 578 921 533T940 430Q940 335 897 252Q854 170 783 107T610 6Q512 -31 397 -31Q340 -31
277 -19T152 16Q105 34 55 68Q16 95 16 125Q16 137 25 156Q31 170 47 199Q61 226 78 246Q92 264 113 289Q127 305 147 322Q163 334 173 334T201 317Q209 309 233 276Q247 258 276 225Q309 188 330 172Q365 143 395 131Q430 117 475 117T557 131Q604 149 627 172Q654
199 672 240Q688 275 688 330Q688 377 674 412Q656 455 625 485Q591 519 539 553Q504 576 410 621Q340 654 299 686Q262 715 233 758Q206 797 199 838Q189 885 188 928Q188 994 223 1059Q257 1124 322 1176Q383 1225 477 1257T680 1290Q780 1290 862 1262T991 1198Z"
/>
<glyph unicode="T" glyph-name="T" horiz-adv-x="1122" d="M782 0H236L248 84Q293 94 319 102Q350 112 367 121Q385 130 391 139Q399 151 399 156L532 1130H311Q299 1130 283 1118Q273 1110 252 1079Q236 1054 213 1010L162 909L88 938L104 1012L127 1102L152
1192Q168 1247 172 1260H1186L1219 1225Q1219 1217 1204 1159Q1192 1106 1184 1077L1161 993Q1157 981 1151 956T1141 920H1061Q1057 981 1057 1006Q1057 1035 1053 1071Q1050 1099 1040 1114Q1030 1130 1012 1130H795L662 156Q662 148 666 141Q674 129 684 123Q707
109 725 102Q748 94 795 84L782 0Z" />
<glyph unicode="U" glyph-name="U" horiz-adv-x="1280" d="M1339 1178Q1271 1162 1247 1147Q1216 1129 1214 1114L1130 512Q1112 380 1063 279Q1014 177 942 109Q872 43 780 4Q696 -31 592 -31Q512 -31 434 -6Q357 19 299 68Q240 117 207 186Q170 264 170 348Q170
395 180 463L272 1114Q272 1126 248 1145Q225 1161 158 1178L170 1260H674L664 1178Q592 1162 567 1147Q532 1129 530 1114L442 510Q438 494 434 453Q432 435 432 397Q432 258 491 193T674 127Q742 127 786 151T866 223Q897 266 917 331T946 469L1038 1114Q1038
1122 1034 1128T1016 1145Q1008 1151 983 1161T930 1178L940 1260H1352L1339 1178Z" />
<glyph unicode="V" glyph-name="V" horiz-adv-x="1255" d="M1356 1178Q1303 1168 1253 1151Q1214 1139 1202 1110L717 88Q707 65 682 47Q662 33 627 14Q600 2 563 -12T504 -31L233 1110Q227 1137 201 1153Q176 1169 119 1178L129 1260H629L616 1178Q538 1172 516
1157Q491 1141 498 1112L682 313L1055 1110Q1061 1126 1061 1136T1047 1153Q1024 1163 1012 1167L950 1178L963 1260H1366L1356 1178Z" />
<glyph unicode="W" glyph-name="W" horiz-adv-x="1601" d="M1710 1178Q1665 1168 1638 1159Q1632 1157 1625 1155T1614 1151T1605 1148T1595 1145Q1587 1143 1571 1130Q1565 1126 1561 1114L1202 59Q1196 37 1178 23Q1158 7 1135 -4Q1110 -14 1090 -20Q1061 -28
1051 -31L850 854L475 59Q467 39 446 23Q432 11 403 -2Q366 -18 356 -20Q319 -28 313 -31L227 1108Q223 1133 199 1149Q172 1165 109 1178L121 1260H594L582 1178Q533 1172 510 1165Q483 1159 471 1149Q461 1141 457 1128Q455 1122 455 1108L512 430L889 1260H995L1188
430L1421 1114Q1425 1128 1417 1137Q1409 1143 1389 1151Q1385 1153 1377 1156T1361 1161T1346 1165Q1330 1169 1288 1178L1298 1260H1720L1710 1178Z" />
<glyph unicode="X" glyph-name="X" horiz-adv-x="1224" d="M1128 0H608L618 84Q655 86 686 94T725 109Q737 118 737 133Q737 143 727 168L565 487L317 168Q299 146 293 131Q287 117 295 106Q299 98 324 92Q340 88 389 84L379 0H-41L-29 84Q39 90 76 106Q119 124
152 168L498 625L262 1094Q244 1127 242 1128Q232 1140 215 1151Q195 1163 180 1167L129 1178L141 1260H672L662 1178Q584 1170 555 1154T549 1094L690 811L897 1094Q911 1110 920 1130Q926 1144 918 1155Q914 1161 887 1169Q871 1173 823 1178L836 1260H1255L1245
1178Q1218 1176 1184 1167Q1161 1163 1135 1151Q1110 1141 1096 1128Q1076 1112 1063 1094L758 678L1014 168Q1032 137 1036 131Q1050 113 1061 106Q1073 98 1094 92Q1106 88 1141 84L1128 0Z" />
<glyph unicode="Y" glyph-name="Y" horiz-adv-x="1177" d="M825 0H276L287 84Q332 94 358 102Q389 112 406 121Q418 127 430 139Q440 149 440 156L492 528Q474 594 438 690Q397 801 377 852Q342 938 315 997Q299 1032 258 1110Q250 1126 246 1130Q238 1138 223
1145Q211 1149 184 1153Q168 1155 123 1155L129 1239Q158 1243 195 1249Q242 1257 270 1260Q295 1262 340 1266T391 1270Q419 1270 446 1257Q473 1245 487 1221Q516 1168 543 1108Q594 989 600 973Q633 887 653 825Q659 802 676 752T702 678L969 1110Q985 1137
965 1151Q940 1169 874 1178L885 1260H1280L1270 1178Q1200 1166 1174 1151Q1143 1135 1126 1110L750 516L700 156Q700 148 705 141Q711 131 725 123Q748 109 768 102Q801 92 836 84L825 0Z" />
<glyph unicode="Z" glyph-name="Z" horiz-adv-x="1077" d="M344 139H748Q768 139 786 158Q809 181 823 207Q835 227 862 287L909 397L995 373Q989 340 981 289Q977 266 972 240T963 184Q955 129 946 80Q938 35 934 0H41L10 55L770 1120H428Q413 1120 391 1102Q375
1088 346 1049Q321 1016 301 971Q274 916 260 872L174 895L262 1276Q297 1268 307 1266Q336 1262 346 1262Q352 1262 366 1261T387 1260H1075L1100 1206L344 139Z" />
<glyph unicode="[" glyph-name="bracketleft" horiz-adv-x="768" d="M870 1563Q868 1559 865 1550T860 1534T844 1499Q838 1487 825 1466Q821 1460 817 1455T813 1448H553L330 -180H586L625 -219Q623 -225 614 -246L598 -279L582 -311L569 -336H66L338 1599H834L870
1563Z" />
<glyph unicode="\" glyph-name="backslash" horiz-adv-x="868" d="M696 -336Q686 -332 659 -324Q645 -320 632 -314T606 -303Q596 -299 577 -292T553 -283Q530 -275 520 -264L135 1567L182 1599Q194 1597 221 1587Q246 1579 272 1569L322 1550Q340 1544 358 1530L741
-301L696 -336Z" />
<glyph unicode="]" glyph-name="bracketright" horiz-adv-x="704" d="M449 -336H-47L-86 -297Q-86 -293 -81 -284T-74 -268Q-70 -260 -67 -251T-59 -233Q-51 -217 -43 -203Q-39 -193 -33 -180H229L459 1448H205L166 1483Q168 1491 176 1511T190 1544Q192 1548
205 1577Q209 1587 217 1599H719L449 -336Z" />
<glyph unicode="^" glyph-name="asciicircum" horiz-adv-x="937" d="M854 635Q817 606 801 596Q774 580 743 565L713 592L553 1315L223 635Q221 635 212 627T197 614Q193 610 183 604T166 594Q141 580 137 578Q123 570 113 565L94 592L516 1462Q528 1474 547 1487L584
1511Q609 1527 621 1534L653 1550L854 635Z" />
<glyph unicode="_" glyph-name="underscore" horiz-adv-x="929" d="M811 -166Q807 -182 801 -193Q797 -199 792 -208T782 -227L766 -260Q762 -270 758 -276T752 -287H2L-23 -250Q-21 -244 -12 -223L4 -190Q10 -178 23 -158L39 -131H782L811 -166Z" />
<glyph unicode="`" glyph-name="grave" horiz-adv-x="604" d="M582 1057Q553 1041 535 1032Q523 1026 489 1016L188 1372L231 1427Q262 1435 276 1438Q321 1446 346 1450Q360 1452 383 1457T416 1464Q439 1468 463 1468L582 1057Z" />
<glyph unicode="a" glyph-name="a" horiz-adv-x="1005" d="M578 360Q584 405 590 449Q598 504 604 545Q608 568 611 591T618 637L633 715Q623 725 575 762Q550 780 520 780Q480 780 446 762Q413 744 387 711Q364 682 344 639Q328 604 313 553Q301 510 295 463Q291
432 291 379Q291 327 297 287Q303 248 315 223Q327 200 342 188T373 176Q387 176 403 184Q426 196 449 215Q484 246 506 272Q560 335 578 360ZM1006 119L920 59Q852 16 838 8Q787 -19 768 -27Q733 -41 719 -41T680 -31Q657 -21 635 4Q615 27 596 72Q576 121 569
176Q524 119 500 92Q459 47 426 23Q399 3 346 -23Q306 -41 266 -41Q229 -41 188 -23Q145 -3 113 39Q74 88 55 145Q32 213 33 305Q33 385 53 459Q73 535 113 604Q150 672 205 733Q254 786 332 842Q391 881 463 907Q543 936 633 936Q676 936 715 918Q752 902 793
877Q807 885 834 895T868 907Q915 927 932 936L967 860Q942 840 938 836Q930 828 920 811Q912 799 905 774Q893 729 891 721Q887 703 864 584Q852 518 846 465Q844 449 840 417T834 371Q830 318 829 309Q829 289 834 256Q834 252 846 211Q850 193 862 178Q872 166
885 166Q905 166 926 172Q965 182 989 195L1006 119Z" />
<glyph unicode="b" glyph-name="b" horiz-adv-x="1040" d="M629 743Q621 743 596 733Q582 727 547 696Q531 682 483 627Q454 594 406 516Q404 502 391 397Q385 344 385 315Q385 292 401 264Q416 236 438 215Q456 197 483 180Q506 166 524 166Q569 162 598 182Q631
205 653 240Q669 265 686 303Q698 330 709 379Q721 434 723 457Q725 484 725 530Q725 587 721 614Q715 654 702 682Q688 713 672 727Q652 743 629 743ZM989 610Q986 502 940 395Q893 284 817 188Q801 165 737 102Q696 61 641 29Q584 -4 528 -23Q471 -41 408 -41Q377
-41 352 -31Q325 -21 289 0Q254 18 225 45Q190 76 168 104Q141 137 127 172Q111 211 111 248Q111 271 117 324Q129 424 131 442L154 588L178 748L203 909Q226 1050 225 1057Q227 1073 231 1099T238 1145T242 1182Q248 1237 248 1266Q248 1291 242 1303Q234 1321
229 1323Q221 1329 213 1331Q207 1333 195 1333Q191 1333 170 1329Q160 1327 139 1319Q133 1317 122 1313T104 1307L86 1384Q135 1407 193 1432Q207 1438 307 1475Q356 1493 412 1507Q459 1519 477 1520Q512 1520 524 1502T537 1438Q537 1387 528 1321Q524 1292
516 1231T506 1153Q494 1061 475 956L442 750Q495 811 535 846Q562 869 616 901Q655 924 686 930Q720 936 748 936Q801 936 842 915Q887 892 920 852Q957 805 973 750T989 610Z" />
<glyph unicode="c" glyph-name="c" horiz-adv-x="897" d="M938 825L885 772Q856 741 821 715Q794 692 760 670Q733 652 713 651Q697 651 678 672L643 717Q637 725 602 760Q582 780 551 780Q502 780 463 748Q426 717 397 659Q372 612 356 537Q342 474 342 397Q342
274 379 197Q412 127 469 127Q528 127 606 170Q686 215 791 301L803 285Q807 279 811 272T819 258Q827 246 836 236Q842 224 846 219Q783 160 700 98Q635 49 578 18Q527 -9 469 -27Q424 -41 371 -41Q322 -41 274 -25Q217 -5 178 35Q133 80 106 147Q77 221 78 322Q78
404 90 457Q104 523 137 590Q168 653 219 715Q266 770 342 821Q352 827 377 841T410 860Q443 880 492 897Q543 915 582 925T674 936Q715 936 754 922Q791 910 819 891L877 854Q905 835 938 825Z" />
<glyph unicode="d" glyph-name="d" horiz-adv-x="1032" d="M578 367L602 524L633 715Q621 727 578 762Q553 780 518 780Q479 780 447 762T387 711Q364 682 344 639Q328 604 313 553Q301 510 295 463Q291 432 291 379Q291 273 315 223Q340 176 377 176Q385 176
403 182Q415 186 444 211Q479 242 504 268Q525 291 578 367ZM1010 117L924 59Q856 16 842 8Q815 -6 770 -27Q739 -41 717 -41Q697 -41 678 -31Q651 -17 633 6Q617 24 596 74Q578 117 571 178Q483 61 408 10T266 -41Q225 -41 184 -20Q141 0 109 43Q75 86 53 154Q33
217 33 315Q33 399 53 469Q78 557 111 610Q154 684 205 737Q258 794 332 842Q361 860 395 877Q450 902 467 907Q492 915 545 928Q580 936 623 936Q631 936 643 932Q661 926 666 924Q672 957 676 991T685 1065T692 1124Q704 1216 705 1266Q705 1286 700 1303Q696
1317 690 1323Q684 1327 676 1331Q670 1333 659 1333Q655 1333 635 1329Q621 1327 602 1319Q584 1313 561 1307L545 1384Q639 1429 655 1436Q713 1461 765 1479T858 1509Q891 1519 918 1520Q952 1520 973 1501Q993 1483 993 1438Q993 1420 985 1337Q979 1284 967
1202Q965 1186 957 1130T942 1040Q928 954 912 868T881 698Q875 667 867 613T856 541Q844 465 838 410Q830 332 829 319Q829 245 845 207T885 168Q914 168 934 174Q967 184 991 195L1010 117Z" />
<glyph unicode="e" glyph-name="e" horiz-adv-x="884" d="M850 760Q850 733 844 702Q838 673 817 635Q797 598 762 563Q719 520 666 485Q611 450 518 403Q434 362 311 317Q327 223 362 176Q399 127 446 127Q491 127 573 170Q656 213 776 311Q782 309 791 297Q797
289 805 272Q807 268 812 259T819 246L827 229Q735 149 678 106Q625 65 551 23Q502 -6 442 -25Q389 -41 344 -41T248 -23T150 37Q107 74 74 143Q43 208 43 303Q43 380 61 451Q77 510 117 586Q146 641 201 707Q244 758 311 815Q331 831 369 856Q398 874 442 895Q469
907 526 924Q569 936 612 936Q669 936 719 920Q762 906 793 881Q818 863 836 823Q850 795 850 760ZM401 723Q374 690 362 664Q342 623 334 600Q322 565 315 530Q307 483 305 446Q401 491 446 522Q501 557 526 585T561 643Q569 668 569 705Q569 750 553 768Q535
791 508 791Q496 791 487 786L459 772Q449 766 428 750Q413 737 401 723Z" />
<glyph unicode="f" glyph-name="f" horiz-adv-x="688" d="M1053 1393Q1041 1385 1018 1366Q1008 1356 996 1348T971 1329L922 1288Q912 1278 872 1251Q843 1231 831 1225Q811 1215 807 1214Q791 1214 774 1235L739 1276Q708 1313 700 1319Q680 1337 655 1337Q616
1337 592 1301T549 1208Q529 1149 520 1083Q508 989 504 952L498 905H743L772 866Q762 852 743 831L700 791Q686 777 657 752Q647 742 627 729Q615 757 584 766Q557 774 494 774H481L416 193Q404 91 354 -20Q311 -114 242 -211Q187 -289 98 -369Q24 -439 -53 -485L-100
-391Q-49 -362 -10 -309T61 -180Q90 -114 113 -27Q131 43 141 139L213 774H78L53 815L195 905H229Q239 997 258 1059Q278 1131 311 1198Q342 1264 389 1323Q435 1381 500 1427Q549 1462 612 1493Q667 1520 733 1520Q786 1520 836 1501Q902 1476 930 1462Q969 1444
1006 1419Q1039 1399 1053 1393Z" />
<glyph unicode="g" glyph-name="g" horiz-adv-x="976" d="M369 176Q377 176 395 182Q411 188 440 213Q475 244 506 283Q559 349 596 403Q600 489 604 528Q610 589 623 672Q625 680 633 707Q598 738 569 758Q536 781 512 780Q472 780 438 762Q405 744 379 711Q356
682 336 639Q316 592 303 553Q295 524 287 463Q281 418 281 379Q281 273 305 223Q328 176 369 176ZM965 860Q930 831 911 793Q891 750 883 680Q875 608 864 469Q858 377 854 299Q852 242 844 150Q836 66 824 0T780 -131Q751 -190 705 -252Q662 -307 608 -354Q567
-391 496 -432Q447 -461 381 -481Q323 -499 270 -500Q223 -500 166 -489Q123 -481 70 -463Q43 -453 2 -426Q-25 -408 -25 -389Q-25 -381 -14 -360Q-6 -346 10 -322Q22 -306 43 -281Q66 -254 78 -244Q84 -240 94 -231T109 -217Q123 -207 125 -207Q139 -207 156 -221Q189
-248 203 -258Q234 -278 270 -293Q313 -309 367 -309Q396 -309 430 -299Q459 -291 483 -262Q512 -231 528 -182Q544 -135 561 -47Q573 27 580 88Q584 127 588 209Q506 94 424 25Q346 -41 256 -41Q222 -41 182 -23Q143 -5 107 38T45 145Q20 210 20 305Q20 465 98
604Q178 745 324 842Q381 881 457 907Q537 936 633 936Q670 936 711 915Q750 895 795 868Q844 897 866 907L926 936L965 860Z" />
<glyph unicode="h" glyph-name="h" horiz-adv-x="1095" d="M1073 123Q989 74 975 66L868 14Q829 -4 768 -25Q719 -41 693 -41T641 -11T616 76Q616 94 623 135L628 172Q633 209 637 229Q645 282 655 342Q667 414 674 455Q676 467 688 553Q694 596 694 621Q694 658
692 670Q688 693 684 698Q676 710 670 713Q658 717 651 717Q639 717 618 711Q591 703 571 690Q546 676 518 649Q493 626 467 582Q432 523 418 463Q404 408 385 301Q381 281 377 250T371 209Q369 195 367 174T365 147Q363 131 362 106V76L334 61Q314 53 289 41T236
16L182 -6Q174 -10 159 -17T137 -27L109 -41L66 0Q70 27 76 58T88 129L115 295L145 481Q163 594 176 676L205 866Q209 893 217 950T229 1036Q231 1059 237 1106T246 1174Q252 1233 252 1266Q252 1286 248 1303Q244 1317 238 1323Q234 1327 225 1331Q221 1333 211
1333Q207 1333 182 1329Q174 1327 147 1319L104 1307L88 1384L152 1411Q162 1415 172 1419T187 1426T202 1434T225 1442L301 1470Q315 1476 340 1484T373 1495Q404 1507 432 1513Q457 1519 473 1520Q501 1520 522 1501Q542 1483 543 1438Q543 1418 537 1364Q527
1272 522 1247Q506 1132 502 1108Q492 1049 479 963Q469 893 459 834L442 737Q559 843 662 891Q760 936 852 936Q883 936 907 930Q934 924 950 908T977 858Q985 831 985 780Q985 745 979 698Q969 620 965 598Q953 528 944 492Q938 465 924 387Q920 360 909 295Q903
252 903 225Q903 188 911 178Q921 166 938 166Q956 166 965 168Q969 168 976 170T987 174Q995 176 1012 184L1044 199L1073 123Z" />
<glyph unicode="i" glyph-name="i" horiz-adv-x="587" d="M565 123Q518 94 465 66L362 12Q325 -6 268 -27Q227 -41 195 -41Q160 -41 136 -11T111 76Q111 107 117 156Q119 179 133 264Q135 278 156 385Q162 420 167 451T176 506Q192 606 193 610Q201 671 201 680Q201
700 197 716T188 737Q182 743 176 745T160 748Q156 748 135 743Q119 739 106 735L70 723L49 801L150 842Q175 852 202 864T260 887Q272 891 362 922Q405 936 428 936Q459 936 473 918Q489 898 489 852Q489 821 483 772Q481 754 474 716T465 664L442 539L420 414Q408
336 403 303Q395 237 395 225Q395 200 403 180Q409 166 426 166Q446 166 455 168Q459 168 468 170T481 174Q489 176 510 184L545 199L565 123ZM588 1262Q588 1233 575 1202Q565 1175 537 1147Q510 1120 477 1104Q440 1086 393 1085Q370 1085 342 1094Q324 1098
305 1114Q293 1124 285 1143Q279 1159 279 1176Q279 1205 291 1235Q301 1260 330 1292Q350 1317 389 1335Q426 1353 471 1354Q506 1354 524 1346Q544 1338 559 1325Q571 1315 580 1296Q588 1276 588 1262Z" />
<glyph unicode="j" glyph-name="j" horiz-adv-x="583" d="M479 870Q479 850 477 831Q473 800 471 768Q467 731 463 688Q461 665 458 645T453 604Q451 577 444 530Q440 491 438 473Q434 438 430 399T422 313Q420 290 391 96Q375 -6 344 -76Q307 -160 268 -215Q215
-291 180 -326Q137 -369 92 -403Q39 -444 -31 -473Q-97 -500 -164 -500Q-209 -500 -252 -487Q-293 -475 -328 -457Q-369 -434 -381 -422Q-399 -404 -399 -393Q-399 -385 -391 -369Q-387 -361 -367 -332L-336 -289Q-311 -260 -301 -250Q-295 -244 -285 -235T-270
-221Q-260 -211 -250 -211T-217 -227L-172 -262Q-143 -282 -117 -297Q-84 -313 -53 -313Q-16 -313 10 -297Q35 -281 51 -244Q67 -203 80 -145Q98 -53 109 10Q115 49 129 152L147 276Q151 307 154 331T160 377L168 451Q172 478 174 508L180 573Q184 618 184 635Q184
645 185 660T186 680Q186 700 182 716T174 737T162 745Q158 747 145 748Q141 748 121 744T90 735Q84 733 73 729T55 723L35 801Q41 803 98 827Q108 831 118 835T134 843T148 850T172 858L248 887Q262 893 286 901T317 911Q354 923 375 930Q400 936 414 936Q443
936 461 924T479 870ZM561 1262Q561 1233 549 1202T512 1147T451 1104T369 1085Q344 1085 315 1094Q301 1098 281 1114Q269 1124 260 1143Q254 1159 254 1176Q254 1205 266 1235Q278 1264 303 1292Q323 1317 362 1335Q399 1353 446 1354Q479 1354 498 1346Q523
1336 535 1326T555 1296Q561 1282 561 1262Z" />
<glyph unicode="k" glyph-name="k" horiz-adv-x="1038" d="M541 1417Q541 1380 535 1321Q533 1303 518 1192Q514 1159 496 1040L469 874L440 705Q426 619 414 537L567 649Q669 729 678 735Q717 768 727 788Q735 806 713 813Q688 819 637 817L627 897L717 909Q783
917 803 920Q819 922 845 925T883 928Q908 930 952 930Q1017 930 1038 911Q1058 893 1059 858Q1059 840 1038 817Q1011 786 975 758Q963 748 947 737T910 710T874 684Q841 659 739 596L612 516Q630 496 659 453Q688 412 705 379L748 301Q779 246 788 233Q806 206
829 184Q847 166 868 166Q878 166 928 174Q963 180 1001 203L1038 127Q993 90 965 70T883 16Q850 -4 805 -23Q766 -39 745 -39Q714 -39 682 -10Q651 18 621 63Q596 100 563 166Q520 250 508 279Q490 318 455 385Q432 428 403 469Q395 422 383 336Q373 270 371 221Q371
209 368 177T365 131Q365 96 371 78Q367 74 340 63Q336 61 295 43L240 18Q197 0 185 -6T161 -17T139 -27L111 -41L66 0Q68 10 73 41T80 90L104 236Q112 279 118 324T133 414L166 614Q174 663 181 713T197 815Q222 969 225 1001Q237 1083 244 1157Q252 1247 252
1264Q252 1282 248 1303Q246 1319 240 1323Q232 1331 223 1331Q221 1331 214 1332T203 1333T178 1329Q170 1327 162 1324T145 1319Q127 1313 104 1307L86 1384L188 1427Q227 1443 305 1473Q328 1481 368 1492T412 1505Q457 1519 481 1520Q497 1520 506 1518Q516
1516 524 1503Q534 1489 537 1473Q541 1444 541 1417Z" />
<glyph unicode="l" glyph-name="l" horiz-adv-x="567" d="M545 123Q471 78 440 61Q356 20 334 10Q282 -12 236 -27Q193 -41 158 -41Q127 -41 106 -10Q86 19 86 78Q86 105 92 160Q98 219 111 293L137 463L166 651L195 844L221 1020Q233 1103 240 1167Q248 1253
248 1265T242 1303Q238 1317 231 1323Q227 1327 215 1331Q209 1333 197 1333Q193 1333 172 1329Q164 1327 157 1324T141 1319L102 1307L82 1384Q111 1396 147 1411Q163 1417 182 1425T221 1442L301 1470Q315 1476 340 1483T375 1495Q409 1507 436 1513T475 1520Q504
1520 520 1501Q536 1481 537 1438Q537 1398 530 1333Q524 1274 512 1188Q489 1041 485 1012Q479 967 471 920T455 823L426 635Q424 623 399 463Q387 383 381 322Q373 240 373 225Q373 192 383 178Q392 166 408 166Q435 166 457 174Q459 176 484 183T526 199L545
123Z" />
<glyph unicode="m" glyph-name="m" horiz-adv-x="1591" d="M1548 123Q1485 86 1448 66Q1413 48 1343 14Q1296 -9 1249 -25Q1204 -41 1176 -41Q1162 -41 1147 -33Q1131 -23 1120 -10Q1108 5 1102 26T1096 76Q1096 94 1102 133Q1112 203 1116 223Q1126 274 1137
334L1157 449Q1161 474 1171 555Q1177 604 1178 639Q1178 676 1167 696Q1159 714 1141 715Q1137 715 1116 711Q1104 709 1079 694Q1065 686 1034 659Q1011 639 985 600Q965 573 954 549Q952 543 932 483Q922 452 911 401Q901 352 893 295Q879 189 877 152Q873 89
874 76Q866 70 846 61Q815 49 799 41Q774 29 745 16L692 -6Q688 -8 645 -27L616 -41L575 0Q604 135 616 201Q624 240 635 308T649 385Q653 410 672 537Q680 594 680 639Q680 715 639 715L618 711Q608 709 584 694Q564 682 537 659Q506 632 485 602Q481 596 455
549Q449 537 430 483Q416 440 408 399Q399 353 389 295Q383 262 371 152Q365 97 367 76L338 61Q318 53 293 41T240 16L186 -6Q178 -10 163 -17T141 -27Q129 -33 123 -36T115 -41L72 0Q88 86 111 209L143 403Q149 438 166 565Q174 628 174 680Q174 700 170 716T162
737Q154 745 150 747T135 750Q129 750 109 745Q99 743 78 735L39 723L20 803L84 829Q100 835 109 839T131 848T158 858L233 887Q284 905 303 911Q334 923 362 930Q387 936 399 936Q419 936 426 932Q436 926 442 913Q450 899 453 879Q455 865 455 821Q455 801 453
784Q453 776 452 761T449 737Q515 803 557 836Q609 876 655 897Q704 920 741 928Q780 936 823 936Q854 936 887 922Q912 912 932 887Q950 867 956 834Q962 803 963 770V762V748Q1033 814 1067 840Q1116 877 1157 897Q1200 919 1237 928Q1270 936 1313 936Q1338
936 1368 926T1415 897Q1433 875 1446 842Q1456 813 1456 760Q1456 690 1446 629Q1438 580 1417 477Q1411 446 1391 334Q1379 266 1378 225Q1378 194 1389 180Q1397 168 1415 168Q1435 168 1468 176Q1488 180 1534 199L1548 123Z" />
<glyph unicode="n" glyph-name="n" horiz-adv-x="1101" d="M1083 123Q1007 78 985 66Q950 48 881 14Q840 -4 784 -25Q739 -41 713 -41Q678 -41 654 -11T629 76Q629 94 635 135L640 172Q645 209 649 229Q653 258 659 286T670 342Q682 414 688 455Q690 467 702 553Q708
596 709 621Q709 676 700 694Q690 717 664 717Q652 717 629 711Q613 707 584 688Q551 668 530 647Q499 616 477 580Q444 527 430 465Q418 414 397 301Q393 285 390 258T385 223Q381 205 377 166Q373 133 373 119Q373 111 374 97T375 76L346 61Q326 53 301 41T248
16Q232 10 218 4T193 -6L150 -27L121 -41L78 0Q94 78 117 205Q121 232 150 406Q166 504 174 573Q182 639 182 682Q182 711 180 719Q176 735 172 739T160 748Q156 750 143 750Q139 750 119 745Q105 743 86 735Q59 725 47 723L27 803Q56 815 92 829Q106 835 133 845T168
858L246 887Q285 901 317 911Q354 923 375 930Q400 936 412 936Q422 936 434 932Q442 930 449 915Q453 907 457 881Q461 852 461 823Q461 815 460 802T459 782Q459 770 455 737Q557 833 670 887Q774 936 864 936Q895 936 920 930Q943 924 963 907Q979 893 989 860Q997
833 997 782Q997 745 991 700Q981 622 977 600Q965 530 956 494Q942 420 936 387Q922 315 920 295Q914 252 913 225Q913 192 924 178Q934 166 950 166T973 168Q985 172 993 174Q997 176 1006 179T1018 184Q1026 188 1035 191T1055 199L1083 123Z" />
<glyph unicode="o" glyph-name="o" horiz-adv-x="923" d="M629 473Q629 550 616 608Q604 669 584 707Q561 748 539 768T487 788Q432 788 397 756Q358 719 338 672Q316 620 307 555Q297 483 297 428Q297 369 311 301Q323 244 346 199Q371 148 395 127Q422 102 449
102Q498 102 532 137Q569 174 590 225Q608 272 618 346Q629 418 629 473ZM891 559Q891 491 872 424Q849 342 823 291Q789 226 743 168Q698 113 641 63Q612 36 584 23Q572 17 514 -10Q491 -20 446 -33Q415 -41 381 -41Q295 -41 236 -12Q173 19 128 70T57 193Q32
263 33 344Q33 491 92 612Q155 741 287 840Q301 852 346 877Q385 897 414 907Q465 923 485 928Q534 936 557 936Q633 936 696 908T803 830T868 711Q891 639 891 559Z" />
<glyph unicode="p" glyph-name="p" horiz-adv-x="1044" d="M631 745Q619 745 590 731Q563 717 532 690Q497 659 467 623Q428 578 401 528Q399 516 393 476T383 414L360 281Q387 250 403 238T457 205Q480 193 510 184Q543 176 555 176Q596 176 627 201Q656 224
674 258Q694 299 707 373Q719 441 719 522Q719 557 711 610Q705 643 690 682Q682 702 662 727Q646 745 631 745ZM449 870Q449 860 444 823Q438 764 436 754Q489 809 532 844Q577 879 614 899Q649 917 686 928Q717 936 756 936Q803 936 844 915Q889 892 918 856Q951
815 967 760Q985 701 985 627Q985 566 973 500Q961 432 942 373Q928 326 897 256Q881 217 846 158Q838 144 795 86Q772 55 731 23Q702 -2 659 -23Q622 -41 582 -41Q566 -41 530 -31Q501 -23 467 0Q444 14 401 53Q368 82 336 129L315 6Q301 -80 289 -168Q275 -270
274 -285Q270 -346 270 -356Q270 -381 276 -397Q274 -397 269 -399T258 -403T246 -408Q232 -412 199 -424Q193 -426 145 -446Q129 -452 115 -458T90 -469L45 -487Q25 -495 16 -500L-27 -461Q-25 -451 -20 -421T-12 -375L12 -242Q18 -205 25 -164T41 -78L74 102L106
285Q108 291 133 451Q151 562 154 588Q160 647 160 680Q160 700 156 717Q152 731 145 737Q141 741 129 745Q123 747 113 748Q109 748 88 743Q72 739 59 735L23 723L4 801Q47 821 106 846Q129 854 169 868T223 889Q284 914 326 924Q373 936 391 936Q416 936 434
922Q449 909 449 870Z" />
<glyph unicode="q" glyph-name="q" horiz-adv-x="972" d="M379 176Q389 176 406 184Q424 193 449 215Q474 235 506 272Q547 317 580 362L637 711Q612 736 578 760Q549 780 522 780Q482 780 449 762Q418 746 387 711Q371 693 342 639Q319 598 307 553Q295 510 289
463Q283 418 283 379Q283 322 291 287Q301 246 311 224T342 188Q361 176 379 176ZM971 860Q963 852 954 846T940 836Q922 816 918 811Q909 796 899 774Q895 764 887 721L844 459L805 213L772 -4Q760 -90 752 -186Q746 -266 745 -319Q745 -378 756 -397L745 -401Q735
-405 727 -408L680 -426L623 -446Q607 -452 594 -458T567 -469Q553 -475 542 -479T522 -487Q516 -489 510 -492T500 -498T494 -500L449 -461Q452 -427 461 -369Q465 -336 471 -301T483 -231L510 -59Q518 -10 526 40T543 137Q502 90 459 51Q426 22 389 -2Q352 -25
328 -33Q301 -41 266 -41Q229 -41 188 -23Q145 -3 113 39Q74 88 55 145Q32 213 33 305Q33 387 53 461Q76 541 113 606T207 735Q258 792 334 842Q346 850 399 877Q432 893 479 907Q506 915 559 928Q594 936 633 936Q674 936 717 918Q746 906 795 872Q844 897 868
907Q882 913 905 923T932 936L971 860Z" />
<glyph unicode="r" glyph-name="r" horiz-adv-x="870" d="M934 850Q918 830 911 817Q899 797 885 770L852 717Q844 705 837 692T821 666Q796 633 795 629Q783 615 776 614Q758 614 739 627Q737 629 705 655Q697 661 689 668T672 682Q656 694 639 694Q614 694 582
672Q551 650 520 610Q487 567 461 512Q433 454 412 383Q389 303 377 231Q365 149 367 76Q361 74 344 66T313 51L236 16L162 -18L115 -41L72 0Q107 174 113 209Q142 371 145 401Q149 436 156 492T166 563Q174 626 174 680Q174 700 170 716T162 737T150 745Q146 747
133 748Q127 748 106 743Q90 739 78 735L41 723L20 801Q30 805 53 814T86 827Q102 833 120 841T160 858L236 887Q250 893 274 901T305 911Q336 923 365 930Q390 936 403 936Q434 936 442 915Q452 890 453 842V813Q453 803 449 778L444 737Q442 723 438 698Q499
786 528 817Q569 862 606 889Q643 918 676 926Q713 936 739 936Q755 936 782 926Q807 917 831 901Q843 893 857 887T885 874Q912 859 934 850Z" />
<glyph unicode="s" glyph-name="s" horiz-adv-x="808" d="M817 844L780 791L735 735Q717 710 692 690Q672 672 662 672Q644 672 623 692Q603 715 575 741Q544 772 518 791Q489 811 451 811Q394 811 371 786Q348 759 348 719Q348 692 358 674Q370 654 391 635Q409
619 444 598Q475 580 516 559Q543 545 596 512Q635 487 666 455Q703 414 717 383Q735 344 735 289Q735 242 715 201Q693 158 659 121Q632 92 578 55Q535 26 483 4Q440 -14 385 -29Q336 -41 293 -41Q217 -41 166 -25Q111 -7 66 18Q25 41 0 70Q-25 98 -25 119Q-25
129 -8 166Q17 217 27 236Q58 285 68 297Q88 324 98 324Q106 324 119 305Q123 299 131 286T143 264L176 209Q192 184 221 154Q237 138 279 113Q310 95 352 94Q411 94 449 127Q484 158 483 213Q483 250 467 274Q449 303 420 328Q391 355 354 375L281 416Q224 447
193 471Q166 494 139 530Q121 557 111 590Q103 617 102 653Q102 716 141 768Q182 821 240 858Q295 893 369 915Q437 935 504 936Q557 936 600 924Q641 912 682 895L752 864Q782 850 817 844Z" />
<glyph unicode="t" glyph-name="t" horiz-adv-x="712" d="M690 168Q639 127 575 84Q524 49 467 18Q418 -9 371 -25Q326 -41 297 -41Q262 -41 232 -27T172 16Q149 39 129 80Q113 113 113 160V199Q113 205 114 217T115 238Q115 252 119 281Q125 322 127 332L197
774H63L39 815L166 905H217L223 940Q229 985 236 1004Q244 1029 250 1038Q259 1050 268 1057Q270 1059 275 1062T285 1068T293 1073L512 1176L541 1151Q537 1147 524 1118Q518 1104 508 1063Q500 1028 489 963L479 905H721L750 866Q742 852 721 831L678 791Q668
783 658 772T637 752Q627 742 608 729Q596 758 561 766Q528 774 465 774H461L408 446Q406 440 405 426T403 406Q399 377 399 365Q399 359 398 347T397 328T396 313T395 301Q395 240 413 215T459 190Q496 190 539 205Q588 221 659 254L690 168Z" />
<glyph unicode="u" glyph-name="u" horiz-adv-x="1126" d="M1100 119L1018 63L936 12Q899 -11 860 -27Q825 -41 799 -41Q774 -41 752 -27T709 14Q693 37 674 86Q658 133 651 182Q616 135 569 92Q538 63 477 23Q442 0 383 -25Q342 -41 293 -41Q266 -41 229 -25Q194
-9 168 20Q143 49 123 98Q107 139 106 205Q106 221 111 274L123 360Q127 383 130 405T137 451L154 541Q156 551 160 577T166 618Q170 667 170 680Q170 709 168 717Q164 731 158 737Q154 741 145 745Q141 747 129 748Q125 748 105 744T74 735L37 723L18 801Q28 805
51 814T84 827Q100 833 119 841T160 858L238 887Q252 893 276 900T309 911Q343 923 371 930Q398 936 410 936Q439 936 449 918Q459 898 459 852Q459 823 453 776Q443 704 438 676Q430 621 420 561Q416 536 410 508T399 449Q395 420 385 348Q379 303 379 272Q379
231 395 205Q409 180 424 180Q457 180 518 229Q577 276 662 389Q664 401 669 428T676 471L688 553Q690 563 694 587T700 625Q704 670 705 680Q705 709 702 717Q698 733 694 737T682 745Q678 747 668 748Q664 748 643 743Q631 741 616 735Q596 727 584 723L563 801Q569
803 627 827Q637 831 647 835T662 843T677 850T700 858L776 887Q790 893 815 901T848 911Q879 923 907 930Q932 936 946 936Q974 936 983 918Q991 902 991 852Q991 811 987 782Q987 776 983 744T975 692L956 594L940 494Q936 476 932 442T928 401Q924 372 924 324Q924
269 926 248Q928 230 938 199Q944 181 954 174Q966 166 977 166Q1004 166 1024 172Q1034 174 1081 195L1100 119Z" />
<glyph unicode="v" glyph-name="v" horiz-adv-x="997" d="M997 852Q997 823 975 766Q955 715 899 616L764 387L555 51Q551 49 520 35Q493 23 463 6Q447 -2 433 -9T406 -23Q398 -27 390 -31T375 -38T367 -41L326 0Q320 37 307 119Q301 160 285 242Q281 262 274
304T262 367Q250 428 238 481Q232 508 225 532T213 580Q209 594 204 619T195 655Q186 683 177 698T158 723T139 735Q133 737 123 737Q117 737 96 733Q71 729 63 725Q38 717 25 713L-4 791L90 838L188 885Q245 910 276 922Q313 936 330 936Q361 936 379 907Q399
876 420 809Q422 801 425 791T431 765T438 737Q442 719 450 681T461 633Q479 547 485 516Q491 491 506 403L520 313Q522 303 524 291T527 273T528 262Q577 338 633 444Q670 516 690 573Q713 639 715 655Q715 663 716 672T718 687T719 696Q719 723 707 735T668 748Q645
748 635 745Q620 742 598 733L573 809Q610 832 653 850Q719 879 752 891Q818 916 846 924Q889 936 913 936Q925 936 946 932Q956 930 973 918Q983 910 991 891Q997 877 997 852Z" />
<glyph unicode="w" glyph-name="w" horiz-adv-x="1419" d="M1427 860Q1427 833 1421 803Q1417 778 1395 727Q1372 672 1350 627Q1348 625 1276 489L1174 303L1038 57Q1032 55 1018 47Q1012 43 1004 40T985 31L946 8L905 -12Q901 -14 889 -21T870 -31L850 -41L807
0Q784 178 764 303Q744 434 717 530Q703 481 643 344Q596 233 504 70L483 59Q467 51 447 39T402 15T356 -10L319 -29L295 -41L254 0Q252 23 248 54T240 123L227 256Q225 281 220 325T213 389L199 508Q197 520 194 553T188 600Q186 618 178 655Q172 686 164 698Q155
713 146 722T127 735Q121 737 106 737Q102 737 82 733T49 725T8 713L-16 791Q23 814 80 840Q100 850 116 858T145 872T180 887Q198 895 268 922Q305 936 324 936Q353 936 367 903Q382 869 397 799Q397 797 401 778T408 741Q416 688 420 655Q428 589 432 553Q438
498 444 449Q452 383 455 354Q457 315 461 289Q488 340 532 442Q559 501 590 588Q615 656 627 711Q641 772 643 805Q661 823 696 848Q745 883 760 891Q801 916 819 924Q848 936 864 936Q868 936 874 920Q886 889 891 877Q893 871 907 813Q909 801 915 778T924 741Q936
692 940 668Q946 631 952 600Q967 505 983 422Q995 352 1004 276L1085 424L1151 549Q1169 586 1192 649Q1206 690 1206 719Q1206 739 1192 752Q1176 764 1151 764Q1145 764 1112 760Q1096 758 1067 750L1038 825Q1069 845 1118 870Q1147 884 1204 905Q1233 915
1282 928Q1315 936 1343 936Q1366 936 1376 934Q1394 930 1403 924Q1415 915 1421 899Q1427 885 1427 860Z" />
<glyph unicode="x" glyph-name="x" horiz-adv-x="960" d="M946 113Q903 82 860 55Q823 30 776 6T700 -29Q663 -41 639 -41Q608 -41 584 -18Q564 0 530 47Q501 88 477 141Q436 229 426 254L350 143L260 10Q250 8 225 4Q196 0 178 -2T123 -12Q100 -16 66 -23Q62
-25 45 -28T19 -33T-2 -38T-16 -41L-49 4L47 90L156 190L266 297Q336 367 367 401L315 532Q303 563 264 641Q235 698 217 719Q192 748 170 748L141 743Q123 741 96 733Q57 725 41 721L16 801L106 846L201 891Q238 909 281 924Q318 936 336 936Q359 936 387 907Q414
880 442 829Q470 780 498 719L553 590L606 662Q614 672 627 692T647 721Q663 741 674 764Q682 780 682 788Q682 806 657 817Q634 825 565 819L559 901Q596 907 635 913L717 926Q744 930 797 934Q822 936 856 936Q917 936 946 920Q973 906 973 883Q973 846 881 741Q797
647 608 455Q641 375 657 340Q673 301 705 246Q728 203 748 180Q771 155 788 156Q798 156 848 164Q881 170 920 188L946 113Z" />
<glyph unicode="y" glyph-name="y" horiz-adv-x="995" d="M983 860Q983 829 954 750Q938 705 874 569L762 338Q725 266 625 82Q551 -51 487 -154Q421 -258 348 -338Q278 -412 201 -457Q124 -500 35 -500Q-14 -500 -49 -490T-125 -461Q-162 -445 -180 -428Q-200
-410 -201 -399Q-201 -383 -182 -352Q-170 -332 -137 -287Q-123 -267 -86 -225Q-59 -194 -47 -190Q-14 -223 2 -235T55 -266Q88 -282 104 -287Q137 -295 145 -295Q192 -295 250 -242Q295 -199 367 -90Q365 -76 356 -32T340 39Q315 150 307 184Q282 282 268 332L229
469Q213 522 193 584Q168 654 162 666Q144 711 123 731Q107 747 88 748Q84 748 63 743Q38 739 31 735Q6 727 -8 723L-31 801L66 848Q84 856 117 870T164 891Q201 907 248 924Q285 936 305 936Q334 936 356 907Q374 884 401 809Q424 750 438 698Q440 694 454 643T477
563Q477 561 516 412L553 252L625 401Q658 471 682 535Q690 555 719 641Q733 684 733 711Q733 760 680 764Q666 766 645 760Q622 752 598 741L571 817Q608 839 651 860Q667 868 700 881T739 897Q786 917 823 926Q868 936 890 936T924 934Q947 930 954 924Q964 916
975 899Q983 885 983 860Z" />
<glyph unicode="z" glyph-name="z" horiz-adv-x="786" d="M786 870Q747 829 690 760Q639 697 610 659Q602 647 543 563L473 463L397 354Q356 297 303 229L332 238Q348 242 358 244T385 246Q410 246 434 238Q452 232 494 219Q504 217 524 211T555 203Q582 195 606
195Q618 195 627 197Q641 201 653 213Q671 231 682 246Q709 285 719 303L784 262Q774 239 755 202T729 150Q702 95 674 59Q639 18 608 0Q573 -20 522 -20Q485 -20 438 -10Q432 -8 356 14L283 37Q246 47 225 47Q190 47 143 27L18 -31L-23 25Q53 117 123 213L258
403L377 573Q428 647 475 705H268Q243 705 225 699T193 678Q173 658 162 635Q144 592 133 565L61 584Q75 660 82 682L106 784Q118 833 127 874Q136 914 139 936Q148 933 164 930Q168 930 173 928T183 925T195 924L231 918Q243 916 268 915H756L786 870Z" />
<glyph unicode="{" glyph-name="braceleft" horiz-adv-x="702" d="M805 1513Q770 1493 731 1460Q696 1431 672 1401Q639 1360 629 1337Q611 1298 608 1272Q602 1221 602 1180Q602 1166 603 1138T604 1098T605 1058T606 1016Q606 993 598 924Q590 873 573 840Q550
799 522 764T455 700Q412 667 377 653Q467 635 504 566T524 385Q518 330 506 285Q502 269 492 237T479 195L455 106Q447 75 438 23Q434 -2 434 -43Q434 -70 449 -102Q461 -130 485 -158Q508 -185 557 -213L504 -315Q430 -284 354 -246Q284 -209 246 -170Q201 -127
184 -74Q166 -21 176 51Q182 104 195 147L219 233L244 322Q254 359 264 422Q276 502 248 535Q221 566 168 565H147H137Q135 565 131 564T125 563L104 559L102 653Q211 684 262 735T326 862Q332 913 332 958Q332 972 331 999T330 1038T329 1077T328 1118Q328 1165
336 1214Q344 1280 383 1337Q424 1396 479 1442Q540 1491 612 1528Q682 1565 772 1599L805 1513Z" />
<glyph unicode="|" glyph-name="bar" horiz-adv-x="448" d="M199 -270Q187 -278 170 -287Q160 -293 150 -297T131 -305Q117 -311 92 -324Q74 -333 61 -336L23 -301L283 1536Q303 1548 315 1554Q342 1568 350 1573Q366 1581 385 1587Q389 1589 400 1593T418 1599L459
1567L199 -270Z" />
<glyph unicode="}" glyph-name="braceright" horiz-adv-x="700" d="M618 631Q509 600 459 549T395 422Q389 369 389 326Q389 312 390 285T391 246V166Q391 125 385 70Q375 2 338 -55Q301 -110 242 -158Q184 -204 106 -244Q36 -281 -53 -315L-82 -229Q-55 -213
-10 -176Q25 -147 49 -117Q78 -82 90 -53Q104 -22 111 12Q119 82 119 104Q119 159 117 186T115 268Q115 307 121 360Q127 399 147 444Q163 481 197 520Q226 555 264 584Q305 615 344 631Q254 649 217 719Q180 791 195 899Q199 942 215 999L240 1090L264 1176Q276
1219 283 1262Q287 1287 287 1327Q287 1354 272 1386Q262 1409 233 1442Q206 1471 164 1497L217 1599Q283 1572 365 1530Q435 1493 473 1454Q516 1409 535 1358Q553 1301 545 1233Q541 1192 524 1137L500 1051L475 963Q463 916 457 862Q445 780 471 750Q500 719
553 719H571H584Q586 719 589 720T594 721L614 725L618 631Z" />
<glyph unicode="~" glyph-name="asciitilde" horiz-adv-x="983" d="M944 774Q917 721 883 672Q844 617 803 575Q764 536 713 506Q666 477 623 477Q583 477 543 501T463 557Q430 582 381 612Q340 637 299 637Q252 637 211 598Q170 561 117 475L70 502Q105 563 133
604Q172 659 213 700T301 770T391 799T477 774Q516 751 559 719Q606 682 637 664Q676 639 715 639Q758 639 803 678Q854 721 899 799L944 774Z" />
<glyph unicode="&#xa0;" glyph-name="uni00A0" horiz-adv-x="516" />
<glyph unicode="&#xa1;" glyph-name="exclamdown" horiz-adv-x="499" d="M94 731Q94 770 109 801Q127 842 147 864Q172 893 211 911Q248 929 295 930Q361 930 393 897T426 815Q426 782 414 745Q402 706 377 680Q352 651 313 633Q272 613 227 612Q157 612 127 645Q94
682 94 731ZM246 -416Q234 -422 220 -429T186 -444L111 -481Q91 -491 72 -498T37 -514Q-2 -532 -18 -537L-61 -502L152 479Q168 491 176 494Q180 496 190 501T207 508L238 520Q246 524 254 525T266 528L291 508L246 -416Z" />
<glyph unicode="&#xa2;" glyph-name="cent" horiz-adv-x="966" d="M651 1055H666H682Q729 1055 774 1038Q815 1024 856 1001Q870 993 894 980T928 961Q962 943 983 936L954 907L915 864Q905 852 893 841T870 817Q848 792 827 774Q802 754 788 743Q770 731 762
731Q748 731 735 750L707 795Q676 844 672 850Q656 877 629 895L545 281Q580 289 602 301Q635 319 662 338Q697 363 731 391L811 459Q813 457 817 452T825 440T833 427T842 414Q856 394 858 391Q864 379 868 375L764 281Q746 265 676 211Q645 186 598 160Q565 142
524 127L508 12Q500 6 485 -4Q479 -8 471 -14T457 -23Q437 -35 426 -39Q401 -49 399 -49L381 -27L399 111Q354 111 299 129Q242 147 195 188Q150 227 117 299T84 471Q84 543 104 606Q129 682 164 739Q211 815 260 864Q323 927 391 973Q432 998 455 1008Q486 1022
526 1034L543 1155L596 1192Q614 1204 651 1217L672 1194L651 1055ZM340 510Q340 422 364 371T424 297L506 893Q465 868 436 829Q407 788 385 735Q367 688 352 625Q340 565 340 510Z" />
<glyph unicode="&#xa3;" glyph-name="sterling" horiz-adv-x="966" d="M662 516H410Q398 403 360 317Q319 223 262 152Q328 158 362 158Q409 158 428 156L487 152Q518 150 569 152Q608 152 645 162Q672 170 705 195Q725 211 756 256Q783 295 809 352L881 324Q877
310 858 231Q852 211 846 186T831 133Q811 65 807 51Q797 20 788 0Q739 -27 680 -29Q623 -31 541 -25Q463 -19 385 -6Q332 2 229 10Q163 16 84 8Q18 2 -35 -31L-63 49Q-22 82 -6 96Q12 112 37 145Q55 170 72 203Q78 217 96 279Q106 312 117 381Q119 399 129 516H20L-2
551Q-2 553 1 560T6 571Q10 577 14 584T22 598T30 612T37 627Q39 631 43 637T49 647H139Q157 770 205 883Q252 994 322 1069Q396 1149 483 1192Q573 1235 678 1235Q711 1235 733 1233Q751 1231 803 1223Q828 1219 881 1202Q921 1190 961 1165Q955 1132 952 1120Q946
1092 940 1059L924 991Q922 981 917 958T907 924Q893 873 891 868Q885 839 879 829H799Q801 880 791 942Q781 995 764 1030Q748 1063 715 1085Q686 1105 645 1106Q635 1106 607 1102T561 1085Q534 1067 516 1040Q491 1005 473 961Q459 928 440 831Q424 747 418
647H688L719 614L662 516Z" />
<glyph unicode="&#xa5;" glyph-name="yen" horiz-adv-x="966" d="M1108 1120Q1077 1114 1051 1108Q1037 1104 1010 1094Q1000 1090 983 1077Q975 1071 963 1055L623 510V502H868L889 479L836 373H604L575 156Q575 148 580 141Q588 129 598 123Q621 109 641 102Q670
92 711 84L698 0H150L162 84Q207 94 233 102Q258 110 279 121Q295 129 305 139Q313 147 313 156L342 373H72L53 395Q53 397 57 403T63 418Q69 432 77 448T92 479T102 502H360L362 512Q344 580 315 668Q305 701 260 815Q235 878 205 946Q180 1001 152 1055Q146 1067
137 1075Q131 1081 115 1087Q95 1095 76 1098Q60 1100 14 1100L23 1184Q35 1186 50 1187T88 1192Q141 1200 168 1202Q182 1204 206 1207T242 1210Q287 1214 295 1214Q315 1214 348 1200Q373 1188 387 1165Q453 1050 492 952Q535 846 584 692L805 1055Q823 1080
801 1096T711 1120L723 1204H1118L1108 1120Z" />
<glyph unicode="&#xa7;" glyph-name="section" horiz-adv-x="940" d="M578 569Q588 561 612 549Q616 547 647 526Q672 563 678 606Q684 661 676 696Q668 729 641 766Q618 795 575 829Q520 872 477 899Q467 905 455 913L430 930Q424 924 397 881Q383 856 379 829Q373
786 383 754T418 692Q447 661 483 635L578 569ZM903 674Q891 590 854 522Q819 456 768 410Q788 373 793 352Q801 315 795 283Q787 213 760 162T696 76Q659 42 616 20Q577 2 530 -12Q491 -22 449 -27Q396 -31 381 -31Q369 -31 344 -28T313 -25Q278 -23 242 -12Q197
-2 172 10Q133 28 111 43Q107 45 106 80Q106 98 115 160Q121 211 133 260Q147 319 160 352L242 342Q244 293 262 240Q278 191 301 162Q326 131 358 115T426 98Q465 98 481 102Q508 108 520 119Q535 131 545 150Q553 168 557 197Q563 240 547 270T498 330Q473 353
426 381L348 428Q315 448 276 481Q239 512 209 555Q180 594 164 655Q148 714 156 780Q158 811 174 846Q194 891 209 911Q234 946 258 971Q301 1014 315 1024Q287 1055 272 1092Q258 1127 264 1169Q274 1235 309 1282Q350 1337 395 1366Q456 1405 512 1421Q578 1439
639 1440Q684 1440 723 1434Q770 1426 799 1419Q834 1411 862 1395Q903 1372 911 1364Q915 1360 911 1343Q905 1316 903 1307L887 1257Q875 1220 866 1204Q862 1196 856 1181T846 1157Q834 1137 823 1122L754 1130Q750 1228 719 1278Q686 1329 621 1329Q564 1329
535 1307Q504 1282 498 1239Q494 1206 508 1184Q524 1157 551 1137Q588 1108 618 1092Q661 1069 707 1038Q736 1022 780 987Q823 954 852 913T897 811Q913 752 903 674Z" />
<glyph unicode="&#xa8;" glyph-name="dieresis" horiz-adv-x="1040" d="M547 1272Q547 1241 535 1206Q521 1165 502 1143Q482 1116 447 1096T375 1075Q350 1075 330 1085Q307 1095 297 1110Q285 1124 279 1145Q273 1163 272 1186Q272 1217 285 1251Q299 1292 317
1315Q342 1348 371 1364Q402 1382 442 1382Q473 1382 489 1374T520 1348Q532 1334 539 1313Q547 1288 547 1272ZM938 1272Q938 1241 926 1206Q912 1165 893 1143Q870 1114 840 1096Q805 1076 768 1075Q741 1075 721 1085Q703 1094 690 1110Q678 1124 672 1145Q666
1163 666 1186Q666 1223 676 1251Q690 1292 709 1315Q734 1348 762 1364Q793 1382 834 1382Q865 1382 881 1374Q899 1364 913 1348Q925 1334 932 1313Q938 1295 938 1272Z" />
<glyph unicode="&#xa9;" glyph-name="copyright" horiz-adv-x="1359" d="M1055 942Q1041 930 1014 909Q1000 899 988 890T961 870Q955 866 938 854T909 836Q886 822 874 822T846 842L811 883Q786 912 772 924Q749 942 725 942Q686 942 662 926Q629 903 608 879Q581
846 565 809Q551 778 537 727Q525 684 519 641T512 559Q512 500 526 465Q542 428 567 406T625 375Q662 365 692 365Q708 365 745 373Q759 377 803 397Q834 412 870 440Q919 477 948 504Q950 502 953 497T958 489Q964 479 973 469L987 451Q995 439 995 438Q946 391
879 336Q838 301 778 270Q733 245 688 233Q651 223 600 223Q551 223 502 238Q451 252 408 287Q363 322 336 379Q305 445 305 526Q305 569 315 627Q325 682 348 733Q373 790 414 841T520 944Q534 956 575 981Q606 999 643 1012Q688 1026 723 1034Q770 1044 809 1044Q860
1044 895 1030Q938 1012 963 997Q998 977 1014 963Q1035 946 1055 942ZM1180 719Q1180 825 1151 905Q1120 991 1065 1053Q1008 1116 934 1149Q854 1184 766 1184Q686 1184 612 1159Q542 1136 473 1090Q414 1051 359 986T268 854Q237 795 213 705Q193 629 193 545Q193
436 221 356Q252 270 307 209T438 111Q510 76 608 76Q690 76 764 100T901 170Q962 213 1016 276Q1067 335 1104 408Q1135 465 1159 559Q1180 635 1180 719ZM1300 752Q1300 662 1278 561Q1258 467 1212 375Q1167 281 1108 207Q1047 130 967 72Q889 15 795 -18Q703
-51 592 -51Q473 -51 375 -4T211 121Q141 205 109 303Q74 412 74 526Q74 618 98 713Q125 819 164 895Q205 977 270 1059Q329 1133 412 1190Q498 1249 584 1278Q682 1311 780 1311Q899 1311 999 1266Q1093 1223 1161 1147Q1224 1073 1264 969Q1300 869 1300 752Z"
/>
<glyph unicode="&#xaa;" glyph-name="ordfeminine" horiz-adv-x="624" d="M623 809Q598 793 575 780Q567 776 554 768T532 756Q503 744 492 739Q474 733 464 733T441 739T416 758Q402 772 393 788Q384 806 381 831Q342 782 307 756Q276 733 242 733Q222 733 190
743Q162 752 141 774Q121 794 104 831Q90 862 90 918Q90 1004 137 1079Q182 1153 262 1206Q282 1222 328 1241Q367 1257 422 1257Q442 1257 467 1245Q502 1227 512 1221Q532 1233 553 1241Q565 1245 573 1250T588 1257L608 1217L592 1204L578 1190Q570 1182 567
1171Q567 1169 564 1160T559 1143Q553 1116 545 1067Q537 1016 535 997Q531 952 530 940Q530 930 529 918T528 903Q528 876 535 856Q541 833 555 834Q567 834 573 836Q582 839 604 848L623 809ZM608 645Q600 625 592 614Q582 602 575 586H66L39 616Q47 636 55 647Q61
655 72 680H580L608 645ZM389 948Q391 962 394 977T399 1010Q401 1020 404 1040T408 1069Q410 1079 413 1097T416 1120L422 1153L424 1155Q406 1169 395 1174Q381 1180 367 1180Q330 1180 303 1157Q283 1139 264 1100Q248 1061 242 1028Q236 987 236 958Q236 901
248 873T276 844Q286 844 297 850Q315 862 319 866Q344 893 350 899Q385 942 389 948Z" />
<glyph unicode="&#xab;" glyph-name="guillemotleft" horiz-adv-x="997" d="M438 430Q438 436 439 447T442 465Q442 469 443 477T446 489Q447 493 449 499Q450 503 451 504L891 934L940 883L930 864L903 817L866 750L823 674L780 598L743 530Q735 516 728 505T717
485L707 467L827 47L762 -2L438 430ZM47 430Q51 455 53 465Q53 469 54 477T57 489Q59 497 59 504L500 934L551 883L541 864L514 817L475 750L432 674L389 598L352 530Q344 516 337 505T326 485L315 467L436 47L371 -2L47 430Z" />
<glyph unicode="&#xac;" glyph-name="logicalnot" horiz-adv-x="966" d="M821 233Q812 224 797 215Q783 205 766 195Q762 193 752 185T735 174Q721 166 707 162L680 197L721 485H63L39 520Q45 540 49 547L66 580Q70 588 76 596T86 612Q94 628 100 639H842L872
606L821 233Z" />
<glyph unicode="&#xae;" glyph-name="registered" horiz-adv-x="702" d="M762 1083Q750 1007 719 938Q690 875 637 821Q590 774 524 745Q463 718 389 719Q313 719 260 745T170 821Q135 868 119 938Q105 1001 117 1083Q127 1167 158 1229Q191 1295 240 1343Q291
1394 352 1421Q420 1450 487 1450Q561 1450 614 1424T707 1346Q744 1299 758 1231Q774 1161 762 1083ZM682 1083Q692 1142 682 1196Q674 1245 647 1288Q624 1325 578 1352Q539 1375 473 1374Q410 1374 365 1352Q318 1327 281 1288Q246 1249 223 1196Q205 1153 195
1083Q187 1022 195 971Q203 922 229 879T297 815Q342 792 401 793Q458 793 510 815Q553 833 594 879Q633 920 653 971Q672 1015 682 1083ZM266 883L268 909Q276 911 287 915L297 920Q305 922 305 930L348 1243Q342 1241 332 1241L315 1239L317 1278Q345 1284 379
1290Q414 1296 451 1296Q490 1296 520 1286T565 1262Q583 1244 588 1227Q594 1209 590 1186Q584 1137 555 1112Q524 1085 483 1073L561 944Q567 932 575 932Q591 932 606 938L608 920L606 918Q600 914 584 905Q578 901 572 899T557 893L532 881Q524 877 516 877Q506
877 500 883Q496 887 492 895L422 1065H410L406 1066Q402 1067 399 1067L381 930Q379 926 388 920T416 909L414 883H266ZM426 1251L406 1112H420Q459 1112 481 1124T510 1178Q512 1205 496 1229Q480 1252 436 1251H426Z" />
<glyph unicode="&#xaf;" glyph-name="overscore" horiz-adv-x="937" d="M1004 1288Q1002 1280 991 1260Q979 1235 971 1221L948 1182Q942 1170 934 1157H174L150 1192Q152 1198 162 1219Q166 1229 172 1239T182 1257L203 1294Q209 1304 212 1311T217 1323H975L1004 1288Z" />
<glyph unicode="&#xb0;" glyph-name="degree" horiz-adv-x="681" d="M422 881Q447 881 465 893Q481 905 500 926Q508 936 520 969Q528 992 528 1018Q528 1026 524 1051Q522 1065 510 1081T487 1104Q473 1112 453 1112Q435 1112 414 1102Q396 1092 379 1073Q365
1057 354 1028Q344 1001 344 977Q344 928 367 905Q391 881 422 881ZM684 1073Q684 999 653 936Q624 877 575 827Q528 780 471 756Q408 729 362 729Q311 729 281 745T227 791Q205 819 197 852Q189 883 188 918Q188 992 217 1051Q246 1112 293 1161Q338 1208 397
1237Q458 1266 510 1266Q549 1266 586 1249Q617 1235 639 1206Q662 1175 674 1145Q684 1116 684 1073Z" />
<glyph unicode="&#xb1;" glyph-name="plusminus" horiz-adv-x="833" d="M725 225Q723 221 718 212T711 199Q707 193 704 184T694 164Q684 146 676 129Q662 106 662 104H27L0 139Q2 149 12 166Q16 172 21 184T29 201Q33 207 38 216T47 233Q49 237 54 247T61 260H696L725
225ZM795 735Q795 731 782 709Q774 693 764 674T745 639Q731 616 731 614H494L457 350Q455 348 432 340Q418 334 401 328Q397 326 385 323T369 317Q363 315 354 312T342 309L315 342L352 614H96L70 649Q72 659 82 676Q86 682 91 694T98 711Q102 717 105 723T111
732T117 743Q125 759 131 770H375L412 1036Q420 1038 436 1044Q444 1048 451 1050T467 1057Q471 1059 483 1062T500 1067Q508 1069 515 1072T526 1075L551 1042L514 770H768L795 735Z" />
<glyph unicode="&#xb4;" glyph-name="acute" horiz-adv-x="604" d="M618 1364L233 1016Q221 1020 215 1024Q213 1026 205 1030T195 1036Q183 1044 174 1053Q162 1065 158 1071L381 1468Q393 1468 424 1462T489 1450Q507 1446 553 1438Q561 1436 570 1434T586 1431T594
1430L618 1364Z" />
<glyph unicode="&#xb5;" glyph-name="uni00B5" horiz-adv-x="1130" d="M1122 215Q1073 135 1030 90T942 12Q905 -15 862 -29Q825 -41 799 -41T745 -20Q720 -2 702 31Q686 60 674 104Q664 143 659 190Q591 75 522 18Q450 -41 381 -41Q332 -41 289 -11T213 72Q205
-20 217 -102Q227 -170 251 -235T293 -330Q299 -342 319 -381Q309 -385 287 -393Q250 -405 233 -414L172 -440Q156 -448 140 -453T111 -465L59 -487L31 -500L-12 -461Q-6 -404 6 -334Q12 -301 17 -262T31 -180L59 -16L88 152Q106 265 117 315Q121 340 129 388T141
461Q147 510 158 573Q166 620 166 680Q166 709 164 717Q160 731 154 737Q150 741 141 745Q137 747 127 748Q123 748 103 744T72 735L35 723L20 801Q30 805 53 814T86 827Q158 856 166 858L246 887Q297 905 319 911Q350 923 379 930Q404 936 412 936Q440 936 449
918Q459 898 459 852Q459 842 456 817T453 780Q451 762 442 690L426 592L410 494Q402 433 399 406Q399 396 396 373T393 340Q393 264 413 232T465 199Q475 199 500 209Q506 211 545 246Q570 269 606 317Q641 364 682 432Q686 467 696 516Q704 573 709 598Q717 651
719 666Q723 707 723 721Q723 739 719 784Q715 819 707 838Q738 848 764 858L850 889Q875 897 896 904T936 918L999 936Q1007 926 1018 911Q1027 896 1030 887L1014 811Q1010 791 1005 765T993 711L969 596Q965 573 948 479Q942 448 934 375Q928 326 928 295Q928
236 938 215Q950 188 965 188Q981 188 1016 211Q1047 231 1087 285L1122 215Z" />
<glyph unicode="&#xb6;" glyph-name="paragraph" horiz-adv-x="1138" d="M1167 1178Q1095 1162 1071 1147Q1040 1131 1036 1114L870 -104Q868 -114 895 -135Q918 -151 983 -168L973 -250H332L344 -168Q407 -154 440 -136T475 -104L561 522Q527 516 481 516Q379
516 299 541Q223 564 164 616Q109 665 84 737Q59 808 72 903Q84 987 127 1059Q172 1133 236 1182Q304 1233 393 1262Q485 1291 592 1290Q596 1290 614 1289T645 1288Q678 1286 719 1284Q733 1282 763 1281T807 1280Q823 1278 852 1278T897 1276Q954 1272 1013 1268T1124
1260H1180L1167 1178ZM578 639L651 1165H625H602Q561 1165 520 1151Q477 1136 440 1108Q407 1083 377 1036Q348 991 342 938Q334 893 342 831Q348 780 370 735T434 666Q477 639 539 639H578ZM881 1137Q875 1139 864 1141T846 1143T829 1145T811 1149L639 -104V-117Q641
-123 647 -125L659 -131Q667 -135 670 -135Q682 -131 694 -125Q706 -117 711 -104L881 1137Z" />
<glyph unicode="&#xb7;" glyph-name="middot" horiz-adv-x="499" d="M418 678Q418 643 406 606Q396 575 367 543T305 494Q268 476 219 475Q147 475 117 508Q86 542 86 594Q86 635 98 662Q114 697 139 725Q168 758 201 774Q238 792 285 793Q353 793 385 760T418 678Z" />
<glyph unicode="&#xb8;" glyph-name="cedilla" horiz-adv-x="323" d="M238 -221Q238 -256 221 -289Q206 -320 179 -344T111 -387Q76 -403 27 -409T-72 -408Q-127 -398 -176 -375L-178 -297Q-147 -309 -106 -313Q-75 -315 -49 -309Q-26 -303 -12 -289Q0 -277 0
-258Q0 -238 -18 -225Q-38 -213 -61 -215Q-34 -160 -10 -102Q10 -55 23 4L129 2Q129 -14 127 -24T121 -51L115 -76L111 -92Q144 -92 168 -104Q195 -116 207 -133Q227 -156 231 -174Q238 -196 238 -221Z" />
<glyph unicode="&#xba;" glyph-name="ordmasculine" horiz-adv-x="507" d="M399 1016Q399 1053 393 1081Q387 1106 373 1128Q359 1148 346 1157Q332 1165 315 1165Q290 1165 270 1149Q254 1135 244 1106Q232 1069 229 1047Q225 1002 225 979Q225 954 233 918Q237
895 254 868Q268 843 281 834Q295 822 313 821Q338 821 356 840Q372 856 383 887Q392 915 395 948Q399 993 399 1016ZM524 645Q516 625 510 614Q502 600 496 586H37L8 616Q16 636 23 647Q27 653 37 680H496L524 645ZM557 1055Q557 979 522 915Q483 845 426 799Q391
770 354 752T268 733Q221 733 187 747T125 793Q102 818 86 858Q72 893 72 940Q72 1016 102 1077T207 1196Q246 1227 281 1241Q324 1257 362 1257Q411 1257 450 1241T512 1201T547 1137Q557 1106 557 1055Z" />
<glyph unicode="&#xbb;" glyph-name="guillemotright" horiz-adv-x="997" d="M934 500Q930 475 928 465Q928 461 927 453T924 440L922 426L481 -2L430 47L449 78Q459 94 469 113T492 156L549 256L606 356Q633 401 649 432L666 463L545 883L610 934L934 500ZM543
500Q539 475 537 465Q537 461 536 453T532 440L530 426L90 -2L41 47L51 66L78 113L115 180L158 256L201 332L238 399L264 446L274 463L154 883L219 934L543 500Z" />
<glyph unicode="&#xbf;" glyph-name="questiondown" horiz-adv-x="899" d="M340 727Q340 760 352 797Q364 836 389 862Q418 893 453 911Q490 929 539 930Q609 930 639 897Q672 860 672 811Q672 774 657 743Q639 702 618 680Q589 649 555 631Q518 613 471 612Q405
612 373 645T340 727ZM741 -162Q741 -225 707 -291Q672 -359 608 -410Q536 -467 457 -498Q371 -531 262 -530Q190 -530 135 -512Q78 -494 43 -461Q6 -426 -16 -383Q-36 -342 -37 -287Q-37 -204 -6 -139Q27 -67 68 -20Q114 35 166 84Q176 92 213 126T268 178Q323
237 350 279Q385 332 393 393L403 479Q419 491 428 494Q434 496 444 501T459 508L492 520Q517 530 518 530L543 510L537 385Q534 324 512 268Q492 217 457 166Q412 100 387 70Q338 9 317 -23Q286 -68 264 -121Q244 -168 244 -229Q244 -256 252 -301Q258 -338 272
-360Q288 -387 309 -401T358 -416Q391 -416 410 -399Q437 -376 447 -350T461 -279Q465 -238 455 -188Q463 -184 484 -177T512 -168Q535 -160 584 -147Q590 -145 616 -138T655 -129Q663 -127 711 -121L741 -162Z" />
<glyph unicode="&#xc0;" glyph-name="Agrave" horiz-adv-x="1208" d="M889 1413L856 1368Q840 1345 821 1335L389 1571L408 1636Q439 1656 455 1665Q465 1671 485 1679T516 1694L573 1720Q579 1724 593 1730T614 1739L889 1413ZM371 424L250 152Q238 121 264 106Q287
94 369 84L358 0H-55L-43 84Q22 96 55 109Q90 121 102 152L563 1196Q604 1229 625 1239Q648 1251 692 1272Q723 1286 758 1298Q770 1302 790 1308T819 1317L1051 152Q1053 138 1059 127Q1065 115 1075 107T1106 92Q1120 88 1153 84L1143 0H657L668 84Q748 90 768
102Q797 118 791 152L737 424H371ZM713 555L623 1004L428 555H713Z" />
<glyph unicode="&#xc1;" glyph-name="Aacute" horiz-adv-x="1208" d="M1083 1571L608 1335Q596 1343 580 1368Q564 1395 555 1413L897 1739L946 1712L999 1686L1047 1659L1083 1636V1571ZM371 424L250 152Q238 121 264 106Q287 94 369 84L358 0H-55L-43 84Q22
96 55 109Q90 121 102 152L563 1196Q604 1229 625 1239Q648 1251 692 1272Q723 1286 758 1298Q770 1302 790 1308T819 1317L1051 152Q1053 138 1059 127Q1065 115 1075 107T1106 92Q1120 88 1153 84L1143 0H657L668 84Q748 90 768 102Q797 118 791 152L737 424H371ZM713
555L623 1004L428 555H713Z" />
<glyph unicode="&#xc2;" glyph-name="Acircumflex" horiz-adv-x="1208" d="M1055 1401Q1035 1372 1024 1362Q1010 1348 989 1335L750 1501L469 1335L442 1362Q426 1380 416 1401L711 1712H844L1055 1401ZM371 424L250 152Q238 121 264 106Q287 94 369 84L358 0H-55L-43
84Q22 96 55 109Q90 121 102 152L563 1196Q604 1229 625 1239Q648 1251 692 1272Q723 1286 758 1298Q770 1302 790 1308T819 1317L1051 152Q1053 138 1059 127Q1065 115 1075 107T1106 92Q1120 88 1153 84L1143 0H657L668 84Q748 90 768 102Q797 118 791 152L737
424H371ZM713 555L623 1004L428 555H713Z" />
<glyph unicode="&#xc3;" glyph-name="Atilde" horiz-adv-x="1208" d="M1141 1636Q1131 1618 1087 1544Q1060 1499 1020 1448Q983 1403 938 1370Q895 1339 850 1339Q811 1339 772 1356Q739 1370 700 1391Q692 1395 679 1403T655 1417T633 1427Q596 1443 561 1444Q545
1444 520 1436Q508 1432 485 1413Q467 1399 451 1378Q443 1370 412 1329L340 1360Q350 1378 393 1452Q418 1495 463 1550Q502 1599 543 1628Q588 1661 631 1661Q676 1661 715 1645Q742 1635 788 1608Q833 1583 854 1573Q887 1557 918 1556Q963 1556 995 1583Q1024
1608 1067 1669L1141 1636ZM371 424L250 152Q238 121 264 106Q287 94 369 84L358 0H-55L-43 84Q22 96 55 109Q90 121 102 152L563 1196Q604 1229 625 1239Q648 1251 692 1272Q723 1286 758 1298Q770 1302 790 1308T819 1317L1051 152Q1053 138 1059 127Q1065 115
1075 107T1106 92Q1120 88 1153 84L1143 0H657L668 84Q748 90 768 102Q797 118 791 152L737 424H371ZM713 555L623 1004L428 555H713Z" />
<glyph unicode="&#xc4;" glyph-name="Adieresis" horiz-adv-x="1208" d="M1079 1552Q1079 1513 1069 1485Q1057 1454 1034 1423Q1009 1390 981 1374Q950 1356 909 1356Q882 1356 862 1366Q844 1375 831 1391Q819 1405 813 1425Q807 1443 807 1466Q807 1499 819
1532Q833 1573 852 1595Q875 1624 905 1642Q940 1662 977 1663Q1002 1663 1022 1653Q1045 1643 1055 1628Q1067 1614 1073 1593Q1079 1575 1079 1552ZM688 1552Q688 1519 676 1485Q664 1448 643 1423Q618 1390 590 1374Q559 1356 516 1356Q491 1356 471 1366Q453
1375 440 1391Q428 1405 422 1425Q416 1443 416 1466Q416 1503 426 1532Q440 1573 459 1595Q482 1624 512 1642Q547 1662 584 1663Q611 1663 631 1653Q649 1644 662 1628Q676 1610 682 1593Q688 1575 688 1552ZM371 424L250 152Q238 121 264 106Q287 94 369 84L358
0H-55L-43 84Q22 96 55 109Q90 121 102 152L563 1196Q604 1229 625 1239Q648 1251 692 1272Q723 1286 758 1298Q770 1302 790 1308T819 1317L1051 152Q1053 138 1059 127Q1065 115 1075 107T1106 92Q1120 88 1153 84L1143 0H657L668 84Q748 90 768 102Q797 118
791 152L737 424H371ZM713 555L623 1004L428 555H713Z" />
<glyph unicode="&#xc5;" glyph-name="Aring" horiz-adv-x="1208" d="M958 1628Q958 1581 938 1534Q913 1477 883 1442Q846 1399 799 1372Q748 1343 694 1343Q661 1343 629 1358Q604 1368 584 1393Q564 1416 555 1442Q547 1467 547 1497Q547 1544 565 1597Q581
1642 618 1690Q649 1729 700 1759Q747 1788 801 1788Q832 1788 868 1774Q893 1764 918 1739Q938 1719 948 1688T958 1628ZM809 1591Q809 1616 795 1634Q783 1650 764 1650T731 1642Q715 1632 707 1620Q697 1602 690 1583Q684 1560 684 1540Q684 1513 700 1493Q712
1479 733 1479Q751 1479 762 1487Q780 1501 786 1511Q798 1531 803 1546Q809 1568 809 1591ZM371 424L250 152Q238 121 264 106Q287 94 369 84L358 0H-55L-43 84Q22 96 55 109Q90 121 102 152L563 1196Q604 1229 625 1239Q648 1251 692 1272Q723 1286 758 1298Q770
1302 790 1308T819 1317L1051 152Q1053 138 1059 127Q1065 115 1075 107T1106 92Q1120 88 1153 84L1143 0H657L668 84Q748 90 768 102Q797 118 791 152L737 424H371ZM713 555L623 1004L428 555H713Z" />
<glyph unicode="&#xc6;" glyph-name="AE" horiz-adv-x="1556" d="M811 1108Q811 1120 809 1122Q805 1126 795 1126Q787 1126 776 1116Q762 1102 756 1090L571 735H762L811 1108ZM1524 324L1501 231L1477 133Q1471 110 1467 90T1456 51Q1446 10 1442 0H539L549
84Q619 100 645 113Q676 127 680 143L745 614H512L272 152Q256 123 274 106Q288 94 358 84L346 0H-41L-29 84Q34 94 61 106Q94 120 111 152L594 1094Q602 1110 602 1122Q602 1132 588 1143Q582 1147 547 1159Q520 1167 475 1178L485 1260H1552L1585 1225Q1583 1217
1581 1208T1576 1183T1571 1157Q1559 1100 1550 1071Q1546 1059 1539 1030T1528 987Q1516 944 1507 930H1427Q1435 1016 1425 1075Q1415 1128 1378 1128H1075L1022 735H1389L1417 696L1395 664Q1389 654 1381 645T1366 625Q1352 605 1337 586Q1329 574 1315 559Q1290
590 1255 602Q1218 614 1180 614H1006L948 195Q946 183 952 168Q958 158 977 147Q995 138 1032 135Q1106 129 1130 129H1208Q1245 129 1284 143Q1317 155 1343 182Q1374 213 1397 252Q1430 311 1450 352L1524 324Z" />
<glyph unicode="&#xc7;" glyph-name="Ccedilla" horiz-adv-x="1054" d="M653 -221Q653 -256 637 -289Q623 -316 592 -344Q561 -371 526 -387Q493 -403 440 -410Q391 -416 344 -408Q289 -398 240 -375L238 -297Q269 -309 307 -313Q338 -315 365 -309Q390 -303 403
-289Q415 -277 416 -258Q416 -238 397 -225Q377 -211 352 -215Q391 -137 406 -102Q421 -65 430 -23Q369 -17 317 4Q241 37 180 100Q125 157 90 252Q55 344 55 459Q55 557 75 651T137 840Q176 932 240 1016Q299 1096 387 1167Q432 1202 469 1219Q526 1246 565 1257Q616
1273 666 1282Q713 1290 764 1290Q819 1290 862 1282Q895 1276 956 1260Q999 1248 1038 1229Q1075 1211 1096 1190Q1098 1188 1092 1169Q1088 1157 1073 1128Q1065 1112 1045 1075T1014 1022Q994 989 983 975Q965 948 961 946L891 965Q875 1010 862 1032Q842 1069
819 1092Q794 1119 760 1133Q723 1149 686 1149Q645 1149 615 1141T541 1100Q482 1055 436 977Q397 909 371 821Q348 743 338 659Q328 571 328 516Q328 403 354 336Q379 270 424 223Q461 182 512 164Q561 146 602 145Q629 145 659 152Q708 162 731 170Q771 185
823 213Q868 236 938 287Q942 285 948 272Q950 268 954 261T960 250T971 225Q973 215 977 211Q914 148 842 98Q772 51 711 25Q648 -2 592 -14Q578 -18 541 -23V-25Q541 -29 540 -38T537 -51L530 -76Q528 -84 524 -92Q557 -92 582 -104Q611 -118 623 -133Q639 -153
645 -174Q653 -203 653 -221Z" />
<glyph unicode="&#xc8;" glyph-name="Egrave" horiz-adv-x="1028" d="M977 324Q963 252 956 231L932 133L911 51Q905 24 895 0H-10L0 84Q78 102 100 113Q131 127 135 143L268 1114Q271 1126 244 1145Q219 1161 152 1178L162 1260H1006L1040 1225Q1038 1217 1036
1208T1031 1183T1026 1157Q1020 1128 1004 1071Q1000 1059 993 1030T981 987Q965 934 963 930H883Q891 1022 879 1077Q867 1130 834 1130H530L475 735H844L872 696Q870 692 850 664L821 623Q809 607 793 586Q775 563 768 559Q752 579 741 586Q721 598 707 602Q680
610 657 612Q639 614 592 614H459L401 195Q399 183 406 168Q412 156 428 147Q446 139 485 135Q559 129 584 129H666Q705 129 741 143Q776 157 801 182Q828 209 852 252Q872 289 903 352L977 324ZM799 1413L766 1368Q750 1345 731 1335L301 1571L317 1636Q342 1652
367 1665L426 1694L483 1720Q511 1732 526 1739L799 1413Z" />
<glyph unicode="&#xc9;" glyph-name="Eacute" horiz-adv-x="1028" d="M977 324Q963 252 956 231L932 133L911 51Q905 24 895 0H-10L0 84Q78 102 100 113Q131 127 135 143L268 1114Q271 1126 244 1145Q219 1161 152 1178L162 1260H1006L1040 1225Q1038 1217 1036
1208T1031 1183T1026 1157Q1020 1128 1004 1071Q1000 1059 993 1030T981 987Q965 934 963 930H883Q891 1022 879 1077Q867 1130 834 1130H530L475 735H844L872 696Q870 692 850 664L821 623Q809 607 793 586Q775 563 768 559Q752 579 741 586Q721 598 707 602Q680
610 657 612Q639 614 592 614H459L401 195Q399 183 406 168Q412 156 428 147Q446 139 485 135Q559 129 584 129H666Q705 129 741 143Q776 157 801 182Q828 209 852 252Q872 289 903 352L977 324ZM995 1571L520 1335Q508 1343 492 1368Q476 1395 467 1413L809 1739L856
1712L909 1686L958 1659L995 1636V1571Z" />
<glyph unicode="&#xca;" glyph-name="Ecircumflex" horiz-adv-x="1028" d="M977 324Q963 252 956 231L932 133L911 51Q905 24 895 0H-10L0 84Q78 102 100 113Q131 127 135 143L268 1114Q271 1126 244 1145Q219 1161 152 1178L162 1260H1006L1040 1225Q1038 1217
1036 1208T1031 1183T1026 1157Q1020 1128 1004 1071Q1000 1059 993 1030T981 987Q965 934 963 930H883Q891 1022 879 1077Q867 1130 834 1130H530L475 735H844L872 696Q870 692 850 664L821 623Q809 607 793 586Q775 563 768 559Q752 579 741 586Q721 598 707
602Q680 610 657 612Q639 614 592 614H459L401 195Q399 183 406 168Q412 156 428 147Q446 139 485 135Q559 129 584 129H666Q705 129 741 143Q776 157 801 182Q828 209 852 252Q872 289 903 352L977 324ZM967 1401Q951 1381 935 1362T901 1335L662 1501L381 1335L354
1362Q336 1380 328 1401L623 1712H754L967 1401Z" />
<glyph unicode="&#xcb;" glyph-name="Edieresis" horiz-adv-x="1028" d="M991 1552Q991 1519 979 1485Q967 1448 946 1423Q921 1390 893 1374Q862 1356 819 1356Q794 1356 774 1366Q756 1375 743 1391Q731 1405 725 1425Q719 1443 719 1466Q719 1503 729 1532Q743
1573 762 1595Q785 1624 815 1642Q850 1662 887 1663Q914 1663 934 1653Q952 1644 965 1628Q979 1610 985 1593Q991 1575 991 1552ZM598 1552Q598 1513 588 1485Q576 1448 555 1423Q532 1392 500 1374Q469 1356 428 1356Q403 1356 383 1366Q360 1376 350 1391Q338
1405 332 1425Q326 1443 326 1466Q326 1499 338 1532Q352 1573 371 1595Q394 1624 424 1642Q459 1662 496 1663Q521 1663 541 1653Q564 1643 573 1628Q585 1614 592 1593Q598 1575 598 1552ZM977 324Q963 252 956 231L932 133L911 51Q905 24 895 0H-10L0 84Q78
102 100 113Q131 127 135 143L268 1114Q271 1126 244 1145Q219 1161 152 1178L162 1260H1006L1040 1225Q1038 1217 1036 1208T1031 1183T1026 1157Q1020 1128 1004 1071Q1000 1059 993 1030T981 987Q965 934 963 930H883Q891 1022 879 1077Q867 1130 834 1130H530L475
735H844L872 696Q870 692 850 664L821 623Q809 607 793 586Q775 563 768 559Q752 579 741 586Q721 598 707 602Q680 610 657 612Q639 614 592 614H459L401 195Q399 183 406 168Q412 156 428 147Q446 139 485 135Q559 129 584 129H666Q705 129 741 143Q776 157 801
182Q828 209 852 252Q872 289 903 352L977 324Z" />
<glyph unicode="&#xcc;" glyph-name="Igrave" horiz-adv-x="651" d="M606 1413L573 1368Q557 1345 539 1335L109 1571L125 1636Q150 1652 174 1665L233 1694L291 1720Q319 1732 334 1739L606 1413ZM682 1178Q608 1160 584 1147Q553 1131 549 1114L416 143Q414
133 440 115Q460 101 532 84L520 0H10L20 84Q94 102 119 113Q150 127 154 143L287 1114Q290 1126 262 1145Q237 1161 170 1178L182 1260H692L682 1178Z" />
<glyph unicode="&#xcd;" glyph-name="Iacute" horiz-adv-x="651" d="M803 1571L328 1335Q316 1343 299 1368Q283 1395 274 1413L614 1739L664 1712L717 1686L764 1659L803 1636V1571ZM682 1178Q608 1160 584 1147Q553 1131 549 1114L416 143Q414 133 440 115Q460
101 532 84L520 0H10L20 84Q94 102 119 113Q150 127 154 143L287 1114Q290 1126 262 1145Q237 1161 170 1178L182 1260H692L682 1178Z" />
<glyph unicode="&#xce;" glyph-name="Icircumflex" horiz-adv-x="651" d="M772 1401Q752 1372 741 1362Q725 1344 709 1335L469 1501L186 1335Q182 1337 175 1346T162 1362Q142 1382 133 1401L428 1712H561L772 1401ZM682 1178Q608 1160 584 1147Q553 1131 549
1114L416 143Q414 133 440 115Q460 101 532 84L520 0H10L20 84Q94 102 119 113Q150 127 154 143L287 1114Q290 1126 262 1145Q237 1161 170 1178L182 1260H692L682 1178Z" />
<glyph unicode="&#xcf;" glyph-name="Idieresis" horiz-adv-x="651" d="M799 1552Q799 1519 786 1485Q774 1448 754 1423Q731 1392 698 1374Q667 1356 627 1356Q602 1356 582 1366Q559 1376 549 1391Q537 1405 530 1425Q524 1443 524 1466Q524 1499 537 1532Q551
1573 569 1595Q592 1624 623 1642Q658 1662 694 1663Q721 1663 741 1653Q759 1644 772 1628Q784 1614 791 1593Q799 1568 799 1552ZM406 1552Q406 1513 395 1485Q383 1454 360 1423Q335 1390 307 1374Q276 1356 236 1356Q209 1356 188 1366Q170 1375 158 1391Q146
1405 139 1425Q133 1443 133 1466Q133 1499 145 1532Q159 1573 178 1595Q201 1624 231 1642Q266 1662 301 1663Q328 1663 348 1653Q371 1643 381 1628Q393 1614 399 1593Q406 1575 406 1552ZM682 1178Q608 1160 584 1147Q553 1131 549 1114L416 143Q414 133 440
115Q460 101 532 84L520 0H10L20 84Q94 102 119 113Q150 127 154 143L287 1114Q290 1126 262 1145Q237 1161 170 1178L182 1260H692L682 1178Z" />
<glyph unicode="&#xd1;" glyph-name="Ntilde" horiz-adv-x="1271" d="M1188 1636Q1178 1618 1135 1544Q1115 1509 1065 1448Q1028 1403 983 1370Q940 1339 897 1339Q856 1339 817 1356Q792 1366 748 1391Q740 1395 727 1403T702 1417T680 1427Q643 1443 606 1444Q592
1444 567 1436Q555 1432 532 1413Q516 1399 498 1378Q490 1370 459 1329L385 1360Q393 1374 412 1407T440 1452Q465 1495 510 1550Q549 1599 590 1628Q635 1661 678 1661Q723 1661 762 1645Q778 1637 834 1608Q879 1583 899 1573Q932 1557 965 1556Q1008 1556 1040
1583Q1074 1611 1114 1669L1188 1636ZM1358 1178Q1290 1168 1257 1149Q1226 1131 1223 1114L1067 -31Q1020 -29 977 -14Q930 0 906 12T856 49Q833 72 823 90L393 895L291 143Q291 135 295 129T313 113Q315 111 350 96Q358 92 408 84L397 0H-2L8 84Q80 94 109 111Q140
129 141 143L272 1102Q260 1118 217 1151Q192 1171 158 1178L170 1260H451Q465 1260 471 1257Q483 1253 489 1247Q493 1243 506 1223Q510 1215 516 1205T528 1182L971 352L1075 1114Q1075 1118 1071 1130Q1069 1136 1055 1147Q1053 1149 1018 1163Q1002 1171 958
1178L969 1260H1368L1358 1178Z" />
<glyph unicode="&#xd2;" glyph-name="Ograve" horiz-adv-x="1189" d="M899 1413Q895 1407 885 1392T868 1368Q852 1345 834 1335L401 1571L420 1636Q451 1656 467 1665Q477 1671 497 1679T528 1694L586 1720Q592 1724 606 1730T627 1739L899 1413ZM911 756Q911
836 895 913Q881 987 850 1040Q821 1093 774 1124Q729 1155 672 1155Q617 1155 569 1126Q526 1099 487 1049Q450 1000 424 939T379 805Q359 725 350 666Q342 603 342 532Q342 432 356 360Q372 278 401 227Q432 172 475 142T575 111Q636 111 682 139Q733 170 768
221Q803 270 831 338Q856 393 877 475Q893 536 903 621Q911 686 911 756ZM1180 774Q1180 700 1165 631Q1147 547 1126 485Q1106 428 1063 348Q1030 287 981 225Q936 168 885 125Q819 70 770 43Q719 14 643 -10Q582 -30 512 -31Q412 -31 326 10Q246 49 186 121Q133
187 100 287Q69 381 70 485Q70 642 119 774Q168 909 248 1018Q299 1084 342 1124Q393 1171 457 1210Q516 1247 590 1268Q668 1291 745 1290Q849 1290 936 1249Q1012 1212 1071 1137Q1126 1067 1153 973Q1180 880 1180 774Z" />
<glyph unicode="&#xd3;" glyph-name="Oacute" horiz-adv-x="1189" d="M1096 1571L621 1335Q609 1343 592 1368Q576 1395 567 1413L909 1739L958 1712L1010 1686L1059 1659L1096 1636V1571ZM911 756Q911 836 895 913Q881 987 850 1040Q821 1093 774 1124Q729 1155
672 1155Q617 1155 569 1126Q526 1099 487 1049Q450 1000 424 939T379 805Q359 725 350 666Q342 603 342 532Q342 432 356 360Q372 278 401 227Q432 172 475 142T575 111Q636 111 682 139Q733 170 768 221Q803 270 831 338Q856 393 877 475Q893 536 903 621Q911
686 911 756ZM1180 774Q1180 700 1165 631Q1147 547 1126 485Q1106 428 1063 348Q1030 287 981 225Q936 168 885 125Q819 70 770 43Q719 14 643 -10Q582 -30 512 -31Q412 -31 326 10Q246 49 186 121Q133 187 100 287Q69 381 70 485Q70 642 119 774Q168 909 248
1018Q299 1084 342 1124Q393 1171 457 1210Q516 1247 590 1268Q668 1291 745 1290Q849 1290 936 1249Q1012 1212 1071 1137Q1126 1067 1153 973Q1180 880 1180 774Z" />
<glyph unicode="&#xd4;" glyph-name="Ocircumflex" horiz-adv-x="1189" d="M1067 1401Q1047 1372 1036 1362Q1022 1348 1001 1335L762 1501L481 1335L455 1362Q439 1380 428 1401L723 1712H854L1067 1401ZM911 756Q911 836 895 913Q881 987 850 1040Q821 1093
774 1124Q729 1155 672 1155Q617 1155 569 1126Q526 1099 487 1049Q450 1000 424 939T379 805Q359 725 350 666Q342 603 342 532Q342 432 356 360Q372 278 401 227Q432 172 475 142T575 111Q636 111 682 139Q733 170 768 221Q803 270 831 338Q856 393 877 475Q893
536 903 621Q911 686 911 756ZM1180 774Q1180 700 1165 631Q1147 547 1126 485Q1106 428 1063 348Q1030 287 981 225Q936 168 885 125Q819 70 770 43Q719 14 643 -10Q582 -30 512 -31Q412 -31 326 10Q246 49 186 121Q133 187 100 287Q69 381 70 485Q70 642 119
774Q168 909 248 1018Q299 1084 342 1124Q393 1171 457 1210Q516 1247 590 1268Q668 1291 745 1290Q849 1290 936 1249Q1012 1212 1071 1137Q1126 1067 1153 973Q1180 880 1180 774Z" />
<glyph unicode="&#xd5;" glyph-name="Otilde" horiz-adv-x="1189" d="M1153 1636Q1143 1618 1100 1544Q1080 1509 1030 1448Q991 1399 950 1370Q907 1339 862 1339Q823 1339 784 1356Q751 1370 713 1391Q705 1395 692 1403T667 1417T645 1427Q608 1443 573 1444Q557
1444 532 1436Q520 1432 498 1413Q480 1399 463 1378Q455 1370 424 1329L352 1360Q362 1378 406 1452Q431 1495 475 1550Q514 1599 555 1628Q600 1661 643 1661Q688 1661 727 1645Q743 1637 799 1608Q822 1596 866 1573Q899 1557 930 1556Q973 1556 1006 1583Q1040
1611 1079 1669L1153 1636ZM911 756Q911 836 895 913Q881 987 850 1040Q821 1093 774 1124Q729 1155 672 1155Q617 1155 569 1126Q526 1099 487 1049Q450 1000 424 939T379 805Q359 725 350 666Q342 603 342 532Q342 432 356 360Q372 278 401 227Q432 172 475 142T575
111Q636 111 682 139Q733 170 768 221Q803 270 831 338Q856 393 877 475Q893 536 903 621Q911 686 911 756ZM1180 774Q1180 700 1165 631Q1147 547 1126 485Q1106 428 1063 348Q1030 287 981 225Q936 168 885 125Q819 70 770 43Q719 14 643 -10Q582 -30 512 -31Q412
-31 326 10Q246 49 186 121Q133 187 100 287Q69 381 70 485Q70 642 119 774Q168 909 248 1018Q299 1084 342 1124Q393 1171 457 1210Q516 1247 590 1268Q668 1291 745 1290Q849 1290 936 1249Q1012 1212 1071 1137Q1126 1067 1153 973Q1180 880 1180 774Z" />
<glyph unicode="&#xd6;" glyph-name="Odieresis" horiz-adv-x="1189" d="M1092 1552Q1092 1513 1081 1485Q1069 1454 1047 1423Q1022 1390 993 1374Q962 1356 922 1356Q895 1356 874 1366Q856 1375 844 1391Q832 1405 825 1425Q819 1443 819 1466Q819 1499 831
1532Q845 1573 864 1595Q887 1624 918 1642Q953 1662 987 1663Q1014 1663 1034 1653Q1057 1643 1067 1628Q1079 1614 1085 1593Q1092 1575 1092 1552ZM700 1552Q700 1519 688 1485Q676 1448 655 1423Q632 1392 600 1374Q569 1356 528 1356Q503 1356 483 1366Q460
1376 451 1391Q439 1405 432 1425Q426 1443 426 1466Q426 1499 438 1532Q452 1573 471 1595Q494 1624 524 1642Q559 1662 596 1663Q623 1663 643 1653Q661 1644 674 1628Q688 1610 694 1593Q700 1575 700 1552ZM911 756Q911 836 895 913Q881 987 850 1040Q821 1093
774 1124Q729 1155 672 1155Q617 1155 569 1126Q526 1099 487 1049Q450 1000 424 939T379 805Q359 725 350 666Q342 603 342 532Q342 432 356 360Q372 278 401 227Q432 172 475 142T575 111Q636 111 682 139Q733 170 768 221Q803 270 831 338Q856 393 877 475Q893
536 903 621Q911 686 911 756ZM1180 774Q1180 700 1165 631Q1147 547 1126 485Q1106 428 1063 348Q1030 287 981 225Q936 168 885 125Q819 70 770 43Q719 14 643 -10Q582 -30 512 -31Q412 -31 326 10Q246 49 186 121Q133 187 100 287Q69 381 70 485Q70 642 119
774Q168 909 248 1018Q299 1084 342 1124Q393 1171 457 1210Q516 1247 590 1268Q668 1291 745 1290Q849 1290 936 1249Q1012 1212 1071 1137Q1126 1067 1153 973Q1180 880 1180 774Z" />
<glyph unicode="&#xd8;" glyph-name="Oslash" horiz-adv-x="1187" d="M911 756Q911 762 910 778T909 801Q909 817 905 846L399 229Q430 172 473 142T575 111Q636 111 682 139Q733 170 768 221Q803 270 831 338Q856 393 877 475Q893 536 903 621Q911 686 911 756ZM342
532Q342 485 344 463T350 399L860 1018Q829 1081 784 1118Q737 1155 672 1155Q617 1155 569 1126Q526 1099 487 1049Q450 1000 424 939T379 805Q359 725 350 666Q342 602 342 532ZM1180 774Q1180 700 1165 631Q1147 547 1126 485Q1106 428 1063 348Q1030 287 981
225Q936 168 885 125Q819 70 770 43Q719 14 643 -10Q582 -30 512 -31Q438 -31 371 -8Q310 12 256 53L211 -2Q205 -8 176 -18Q143 -30 125 -34T74 -47Q49 -53 37 -53L10 -14L158 164Q113 236 92 313Q69 399 70 485Q70 642 119 774Q168 909 248 1018Q299 1084 342
1124Q393 1171 457 1210Q516 1247 590 1268Q668 1291 745 1290Q825 1290 893 1266Q963 1241 1012 1200L1063 1264Q1075 1270 1100 1280Q1116 1286 1149 1294Q1151 1294 1168 1299T1196 1307Q1219 1309 1235 1313L1260 1276L1106 1087Q1143 1024 1161 942Q1180 862
1180 774Z" />
<glyph unicode="&#xd9;" glyph-name="Ugrave" horiz-adv-x="1280" d="M944 1413Q940 1407 930 1392T913 1368Q897 1345 879 1335L446 1571L465 1636Q496 1656 512 1665Q522 1671 542 1679T573 1694L631 1720Q637 1724 651 1730T672 1739L944 1413ZM1339 1178Q1271
1162 1247 1147Q1216 1129 1214 1114L1130 512Q1112 380 1063 279Q1014 177 942 109Q872 43 780 4Q696 -31 592 -31Q512 -31 434 -6Q357 19 299 68Q240 117 207 186Q170 264 170 348Q170 395 180 463L272 1114Q272 1126 248 1145Q225 1161 158 1178L170 1260H674L664
1178Q592 1162 567 1147Q532 1129 530 1114L442 510Q438 494 434 453Q432 435 432 397Q432 258 491 193T674 127Q742 127 786 151T866 223Q897 266 917 331T946 469L1038 1114Q1038 1122 1034 1128T1016 1145Q1008 1151 983 1161T930 1178L940 1260H1352L1339 1178Z"
/>
<glyph unicode="&#xda;" glyph-name="Uacute" horiz-adv-x="1280" d="M1141 1571L666 1335Q654 1343 637 1368Q621 1395 612 1413L954 1739L1004 1712L1055 1686L1104 1659L1141 1636V1571ZM1339 1178Q1271 1162 1247 1147Q1216 1129 1214 1114L1130 512Q1112
380 1063 279Q1014 177 942 109Q872 43 780 4Q696 -31 592 -31Q512 -31 434 -6Q357 19 299 68Q240 117 207 186Q170 264 170 348Q170 395 180 463L272 1114Q272 1126 248 1145Q225 1161 158 1178L170 1260H674L664 1178Q592 1162 567 1147Q532 1129 530 1114L442
510Q438 494 434 453Q432 435 432 397Q432 258 491 193T674 127Q742 127 786 151T866 223Q897 266 917 331T946 469L1038 1114Q1038 1122 1034 1128T1016 1145Q1008 1151 983 1161T930 1178L940 1260H1352L1339 1178Z" />
<glyph unicode="&#xdb;" glyph-name="Ucircumflex" horiz-adv-x="1280" d="M1112 1401Q1092 1372 1081 1362Q1067 1348 1047 1335L807 1501L526 1335L500 1362Q484 1380 473 1401L768 1712H899L1112 1401ZM1339 1178Q1271 1162 1247 1147Q1216 1129 1214 1114L1130
512Q1112 380 1063 279Q1014 177 942 109Q872 43 780 4Q696 -31 592 -31Q512 -31 434 -6Q357 19 299 68Q240 117 207 186Q170 264 170 348Q170 395 180 463L272 1114Q272 1126 248 1145Q225 1161 158 1178L170 1260H674L664 1178Q592 1162 567 1147Q532 1129 530
1114L442 510Q438 494 434 453Q432 435 432 397Q432 258 491 193T674 127Q742 127 786 151T866 223Q897 266 917 331T946 469L1038 1114Q1038 1122 1034 1128T1016 1145Q1008 1151 983 1161T930 1178L940 1260H1352L1339 1178Z" />
<glyph unicode="&#xdc;" glyph-name="Udieresis" horiz-adv-x="1280" d="M1137 1552Q1137 1513 1126 1485Q1114 1454 1092 1423Q1067 1390 1038 1374Q1007 1356 967 1356Q940 1356 920 1366Q902 1375 889 1391Q877 1405 870 1425Q864 1443 864 1466Q864 1503 874
1532Q886 1567 909 1595Q934 1626 961 1642Q996 1662 1032 1663Q1059 1663 1079 1653Q1102 1643 1112 1628Q1124 1614 1130 1593Q1137 1575 1137 1552ZM745 1552Q745 1519 733 1485Q721 1448 700 1423Q677 1392 645 1374Q614 1356 573 1356Q548 1356 528 1366Q505
1376 496 1391Q484 1405 477 1425Q471 1443 471 1466Q471 1499 483 1532Q497 1573 516 1595Q539 1624 569 1642Q604 1662 641 1663Q668 1663 688 1653Q706 1644 719 1628Q733 1610 739 1593Q745 1575 745 1552ZM1339 1178Q1271 1162 1247 1147Q1216 1129 1214 1114L1130
512Q1112 380 1063 279Q1014 177 942 109Q872 43 780 4Q696 -31 592 -31Q512 -31 434 -6Q357 19 299 68Q240 117 207 186Q170 264 170 348Q170 395 180 463L272 1114Q272 1126 248 1145Q225 1161 158 1178L170 1260H674L664 1178Q592 1162 567 1147Q532 1129 530
1114L442 510Q438 494 434 453Q432 435 432 397Q432 258 491 193T674 127Q742 127 786 151T866 223Q897 266 917 331T946 469L1038 1114Q1038 1122 1034 1128T1016 1145Q1008 1151 983 1161T930 1178L940 1260H1352L1339 1178Z" />
<glyph unicode="&#xdf;" glyph-name="germandbls" horiz-adv-x="1161" d="M1120 1225Q1120 1143 1096 1087Q1069 1028 1038 991Q1011 958 963 922Q955 916 927 895T887 864Q854 837 829 807Q806 778 807 731Q807 694 829 666Q856 633 889 608Q938 571 965 553Q1000
528 1042 489Q1069 464 1100 412Q1125 369 1124 311Q1124 272 1108 227Q1098 196 1063 147Q1038 112 993 74Q952 39 903 14Q848 -15 803 -27Q754 -41 692 -41Q653 -41 604 -25Q559 -11 520 14T457 66Q432 94 432 115Q432 121 438 139Q440 145 447 160T457 180L481
229Q485 239 495 254T508 274Q522 299 532 309Q546 323 553 324Q557 324 567 307Q573 297 590 264Q602 239 618 211Q643 166 651 156Q674 127 692 113Q715 97 741 96Q763 96 784 102Q809 108 825 123Q845 139 856 164Q868 193 868 233Q868 286 846 328Q830 359
786 397Q749 430 711 455Q671 480 637 510Q594 549 578 578Q555 617 555 668Q555 725 578 770Q596 807 635 846T707 907Q747 935 780 969Q815 1004 836 1044Q859 1089 858 1153Q858 1200 844 1237Q830 1276 803 1305Q776 1336 750 1350Q721 1366 694 1366Q631 1366
586 1333Q539 1298 510 1243Q479 1184 461 1110Q445 1040 434 952L346 193Q334 91 285 -20Q242 -114 172 -211Q111 -295 29 -371Q-39 -432 -123 -485L-170 -391Q-119 -362 -80 -309T-8 -180Q21 -114 43 -27Q61 43 72 139L160 899Q168 979 197 1057Q222 1127 264
1198Q303 1264 356 1323Q403 1376 473 1425Q531 1468 608 1493Q684 1518 770 1518Q853 1518 918 1493Q979 1470 1028 1423Q1069 1384 1096 1329Q1120 1277 1120 1225Z" />
<glyph unicode="&#xe0;" glyph-name="agrave" horiz-adv-x="1005" d="M713 1057Q684 1041 666 1032Q654 1026 621 1016L319 1372L362 1427Q393 1435 408 1438Q453 1446 477 1450Q491 1452 514 1457T547 1464Q570 1468 594 1468L713 1057ZM578 360Q584 405 590
449Q598 504 604 545Q608 568 611 591T618 637L633 715Q623 725 575 762Q550 780 520 780Q480 780 446 762Q413 744 387 711Q364 682 344 639Q328 604 313 553Q301 510 295 463Q291 432 291 379Q291 327 297 287Q303 248 315 223Q327 200 342 188T373 176Q387 176
403 184Q426 196 449 215Q484 246 506 272Q560 335 578 360ZM1006 119L920 59Q852 16 838 8Q787 -19 768 -27Q733 -41 719 -41T680 -31Q657 -21 635 4Q615 27 596 72Q576 121 569 176Q524 119 500 92Q459 47 426 23Q399 3 346 -23Q306 -41 266 -41Q229 -41 188
-23Q145 -3 113 39Q74 88 55 145Q32 213 33 305Q33 385 53 459Q73 535 113 604Q150 672 205 733Q254 786 332 842Q391 881 463 907Q543 936 633 936Q676 936 715 918Q752 902 793 877Q807 885 834 895T868 907Q915 927 932 936L967 860Q942 840 938 836Q930 828
920 811Q912 799 905 774Q893 729 891 721Q887 703 864 584Q852 518 846 465Q844 449 840 417T834 371Q830 318 829 309Q829 289 834 256Q834 252 846 211Q850 193 862 178Q872 166 885 166Q905 166 926 172Q965 182 989 195L1006 119Z" />
<glyph unicode="&#xe1;" glyph-name="aacute" horiz-adv-x="1005" d="M977 1364L592 1016Q580 1020 573 1024Q569 1026 563 1030T553 1036Q541 1044 532 1053Q520 1065 516 1071L739 1468Q751 1468 782 1462L848 1450L913 1438Q950 1430 952 1430L977 1364ZM578
360Q584 405 590 449Q598 504 604 545Q608 568 611 591T618 637L633 715Q623 725 575 762Q550 780 520 780Q480 780 446 762Q413 744 387 711Q364 682 344 639Q328 604 313 553Q301 510 295 463Q291 432 291 379Q291 327 297 287Q303 248 315 223Q327 200 342 188T373
176Q387 176 403 184Q426 196 449 215Q484 246 506 272Q560 335 578 360ZM1006 119L920 59Q852 16 838 8Q787 -19 768 -27Q733 -41 719 -41T680 -31Q657 -21 635 4Q615 27 596 72Q576 121 569 176Q524 119 500 92Q459 47 426 23Q399 3 346 -23Q306 -41 266 -41Q229
-41 188 -23Q145 -3 113 39Q74 88 55 145Q32 213 33 305Q33 385 53 459Q73 535 113 604Q150 672 205 733Q254 786 332 842Q391 881 463 907Q543 936 633 936Q676 936 715 918Q752 902 793 877Q807 885 834 895T868 907Q915 927 932 936L967 860Q942 840 938 836Q930
828 920 811Q912 799 905 774Q893 729 891 721Q887 703 864 584Q852 518 846 465Q844 449 840 417T834 371Q830 318 829 309Q829 289 834 256Q834 252 846 211Q850 193 862 178Q872 166 885 166Q905 166 926 172Q965 182 989 195L1006 119Z" />
<glyph unicode="&#xe2;" glyph-name="acircumflex" horiz-adv-x="1005" d="M942 1081Q928 1063 905 1042Q893 1032 866 1016L639 1231L346 1016Q344 1016 340 1020T334 1026Q322 1034 315 1040Q311 1044 305 1050T297 1061Q293 1065 290 1072T285 1081L588 1462H739L942
1081ZM578 360Q584 405 590 449Q598 504 604 545Q608 568 611 591T618 637L633 715Q623 725 575 762Q550 780 520 780Q480 780 446 762Q413 744 387 711Q364 682 344 639Q328 604 313 553Q301 510 295 463Q291 432 291 379Q291 327 297 287Q303 248 315 223Q327
200 342 188T373 176Q387 176 403 184Q426 196 449 215Q484 246 506 272Q560 335 578 360ZM1006 119L920 59Q852 16 838 8Q787 -19 768 -27Q733 -41 719 -41T680 -31Q657 -21 635 4Q615 27 596 72Q576 121 569 176Q524 119 500 92Q459 47 426 23Q399 3 346 -23Q306
-41 266 -41Q229 -41 188 -23Q145 -3 113 39Q74 88 55 145Q32 213 33 305Q33 385 53 459Q73 535 113 604Q150 672 205 733Q254 786 332 842Q391 881 463 907Q543 936 633 936Q676 936 715 918Q752 902 793 877Q807 885 834 895T868 907Q915 927 932 936L967 860Q942
840 938 836Q930 828 920 811Q912 799 905 774Q893 729 891 721Q887 703 864 584Q852 518 846 465Q844 449 840 417T834 371Q830 318 829 309Q829 289 834 256Q834 252 846 211Q850 193 862 178Q872 166 885 166Q905 166 926 172Q965 182 989 195L1006 119Z" />
<glyph unicode="&#xe3;" glyph-name="atilde" horiz-adv-x="1005" d="M1016 1348Q1006 1330 963 1255Q932 1203 895 1157Q862 1116 813 1081Q770 1050 725 1051Q686 1051 647 1067Q614 1081 575 1102Q530 1127 508 1137Q471 1153 436 1153Q420 1153 395 1145Q379
1139 360 1124Q344 1110 326 1090Q318 1082 287 1040L215 1069L268 1163Q293 1206 338 1262Q377 1311 418 1339Q461 1370 506 1370T590 1354Q623 1340 662 1319Q670 1315 684 1307T709 1292T729 1282Q758 1268 793 1268Q838 1268 870 1294Q899 1319 942 1380L1016
1348ZM578 360Q584 405 590 449Q598 504 604 545Q608 568 611 591T618 637L633 715Q623 725 575 762Q550 780 520 780Q480 780 446 762Q413 744 387 711Q364 682 344 639Q328 604 313 553Q301 510 295 463Q291 432 291 379Q291 327 297 287Q303 248 315 223Q327
200 342 188T373 176Q387 176 403 184Q426 196 449 215Q484 246 506 272Q560 335 578 360ZM1006 119L920 59Q852 16 838 8Q787 -19 768 -27Q733 -41 719 -41T680 -31Q657 -21 635 4Q615 27 596 72Q576 121 569 176Q524 119 500 92Q459 47 426 23Q399 3 346 -23Q306
-41 266 -41Q229 -41 188 -23Q145 -3 113 39Q74 88 55 145Q32 213 33 305Q33 385 53 459Q73 535 113 604Q150 672 205 733Q254 786 332 842Q391 881 463 907Q543 936 633 936Q676 936 715 918Q752 902 793 877Q807 885 834 895T868 907Q915 927 932 936L967 860Q942
840 938 836Q930 828 920 811Q912 799 905 774Q893 729 891 721Q887 703 864 584Q852 518 846 465Q844 449 840 417T834 371Q830 318 829 309Q829 289 834 256Q834 252 846 211Q850 193 862 178Q872 166 885 166Q905 166 926 172Q965 182 989 195L1006 119Z" />
<glyph unicode="&#xe4;" glyph-name="adieresis" horiz-adv-x="1005" d="M965 1272Q965 1235 954 1206Q942 1171 920 1143T866 1096Q831 1076 795 1075Q768 1075 748 1085Q730 1094 717 1110Q705 1124 698 1145Q692 1163 692 1186Q692 1217 705 1251Q719 1292
737 1315Q764 1350 788 1364Q819 1382 860 1382Q891 1382 907 1374Q925 1364 940 1348Q952 1334 958 1313Q965 1295 965 1272ZM573 1272Q573 1241 561 1206Q547 1165 528 1143Q508 1116 473 1096T401 1075Q376 1075 356 1085Q333 1095 324 1110Q312 1124 305 1145Q299
1163 299 1186Q299 1217 311 1251Q325 1292 344 1315Q369 1348 397 1364Q428 1382 469 1382Q500 1382 516 1374T546 1348T567 1313Q573 1295 573 1272ZM578 360Q584 405 590 449Q598 504 604 545Q608 568 611 591T618 637L633 715Q623 725 575 762Q550 780 520
780Q480 780 446 762Q413 744 387 711Q364 682 344 639Q328 604 313 553Q301 510 295 463Q291 432 291 379Q291 327 297 287Q303 248 315 223Q327 200 342 188T373 176Q387 176 403 184Q426 196 449 215Q484 246 506 272Q560 335 578 360ZM1006 119L920 59Q852
16 838 8Q787 -19 768 -27Q733 -41 719 -41T680 -31Q657 -21 635 4Q615 27 596 72Q576 121 569 176Q524 119 500 92Q459 47 426 23Q399 3 346 -23Q306 -41 266 -41Q229 -41 188 -23Q145 -3 113 39Q74 88 55 145Q32 213 33 305Q33 385 53 459Q73 535 113 604Q150
672 205 733Q254 786 332 842Q391 881 463 907Q543 936 633 936Q676 936 715 918Q752 902 793 877Q807 885 834 895T868 907Q915 927 932 936L967 860Q942 840 938 836Q930 828 920 811Q912 799 905 774Q893 729 891 721Q887 703 864 584Q852 518 846 465Q844 449
840 417T834 371Q830 318 829 309Q829 289 834 256Q834 252 846 211Q850 193 862 178Q872 166 885 166Q905 166 926 172Q965 182 989 195L1006 119Z" />
<glyph unicode="&#xe5;" glyph-name="aring" horiz-adv-x="1005" d="M834 1309Q834 1260 813 1212Q788 1155 758 1120Q721 1077 674 1051T569 1024Q532 1024 504 1036Q479 1046 459 1071Q439 1094 430 1120Q422 1145 422 1178Q422 1225 440 1276Q456 1323 494
1370Q525 1409 575 1440Q620 1467 676 1466Q713 1466 743 1454Q768 1444 793 1419Q813 1399 823 1369T834 1309ZM684 1272Q684 1297 670 1315Q658 1331 640 1331T606 1323Q591 1314 582 1298Q570 1278 565 1264Q559 1241 559 1221Q559 1194 575 1174Q589 1158 608
1157Q622 1157 637 1167Q655 1181 662 1192Q674 1212 678 1227Q684 1249 684 1272ZM578 360Q584 405 590 449Q598 504 604 545Q608 568 611 591T618 637L633 715Q623 725 575 762Q550 780 520 780Q480 780 446 762Q413 744 387 711Q364 682 344 639Q328 604 313
553Q301 510 295 463Q291 432 291 379Q291 327 297 287Q303 248 315 223Q327 200 342 188T373 176Q387 176 403 184Q426 196 449 215Q484 246 506 272Q560 335 578 360ZM1006 119L920 59Q852 16 838 8Q787 -19 768 -27Q733 -41 719 -41T680 -31Q657 -21 635 4Q615
27 596 72Q576 121 569 176Q524 119 500 92Q459 47 426 23Q399 3 346 -23Q306 -41 266 -41Q229 -41 188 -23Q145 -3 113 39Q74 88 55 145Q32 213 33 305Q33 385 53 459Q73 535 113 604Q150 672 205 733Q254 786 332 842Q391 881 463 907Q543 936 633 936Q676 936
715 918Q752 902 793 877Q807 885 834 895T868 907Q915 927 932 936L967 860Q942 840 938 836Q930 828 920 811Q912 799 905 774Q893 729 891 721Q887 703 864 584Q852 518 846 465Q844 449 840 417T834 371Q830 318 829 309Q829 289 834 256Q834 252 846 211Q850
193 862 178Q872 166 885 166Q905 166 926 172Q965 182 989 195L1006 119Z" />
<glyph unicode="&#xe6;" glyph-name="ae" horiz-adv-x="1323" d="M887 723Q834 660 814 596T786 444Q872 483 930 518Q981 549 1014 586Q1041 615 1051 649T1061 715Q1061 750 1041 770T993 791Q973 791 943 773T887 723ZM553 401Q561 450 565 477L578 559L590
639Q598 696 600 705Q559 742 539 758Q510 781 479 780Q439 780 406 762Q375 746 344 711Q319 684 299 639Q279 592 266 553Q250 498 246 463Q240 418 240 379Q240 328 250 283Q256 252 272 221Q284 196 300 186T332 176Q352 176 410 217Q463 256 547 358V367L553
401ZM872 891Q862 881 850 872Q844 868 831 856L815 840Q809 831 803 815L840 846Q869 869 897 881Q948 904 965 909Q1016 925 1036 930Q1073 936 1102 936Q1153 936 1198 920Q1239 906 1270 881Q1297 858 1315 823Q1329 794 1329 760Q1329 731 1323 700Q1317 665
1298 633Q1278 596 1243 561Q1206 524 1147 485Q1071 436 999 401Q915 360 788 313Q794 270 811 229Q825 192 846 170Q862 152 887 137Q905 127 928 127Q971 127 1053 170Q1133 211 1257 311Q1263 307 1270 297Q1272 293 1277 285T1284 272Q1292 258 1298 246L1307
229Q1224 158 1153 106Q1096 63 1024 23Q975 -6 915 -25Q862 -41 825 -41Q794 -41 754 -29Q725 -21 676 14Q635 43 604 88Q569 141 555 199Q508 133 475 100Q426 49 389 25Q344 -8 305 -24T221 -41Q187 -41 148 -23T74 39Q35 88 16 145Q-7 213 -6 305Q-6 393 12
459Q37 545 72 604Q113 676 166 733Q215 786 293 842Q352 881 424 907Q504 936 592 936Q631 936 662 924Q707 906 721 895Q739 905 766 915Q817 933 821 936L872 891Z" />
<glyph unicode="&#xe7;" glyph-name="ccedilla" horiz-adv-x="897" d="M586 -221Q586 -256 569 -289Q555 -316 524 -344Q496 -369 457 -387Q422 -403 373 -409T276 -408Q217 -398 170 -375V-297Q201 -309 240 -313Q271 -315 297 -309Q320 -303 334 -289T348 -258Q348
-240 328 -225Q308 -213 285 -215Q324 -137 338 -102Q346 -82 358 -41Q309 -37 274 -25Q217 -5 178 35Q133 80 106 147Q77 221 78 322Q78 404 90 457Q104 523 137 590Q168 653 219 715Q266 770 342 821Q352 827 377 841T410 860Q443 880 492 897Q543 915 582 925T674
936Q715 936 754 922Q791 910 819 891L877 854Q906 836 938 825L885 772Q856 741 821 715Q794 692 760 670Q733 652 713 651Q697 651 678 672L643 717Q637 725 602 760Q582 780 551 780Q502 780 463 748Q426 717 397 659Q372 612 356 537Q342 474 342 397Q342 274
379 197Q412 127 469 127Q528 127 606 170Q686 215 791 301L803 285Q807 279 811 272T819 258Q827 246 836 236Q842 224 846 219Q783 160 700 98Q635 49 578 18Q527 -11 473 -27Q471 -31 471 -39T469 -51L463 -76Q461 -84 457 -92Q490 -92 514 -104Q543 -118 555
-133Q571 -153 578 -174Q586 -203 586 -221Z" />
<glyph unicode="&#xe8;" glyph-name="egrave" horiz-adv-x="884" d="M670 1057Q641 1041 623 1032Q611 1026 578 1016L279 1372L319 1427Q350 1435 365 1438Q410 1446 434 1450Q448 1452 472 1457T506 1464Q529 1468 551 1468L670 1057ZM850 760Q850 733 844 702Q838
673 817 635Q797 598 762 563Q719 520 666 485Q611 450 518 403Q434 362 311 317Q327 223 362 176Q399 127 446 127Q491 127 573 170Q656 213 776 311Q782 309 791 297Q797 289 805 272Q807 268 812 259T819 246L827 229Q735 149 678 106Q625 65 551 23Q502 -6
442 -25Q389 -41 344 -41T248 -23T150 37Q107 74 74 143Q43 208 43 303Q43 380 61 451Q77 510 117 586Q146 641 201 707Q244 758 311 815Q331 831 369 856Q398 874 442 895Q469 907 526 924Q569 936 612 936Q669 936 719 920Q762 906 793 881Q818 863 836 823Q850
795 850 760ZM401 723Q374 690 362 664Q342 623 334 600Q322 565 315 530Q307 483 305 446Q401 491 446 522Q501 557 526 585T561 643Q569 668 569 705Q569 750 553 768Q535 791 508 791Q496 791 487 786L459 772Q449 766 428 750Q413 737 401 723Z" />
<glyph unicode="&#xe9;" glyph-name="eacute" horiz-adv-x="884" d="M936 1364L551 1016Q539 1020 532 1024Q528 1026 522 1030T512 1036Q500 1044 492 1053Q480 1065 475 1071L696 1468Q708 1468 739 1462L805 1450L870 1438Q905 1430 909 1430L936 1364ZM850
760Q850 733 844 702Q838 673 817 635Q797 598 762 563Q719 520 666 485Q611 450 518 403Q434 362 311 317Q327 223 362 176Q399 127 446 127Q491 127 573 170Q656 213 776 311Q782 309 791 297Q797 289 805 272Q807 268 812 259T819 246L827 229Q735 149 678 106Q625
65 551 23Q502 -6 442 -25Q389 -41 344 -41T248 -23T150 37Q107 74 74 143Q43 208 43 303Q43 380 61 451Q77 510 117 586Q146 641 201 707Q244 758 311 815Q331 831 369 856Q398 874 442 895Q469 907 526 924Q569 936 612 936Q669 936 719 920Q762 906 793 881Q818
863 836 823Q850 795 850 760ZM401 723Q374 690 362 664Q342 623 334 600Q322 565 315 530Q307 483 305 446Q401 491 446 522Q501 557 526 585T561 643Q569 668 569 705Q569 750 553 768Q535 791 508 791Q496 791 487 786L459 772Q449 766 428 750Q413 737 401
723Z" />
<glyph unicode="&#xea;" glyph-name="ecircumflex" horiz-adv-x="884" d="M901 1081Q887 1063 864 1042Q852 1032 825 1016L596 1231L303 1016Q301 1016 298 1020T291 1026Q285 1030 274 1040Q270 1044 264 1050T256 1061Q254 1063 242 1081L547 1462H698L901
1081ZM850 760Q850 733 844 702Q838 673 817 635Q797 598 762 563Q719 520 666 485Q611 450 518 403Q434 362 311 317Q327 223 362 176Q399 127 446 127Q491 127 573 170Q656 213 776 311Q782 309 791 297Q797 289 805 272Q807 268 812 259T819 246L827 229Q735
149 678 106Q625 65 551 23Q502 -6 442 -25Q389 -41 344 -41T248 -23T150 37Q107 74 74 143Q43 208 43 303Q43 380 61 451Q77 510 117 586Q146 641 201 707Q244 758 311 815Q331 831 369 856Q398 874 442 895Q469 907 526 924Q569 936 612 936Q669 936 719 920Q762
906 793 881Q818 863 836 823Q850 795 850 760ZM401 723Q374 690 362 664Q342 623 334 600Q322 565 315 530Q307 483 305 446Q401 491 446 522Q501 557 526 585T561 643Q569 668 569 705Q569 750 553 768Q535 791 508 791Q496 791 487 786L459 772Q449 766 428
750Q413 737 401 723Z" />
<glyph unicode="&#xeb;" glyph-name="edieresis" horiz-adv-x="884" d="M924 1272Q924 1241 911 1206Q897 1165 879 1143Q859 1116 824 1096T752 1075Q727 1075 707 1085Q684 1095 674 1110Q662 1124 655 1145Q649 1163 649 1186Q649 1217 662 1251Q676 1292 694
1315Q719 1348 748 1364Q779 1382 819 1382Q850 1382 866 1374T897 1348T918 1313Q924 1295 924 1272ZM530 1272Q530 1235 520 1206Q508 1171 486 1143T432 1096Q397 1076 360 1075Q333 1075 313 1085Q295 1094 283 1110Q271 1124 264 1145Q258 1163 258 1186Q258
1217 270 1251Q284 1292 303 1315Q328 1348 356 1364Q387 1382 426 1382Q457 1382 473 1374Q491 1364 506 1348Q518 1334 524 1313Q530 1295 530 1272ZM850 760Q850 733 844 702Q838 673 817 635Q797 598 762 563Q719 520 666 485Q611 450 518 403Q434 362 311
317Q327 223 362 176Q399 127 446 127Q491 127 573 170Q656 213 776 311Q782 309 791 297Q797 289 805 272Q807 268 812 259T819 246L827 229Q735 149 678 106Q625 65 551 23Q502 -6 442 -25Q389 -41 344 -41T248 -23T150 37Q107 74 74 143Q43 208 43 303Q43 380
61 451Q77 510 117 586Q146 641 201 707Q244 758 311 815Q331 831 369 856Q398 874 442 895Q469 907 526 924Q569 936 612 936Q669 936 719 920Q762 906 793 881Q818 863 836 823Q850 795 850 760ZM401 723Q374 690 362 664Q342 623 334 600Q322 565 315 530Q307
483 305 446Q401 491 446 522Q501 557 526 585T561 643Q569 668 569 705Q569 750 553 768Q535 791 508 791Q496 791 487 786L459 772Q449 766 428 750Q413 737 401 723Z" />
<glyph unicode="&#xec;" glyph-name="igrave" horiz-adv-x="587" d="M565 123L465 66L362 12Q325 -6 268 -27Q227 -41 195 -41Q160 -41 136 -11T111 76Q111 107 117 156Q119 179 133 264Q135 278 156 385L176 506Q192 606 193 610Q201 671 201 680Q201 700 197
716T188 737Q182 743 176 745T160 748Q156 748 135 743Q119 739 106 735L70 723L49 801L150 842L260 887Q272 891 362 922Q405 936 428 936Q459 936 473 918Q489 898 489 852Q489 821 483 772Q481 754 474 716T465 664L442 539L420 414Q408 336 403 303Q395 237
395 225Q395 200 403 180Q409 166 426 166Q446 166 455 168Q459 168 468 170T481 174Q489 176 510 184L545 199L565 123ZM518 1057Q489 1041 471 1032Q459 1026 426 1016L127 1372L170 1427Q205 1435 213 1438Q236 1442 285 1450Q299 1452 321 1457T354 1464Q377
1468 399 1468L518 1057Z" />
<glyph unicode="&#xed;" glyph-name="iacute" horiz-adv-x="587" d="M565 123L465 66L362 12Q325 -6 268 -27Q227 -41 195 -41Q160 -41 136 -11T111 76Q111 107 117 156Q119 179 133 264Q135 278 156 385L176 506Q192 606 193 610Q201 671 201 680Q201 700 197
716T188 737Q182 743 176 745T160 748Q156 748 135 743Q119 739 106 735L70 723L49 801L150 842L260 887Q272 891 362 922Q405 936 428 936Q459 936 473 918Q489 898 489 852Q489 821 483 772Q481 754 474 716T465 664L442 539L420 414Q408 336 403 303Q395 237
395 225Q395 200 403 180Q409 166 426 166Q446 166 455 168Q459 168 468 170T481 174Q489 176 510 184L545 199L565 123ZM784 1364L399 1016Q387 1020 381 1024Q377 1026 371 1030T360 1036Q348 1044 340 1053Q328 1065 324 1071L547 1468Q559 1468 590 1462L655
1450L719 1438Q727 1436 736 1434T751 1431T760 1430L784 1364Z" />
<glyph unicode="&#xee;" glyph-name="icircumflex" horiz-adv-x="587" d="M565 123L465 66L362 12Q325 -6 268 -27Q227 -41 195 -41Q160 -41 136 -11T111 76Q111 107 117 156Q119 179 133 264Q135 278 156 385L176 506Q192 606 193 610Q201 671 201 680Q201 700
197 716T188 737Q182 743 176 745T160 748Q156 748 135 743Q119 739 106 735L70 723L49 801L150 842L260 887Q272 891 362 922Q405 936 428 936Q459 936 473 918Q489 898 489 852Q489 821 483 772Q481 754 474 716T465 664L442 539L420 414Q408 336 403 303Q395
237 395 225Q395 200 403 180Q409 166 426 166Q446 166 455 168Q459 168 468 170T481 174Q489 176 510 184L545 199L565 123ZM750 1081Q736 1063 713 1042Q701 1032 674 1016L444 1231L154 1016Q152 1018 147 1021T139 1026Q133 1030 123 1040Q119 1044 113 1050T104
1061Q102 1063 90 1081L395 1462H547L750 1081Z" />
<glyph unicode="&#xef;" glyph-name="idieresis" horiz-adv-x="587" d="M565 123L465 66L362 12Q325 -6 268 -27Q227 -41 195 -41Q160 -41 136 -11T111 76Q111 107 117 156Q119 179 133 264Q135 278 156 385L176 506Q192 606 193 610Q201 671 201 680Q201 700
197 716T188 737Q182 743 176 745T160 748Q156 748 135 743Q119 739 106 735L70 723L49 801L150 842L260 887Q272 891 362 922Q405 936 428 936Q459 936 473 918Q489 898 489 852Q489 821 483 772Q481 754 474 716T465 664L442 539L420 414Q408 336 403 303Q395
237 395 225Q395 200 403 180Q409 166 426 166Q446 166 455 168Q459 168 468 170T481 174Q489 176 510 184L545 199L565 123ZM772 1272Q772 1241 760 1206Q746 1165 727 1143Q704 1114 674 1096Q639 1076 600 1075Q575 1075 555 1085Q537 1094 524 1110Q512 1124
506 1145Q500 1163 500 1186Q500 1223 510 1251Q524 1292 543 1315Q568 1348 596 1364Q627 1382 668 1382Q699 1382 715 1374Q733 1364 748 1348Q760 1334 766 1313Q772 1295 772 1272ZM381 1272Q381 1241 369 1206Q355 1165 336 1143Q316 1116 281 1096T209 1075Q184
1075 164 1085Q141 1095 131 1110Q119 1124 113 1145Q107 1163 106 1186Q106 1217 119 1251Q133 1292 152 1315Q177 1348 205 1364Q236 1382 276 1382Q305 1382 322 1374Q340 1364 354 1348Q366 1334 373 1313Q381 1288 381 1272Z" />
<glyph unicode="&#xf1;" glyph-name="ntilde" horiz-adv-x="1101" d="M1053 1348Q1020 1287 1001 1255Q976 1212 932 1157Q899 1116 850 1081Q807 1050 762 1051Q723 1051 684 1067Q651 1081 612 1102Q567 1127 545 1137Q508 1153 473 1153Q457 1153 432 1145Q416
1139 397 1124Q381 1110 362 1090Q354 1082 324 1040L252 1069L305 1163Q330 1206 375 1262Q414 1311 455 1339Q498 1370 543 1370T627 1354Q668 1336 700 1319Q708 1315 731 1302T766 1282Q795 1268 829 1268Q874 1268 907 1294Q941 1322 981 1380L1053 1348ZM1083
123Q1007 78 985 66Q950 48 881 14Q840 -4 784 -25Q739 -41 713 -41Q678 -41 654 -11T629 76Q629 94 635 135L640 172Q645 209 649 229Q653 258 659 286T670 342Q682 414 688 455Q690 467 702 553Q708 596 709 621Q709 676 700 694Q690 717 664 717Q652 717 629
711Q613 707 584 688Q551 668 530 647Q499 616 477 580Q444 527 430 465Q418 414 397 301Q393 285 390 258T385 223Q381 205 377 166Q373 133 373 119Q373 111 374 97T375 76L346 61Q326 53 301 41T248 16Q232 10 218 4T193 -6L150 -27L121 -41L78 0Q94 78 117
205Q121 232 150 406Q166 504 174 573Q182 639 182 682Q182 711 180 719Q176 735 172 739T160 748Q156 750 143 750Q139 750 119 745Q105 743 86 735Q59 725 47 723L27 803Q56 815 92 829Q106 835 133 845T168 858L246 887Q285 901 317 911Q354 923 375 930Q400
936 412 936Q422 936 434 932Q442 930 449 915Q453 907 457 881Q461 852 461 823Q461 815 460 802T459 782Q459 770 455 737Q557 833 670 887Q774 936 864 936Q895 936 920 930Q943 924 963 907Q979 893 989 860Q997 833 997 782Q997 745 991 700Q981 622 977 600Q965
530 956 494Q942 420 936 387Q922 315 920 295Q914 252 913 225Q913 192 924 178Q934 166 950 166T973 168Q985 172 993 174Q997 176 1006 179T1018 184Q1026 188 1035 191T1055 199L1083 123Z" />
<glyph unicode="&#xf2;" glyph-name="ograve" horiz-adv-x="923" d="M655 1057Q626 1041 608 1032Q596 1026 563 1016L262 1372L305 1427Q336 1435 350 1438Q395 1446 420 1450Q434 1452 456 1457T489 1464Q512 1468 537 1468L655 1057ZM629 473Q629 550 616 608Q604
669 584 707Q561 748 539 768T487 788Q432 788 397 756Q358 719 338 672Q316 620 307 555Q297 483 297 428Q297 369 311 301Q323 244 346 199Q371 148 395 127Q422 102 449 102Q498 102 532 137Q569 174 590 225Q608 272 618 346Q629 418 629 473ZM891 559Q891
491 872 424Q849 342 823 291Q789 226 743 168Q698 113 641 63Q612 36 584 23Q572 17 514 -10Q491 -20 446 -33Q415 -41 381 -41Q295 -41 236 -12Q173 19 128 70T57 193Q32 263 33 344Q33 491 92 612Q155 741 287 840Q301 852 346 877Q385 897 414 907Q465 923
485 928Q534 936 557 936Q633 936 696 908T803 830T868 711Q891 639 891 559Z" />
<glyph unicode="&#xf3;" glyph-name="oacute" horiz-adv-x="923" d="M920 1364L535 1016Q523 1020 516 1024Q512 1026 506 1030T496 1036Q490 1040 478 1052T461 1071L682 1468Q694 1468 725 1462L791 1450L856 1438Q893 1430 895 1430L920 1364ZM629 473Q629
550 616 608Q604 669 584 707Q561 748 539 768T487 788Q432 788 397 756Q358 719 338 672Q316 620 307 555Q297 483 297 428Q297 369 311 301Q323 244 346 199Q371 148 395 127Q422 102 449 102Q498 102 532 137Q569 174 590 225Q608 272 618 346Q629 418 629 473ZM891
559Q891 491 872 424Q849 342 823 291Q789 226 743 168Q698 113 641 63Q612 36 584 23Q572 17 514 -10Q491 -20 446 -33Q415 -41 381 -41Q295 -41 236 -12Q173 19 128 70T57 193Q32 263 33 344Q33 491 92 612Q155 741 287 840Q301 852 346 877Q385 897 414 907Q465
923 485 928Q534 936 557 936Q633 936 696 908T803 830T868 711Q891 639 891 559Z" />
<glyph unicode="&#xf4;" glyph-name="ocircumflex" horiz-adv-x="923" d="M887 1081Q873 1063 850 1042Q838 1032 811 1016L582 1231L289 1016Q287 1016 283 1020T276 1026Q264 1034 258 1040Q254 1044 248 1050T240 1061Q236 1065 233 1072T227 1081L530 1462H682L887
1081ZM629 473Q629 550 616 608Q604 669 584 707Q561 748 539 768T487 788Q432 788 397 756Q358 719 338 672Q316 620 307 555Q297 483 297 428Q297 369 311 301Q323 244 346 199Q371 148 395 127Q422 102 449 102Q498 102 532 137Q569 174 590 225Q608 272 618
346Q629 418 629 473ZM891 559Q891 491 872 424Q849 342 823 291Q789 226 743 168Q698 113 641 63Q612 36 584 23Q572 17 514 -10Q491 -20 446 -33Q415 -41 381 -41Q295 -41 236 -12Q173 19 128 70T57 193Q32 263 33 344Q33 491 92 612Q155 741 287 840Q301 852
346 877Q385 897 414 907Q465 923 485 928Q534 936 557 936Q633 936 696 908T803 830T868 711Q891 639 891 559Z" />
<glyph unicode="&#xf5;" glyph-name="otilde" horiz-adv-x="923" d="M958 1348Q925 1287 907 1255Q882 1212 838 1157Q805 1116 756 1081Q713 1050 668 1051Q629 1051 590 1067Q557 1081 518 1102Q473 1127 451 1137Q414 1153 379 1153Q365 1153 340 1145Q320
1139 304 1125T268 1090Q260 1082 229 1040L158 1069L211 1163Q236 1206 281 1262Q318 1307 362 1339Q405 1370 449 1370Q494 1370 532 1354Q573 1336 606 1319Q614 1315 636 1302T672 1282Q701 1268 735 1268Q780 1268 813 1294Q847 1322 887 1380L958 1348ZM629
473Q629 550 616 608Q604 669 584 707Q561 748 539 768T487 788Q432 788 397 756Q358 719 338 672Q316 620 307 555Q297 483 297 428Q297 369 311 301Q323 244 346 199Q371 148 395 127Q422 102 449 102Q498 102 532 137Q569 174 590 225Q608 272 618 346Q629 418
629 473ZM891 559Q891 491 872 424Q849 342 823 291Q789 226 743 168Q698 113 641 63Q612 36 584 23Q572 17 514 -10Q491 -20 446 -33Q415 -41 381 -41Q295 -41 236 -12Q173 19 128 70T57 193Q32 263 33 344Q33 491 92 612Q155 741 287 840Q301 852 346 877Q385
897 414 907Q465 923 485 928Q534 936 557 936Q633 936 696 908T803 830T868 711Q891 639 891 559Z" />
<glyph unicode="&#xf6;" glyph-name="odieresis" horiz-adv-x="923" d="M907 1272Q907 1235 897 1206Q885 1171 863 1143T809 1096Q774 1076 737 1075Q710 1075 690 1085Q672 1094 659 1110Q647 1124 641 1145Q635 1163 635 1186Q635 1217 647 1251Q661 1292 680
1315Q705 1348 733 1364Q764 1382 805 1382Q834 1382 850 1374Q868 1364 883 1348Q895 1334 901 1313Q907 1295 907 1272ZM516 1272Q516 1241 504 1206Q490 1165 471 1143Q448 1114 418 1096Q383 1076 344 1075Q319 1075 299 1085Q281 1094 268 1110Q256 1124 250
1145Q244 1163 244 1186Q244 1223 254 1251Q268 1292 287 1315Q312 1348 340 1364Q371 1382 412 1382Q443 1382 459 1374Q477 1364 492 1348Q504 1334 510 1313Q516 1295 516 1272ZM629 473Q629 550 616 608Q604 669 584 707Q561 748 539 768T487 788Q432 788 397
756Q358 719 338 672Q316 620 307 555Q297 483 297 428Q297 369 311 301Q323 244 346 199Q371 148 395 127Q422 102 449 102Q498 102 532 137Q569 174 590 225Q608 272 618 346Q629 418 629 473ZM891 559Q891 491 872 424Q849 342 823 291Q789 226 743 168Q698
113 641 63Q612 36 584 23Q572 17 514 -10Q491 -20 446 -33Q415 -41 381 -41Q295 -41 236 -12Q173 19 128 70T57 193Q32 263 33 344Q33 491 92 612Q155 741 287 840Q301 852 346 877Q385 897 414 907Q465 923 485 928Q534 936 557 936Q633 936 696 908T803 830T868
711Q891 639 891 559Z" />
<glyph unicode="&#xf7;" glyph-name="divide" horiz-adv-x="833" d="M780 606Q778 598 768 578Q766 572 760 561T750 543Q746 535 740 527T729 510Q720 495 717 485H76L49 518Q53 532 61 547Q73 567 80 580Q90 598 98 614Q100 618 105 626T113 639H752L780 606ZM483
319Q481 290 467 260Q455 232 436 211Q422 195 393 178Q373 166 346 166Q303 166 287 194T276 274Q278 297 295 334Q305 357 326 381Q342 399 367 414Q390 426 414 426Q497 425 483 319ZM557 854Q555 825 541 795Q531 772 508 745Q492 727 467 713Q447 701 420
700Q373 700 359 727T350 809Q352 836 367 866Q377 889 399 915Q411 929 440 946Q463 958 487 958Q571 958 557 854Z" />
<glyph unicode="&#xf8;" glyph-name="oslash" horiz-adv-x="923" d="M297 428Q297 422 298 411T299 393Q299 370 301 360L584 705Q564 748 539 768Q516 788 487 788Q432 788 397 756Q358 719 338 672Q316 620 307 555Q297 483 297 428ZM629 473Q629 498 625 539L344
201Q364 158 393 129Q420 102 449 102Q498 102 532 137Q569 174 590 225Q608 272 618 346Q629 418 629 473ZM891 559Q891 491 872 424Q849 342 823 291Q789 226 743 168Q698 113 641 63Q612 36 584 23Q572 17 514 -10Q491 -20 446 -33Q415 -41 381 -41Q320 -41
276 -27Q223 -9 188 12L176 -2Q172 -6 145 -16L98 -33L51 -49Q31 -57 16 -61L-14 -20L94 111Q65 158 49 217Q33 278 33 344Q33 491 92 612Q155 741 287 840Q301 852 346 877Q385 897 414 907Q465 923 485 928Q534 936 557 936Q610 936 653 924T735 889L745 899Q751
901 759 905T778 913Q798 921 823 930L870 946Q880 950 888 953T903 958L938 915L831 788Q862 737 877 684Q891 629 891 559Z" />
<glyph unicode="&#xf9;" glyph-name="ugrave" horiz-adv-x="1126" d="M1100 119L1018 63L936 12Q899 -11 860 -27Q825 -41 799 -41Q774 -41 752 -27T709 14Q693 37 674 86Q658 133 651 182Q616 135 569 92Q538 63 477 23Q442 0 383 -25Q342 -41 293 -41Q266 -41
229 -25Q194 -9 168 20Q143 49 123 98Q107 139 106 205Q106 221 111 274L123 360Q127 383 130 405T137 451L154 541Q156 551 160 577T166 618Q170 667 170 680Q170 709 168 717Q164 731 158 737Q154 741 145 745Q141 747 129 748Q125 748 105 744T74 735L37 723L18
801Q28 805 51 814T84 827Q100 833 119 841T160 858L238 887Q252 893 276 900T309 911Q343 923 371 930Q398 936 410 936Q439 936 449 918Q459 898 459 852Q459 823 453 776Q443 704 438 676Q430 621 420 561Q416 536 410 508T399 449Q395 420 385 348Q379 303
379 272Q379 231 395 205Q409 180 424 180Q457 180 518 229Q577 276 662 389Q664 401 669 428T676 471L688 553Q690 563 694 587T700 625Q704 670 705 680Q705 709 702 717Q698 733 694 737T682 745Q678 747 668 748Q664 748 643 743Q631 741 616 735Q596 727 584
723L563 801Q569 803 627 827Q637 831 647 835T662 843T677 850T700 858L776 887Q790 893 815 901T848 911Q879 923 907 930Q932 936 946 936Q974 936 983 918Q991 902 991 852Q991 811 987 782Q987 776 983 744T975 692L956 594L940 494Q936 476 932 442T928 401Q924
372 924 324Q924 269 926 248Q928 230 938 199Q944 181 954 174Q966 166 977 166Q1004 166 1024 172Q1034 174 1081 195L1100 119ZM754 1057Q725 1041 707 1032Q695 1026 662 1016L360 1372L403 1427Q434 1435 449 1438Q494 1446 518 1450Q532 1452 555 1457T588
1464Q611 1468 635 1468L754 1057Z" />
<glyph unicode="&#xfa;" glyph-name="uacute" horiz-adv-x="1126" d="M1100 119L1018 63L936 12Q899 -11 860 -27Q825 -41 799 -41Q774 -41 752 -27T709 14Q693 37 674 86Q658 133 651 182Q616 135 569 92Q538 63 477 23Q442 0 383 -25Q342 -41 293 -41Q266 -41
229 -25Q194 -9 168 20Q143 49 123 98Q107 139 106 205Q106 221 111 274L123 360Q127 383 130 405T137 451L154 541Q156 551 160 577T166 618Q170 667 170 680Q170 709 168 717Q164 731 158 737Q154 741 145 745Q141 747 129 748Q125 748 105 744T74 735L37 723L18
801Q28 805 51 814T84 827Q100 833 119 841T160 858L238 887Q252 893 276 900T309 911Q343 923 371 930Q398 936 410 936Q439 936 449 918Q459 898 459 852Q459 823 453 776Q443 704 438 676Q430 621 420 561Q416 536 410 508T399 449Q395 420 385 348Q379 303
379 272Q379 231 395 205Q409 180 424 180Q457 180 518 229Q577 276 662 389Q664 401 669 428T676 471L688 553Q690 563 694 587T700 625Q704 670 705 680Q705 709 702 717Q698 733 694 737T682 745Q678 747 668 748Q664 748 643 743Q631 741 616 735Q596 727 584
723L563 801Q569 803 627 827Q637 831 647 835T662 843T677 850T700 858L776 887Q790 893 815 901T848 911Q879 923 907 930Q932 936 946 936Q974 936 983 918Q991 902 991 852Q991 811 987 782Q987 776 983 744T975 692L956 594L940 494Q936 476 932 442T928 401Q924
372 924 324Q924 269 926 248Q928 230 938 199Q944 181 954 174Q966 166 977 166Q1004 166 1024 172Q1034 174 1081 195L1100 119ZM1018 1364L633 1016Q621 1020 614 1024Q610 1026 604 1030T594 1036Q588 1040 575 1053L557 1071L780 1468Q792 1468 823 1462L889
1450L954 1438Q991 1430 993 1430L1018 1364Z" />
<glyph unicode="&#xfb;" glyph-name="ucircumflex" horiz-adv-x="1126" d="M1100 119L1018 63L936 12Q899 -11 860 -27Q825 -41 799 -41Q774 -41 752 -27T709 14Q693 37 674 86Q658 133 651 182Q616 135 569 92Q538 63 477 23Q442 0 383 -25Q342 -41 293 -41Q266
-41 229 -25Q194 -9 168 20Q143 49 123 98Q107 139 106 205Q106 221 111 274L123 360Q127 383 130 405T137 451L154 541Q156 551 160 577T166 618Q170 667 170 680Q170 709 168 717Q164 731 158 737Q154 741 145 745Q141 747 129 748Q125 748 105 744T74 735L37
723L18 801Q28 805 51 814T84 827Q100 833 119 841T160 858L238 887Q252 893 276 900T309 911Q343 923 371 930Q398 936 410 936Q439 936 449 918Q459 898 459 852Q459 823 453 776Q443 704 438 676Q430 621 420 561Q416 536 410 508T399 449Q395 420 385 348Q379
303 379 272Q379 231 395 205Q409 180 424 180Q457 180 518 229Q577 276 662 389Q664 401 669 428T676 471L688 553Q690 563 694 587T700 625Q704 670 705 680Q705 709 702 717Q698 733 694 737T682 745Q678 747 668 748Q664 748 643 743Q631 741 616 735Q596 727
584 723L563 801Q569 803 627 827Q637 831 647 835T662 843T677 850T700 858L776 887Q790 893 815 901T848 911Q879 923 907 930Q932 936 946 936Q974 936 983 918Q991 902 991 852Q991 811 987 782Q987 776 983 744T975 692L956 594L940 494Q936 476 932 442T928
401Q924 372 924 324Q924 269 926 248Q928 230 938 199Q944 181 954 174Q966 166 977 166Q1004 166 1024 172Q1034 174 1081 195L1100 119ZM983 1081Q969 1063 946 1042Q934 1032 907 1016L680 1231L387 1016Q385 1016 381 1020T375 1026Q363 1034 356 1040Q352
1044 346 1050T338 1061Q334 1065 331 1072T326 1081L629 1462H780L983 1081Z" />
<glyph unicode="&#xfc;" glyph-name="udieresis" horiz-adv-x="1126" d="M1006 1272Q1006 1235 995 1206Q983 1171 961 1143T907 1096Q872 1076 836 1075Q809 1075 788 1085Q770 1094 758 1110Q746 1124 739 1145Q733 1163 733 1186Q733 1217 745 1251Q759 1292
778 1315Q803 1348 831 1364Q862 1382 901 1382Q932 1382 948 1374Q966 1364 981 1348Q993 1334 999 1313Q1006 1295 1006 1272ZM614 1272Q614 1241 602 1206Q588 1165 569 1143Q549 1116 514 1096T442 1075Q417 1075 397 1085Q374 1095 365 1110Q353 1124 346
1145Q342 1157 342 1186Q342 1223 352 1251Q366 1292 385 1315Q410 1348 438 1364Q469 1382 510 1382Q541 1382 557 1374T587 1348T608 1313Q614 1295 614 1272ZM1100 119L1018 63L936 12Q899 -11 860 -27Q825 -41 799 -41Q774 -41 752 -27T709 14Q693 37 674 86Q658
133 651 182Q616 135 569 92Q538 63 477 23Q442 0 383 -25Q342 -41 293 -41Q266 -41 229 -25Q194 -9 168 20Q143 49 123 98Q107 139 106 205Q106 221 111 274L123 360Q127 383 130 405T137 451L154 541Q156 551 160 577T166 618Q170 667 170 680Q170 709 168 717Q164
731 158 737Q154 741 145 745Q141 747 129 748Q125 748 105 744T74 735L37 723L18 801Q28 805 51 814T84 827Q100 833 119 841T160 858L238 887Q252 893 276 900T309 911Q343 923 371 930Q398 936 410 936Q439 936 449 918Q459 898 459 852Q459 823 453 776Q443
704 438 676Q430 621 420 561Q416 536 410 508T399 449Q395 420 385 348Q379 303 379 272Q379 231 395 205Q409 180 424 180Q457 180 518 229Q577 276 662 389Q664 401 669 428T676 471L688 553Q690 563 694 587T700 625Q704 670 705 680Q705 709 702 717Q698 733
694 737T682 745Q678 747 668 748Q664 748 643 743Q631 741 616 735Q596 727 584 723L563 801Q569 803 627 827Q637 831 647 835T662 843T677 850T700 858L776 887Q790 893 815 901T848 911Q879 923 907 930Q932 936 946 936Q974 936 983 918Q991 902 991 852Q991
811 987 782Q987 776 983 744T975 692L956 594L940 494Q936 476 932 442T928 401Q924 372 924 324Q924 269 926 248Q928 230 938 199Q944 181 954 174Q966 166 977 166Q1004 166 1024 172Q1034 174 1081 195L1100 119Z" />
<glyph unicode="&#xff;" glyph-name="ydieresis" horiz-adv-x="995" d="M973 1272Q973 1241 961 1206Q947 1165 928 1143Q905 1114 874 1096Q839 1076 803 1075Q776 1075 756 1085Q738 1094 725 1110Q713 1124 707 1145Q701 1163 700 1186Q700 1223 711 1251Q723
1286 745 1315Q772 1350 797 1364Q828 1382 868 1382Q899 1382 915 1374Q933 1364 948 1348Q960 1334 967 1313Q973 1295 973 1272ZM582 1272Q582 1241 569 1206Q555 1165 537 1143Q517 1116 482 1096T410 1075Q385 1075 365 1085Q342 1095 332 1110Q320 1124 313
1145Q307 1163 307 1186Q307 1217 319 1251Q333 1292 352 1315Q377 1348 406 1364Q437 1382 477 1382Q508 1382 524 1374T555 1348T575 1313Q582 1295 582 1272ZM983 860Q983 829 954 750Q938 705 874 569L762 338Q725 266 625 82Q551 -51 487 -154Q421 -258 348
-338Q278 -412 201 -457Q124 -500 35 -500Q-14 -500 -49 -490T-125 -461Q-162 -445 -180 -428Q-200 -410 -201 -399Q-201 -383 -182 -352Q-170 -332 -137 -287Q-123 -267 -86 -225Q-59 -194 -47 -190Q-14 -223 2 -235T55 -266Q88 -282 104 -287Q137 -295 145 -295Q192
-295 250 -242Q295 -199 367 -90Q365 -76 356 -32T340 39Q315 150 307 184Q282 282 268 332L229 469Q213 522 193 584Q168 654 162 666Q144 711 123 731Q107 747 88 748Q84 748 63 743Q38 739 31 735Q6 727 -8 723L-31 801L66 848Q84 856 117 870T164 891Q201 907
248 924Q285 936 305 936Q334 936 356 907Q374 884 401 809Q424 750 438 698Q440 694 454 643T477 563Q477 561 516 412L553 252L625 401Q658 471 682 535Q690 555 719 641Q733 684 733 711Q733 760 680 764Q666 766 645 760Q622 752 598 741L571 817Q608 839 651
860Q667 868 700 881T739 897Q786 917 823 926Q868 936 890 936T924 934Q947 930 954 924Q964 916 975 899Q983 885 983 860Z" />
<glyph unicode="&#x131;" glyph-name="dotlessi" horiz-adv-x="587" d="M565 123L465 66L362 12Q325 -6 268 -27Q227 -41 195 -41Q160 -41 136 -11T111 76Q111 107 117 156Q119 179 133 264Q135 278 156 385L176 506Q192 606 193 610Q201 671 201 680Q201 700
197 716T188 737Q182 743 176 745T160 748Q156 748 135 743Q119 739 106 735L70 723L49 801L150 842L260 887Q272 891 362 922Q405 936 428 936Q459 936 473 918Q489 898 489 852Q489 821 483 772Q481 754 474 716T465 664L442 539L420 414Q408 336 403 303Q395
237 395 225Q395 200 403 180Q409 166 426 166Q446 166 455 168Q459 168 468 170T481 174Q489 176 510 184L545 199L565 123Z" />
<glyph unicode="&#x152;" glyph-name="OE" horiz-adv-x="1638" d="M571 111Q612 111 628 113T674 123Q684 125 711 139Q729 148 748 164L870 1057Q835 1106 782 1130Q727 1155 670 1155Q609 1155 557 1122Q508 1089 465 1022Q430 965 395 858Q368 774 348 641Q333
530 342 432Q350 338 383 264Q416 188 461 152Q512 111 571 111ZM1616 1260L1651 1225Q1639 1172 1634 1157L1614 1071Q1610 1059 1603 1030T1591 987Q1579 944 1571 930H1493Q1501 1022 1489 1077Q1477 1130 1444 1130H1141L1085 735H1452L1483 696Q1479 690 1473
683T1458 664Q1450 654 1444 644T1432 623Q1420 607 1403 586Q1389 568 1376 559Q1360 579 1350 586Q1327 600 1317 602Q1290 610 1268 612Q1250 614 1200 614H1069L1012 195Q1010 183 1016 168Q1022 156 1038 147Q1056 138 1094 135Q1168 129 1194 129H1276Q1315
129 1349 143T1409 182Q1436 209 1460 252Q1493 311 1513 352L1587 324Q1573 252 1567 231L1542 133L1522 51Q1516 24 1505 0H788Q743 0 698 -4Q669 -6 635 -14T578 -25Q523 -31 508 -31Q391 -31 301 23Q215 72 158 166Q105 254 82 371Q59 490 78 612Q90 700 121
788Q150 870 199 948Q242 1018 305 1087Q354 1142 434 1194Q508 1241 582 1266Q659 1291 741 1290Q772 1290 809 1286Q832 1284 858 1276Q897 1264 905 1264Q938 1260 961 1260H1616Z" />
<glyph unicode="&#x153;" glyph-name="oe" horiz-adv-x="1460" d="M981 723Q930 670 905 600Q882 539 877 446Q963 485 1024 524Q1073 553 1110 588Q1139 615 1149 643Q1157 668 1157 705Q1157 721 1151 737T1137 764Q1127 778 1115 784T1087 791Q1054 791 1032
770Q991 733 981 723ZM637 473Q637 550 625 608Q613 667 590 709Q572 742 539 768Q512 788 481 788Q432 788 397 756Q358 721 336 672Q311 619 299 557Q287 492 287 428Q287 365 303 303Q317 248 342 199Q367 148 391 127Q418 102 442 102Q495 102 535 137Q572
172 594 227Q619 290 627 346Q637 418 637 473ZM1430 760Q1430 733 1423 702Q1417 667 1397 637Q1368 592 1339 563Q1302 526 1239 485Q1182 448 1090 403T879 317Q885 274 899 240Q915 199 934 178Q957 151 977 139T1026 127Q1069 127 1149 170T1352 311Q1358
305 1364 297L1382 272Q1390 258 1396 246T1407 229Q1315 149 1257 106Q1204 65 1130 23Q1079 -6 1020 -25Q965 -41 918 -41Q893 -41 862 -35Q846 -31 799 -10Q768 4 735 33Q708 56 682 100Q680 98 672 92T662 82Q650 70 641 63Q612 36 584 23Q561 11 512 -10Q492
-18 440 -33Q409 -41 379 -41Q293 -41 233 -12Q165 21 125 70Q82 122 57 193Q32 263 33 344Q33 485 92 610Q149 731 283 840Q297 852 342 877Q375 895 414 907Q463 923 487 928Q536 936 553 936Q655 936 727 893Q797 850 836 770L862 793Q866 797 877 805T891 815Q907
829 946 854T1020 895Q1051 909 1102 924Q1145 936 1192 936Q1249 936 1294 920T1368 881Q1395 858 1413 823Q1430 791 1430 760Z" />
<glyph unicode="&#x178;" glyph-name="Ydieresis" horiz-adv-x="1177" d="M1087 1552Q1087 1513 1077 1485Q1065 1454 1042 1423Q1017 1390 989 1374Q958 1356 918 1356Q891 1356 870 1366Q852 1375 840 1391Q828 1405 821 1425Q815 1443 815 1466Q815 1499 827
1532Q841 1573 860 1595Q883 1624 913 1642Q948 1662 983 1663Q1010 1663 1030 1653Q1053 1643 1063 1628Q1075 1614 1081 1593Q1087 1575 1087 1552ZM696 1552Q696 1519 684 1485Q672 1448 651 1423Q626 1390 598 1374Q567 1356 524 1356Q499 1356 479 1366Q461
1375 449 1391Q435 1409 428 1425Q424 1437 424 1466Q424 1503 434 1532Q448 1573 467 1595Q490 1624 520 1642Q555 1662 592 1663Q619 1663 639 1653Q657 1644 670 1628Q684 1610 690 1593Q696 1575 696 1552ZM825 0H276L287 84Q332 94 358 102Q389 112 406 121Q418
127 430 139Q440 149 440 156L492 528Q474 594 438 690Q397 801 377 852Q342 938 315 997Q299 1032 258 1110Q250 1126 246 1130Q238 1138 223 1145Q211 1149 184 1153Q168 1155 123 1155L129 1239Q158 1243 195 1249Q242 1257 270 1260Q295 1262 340 1266T391
1270Q419 1270 446 1257Q473 1245 487 1221Q516 1168 543 1108Q594 989 600 973Q633 887 653 825Q659 802 676 752T702 678L969 1110Q985 1137 965 1151Q940 1169 874 1178L885 1260H1280L1270 1178Q1200 1166 1174 1151Q1143 1135 1126 1110L750 516L700 156Q700
148 705 141Q711 131 725 123Q748 109 768 102Q801 92 836 84L825 0Z" />
<glyph unicode="&#x192;" glyph-name="florin" horiz-adv-x="688" d="M1053 1393Q1041 1385 1018 1366Q1008 1356 996 1348T971 1329L922 1288Q912 1278 872 1251Q843 1231 831 1225Q811 1215 807 1214Q791 1214 774 1235L739 1276Q708 1313 700 1319Q680 1337
655 1337Q616 1337 592 1301T549 1208Q529 1149 520 1083Q508 989 504 952L498 905H743L772 866Q762 852 743 831L700 791Q686 777 657 752Q647 742 627 729Q615 757 584 766Q557 774 494 774H481L469 645L453 510Q449 477 446 444T438 377Q432 324 424 252Q418
194 412 147Q404 92 399 68Q385 -10 360 -70Q329 -142 295 -193Q248 -263 207 -305Q158 -357 102 -403Q45 -450 -20 -475Q-88 -500 -162 -500Q-202 -500 -242 -487Q-277 -477 -313 -457Q-348 -439 -367 -422Q-387 -404 -387 -393Q-387 -385 -379 -369Q-375 -361
-354 -332L-324 -289L-291 -250L-262 -221Q-252 -211 -242 -211Q-230 -211 -207 -227Q-187 -243 -160 -262Q-117 -291 -104 -297Q-71 -313 -45 -313Q-6 -313 20 -297Q45 -283 63 -244Q77 -213 96 -143Q104 -110 129 12Q137 53 147 115Q151 135 156 177T164 238Q170
281 178 375Q182 412 186 445T193 514L205 651Q211 727 215 774H78L53 815L195 905H229Q237 964 262 1059Q278 1127 313 1198Q348 1272 389 1323Q435 1381 500 1427Q549 1462 612 1493Q667 1520 733 1520Q786 1520 836 1501Q902 1476 930 1462Q969 1444 1006 1419Q1039
1399 1053 1393Z" />
<glyph unicode="&#x2c6;" glyph-name="circumflex" horiz-adv-x="681" d="M772 1081Q758 1063 735 1042Q723 1032 696 1016L467 1231L174 1016Q172 1016 168 1020T162 1026Q156 1030 145 1040Q143 1044 137 1050T127 1061Q125 1063 113 1081L418 1462H569L772 1081Z" />
<glyph unicode="&#x2c7;" glyph-name="caron" horiz-adv-x="555" d="M461 1040H307L102 1421Q112 1433 139 1456Q172 1483 176 1487L406 1272L698 1487Q704 1483 712 1475T731 1456Q754 1433 762 1421L461 1040Z" />
<glyph unicode="&#x2d8;" glyph-name="breve" horiz-adv-x="622" d="M762 1335Q723 1251 676 1198Q623 1139 575 1108Q516 1069 475 1057Q422 1041 385 1040Q344 1040 295 1057Q244 1073 207 1108Q164 1147 133 1198Q104 1243 84 1335Q92 1347 100 1356L125 1380Q137
1392 150 1403Q154 1405 159 1410T168 1417Q183 1368 211 1337Q238 1306 268 1286Q293 1268 334 1257Q365 1249 397 1249Q432 1249 467 1257Q514 1267 547 1286Q588 1309 623 1337Q662 1370 688 1417Q690 1415 695 1411T705 1403L727 1380Q729 1376 737 1368T748
1356Q754 1347 762 1335Z" />
<glyph unicode="&#x2d9;" glyph-name="dotaccent" horiz-adv-x="370" d="M449 1272Q449 1241 436 1206Q422 1165 403 1143Q383 1116 348 1096T276 1075Q251 1075 231 1085Q208 1095 199 1110Q187 1124 180 1145Q174 1163 174 1186Q174 1217 186 1251Q200 1292
219 1315Q244 1348 272 1364Q303 1382 344 1382Q375 1382 391 1374T422 1348T442 1313Q449 1295 449 1272Z" />
<glyph unicode="&#x2da;" glyph-name="ring" horiz-adv-x="475" d="M428 1272Q428 1297 414 1315Q402 1331 384 1331T350 1323Q335 1314 326 1298Q314 1278 309 1264Q303 1241 303 1221Q303 1194 319 1174Q333 1158 352 1157Q366 1157 381 1167Q399 1181 406 1192Q418
1212 422 1227Q428 1249 428 1272ZM578 1309Q578 1260 557 1212Q532 1155 502 1120Q465 1077 418 1051T313 1024Q274 1024 248 1036Q223 1046 203 1071Q183 1094 174 1120Q166 1145 166 1178Q166 1225 184 1276Q200 1323 238 1370Q269 1409 319 1440Q364 1467 420
1466Q457 1466 487 1454Q512 1444 537 1419Q557 1399 567 1369T578 1309Z" />
<glyph unicode="&#x2db;" glyph-name="ogonek" horiz-adv-x="376" d="M385 -291Q367 -314 328 -346Q297 -371 252 -395Q217 -413 166 -432Q125 -446 78 -446Q55 -446 25 -440Q-14 -432 -31 -422Q-58 -406 -74 -381T-90 -311Q-90 -260 -63 -213Q-38 -168 10 -123Q65
-70 111 -41Q166 -4 223 25L342 18Q297 -13 268 -39Q231 -74 209 -100Q184 -129 172 -160Q158 -193 158 -213Q158 -248 176 -266T225 -285Q248 -285 285 -270Q316 -258 367 -215L385 -291Z" />
<glyph unicode="&#x2dc;" glyph-name="tilde" horiz-adv-x="763" d="M903 1348Q893 1330 850 1255Q825 1212 780 1157Q745 1114 700 1081Q657 1050 612 1051Q571 1051 532 1067Q507 1077 463 1101T395 1137Q358 1153 324 1153Q308 1153 283 1145Q267 1139 248
1125T213 1090Q205 1082 174 1040L102 1069L156 1163Q181 1206 225 1262Q264 1311 305 1339Q348 1370 393 1370T477 1354Q510 1340 549 1319Q557 1315 571 1307T597 1292T616 1282Q645 1268 680 1268Q723 1268 756 1294Q790 1322 829 1380L903 1348Z" />
<glyph unicode="&#x2dd;" glyph-name="hungarumlaut" horiz-adv-x="712" d="M215 1016L197 1022Q185 1026 176 1030Q172 1032 165 1038T156 1044Q154 1046 150 1048T142 1053T137 1057L319 1468Q321 1468 354 1464L403 1458Q413 1456 431 1453T453 1450Q475 1447
483 1444L504 1382L215 1016ZM520 1016L502 1022Q490 1026 481 1030Q477 1032 470 1038T461 1044Q459 1046 455 1048T448 1053T442 1057L625 1468Q627 1468 659 1464L709 1458Q719 1456 736 1453T758 1450Q780 1447 788 1444L809 1382L520 1016Z" />
<glyph unicode="&#x3a9;" glyph-name="Omega" horiz-adv-x="1271" d="M35 0L2 37Q4 57 14 102L33 193Q39 224 55 285Q67 328 80 360H156Q160 272 170 233Q182 190 219 190H397Q319 272 270 338Q215 414 186 475Q153 545 145 608Q135 680 143 739Q153 807 176 870Q203
942 240 999Q279 1058 332 1112Q387 1167 453 1206Q521 1247 602 1268Q688 1291 778 1290Q897 1290 985 1253Q1071 1218 1128 1147Q1181 1081 1204 981Q1224 889 1208 762Q1200 692 1165 625Q1128 551 1077 486T948 342Q903 297 780 190H981Q997 190 1012 201Q1028
213 1038 231Q1061 270 1067 285L1106 365L1180 346L1163 268Q1153 221 1141 170T1118 72Q1114 60 1111 45T1105 19T1100 0H621L645 190L745 326Q753 336 817 432Q854 485 870 518Q890 555 907 596Q921 631 932 674Q938 703 946 760Q958 854 950 924Q940 1002 911
1051Q880 1104 836 1130Q789 1159 729 1159Q683 1159 643 1141T569 1092Q534 1059 508 1022T459 938Q441 903 426 850Q414 807 408 770Q400 700 397 680Q393 639 397 598Q399 573 412 520Q422 475 438 432Q450 397 485 326Q546 199 551 190L524 0H35Z" />
<glyph unicode="&#x3c0;" glyph-name="pi" horiz-adv-x="1077" d="M1018 195Q977 132 924 76Q877 27 842 4Q799 -23 768 -31Q731 -41 709 -41Q676 -41 651 -33Q624 -25 606 -2Q588 18 575 57Q565 88 565 152Q565 180 571 225Q581 301 588 334Q602 406 621 479L670
666Q650 668 610 673T549 680L420 692Q386 532 365 373Q342 213 340 74Q326 66 309 57Q301 53 295 50T280 43T260 35Q223 19 203 10L143 -14Q114 -26 90 -35Q67 -43 49 -47L47 -43Q45 -39 43 -37T33 -23Q33 -21 27 -14T18 -2Q65 74 92 125Q123 184 156 268Q191
360 215 451Q244 560 270 700H252H229Q204 700 176 696Q154 693 133 684Q98 670 88 662L37 629L0 694L68 770Q117 827 139 850Q178 889 209 911Q242 936 274 936Q380 936 473 930Q508 928 565 923T643 915Q723 907 793 901Q861 895 926 895Q967 895 997 913Q1046
942 1061 954L1108 891L1051 817Q1031 790 985 741Q951 704 918 680T856 655H805Q780 565 766 477Q756 409 756 319Q756 264 760 244T776 199Q786 181 797 174Q809 168 823 168Q839 168 850 170Q862 172 883 186Q897 196 922 217Q944 235 965 266L1018 195Z" />
<glyph unicode="&#x2013;" glyph-name="endash" horiz-adv-x="929" d="M889 551Q887 541 877 524Q873 516 868 507T858 489Q848 469 842 459Q828 436 827 434H51L23 469Q25 479 35 496Q37 500 43 512T53 528L72 559L86 586H860L889 551Z" />
<glyph unicode="&#x2014;" glyph-name="emdash" horiz-adv-x="1552" d="M1511 551Q1509 541 1499 524Q1495 516 1491 507T1483 489L1464 459Q1450 436 1450 434H51L23 469Q25 479 35 496Q37 500 43 512T53 528L72 559L86 586H1483L1511 551Z" />
<glyph unicode="&#x2018;" glyph-name="quoteleft" horiz-adv-x="499" d="M487 1395Q475 1381 440 1333Q420 1306 399 1264Q387 1239 371 1190Q359 1153 358 1118Q358 1095 369 1071Q377 1051 395 1039T436 1020Q450 1016 483 1016L492 930Q488 926 463 912T412
887Q371 871 348 862Q303 846 283 840Q273 836 227 825Q211 821 190 821Q167 837 164 844Q148 864 139 879Q129 895 123 926Q115 963 115 985Q115 1051 143 1120Q168 1179 215 1247Q260 1310 313 1362Q364 1411 424 1450L487 1395Z" />
<glyph unicode="&#x2019;" glyph-name="quoteright" horiz-adv-x="499" d="M492 1282Q492 1212 465 1147Q445 1096 391 1020Q346 957 293 905Q236 852 184 817L119 872Q131 886 166 934Q193 971 209 1004Q221 1029 238 1077Q248 1108 248 1149Q248 1172 238 1196Q230
1216 212 1228T172 1247Q158 1251 125 1251L115 1337Q119 1341 143 1356Q161 1366 197 1380Q238 1396 260 1405Q315 1425 324 1427L381 1442Q397 1446 416 1446Q439 1430 442 1423Q458 1403 467 1389Q479 1366 485 1341Q492 1315 492 1282Z" />
<glyph unicode="&#x201a;" glyph-name="quotesinglbase" horiz-adv-x="550" d="M401 104Q401 34 375 -31Q355 -82 301 -158Q260 -217 203 -270Q140 -329 94 -360L29 -305Q41 -291 76 -244Q99 -213 119 -172Q133 -143 147 -100Q157 -69 158 -29Q158 -6 147 18Q139
38 121 50T82 70Q68 74 35 74L25 162Q27 164 31 166T41 172T53 178Q71 188 106 203Q147 219 170 227Q225 247 233 250L291 264Q307 268 326 268Q349 252 352 246Q368 226 377 211Q389 188 395 164Q401 135 401 104Z" />
<glyph unicode="&#x201c;" glyph-name="quotedblleft" horiz-adv-x="958" d="M487 1395Q475 1381 440 1333Q420 1306 399 1264Q387 1239 371 1190Q359 1153 358 1118Q358 1095 369 1071Q377 1051 395 1039T436 1020Q450 1016 483 1016L492 930Q488 926 463 912T412
887Q371 871 348 862Q303 846 283 840Q273 836 227 825Q211 821 190 821Q167 837 164 844Q148 864 139 879Q129 895 123 926Q115 963 115 985Q115 1051 143 1120Q168 1179 215 1247Q260 1310 313 1362Q364 1411 424 1450L487 1395ZM948 1395Q934 1381 901 1333Q874
1296 858 1264Q846 1239 829 1190Q819 1159 819 1118Q819 1095 829 1071Q837 1051 855 1039T895 1020Q909 1016 942 1016L952 930Q948 926 924 911Q906 901 870 887Q829 871 807 862Q752 842 743 840L686 825Q670 821 651 821Q631 837 625 844Q609 864 600 879Q588
902 582 926Q576 955 575 985Q575 1055 602 1120Q622 1171 676 1247Q721 1310 774 1362Q831 1415 883 1450L948 1395Z" />
<glyph unicode="&#x201d;" glyph-name="quotedblright" horiz-adv-x="958" d="M492 1282Q492 1212 465 1147Q445 1096 391 1020Q346 957 293 905Q236 852 184 817L119 872Q131 886 166 934Q193 971 209 1004Q221 1029 238 1077Q248 1108 248 1149Q248 1172 238
1196Q230 1216 212 1228T172 1247Q158 1251 125 1251L115 1337Q119 1341 143 1356Q161 1366 197 1380Q238 1396 260 1405Q315 1425 324 1427L381 1442Q397 1446 416 1446Q439 1430 442 1423Q458 1403 467 1389Q479 1366 485 1341Q492 1315 492 1282ZM952 1282Q952
1216 924 1147Q899 1088 852 1020Q807 957 754 905Q703 856 643 817L580 872Q594 886 627 934Q647 961 668 1004Q680 1029 696 1077Q708 1114 709 1149Q709 1172 698 1196Q690 1216 672 1228T631 1247Q617 1251 584 1251L575 1337Q579 1341 604 1355T655 1380Q696
1396 719 1405Q764 1421 784 1427Q794 1429 840 1442Q856 1446 877 1446Q897 1430 903 1423Q919 1403 928 1389Q938 1373 944 1341Q952 1305 952 1282Z" />
<glyph unicode="&#x201e;" glyph-name="quotedblbase" horiz-adv-x="1011" d="M401 104Q401 34 375 -31Q355 -82 301 -158Q260 -217 203 -270Q140 -329 94 -360L29 -305Q41 -291 76 -244Q99 -213 119 -172Q133 -143 147 -100Q157 -69 158 -29Q158 -6 147 18Q139
38 121 50T82 70Q68 74 35 74L25 162Q27 164 31 166T41 172T53 178Q71 188 106 203Q147 219 170 227Q225 247 233 250L291 264Q307 268 326 268Q349 252 352 246Q368 226 377 211Q389 188 395 164Q401 135 401 104ZM862 104Q862 38 834 -31Q809 -90 762 -158Q721
-217 664 -270Q601 -329 555 -360L489 -305Q503 -291 537 -244Q553 -221 578 -172Q592 -143 606 -100Q618 -63 618 -29Q618 -6 608 18Q600 38 582 50T541 70Q527 74 494 74L485 162L514 178Q539 192 565 203Q606 219 629 227Q674 243 694 250Q704 254 750 264Q766
268 786 268Q806 252 813 246Q829 226 838 211Q848 195 854 164Q862 127 862 104Z" />
<glyph unicode="&#x2020;" glyph-name="dagger" horiz-adv-x="923" d="M987 1124Q985 1120 956 1071Q948 1055 942 1045T928 1022T909 993L860 913Q854 903 842 883T823 856Q813 864 795 877T770 895Q754 907 721 924Q692 938 666 944Q631 952 604 954Q602 886
610 817Q620 739 643 680Q600 594 557 473Q528 389 510 281Q500 218 506 167T535 49Q517 37 498 29L438 2Q434 0 379 -25Q344 -39 340 -41L307 -8Q332 37 342 61Q360 104 370 139T391 213Q403 264 406 281Q412 330 412 377V473Q410 502 401 573Q395 622 383 680Q416
731 451 817Q480 889 494 954Q328 940 158 856L133 909Q135 913 164 963Q172 979 178 989T192 1011T211 1040L260 1120Q295 1173 299 1178Q324 1156 348 1141Q373 1127 399 1112Q419 1102 451 1092Q479 1083 512 1079Q516 1116 512 1151Q510 1178 502 1217Q494
1262 485 1280Q483 1288 478 1301T468 1326T459 1348Q490 1368 514 1380Q534 1390 553 1399T592 1419Q631 1439 666 1456Q699 1472 719 1481L760 1446Q660 1268 623 1079Q723 1089 793 1110Q879 1135 965 1178L987 1124Z" />
<glyph unicode="&#x2021;" glyph-name="daggerdbl" horiz-adv-x="923" d="M987 1124Q985 1120 956 1071Q948 1055 942 1045T928 1022T909 993L860 913Q854 903 842 883T823 856Q803 872 772 893Q747 909 721 922Q705 930 668 942Q640 951 606 954Q604 899 616
840Q630 779 649 721Q614 666 586 600Q559 537 545 485Q645 495 713 516Q799 541 883 584L905 530Q903 526 874 477L829 399L780 319Q745 266 741 262Q682 305 639 326Q588 353 522 360Q520 317 522 285Q526 244 530 221Q534 201 551 160L578 92Q560 80 522 61L446
20Q423 8 371 -16Q330 -36 319 -41L276 -4Q329 90 362 176Q399 270 416 360Q328 350 246 328Q170 308 76 262L51 315Q53 319 82 369Q90 385 96 395T110 418T129 446L178 526Q184 536 196 557T215 584Q233 568 266 547Q291 533 317 518Q337 508 369 498Q397 489
430 485Q430 548 422 600Q414 649 389 721Q438 801 457 842Q480 893 496 954Q408 944 326 922Q256 902 158 856L133 909Q135 913 164 963Q172 979 178 989T192 1011T211 1040L260 1120Q295 1173 299 1178Q332 1149 348 1139Q373 1123 399 1110Q424 1098 453 1092Q504
1080 514 1079Q516 1108 512 1153T504 1219Q498 1250 485 1280Q481 1294 474 1311T461 1348Q492 1368 516 1380Q536 1390 555 1399T594 1419Q633 1439 668 1456Q697 1470 719 1481L762 1446Q723 1374 678 1264Q647 1190 623 1079Q725 1089 795 1110Q877 1133 965
1178L987 1124Z" />
<glyph unicode="&#x2022;" glyph-name="bullet" horiz-adv-x="528" d="M479 713Q479 656 461 598Q443 537 410 494Q377 449 328 418Q283 389 215 389Q176 389 150 401Q125 411 102 438Q86 456 76 491T66 559Q66 614 84 674Q102 729 137 778Q168 821 221 854Q270
885 332 885Q369 885 397 872Q424 860 444 834Q462 809 471 780Q479 754 479 713Z" />
<glyph unicode="&#x2026;" glyph-name="ellipsis" horiz-adv-x="1536" d="M1409 172Q1409 137 1397 100Q1385 65 1360 37Q1331 6 1296 -12Q1259 -30 1210 -31Q1140 -31 1110 2Q1077 39 1077 88Q1077 125 1092 156Q1110 197 1130 219Q1159 250 1194 268Q1231 286
1278 287Q1344 287 1376 254T1409 172ZM891 172Q891 137 879 100Q867 65 842 37Q813 6 778 -12Q741 -30 692 -31Q622 -31 592 2Q559 39 559 88Q559 125 573 156Q591 197 612 219Q641 250 676 268Q713 286 760 287Q826 287 858 254T891 172ZM373 172Q373 137 360
100Q348 65 324 37Q295 6 260 -12Q223 -30 174 -31Q104 -31 74 2Q41 39 41 88Q41 125 55 156Q73 197 94 219Q123 250 158 268Q195 286 242 287Q308 287 340 254T373 172Z" />
<glyph unicode="&#x2030;" glyph-name="perthousand" horiz-adv-x="2076" d="M1800 426Q1800 467 1794 497T1780 544T1757 571Q1747 579 1729 580Q1698 580 1675 557Q1650 532 1636 500Q1618 459 1610 422Q1598 365 1594 336T1585 254T1581 190Q1581 110 1599
78Q1617 43 1659 43Q1696 43 1720 80Q1747 119 1765 176Q1781 229 1792 301Q1800 360 1800 426ZM2007 408Q2007 330 1982 250Q1959 176 1909 109Q1862 46 1788 6Q1716 -33 1622 -33Q1561 -33 1518 -12Q1472 10 1438 43Q1403 78 1385 121T1366 213Q1366 291 1391
371Q1416 449 1468 512Q1519 573 1593 612Q1665 651 1763 651Q1818 651 1860 635Q1903 619 1937 586Q1970 555 1989 510Q2007 463 2007 408ZM1130 426Q1130 467 1124 497T1110 544T1087 571Q1077 579 1059 580Q1028 580 1006 557Q983 532 967 500Q949 459 940 422Q928
365 924 336T916 254T911 190Q911 110 930 78Q948 43 987 43T1051 80Q1078 119 1096 176Q1112 229 1122 301Q1130 360 1130 426ZM1337 408Q1337 330 1313 250Q1290 176 1239 109Q1192 46 1118 6Q1046 -33 950 -33Q891 -33 848 -12Q802 10 768 43Q733 78 715 121Q695
168 694 213Q694 285 721 371Q746 449 799 512Q850 573 924 612Q996 651 1094 651Q1149 651 1190 635Q1233 619 1268 586Q1301 555 1319 510Q1337 463 1337 408ZM272 2Q258 -6 242 -8Q238 -8 224 -11T201 -16Q191 -18 180 -19T158 -23L125 -31L106 0L1137 1202Q1139
1202 1144 1205T1155 1210T1167 1212Q1171 1212 1185 1215T1208 1221L1249 1229Q1263 1231 1280 1235L1300 1206L272 2ZM504 1014Q504 1055 498 1085T483 1133Q477 1145 461 1157Q451 1165 432 1165Q399 1165 379 1145T342 1087Q324 1046 315 1010L297 924Q293
895 289 842Q287 815 287 776Q287 694 303 664Q321 629 362 629Q397 629 424 668T469 764Q485 817 496 889Q504 948 504 1014ZM713 995Q713 923 686 838Q661 758 614 697T492 594Q420 555 326 555Q265 555 221 575Q172 598 141 629Q106 664 88 707T70 801Q70 879
94 958Q119 1036 172 1100Q223 1161 297 1200Q369 1239 467 1239Q522 1239 563 1223Q606 1207 641 1174Q674 1143 692 1098Q713 1046 713 995Z" />
<glyph unicode="&#x2039;" glyph-name="guilsinglleft" horiz-adv-x="606" d="M47 430Q51 455 53 465Q53 469 54 477T57 489Q59 497 59 504L500 934L551 883L541 864L514 817L475 750L432 674L389 598L352 530Q344 516 337 505T326 485L315 467L436 47L371 -2L47 430Z" />
<glyph unicode="&#x203a;" glyph-name="guilsinglright" horiz-adv-x="606" d="M41 47L51 66L78 113L115 180L158 256L201 332L238 399L264 446L274 463L154 883L219 934L543 500Q539 475 537 465Q537 461 536 453T532 440L530 426L90 -2L41 47Z" />
<glyph unicode="&#x2044;" glyph-name="fraction" horiz-adv-x="1208" d="M246 2Q230 -6 215 -8Q209 -8 197 -12T178 -16T159 -18T139 -23L106 -31L88 0L1118 1202Q1120 1202 1125 1205T1135 1210T1147 1212T1165 1215T1186 1221L1223 1229Q1241 1232 1253 1235L1274
1206L246 2Z" />
<glyph unicode="&#x20ac;" glyph-name="Euro" horiz-adv-x="966" d="M614 426H342Q342 344 362 279Q380 220 408 184Q431 153 471 135Q502 121 539 121Q557 121 590 125Q619 129 647 141Q682 157 721 182Q756 205 817 256Q833 231 840 219Q846 209 850 199T858
180Q805 123 737 72Q688 33 631 8Q572 -19 537 -23Q480 -31 451 -31Q388 -31 311 0Q243 28 195 86Q140 152 113 227Q84 311 80 426H0L-25 461Q-21 473 -16 481Q-10 493 -4 508Q-2 514 0 519T4 527T8 537L18 557H84Q84 561 85 565T86 573Q86 585 88 592L94 629L100
666H61L37 700Q41 712 45 721Q51 733 57 748Q65 768 70 776L80 797H133Q207 1021 354 1128Q499 1234 705 1235Q756 1235 795 1227Q846 1217 877 1206Q912 1196 948 1174Q979 1156 999 1135Q1003 1131 997 1116T979 1079Q956 1040 950 1030L920 981Q905 956 889
938Q869 913 866 911L801 928Q774 1006 725 1053Q679 1096 614 1096Q594 1096 559 1085Q536 1079 500 1042Q471 1013 442 952Q417 901 391 797H729L758 764L713 666H365Q363 654 358 633Q356 627 355 616T354 598Q350 582 350 578L348 557H633L659 524L614 426Z"
/>
<glyph unicode="&#x2122;" glyph-name="trademark" horiz-adv-x="1220" d="M610 1247L604 1223Q604 1219 601 1208T596 1190Q592 1170 588 1155Q586 1149 583 1141T578 1128H547Q547 1136 544 1156T541 1184Q541 1204 524 1204H436L391 872Q391 864 401 860Q413
854 446 848L440 807H217L223 848Q262 854 272 860Q284 866 285 872L330 1204H240Q230 1204 217 1186Q192 1149 180 1124L152 1135Q154 1143 158 1163Q160 1171 168 1198L176 1235Q176 1239 184 1262H596L610 1247ZM1217 1221Q1203 1221 1194 1219Q1192 1219 1183
1217T1167 1212L1124 868Q1124 864 1137 858Q1141 856 1178 848L1171 807H965L971 848L1012 858Q1028 864 1028 868L1061 1130L856 807H817L707 1128L668 868Q668 864 678 858Q684 856 717 848L711 807H551L557 848Q608 856 610 868L659 1208Q651 1214 635 1219Q627
1221 610 1221L616 1262H756Q762 1262 768 1255Q772 1251 778 1231L874 946L1055 1231Q1069 1256 1073 1257Q1081 1261 1087 1262H1221L1217 1221Z" />
<glyph unicode="&#x2202;" glyph-name="partialdiff" horiz-adv-x="952" d="M627 563Q621 618 602 662Q586 701 559 733Q534 764 508 778Q479 794 457 795Q418 795 387 770Q354 743 334 702Q303 643 293 596Q273 514 266 455Q256 385 262 309Q268 241 286 192T332
117Q361 88 395 88Q442 88 479 119Q514 148 543 211Q574 279 590 356Q610 452 625 555Q625 557 626 557T627 559V563ZM893 698Q870 540 836 436Q799 323 754 244T655 106Q603 51 551 20Q494 -15 449 -25Q392 -39 360 -39Q270 -39 197 -4Q129 29 84 92T25 240Q9
332 23 426Q31 487 53 553Q76 623 106 672Q143 731 182 776Q225 825 272 858Q331 899 375 913Q430 931 483 932Q499 932 532 924Q557 918 580 903Q607 887 625 868Q650 843 664 821Q672 897 668 975Q664 1043 649 1087Q633 1134 612 1165Q590 1196 569 1214Q549
1232 524 1239Q495 1247 485 1247Q456 1247 416 1239Q385 1233 352 1217Q313 1199 287 1178Q262 1160 213 1118L170 1159L338 1360Q399 1385 440 1395Q493 1409 530 1409Q577 1409 631 1397Q680 1385 729 1356Q775 1328 815 1276Q854 1225 879 1147Q902 1075 907
958Q913 843 893 698Z" />
<glyph unicode="&#x2206;" glyph-name="uni2206" horiz-adv-x="1146" d="M772 207L709 492L680 616L651 750L623 881Q615 916 610 946T598 1001L535 870L471 733L410 600L350 477L225 207Q219 195 213 176Q209 166 217 160T250 154H315H664H731Q758 154 766 160Q776
166 776 176Q776 182 772 207ZM1024 0H18L2 61L211 500L299 684L387 872L469 1049L539 1196Q605 1239 657 1262Q757 1307 784 1317L821 1149L864 952L909 745L954 541L1061 61L1024 0Z" />
<glyph unicode="&#x220f;" glyph-name="product" horiz-adv-x="1226" d="M-20 0L-8 84Q58 100 86 113Q117 127 121 143L254 1114Q254 1126 229 1145Q209 1161 141 1178L152 1260H1296L1286 1178Q1214 1162 1190 1147Q1155 1129 1153 1114L1022 143Q1020 131 1044
115Q1064 101 1137 84L1124 0H629L639 84Q713 102 735 113Q764 127 768 143L897 1069Q897 1081 891 1093T868 1116Q850 1126 827 1133Q802 1139 768 1139H637Q610 1139 578 1130Q553 1124 537 1116T510 1094T500 1069L373 143Q371 135 397 115Q415 101 487 84L475
0H-20Z" />
<glyph unicode="&#x2211;" glyph-name="summation" horiz-adv-x="1054" d="M987 416L975 352L961 276L946 195L930 117L918 49Q916 41 913 24T907 0H41L10 53L453 604L188 1206L195 1260H922Q930 1260 946 1261T969 1262Q983 1262 1016 1266Q1028 1268 1067 1276L1022
915L932 893Q926 963 915 1012Q905 1059 895 1079Q883 1106 868 1112Q856 1118 842 1118H494L684 674L319 219H739Q764 219 788 229Q806 237 825 262T862 330Q885 381 905 436L987 416Z" />
<glyph unicode="&#x221a;" glyph-name="radical" horiz-adv-x="1150" d="M1350 1417Q1347 1405 1337 1386Q1329 1366 1319 1346T1300 1305Q1296 1295 1288 1278H1118L674 98Q660 73 631 55Q594 30 559 14Q534 2 489 -14Q448 -28 442 -31L211 784H98L72 821Q74
827 84 848Q92 866 102 885L123 922Q133 942 137 948L393 950L592 254L1057 1452H1323L1350 1417Z" />
<glyph unicode="&#x221e;" glyph-name="infinity" horiz-adv-x="1255" d="M338 446Q350 446 375 451Q383 453 414 465Q430 473 463 494Q471 498 524 543Q499 580 485 598Q456 635 442 649Q413 678 397 688Q374 702 350 702Q319 702 305 692Q280 676 270 664Q256
648 248 627Q242 613 238 588Q234 561 240 539Q248 506 256 492Q268 472 289 459T338 446ZM954 711Q925 711 877 686Q830 663 766 610Q791 573 805 555Q838 512 848 504Q877 477 895 467Q918 453 940 453Q969 453 987 463Q1007 475 1021 491T1044 528Q1050 542
1055 567Q1057 583 1053 616Q1051 636 1037 661T1004 696Q979 711 954 711ZM449 885Q490 885 532 868Q567 854 602 827Q631 804 662 770Q674 758 709 707Q762 754 809 788Q855 822 895 844Q938 867 967 874Q1004 884 1036 885Q1085 885 1124 867T1188 815Q1217
776 1225 731Q1233 682 1225 618Q1215 550 1180 492Q1141 429 1092 382T973 301Q908 270 844 270Q801 270 758 287Q721 301 684 328Q661 344 625 385Q613 397 578 449Q519 396 471 360Q422 323 389 305Q366 293 322 279Q295 271 254 270Q209 270 168 289Q129 307
104 340Q75 379 68 424Q60 473 68 536T113 664Q148 723 201 774Q250 821 319 854Q384 885 449 885Z" />
<glyph unicode="&#x222b;" glyph-name="integral'" horiz-adv-x="720" d="M1073 1393Q1061 1385 1038 1366Q1028 1356 1016 1348T991 1329L940 1288Q920 1270 893 1251Q864 1231 852 1225Q832 1215 827 1214Q809 1214 793 1235Q789 1241 778 1254T760 1276Q729
1313 721 1319Q701 1337 676 1337T631 1321Q613 1307 596 1276Q586 1258 569 1208Q559 1179 549 1128Q543 1095 535 1040L522 952L508 821Q498 731 492 662Q484 576 473 487Q469 454 462 396T453 319Q447 276 444 240T436 172Q432 147 426 110T420 68Q406 -10 381
-70Q350 -142 315 -193Q268 -263 227 -305Q178 -357 123 -403Q66 -450 0 -475Q-68 -500 -141 -500Q-181 -500 -221 -487Q-256 -477 -293 -457Q-328 -439 -346 -422Q-366 -404 -367 -393Q-367 -385 -358 -369Q-350 -351 -336 -332Q-316 -303 -303 -289L-270 -250L-242
-221Q-232 -211 -222 -211T-188 -227Q-180 -233 -139 -262Q-96 -291 -84 -297Q-51 -313 -25 -313Q14 -313 41 -297Q66 -283 84 -244Q94 -221 115 -143Q133 -69 150 12Q160 59 170 139Q182 237 188 293L207 461Q215 539 221 629Q223 658 228 709T236 778Q238 798
250 899Q266 1005 281 1055Q304 1135 332 1196T410 1321Q457 1380 518 1427Q563 1460 633 1493Q688 1520 754 1520Q807 1520 856 1501Q922 1476 950 1462Q989 1444 1026 1419Q1059 1399 1073 1393Z" />
<glyph unicode="&#x2248;" glyph-name="approxequal" horiz-adv-x="899" d="M823 455Q795 415 762 381Q729 348 692 324Q653 297 621 287Q578 273 553 272Q518 272 479 289Q438 305 410 322Q375 340 340 356Q309 370 270 371Q225 371 190 344Q141 307 106 270L53
354Q90 407 113 430Q144 461 180 487Q214 512 248 524Q287 538 313 539Q350 539 393 522Q440 504 467 489L535 455Q564 441 596 440Q621 440 639 449Q668 461 682 471Q711 491 723 504Q748 529 760 543L823 455ZM864 766Q831 719 803 690Q770 657 733 633Q694 606
662 596Q625 584 596 584Q553 584 522 598Q487 614 453 633Q441 639 383 666Q346 682 313 682Q268 682 233 655Q190 622 150 580L96 666Q129 713 156 739Q187 770 223 797Q257 822 291 834Q330 848 356 848Q397 848 436 831Q485 811 510 799Q528 789 544 782T575
766Q608 750 637 750Q662 750 680 758Q709 770 723 780Q752 800 766 812T801 854L864 766Z" />
<glyph unicode="&#x2260;" glyph-name="notequal" horiz-adv-x="899" d="M809 457Q807 449 797 428Q795 422 789 411T778 393Q768 375 760 358Q758 354 753 347T745 336H371L240 150Q226 140 209 135Q203 133 188 128T164 121L119 109Q113 107 101 104T84 98L59
143L195 336H66L41 369Q45 389 51 397Q63 417 70 430Q80 448 88 465Q90 469 102 489H303L408 635H106L82 670Q86 686 92 696T111 731Q115 737 118 743T123 753T129 764Q137 780 143 791H516L645 973Q655 979 680 987Q688 989 700 994T721 1001T743 1007T764 1012Q768
1014 780 1017T799 1022L827 979L694 791H823L850 756Q848 748 838 727Q836 721 830 710T819 692T810 677T801 659Q787 636 786 635H584L481 489H782L809 457Z" />
<glyph unicode="&#x2264;" glyph-name="lessequal" horiz-adv-x="899" d="M797 266Q795 258 784 238Q782 232 776 221T766 203Q762 195 759 190T754 181T748 170Q734 147 733 145H55L29 178Q33 192 41 207Q53 227 59 240Q69 258 78 274Q80 278 92 299H770L797
266ZM90 635Q96 651 103 667T117 700Q131 739 145 764L870 1036L897 1001Q895 997 892 988T887 973L870 932Q866 922 863 913T856 893Q854 887 849 877T844 864L352 680L805 492L821 446L797 422Q785 410 768 395Q766 393 735 369Q715 353 705 346L117 590L90 635Z"
/>
<glyph unicode="&#x2265;" glyph-name="greaterequal" horiz-adv-x="899" d="M778 266Q776 258 766 238Q762 232 756 221T748 203Q744 195 738 187T727 170Q718 155 715 145H37L10 178Q14 192 23 207L39 240Q49 258 57 274Q61 284 66 289T74 299H752L778 266ZM817
793L844 748Q834 717 819 682Q799 637 788 618L63 346L39 381Q39 383 43 393T49 410Q61 443 63 451L80 492Q82 498 87 507T92 518L584 705L131 891L115 938Q119 942 125 947T139 961Q151 973 168 987Q180 999 201 1016Q211 1024 231 1036L817 793Z" />
<glyph unicode="&#x25ca;" glyph-name="lozenge" horiz-adv-x="681" d="M236 721L383 268L543 565V567L395 1018L236 721ZM45 627L369 1204Q371 1206 403 1227Q413 1233 426 1241T455 1257L506 1284Q518 1290 527 1295T541 1303L733 659L410 84Q408 82 375 61Q365
55 352 47T324 31L272 4Q260 -2 251 -7T238 -14L45 627Z" />
<glyph unicode="&#xfb01;" glyph-name="uniFB01" horiz-adv-x="1296" d="M1296 1262Q1296 1233 1284 1202T1248 1147T1186 1104T1104 1085Q1079 1085 1051 1094Q1037 1098 1016 1114Q1004 1124 995 1143Q987 1163 987 1176Q987 1201 1001 1235Q1013 1264 1038
1292Q1058 1317 1098 1335Q1135 1353 1182 1354Q1215 1354 1233 1346Q1258 1336 1270 1326T1290 1296Q1296 1282 1296 1262ZM1073 1393Q1061 1385 1038 1366Q1030 1358 1024 1354T1011 1344T993 1329L942 1288Q932 1278 893 1251Q860 1226 854 1225Q834 1215 827
1214Q811 1214 795 1235L760 1276L723 1319Q700 1337 678 1337Q637 1337 613 1301T569 1208Q549 1149 541 1083Q539 1073 532 1025T522 952L516 905H881Q928 905 954 909Q966 911 992 914T1030 920Q1067 926 1098 932Q1118 936 1139 936Q1167 936 1182 918Q1198
898 1198 852Q1198 821 1192 772Q1190 754 1183 716T1174 664Q1168 625 1152 539T1128 414Q1116 336 1112 303Q1106 254 1106 226T1112 180Q1118 166 1135 166Q1155 166 1163 168Q1167 168 1176 170T1190 174Q1198 176 1219 184L1253 199L1274 123Q1227 94 1174
66L1071 12Q1034 -6 977 -27Q936 -41 903 -41T846 -10Q819 23 819 76Q819 88 827 158Q829 170 844 274Q850 309 857 344T868 406Q876 451 891 537Q905 639 907 647Q915 713 915 721Q915 725 914 729T913 735Q901 760 868 768Q845 774 764 774H502L434 193Q422 84
375 -20Q336 -106 260 -211Q205 -289 117 -369Q43 -439 -35 -485L-80 -391Q-29 -362 10 -309T82 -180Q105 -127 131 -27Q153 56 162 139L233 774H96L72 815L213 905H250Q260 997 279 1059Q304 1143 332 1198Q373 1276 410 1323Q456 1381 520 1427Q569 1462 633
1493Q688 1520 756 1520Q805 1520 854 1501Q911 1478 946 1462Q993 1437 1024 1419Q1053 1401 1073 1393Z" />
<glyph unicode="&#xfb02;" glyph-name="uniFB02" horiz-adv-x="1277" d="M1253 123Q1179 78 1149 61Q1065 20 1042 10Q990 -12 944 -27Q901 -41 866 -41Q835 -41 815 -10Q795 19 795 78Q795 109 803 166L823 315Q837 419 852 506Q860 559 867 611T883 715Q889
758 898 810T915 918L940 1096Q940 1100 943 1121T946 1153V1196Q942 1225 938 1233L922 1266Q893 1315 846 1335Q795 1358 743 1358Q677 1358 637 1317Q592 1272 573 1219Q548 1147 541 1087Q539 1075 532 1026T522 952L516 905H813L834 877Q828 865 805 840Q801
834 791 821T768 795Q756 781 729 754Q713 738 700 729Q694 745 680 751T637 766Q633 768 578 772Q555 774 508 774H502L434 193Q422 84 375 -20Q336 -106 260 -211Q205 -289 117 -369Q43 -439 -35 -485L-80 -391Q-29 -362 10 -309T82 -180Q105 -127 131 -27Q153
56 162 139L233 774H96L74 815L213 905H250Q258 973 279 1057Q295 1120 330 1194Q361 1257 408 1315Q459 1376 516 1417Q534 1429 580 1454Q617 1474 657 1489Q690 1501 752 1511Q799 1519 864 1520Q958 1520 1026 1493Q1096 1466 1143 1421Q1170 1396 1188 1368Q1204
1341 1212 1323Q1215 1311 1219 1292Q1221 1280 1221 1249Q1221 1216 1219 1198Q1217 1188 1217 1172T1214 1145Q1205 1062 1190 973L1161 793L1133 616Q1127 583 1120 530T1108 457Q1096 383 1090 322Q1082 240 1081 225Q1081 192 1092 178Q1101 166 1116 166Q1143
166 1165 174Q1169 176 1195 183T1237 199L1253 123Z" />
</font>
</defs>
</svg>
