<?xml version="1.0" standalone="no"?> <!DOCTYPE svg PUBLIC "-//W3C//DTD SVG 1.0//EN" "http://www.w3.org/TR/2001/REC-SVG-20010904/DTD/svg10.dtd" > <svg xmlns="http://www.w3.org/2000/svg" width="100%" height="100%">
<defs >
<font id="GentiumBasic-BoldItalic" horiz-adv-x="937" ><font-face
    font-family="Gentium Basic"
    units-per-em="2048"
    panose-1="2 0 6 6 8 0 0 2 0 4"
    ascent="1774"
    descent="-537"
    alphabetic="0" />
<missing-glyph horiz-adv-x="1024" d="M102 0V1092H922V0H102ZM205 102H819V989H205V102Z" />
<glyph unicode=" " glyph-name="space" horiz-adv-x="489" />
<glyph unicode="!" glyph-name="exclam" horiz-adv-x="477" d="M350 168Q350 129 340 98Q328 63 304 35T244 -12T166 -31Q101 -31 74 0Q43 35 43 84Q43 111 57 150Q69 184 94 211Q119 240 153 258T231 276Q290 276 322 246Q350 217 350 168ZM299 412Q276 396 250
385L197 365L172 385L227 1321Q274 1348 279 1350L346 1382Q360 1388 377 1397T414 1415Q445 1429 467 1436L510 1405L299 412Z" />
<glyph unicode="&quot;" glyph-name="quotedbl" horiz-adv-x="888" d="M334 854Q328 850 311 846Q307 844 297 843T283 842Q263 838 254 838Q248 838 241 837T229 836L223 1352Q235 1358 266 1370Q282 1376 334 1395Q379 1411 399 1417L440 1430L485 1403L334
854ZM707 854Q699 850 686 846Q682 844 672 843T657 842Q637 838 629 838Q623 838 615 837T602 836L598 1352Q610 1358 641 1370T707 1395Q752 1411 772 1417Q803 1426 815 1430L858 1403L707 854Z" />
<glyph unicode="#" glyph-name="numbersign" horiz-adv-x="931" d="M840 977H983L1004 950Q1004 946 991 924Q983 908 975 889T958 854Q954 844 950 840T944 831H782L692 604H840L856 578Q854 572 846 551L829 518L813 485Q804 470 801 461H637L522 170Q513 164
498 158L467 145L432 135Q416 131 403 127L383 147L506 461H342L229 170Q220 164 205 158Q185 150 172 145L139 135Q123 131 111 127L90 147L213 461H59L43 485Q45 491 53 512L70 545L86 578Q90 582 94 592T100 604H270L358 831H207L186 854Q188 858 192 868T199
883Q203 893 215 918Q219 928 224 935T233 950Q241 966 246 977H416L524 1251Q528 1255 551 1264Q569 1272 584 1274Q600 1278 614 1282Q620 1284 639 1292L664 1270L549 977H709L817 1251Q821 1255 844 1264Q862 1272 877 1274Q893 1278 907 1282Q917 1284 934
1292L956 1270L840 977ZM401 604H563L651 831H489L401 604Z" />
<glyph unicode="$" glyph-name="dollar" horiz-adv-x="931" d="M309 950Q309 921 313 907Q319 882 334 866Q357 839 373 827Q396 811 436 788L481 1110Q438 1102 412 1090Q375 1072 356 1053Q333 1030 322 1004Q309 975 309 950ZM643 342Q643 399 614 440Q589
475 514 520L459 119Q547 133 596 193Q643 248 643 342ZM905 1145Q908 1142 905 1126Q903 1116 891 1087Q887 1079 880 1063T868 1038Q856 1010 844 989Q828 960 819 950Q805 932 801 930L743 938Q727 995 692 1036Q651 1083 596 1100L545 739Q604 714 672 676Q727
645 766 606Q801 571 823 522Q843 479 844 418Q844 344 817 268Q792 196 741 139Q688 80 614 39Q542 -2 438 -20L424 -131Q410 -143 381 -158Q356 -170 332 -176L303 -147L319 -31H313H307Q258 -31 207 -17T102 25Q51 52 23 76Q-8 103 -8 131Q-8 141 -2 160Q8 191
14 203Q30 236 41 252Q45 258 50 267T59 282T68 295Q78 307 96 326Q110 340 118 340T137 326T160 291L188 244Q208 213 225 193Q239 177 276 147Q299 129 342 119L406 573L371 590Q316 610 258 643Q221 663 178 707Q147 738 127 784Q111 823 111 879Q111 932 133
989Q153 1042 202 1091T324 1174Q398 1209 498 1223L514 1337Q524 1343 538 1353T557 1368Q569 1376 602 1389L633 1360L614 1231H616Q647 1231 700 1223Q741 1217 778 1204Q803 1196 848 1176Q889 1157 905 1145Z" />
<glyph unicode="%" glyph-name="percent" horiz-adv-x="1386" d="M1116 416Q1116 500 1094 539Q1074 576 1036 575Q1003 575 983 555Q958 530 944 500Q930 471 918 424Q906 379 899 340Q895 317 891 258Q889 233 889 197Q889 115 909 80Q929 43 973 43Q996 43
1018 61T1055 111Q1069 142 1081 178Q1097 233 1102 258Q1110 315 1112 342Q1116 396 1116 416ZM1307 399Q1307 323 1282 248T1210 109T1094 6T936 -33Q877 -33 836 -13T760 43Q727 76 709 123Q693 164 692 219Q692 296 717 373Q742 451 791 512Q838 571 911 612Q981
651 1071 651Q1122 651 1165 633Q1212 613 1239 584Q1270 550 1288 504T1307 399ZM268 6Q256 0 238 -6Q213 -14 199 -16L158 -25Q133 -29 125 -31L106 0L1120 1198Q1128 1204 1149 1210Q1155 1212 1169 1215T1190 1221Q1204 1225 1229 1229Q1237 1231 1247 1234T1260
1237L1280 1206L268 6ZM506 1004Q506 1047 500 1077T481 1126Q465 1149 457 1155Q443 1163 424 1163Q391 1163 371 1143Q346 1118 332 1087Q318 1058 305 1012Q293 967 287 928Q283 901 279 848Q277 823 276 784Q276 702 296 668T360 633Q387 633 406 649Q428 667
442 698Q462 739 471 766Q475 780 489 846Q499 889 502 928Q506 981 506 1004ZM694 987Q694 913 670 836Q645 760 598 696Q555 639 481 596Q411 555 324 555Q267 555 223 575Q178 595 147 631Q116 665 98 711Q80 758 80 807Q80 877 106 961Q131 1037 180 1098T299
1198T459 1237Q514 1237 553 1221Q598 1203 627 1169Q660 1134 676 1092Q694 1045 694 987Z" />
<glyph unicode="&amp;" glyph-name="ampersand" horiz-adv-x="1292" d="M575 1130Q567 1081 573 1022Q579 971 596 907Q639 932 676 969Q715 1008 733 1036Q758 1073 768 1104Q776 1124 784 1169Q796 1237 770 1280Q745 1321 700 1321Q673 1321 653 1307Q637 1295
619 1266T592 1204Q579 1161 575 1130ZM508 115Q557 115 610 131Q651 143 709 176Q672 222 635 274T561 385Q536 424 492 506Q463 559 434 633Q375 567 348 508Q317 440 309 377Q299 305 315 256Q331 203 358 174T426 129Q463 115 508 115ZM1368 748L1339 715L1307
678Q1282 651 1276 645Q1272 641 1247 623Q1237 629 1178 653Q1147 665 1110 670Q1126 641 1126 608Q1126 565 1122 539Q1112 473 1075 397Q1036 319 979 254Q985 246 993 236T1010 217L1040 186Q1083 143 1130 131Q1175 119 1229 133L1235 59Q1178 34 1147 25Q1086
5 1059 -4Q1018 -16 989 -23Q981 -25 972 -27T957 -30T948 -31Q928 -31 885 0Q838 33 788 86Q706 33 618 2Q524 -31 432 -31T260 -4Q182 23 139 68Q92 119 74 188Q56 259 68 354Q82 460 160 565T385 776Q365 848 359 928T360 1073Q372 1155 410 1223Q449 1295 504
1343Q561 1394 631 1421Q705 1450 774 1450Q850 1450 893 1430Q942 1407 968 1374T1006 1296Q1014 1255 1008 1202Q1002 1151 969 1096Q938 1044 889 991Q844 944 782 895Q708 838 666 811L635 793Q682 674 750 563Q813 461 893 356Q934 419 948 498Q954 541 948
575Q944 600 924 633Q910 658 883 670Q858 682 834 682L811 719L827 735Q831 739 839 746T852 758Q854 760 879 778Q895 790 901 793H1348L1368 748Z" />
<glyph unicode="&apos;" glyph-name="quotesingle" horiz-adv-x="477" d="M334 854Q328 850 311 846Q307 844 297 843T283 842Q263 838 254 838Q248 838 241 837T229 836L223 1352Q235 1358 266 1370Q282 1376 334 1395Q379 1411 399 1417L440 1430L485 1403L334 854Z" />
<glyph unicode="(" glyph-name="parenleft" horiz-adv-x="630" d="M748 1530Q687 1479 621 1395Q553 1309 508 1210Q463 1114 420 973Q381 842 358 680Q335 533 334 399Q332 278 348 150Q362 37 401 -65T500 -240L440 -315Q342 -254 269 -156T152 68T96 342Q86
475 109 649Q129 805 184 961Q235 1106 315 1233Q393 1358 494 1452Q592 1544 711 1604L748 1530Z" />
<glyph unicode=")" glyph-name="parenright" horiz-adv-x="630" d="M545 635Q527 490 467 324Q418 185 336 53Q260 -68 158 -164Q58 -258 -57 -315L-96 -240Q-30 -187 31 -107T143 76Q190 168 233 313Q274 446 295 604Q313 731 317 885Q320 1020 305 1137Q291
1243 250 1353T154 1530L213 1604Q311 1543 385 1444Q455 1352 500 1219Q543 1093 555 942Q568 799 545 635Z" />
<glyph unicode="*" glyph-name="asterisk" horiz-adv-x="739" d="M444 1221L672 1405L694 1382Q714 1362 727 1352Q735 1344 744 1336T760 1321Q776 1305 780 1298L766 1241L479 1137L715 1040Q715 1036 712 1024T707 1004L694 954Q692 944 686 926T680 905Q678
897 673 886T668 870L616 852L424 1049L432 770L399 754Q387 748 375 744T352 735L307 719Q301 717 294 715T282 711T274 709L240 743L332 1049L104 864Q92 872 80 885Q47 914 45 915L14 946Q2 958 -6 971L10 1026L297 1133L59 1229L70 1264L82 1315Q86 1329 90
1342T96 1364Q104 1393 106 1397L158 1417L350 1219L342 1497L375 1513Q389 1519 422 1532Q461 1548 467 1550Q479 1554 500 1561L537 1526L444 1221Z" />
<glyph unicode="+" glyph-name="plus" horiz-adv-x="817" d="M768 604Q768 602 758 578Q752 562 741 545L725 512Q715 494 713 489H477L442 225Q433 219 418 213Q414 211 404 208T387 203Q367 195 356 193Q341 190 332 186L307 215L346 489H84L59 522Q59 524 64
532T72 547Q76 555 79 563T86 580L104 610Q108 616 111 624T117 635H367L403 901Q415 905 426 909Q432 911 455 920Q461 922 466 925T475 929T487 932L512 938L537 907L498 635H743L768 604Z" />
<glyph unicode="," glyph-name="comma" horiz-adv-x="477" d="M375 117Q375 72 360 29Q344 -22 322 -63Q295 -112 262 -158Q217 -219 193 -246Q156 -286 119 -319Q96 -339 45 -373L-12 -324Q58 -250 102 -162Q141 -84 141 -23Q141 -5 135 14Q131 26 115 47Q103
63 80 70Q55 76 29 74L25 152Q35 160 57 172Q71 180 104 197Q112 201 132 208T160 219Q178 227 215 240Q225 244 244 249T266 254Q280 258 303 258Q328 246 336 238T356 209Q368 191 371 170Q375 142 375 117Z" />
<glyph unicode="-" glyph-name="hyphen" horiz-adv-x="677" d="M633 549Q631 545 627 536T621 522L606 492L590 463Q580 445 578 440H53L29 471Q29 473 39 498Q41 502 55 526L72 555L86 580H606L633 549Z" />
<glyph unicode="." glyph-name="period" horiz-adv-x="477" d="M350 168Q350 129 340 98Q328 63 304 35T244 -12T166 -31Q101 -31 74 0Q43 35 43 84Q43 111 57 150Q69 184 94 211Q119 240 153 258T231 276Q290 276 322 246Q350 217 350 168Z" />
<glyph unicode="/" glyph-name="slash" horiz-adv-x="886" d="M102 -270Q90 -278 68 -287Q56 -293 43 -297T16 -305Q-21 -317 -37 -324Q-51 -328 -61 -331T-76 -336L-111 -303L786 1536Q794 1542 823 1554Q837 1560 870 1573Q886 1579 920 1587Q928 1589 941 1594T958
1599L997 1571L102 -270Z" />
<glyph unicode="0" glyph-name="zero" horiz-adv-x="931" d="M657 809Q657 883 647 944Q639 991 616 1036Q598 1071 573 1087Q544 1105 518 1106Q467 1106 426 1065Q389 1028 360 963Q333 902 315 819Q299 745 289 662Q277 553 274 512Q270 418 270 395Q270 245
305 172Q340 100 414 100Q457 100 496 135Q531 168 559 227Q590 290 606 358Q620 413 635 510Q643 563 651 666Q657 741 657 809ZM897 784Q897 634 866 500Q833 357 762 236Q725 177 686 131Q649 88 594 47Q549 12 485 -10Q430 -30 360 -31Q284 -31 223 6Q166 41
121 104T55 250Q32 336 33 422Q33 499 39 569Q45 632 61 705Q73 756 102 831Q125 888 162 961Q191 1016 236 1067Q285 1124 330 1155Q387 1196 440 1214Q499 1234 569 1235Q632 1235 698 1202Q757 1171 803 1112Q850 1049 872 971Q897 888 897 784Z" />
<glyph unicode="1" glyph-name="one" horiz-adv-x="931" d="M770 0H70L80 84Q162 94 203 104Q266 120 283 127Q320 141 328 150Q340 162 342 172L442 909Q448 950 449 973Q449 993 440 1008Q432 1016 422 1018Q402 1022 379 1022Q367 1022 309 1014Q258 1006 203
993L188 1075Q208 1079 254 1094L340 1120Q385 1134 434 1153L526 1188L608 1219Q657 1239 670 1245L705 1202L565 172Q563 164 571 152Q581 140 604 127Q618 119 672 104Q709 94 782 84L770 0Z" />
<glyph unicode="2" glyph-name="two" horiz-adv-x="931" d="M887 1022Q887 971 877 936Q863 887 838 840Q810 788 764 723Q721 664 647 580L481 399L256 170H616Q628 170 645 180T672 203Q682 217 692 236Q696 242 700 254T709 272Q723 309 737 375L811 354L748
0H8L-8 74Q168 254 295 395Q424 540 498 643Q576 754 610 834Q645 916 645 977Q645 1049 615 1083T520 1118Q481 1118 457 1102Q430 1084 414 1055T389 991Q383 966 383 920Q360 906 340 899Q303 887 283 881Q242 869 223 864Q186 856 172 854L150 924Q156 977
195 1030Q232 1081 297 1130Q356 1173 438 1206Q512 1235 602 1235Q665 1235 709 1225Q761 1213 801 1188Q838 1165 864 1122Q887 1085 887 1022Z" />
<glyph unicode="3" glyph-name="three" horiz-adv-x="931" d="M838 1001Q838 942 821 901Q803 855 772 815Q747 782 698 748Q663 723 608 698Q657 692 698 668Q737 645 762 606Q791 563 801 524Q813 479 813 428Q813 333 776 250Q741 170 672 104Q607 43 518 6Q430
-31 330 -31Q287 -31 252 -20Q205 -6 166 12Q119 37 80 63Q33 98 2 133L57 231Q131 163 196 137T334 111Q387 111 428 131Q473 154 504 190Q537 229 555 283Q571 330 571 401Q571 454 559 491T523 553T467 590Q442 600 399 600H381H365Q363 600 358 599T348 598Q346
598 326 594L319 684Q454 719 526 791Q600 865 600 985Q600 1053 578 1083Q553 1118 500 1118Q469 1118 451 1108Q424 1094 412 1075Q396 1052 387 1024Q379 993 381 958Q369 950 334 936Q297 920 276 913Q235 901 217 897Q180 889 168 889L143 950Q147 981 164
1010Q184 1043 211 1073Q236 1100 276 1135Q307 1160 358 1186Q403 1209 453 1221Q510 1235 555 1235Q635 1235 690 1217Q739 1201 776 1163Q807 1132 823 1087Q838 1046 838 1001Z" />
<glyph unicode="4" glyph-name="four" horiz-adv-x="931" d="M231 475H512L582 981L231 475ZM872 444Q847 413 817 383Q807 373 764 336H705L678 133Q676 125 682 119T700 106Q720 96 737 90Q745 86 799 74L788 0H254L262 74Q348 90 362 94Q417 106 426 111Q451
121 457 127Q467 137 467 145L494 336H55L23 377L575 1167L627 1186L684 1206L741 1227L788 1245L823 1202L725 475H852L872 444Z" />
<glyph unicode="5" glyph-name="five" horiz-adv-x="931" d="M911 1188Q895 1165 879 1145L838 1096L795 1053Q772 1030 764 1024H367Q365 1020 361 996T352 956L332 881Q328 865 324 847T313 811L297 754Q334 772 389 784Q434 794 502 795Q586 795 645 768Q708
739 747 694T806 594T827 477Q827 428 813 356Q801 299 772 240Q739 172 707 133Q670 88 612 47Q563 12 492 -10Q429 -30 346 -31Q309 -31 258 -20Q211 -10 168 10Q119 35 84 61Q25 106 6 129L63 219Q124 174 147 162Q208 129 219 125Q252 113 285 106Q305 102
346 102Q403 102 449 129Q492 156 526 199Q557 238 577 303T598 428Q598 471 584 518Q572 557 545 588Q516 621 485 633Q450 647 406 647Q328 647 274 625Q227 605 164 559L123 594L150 678Q160 711 180 784Q188 815 195 843T211 899Q229 967 240 1016L266 1120Q270
1136 283 1204H770Q801 1204 815 1206T850 1212Q864 1214 881 1223L911 1188Z" />
<glyph unicode="6" glyph-name="six" horiz-adv-x="931" d="M492 643Q449 643 403 616Q354 587 307 537Q303 512 299 455Q297 428 297 373Q297 299 309 246Q321 195 342 162Q362 131 391 115T452 98T512 114T557 160Q573 185 590 223Q598 246 612 299Q622 336
625 375Q629 428 629 444Q629 503 616 545Q606 582 584 606Q566 628 541 637Q525 643 492 643ZM874 1159Q761 1139 670 1094Q586 1053 516 987Q450 926 408 848Q361 764 338 682Q408 739 461 760Q522 785 575 784Q645 784 694 764Q747 741 786 700Q821 661 844
606Q862 559 862 483Q862 415 850 369Q834 306 809 254Q784 201 741 145Q700 90 653 53Q606 14 541 -8Q478 -31 410 -31Q340 -31 272 -2Q209 25 160 78Q113 129 84 201Q57 269 57 360Q57 475 80 571Q105 680 150 768Q197 862 264 942T422 1087Q500 1144 623 1192Q729
1233 862 1249L874 1159Z" />
<glyph unicode="7" glyph-name="seven" horiz-adv-x="931" d="M971 1167L856 950L748 733L645 528L555 340L477 178Q463 145 422 51Q402 37 377 27Q340 11 319 4L258 -14Q252 -16 234 -22T205 -31L166 10L289 203L397 379L494 543L582 700L668 858L756 1024H336Q328
1024 307 1020Q291 1016 272 1001Q249 981 231 954Q202 907 180 862L121 889Q123 897 127 913T137 954Q141 966 149 993T164 1047Q182 1119 188 1139Q198 1178 211 1204H944L971 1167Z" />
<glyph unicode="8" glyph-name="eight" horiz-adv-x="931" d="M385 940Q385 903 399 877Q417 844 436 827Q465 802 492 786Q504 780 526 768T557 752Q606 795 635 846Q666 901 666 975Q666 1043 631 1081Q598 1118 535 1118Q502 1118 475 1104Q452 1092 428 1063Q414
1047 397 1006Q385 975 385 940ZM614 342Q614 393 600 428Q584 469 561 494Q534 523 504 543Q459 572 434 584Q395 549 371 518Q338 477 319 446Q299 413 287 367Q277 332 276 274Q276 229 289 197Q301 162 319 141Q342 114 367 104Q394 92 426 92Q469 92 504 115Q537
135 563 172Q592 211 602 252Q614 299 614 342ZM895 1053T895 1002T872 905Q850 862 817 825Q782 786 741 758Q694 725 657 700Q694 680 733 651Q770 624 797 588Q826 551 840 506Q856 457 856 397Q856 311 817 236Q776 156 713 98Q645 37 561 4Q473 -31 385 -31Q299
-31 227 -8Q164 12 119 53Q76 94 53 143Q33 190 33 250Q33 311 59 371Q84 426 127 475Q168 522 225 563Q278 602 338 633Q320 643 272 676Q237 701 219 727Q196 760 182 797T168 889Q168 961 203 1026Q236 1087 295 1135Q353 1181 430 1208Q504 1235 594 1235Q671
1235 729 1217Q790 1199 823 1170T877 1096Q895 1053 895 1002Z" />
<glyph unicode="9" glyph-name="nine" horiz-adv-x="931" d="M461 569Q516 569 565 600Q618 633 655 676Q663 750 664 852Q664 920 653 975Q643 1026 627 1054T584 1096Q559 1108 530 1108Q475 1108 436 1075Q395 1040 375 995Q350 940 342 885T334 770Q334 707
344 676Q356 639 374 615T418 580T461 569ZM907 862Q907 692 854 537Q803 387 700 262Q600 141 446 59Q294 -21 94 -43L82 45Q199 72 295 117Q383 158 453 221Q519 280 563 360Q606 436 631 535Q574 482 514 453Q451 422 379 422T254 446Q199 473 168 512Q131 561
117 608Q101 667 100 725Q100 780 117 846Q131 901 164 965Q191 1016 238 1069Q279 1116 334 1155Q387 1194 449 1214Q508 1234 575 1235Q647 1235 711 1212Q772 1190 815 1145T882 1028T907 862Z" />
<glyph unicode=":" glyph-name="colon" horiz-adv-x="477" d="M444 852Q444 818 432 784Q418 743 397 721Q370 690 340 674Q306 656 260 655Q195 655 168 686Q139 719 139 768Q139 799 152 834Q164 867 190 897Q215 924 248 942Q283 960 326 961Q385 961 416 930Q444
901 444 852ZM350 168Q350 129 340 98Q328 63 304 35T244 -12T166 -31Q101 -31 74 0Q43 35 43 84Q43 111 57 150Q69 184 94 211Q119 240 153 258T231 276Q290 276 322 246Q350 217 350 168Z" />
<glyph unicode=";" glyph-name="semicolon" horiz-adv-x="477" d="M446 852Q446 818 434 784Q420 743 399 721Q372 690 342 674Q308 656 262 655Q201 655 170 686T139 768Q139 795 154 834Q168 871 190 897Q213 922 250 942Q283 960 328 961Q387 961 418 930Q446
901 446 852ZM375 117Q375 72 360 29Q344 -22 322 -63Q295 -112 262 -158Q217 -219 193 -246Q156 -286 119 -319Q96 -339 45 -373L-12 -324Q58 -250 102 -162Q141 -84 141 -23Q141 -5 135 14Q131 26 115 47Q103 63 80 70Q55 76 29 74L25 152Q35 160 57 172Q71 180
104 197Q112 201 132 208T160 219Q178 227 215 240Q225 244 244 249T266 254Q280 258 303 258Q328 246 336 238T356 209Q368 191 371 170Q375 142 375 117Z" />
<glyph unicode="&lt;" glyph-name="less" horiz-adv-x="884" d="M852 889L803 760L299 567L758 375L774 332L723 285Q692 258 666 242L82 485L57 526Q59 534 68 555Q70 563 74 571T82 588T90 604T96 621Q100 629 103 636T109 647L825 920L852 889Z" />
<glyph unicode="=" glyph-name="equal" horiz-adv-x="884" d="M840 754Q838 750 834 741T827 727Q821 711 811 694Q803 678 795 664Q786 649 782 639H109L84 672Q86 678 94 698Q98 706 102 713T111 729Q119 745 127 760Q129 764 134 772T141 784H813L840 754ZM799
455Q797 451 793 441T786 426Q782 416 770 395L754 362Q744 344 741 340H68L43 373Q45 377 48 385T53 397Q57 407 70 428L86 461Q88 465 93 473T100 485H772L799 455Z" />
<glyph unicode="&gt;" glyph-name="greater" horiz-adv-x="884" d="M819 635Q817 631 814 621T809 604Q807 596 803 589T795 573Q793 569 789 557T782 541Q778 533 774 526T768 514L51 242L27 274Q27 276 31 285T37 301Q43 319 51 340Q63 371 65 377T72 392T76
403L580 594L119 786L104 829L154 874Q191 907 211 920L795 676L819 635Z" />
<glyph unicode="?" glyph-name="question" horiz-adv-x="876" d="M518 168Q518 135 506 98Q494 63 469 35Q442 4 412 -12Q378 -30 332 -31Q271 -31 240 0Q211 29 211 84Q211 115 223 150Q233 181 262 211Q289 242 319 258Q352 276 397 276Q456 276 487 246T518
168ZM893 1186Q893 1104 864 1036Q841 983 791 918Q744 857 697 816T598 719Q543 660 516 618Q483 567 473 500L463 412Q447 398 414 385Q406 381 388 374T358 362L336 385L340 508Q344 578 365 625Q392 684 422 729Q467 795 494 825Q510 843 565 920Q599 966 621
1018Q641 1067 641 1128Q641 1179 635 1204Q626 1241 610 1266Q596 1289 570 1305T512 1321Q479 1321 455 1303Q432 1287 416 1253Q401 1222 397 1180Q395 1139 403 1092Q368 1078 350 1071L289 1053Q269 1047 227 1038Q180 1028 174 1028L147 1067Q147 1133 180
1196Q215 1262 274 1313Q335 1364 418 1397Q502 1430 606 1430Q676 1430 729 1411Q784 1391 819 1360Q856 1327 874 1282Q893 1239 893 1186Z" />
<glyph unicode="@" glyph-name="at" horiz-adv-x="1693" d="M946 354Q958 434 961 451L977 557Q981 586 986 612T995 659Q999 690 1010 739Q981 764 956 778Q927 794 901 795Q860 795 827 774Q788 749 768 721Q737 678 723 645Q698 588 690 557Q678 511 672 465T666
379Q666 320 674 281Q684 236 694 211Q706 184 720 170T752 156Q783 156 834 207Q880 254 946 354ZM1620 549Q1608 459 1575 385T1493 242Q1450 181 1391 125Q1338 74 1278 35Q1225 -2 1169 -20Q1112 -40 1077 -41Q1067 -41 1042 -31Q1022 -23 1004 2Q981 33 967
72Q951 119 944 186Q919 143 885 102T813 31Q770 -6 739 -20Q698 -40 666 -41Q632 -41 592 -23T518 39Q479 88 461 145Q438 213 438 305Q438 381 456 459T512 604Q553 678 602 733Q653 790 727 842Q745 854 791 877Q828 895 864 907Q882 913 940 928Q973 936 1012
936Q1049 936 1090 918Q1139 895 1161 881Q1171 885 1194 895T1227 909Q1245 917 1260 924T1284 936L1317 870Q1292 850 1288 846Q1274 832 1268 821Q1258 803 1251 784Q1239 743 1237 729Q1229 692 1210 590Q1206 570 1203 548T1196 503T1190 467Q1182 414 1178
367Q1174 310 1174 301Q1174 229 1192 195Q1210 162 1232 162T1284 184Q1302 198 1333 252Q1353 289 1378 360Q1398 419 1411 510Q1436 682 1409 805Q1380 932 1313 1016Q1243 1102 1151 1143Q1061 1184 942 1184Q860 1184 784 1159Q712 1136 641 1087T518 979Q455
903 418 840Q377 768 346 680Q315 594 303 504Q287 391 299 283Q311 183 348 103T440 -39Q493 -98 563 -139Q620 -174 711 -199Q785 -219 868 -219T1028 -199Q1100 -181 1178 -145Q1244 -116 1300 -82Q1359 -47 1389 -23L1419 -115Q1384 -150 1319 -199Q1270 -236
1176 -283Q1106 -318 997 -348Q903 -375 791 -375Q674 -375 573 -348Q462 -319 383 -270Q291 -215 229 -147Q163 -75 119 20Q80 102 63 225Q47 340 66 465Q82 576 125 686Q172 803 231 891Q290 977 383 1067Q473 1155 567 1208Q668 1266 782 1300Q893 1333 1020
1333Q1157 1333 1282 1280Q1409 1227 1489 1128Q1575 1024 1610 883Q1647 733 1620 549Z" />
<glyph unicode="A" glyph-name="A" horiz-adv-x="1193" d="M371 428L244 141Q232 108 260 96T365 74L354 0H-49L-41 74Q20 86 59 98Q96 110 109 141L575 1204Q591 1218 629 1243Q635 1247 688 1274Q717 1288 748 1298Q785 1310 801 1317L1028 141Q1030 127 1036
117Q1042 105 1053 96Q1057 92 1083 84Q1106 76 1133 74L1124 0H664L674 74Q754 80 774 92Q803 108 797 141L741 428H371ZM719 551L629 1022L424 551H719Z" />
<glyph unicode="B" glyph-name="B" horiz-adv-x="1087" d="M1024 410Q1024 308 983 231Q938 147 868 92Q796 37 698 2Q602 -31 492 -31H442Q422 -31 377 -27Q354 -25 305 -20Q293 -20 269 -18T231 -16Q190 -14 51 0H-8L-2 74Q63 89 96 104Q129 118 131 133L276
1167Q264 1165 239 1162T201 1157T165 1150T133 1143V1227Q239 1256 348 1272Q467 1290 608 1290Q814 1290 915 1223Q1017 1155 1018 1040Q1018 934 954 852Q888 768 768 723Q827 713 870 688Q921 657 952 618Q987 573 1005 522T1024 410ZM549 635Q514 635 481
631Q465 629 432 621L365 133Q363 125 379 113Q414 95 451 88Q478 84 533 84T637 106Q684 129 715 168Q748 211 762 260Q778 315 778 375Q778 426 766 471Q754 520 727 555Q700 592 657 612Q612 635 549 635ZM565 1184H537H510L449 739H481Q524 739 586 754Q629
764 680 797Q721 824 748 872Q773 917 772 987Q772 1038 752 1079T702 1141Q665 1166 637 1174Q596 1184 565 1184Z" />
<glyph unicode="C" glyph-name="C" horiz-adv-x="1038" d="M1075 1190Q1077 1188 1071 1171Q1061 1144 1055 1135Q1053 1131 1045 1116T1030 1090Q1010 1057 999 1042Q985 1019 971 1001Q957 981 948 975L889 989Q869 1030 856 1051Q838 1082 809 1104Q772 1133
750 1141Q716 1153 676 1153Q629 1153 598 1143Q559 1131 520 1100Q461 1055 416 977Q373 901 348 821Q321 731 313 659Q301 553 301 516Q301 410 329 334T401 215T494 154Q549 134 588 133Q611 133 645 139Q674 145 719 162Q750 174 809 207Q877 246 922 279Q926
277 932 266L942 246Q946 234 950 223Q953 214 956 211Q895 150 823 98Q757 51 698 25Q641 -2 582 -14Q527 -26 479 -27Q391 -27 317 6Q241 39 184 100Q129 157 94 252Q61 338 61 459Q61 557 82 651Q105 755 141 840Q180 932 244 1016Q305 1100 389 1167Q430 1198
471 1219Q520 1244 563 1257Q608 1271 659 1282Q702 1290 756 1290Q811 1290 854 1282Q887 1276 944 1260Q985 1248 1020 1229Q1057 1208 1075 1190Z" />
<glyph unicode="D" glyph-name="D" horiz-adv-x="1206" d="M571 1184Q565 1184 557 1183T543 1182T527 1181T512 1180L375 162Q371 133 397 121Q430 107 500 106Q572 106 627 133Q688 162 733 205Q784 252 819 311Q856 372 881 440Q906 506 918 584Q930 658 930
727Q930 836 909 918Q886 1008 846 1063Q801 1122 735 1153Q667 1184 571 1184ZM1182 754Q1182 660 1161 575Q1138 481 1100 401Q1059 315 1001 244Q946 174 870 117Q798 64 705 31Q615 0 512 0H-8L2 74Q61 88 98 104Q133 120 135 133L276 1159L135 1139V1233Q196
1249 256 1257Q346 1269 383 1274Q393 1274 437 1279T506 1286Q588 1290 616 1290Q760 1290 868 1253Q970 1218 1044 1145Q1116 1073 1149 977T1182 754Z" />
<glyph unicode="E" glyph-name="E" horiz-adv-x="1007" d="M946 303Q942 287 937 264T926 213L903 123Q899 107 892 79T883 47Q877 29 866 0H-8L2 74Q72 90 102 104Q135 118 137 133L274 1124Q276 1134 248 1155Q223 1171 156 1188L166 1260H981L1014 1229Q1012
1221 1007 1199T999 1163Q997 1155 994 1139T988 1109T981 1083Q977 1073 970 1047T958 1006Q944 963 938 950H868Q876 1040 864 1092Q852 1141 817 1141H508L451 735H819L848 700Q844 694 836 683T825 668Q819 660 811 650T797 629Q795 627 785 614T768 594L743
569Q729 587 715 596Q697 606 678 612Q651 620 627 623Q607 625 553 625H436L377 184Q373 168 379 158T403 137Q421 128 459 125Q508 121 557 121H649Q696 121 723 131Q760 145 780 166Q803 189 829 231Q858 278 883 330L946 303Z" />
<glyph unicode="F" glyph-name="F" horiz-adv-x="952" d="M815 700Q805 684 791 664Q775 639 764 627Q760 621 750 611T735 594Q723 579 711 569Q697 587 682 596Q664 606 645 612Q616 620 598 622T532 625H436L369 133Q369 127 375 121Q385 111 397 106L444 90Q452
88 516 74L508 0H-8L2 74Q72 90 102 104Q135 118 137 133L274 1124Q276 1134 248 1155Q223 1171 156 1188L166 1260H991L1022 1229Q1022 1221 1008 1163L989 1083Q981 1050 967 1006Q965 998 961 985T953 964T948 950H877Q887 1044 874 1092Q862 1141 825 1141H508L451
735H786L815 700Z" />
<glyph unicode="G" glyph-name="G" horiz-adv-x="1118" d="M1118 547Q1065 533 1040 510Q1017 490 1014 465Q1012 455 1009 431T1004 395Q1002 381 999 353T993 310T988 269T983 228T979 194T977 170Q905 113 836 70Q773 31 715 8Q662 -12 612 -23Q571 -31 524
-31Q428 -31 350 4Q264 43 201 109Q135 179 98 272Q61 367 61 487Q61 587 82 676Q105 770 143 852Q184 936 237 1007T358 1137Q395 1168 449 1200Q494 1227 551 1249T666 1280Q734 1290 801 1290Q824 1290 881 1282Q924 1276 967 1264Q1002 1254 1051 1231Q1090
1213 1114 1188Q1120 1182 1114 1169Q1104 1142 1098 1133Q1082 1104 1071 1087Q1065 1077 1057 1065T1040 1040Q1030 1026 1010 1001Q1000 989 985 975L928 987Q910 1026 887 1057Q864 1090 836 1112Q801 1141 766 1151Q725 1163 678 1163Q629 1163 584 1141Q531
1114 483 1067Q448 1034 412 969Q377 906 352 831Q329 761 313 680Q299 606 299 530Q299 428 328 348Q355 274 399 223Q442 174 496 152Q555 127 602 127Q631 127 676 137T752 170L793 465Q793 479 791 485Q787 497 766 505T700 524Q634 538 584 547L590 621H1124L1118
547Z" />
<glyph unicode="H" glyph-name="H" horiz-adv-x="1304" d="M641 1188Q573 1172 543 1155Q508 1137 506 1124L451 721H930L985 1124Q988 1136 961 1155Q936 1171 868 1188L877 1260H1364L1354 1188Q1286 1172 1255 1155Q1220 1137 1219 1124L1081 133Q1079 123
1108 104Q1128 90 1200 74L1192 0H705L715 74Q780 89 813 104Q848 120 850 133L913 600H432L371 133Q369 123 395 104Q413 92 489 74L479 0H-8L2 74Q72 90 102 104Q135 118 137 133L274 1124Q276 1134 248 1155Q223 1171 156 1188L166 1260H651L641 1188Z" />
<glyph unicode="I" glyph-name="I" horiz-adv-x="630" d="M662 1188Q590 1172 561 1155Q526 1137 524 1124L389 133Q387 123 414 104Q432 92 508 74L498 0H12L23 74Q88 89 121 104Q156 120 158 133L293 1124Q296 1136 268 1155Q243 1171 174 1188L184 1260H672L662 1188Z" />
<glyph unicode="J" glyph-name="J" horiz-adv-x="636" d="M684 1188Q621 1174 586 1155Q551 1139 549 1124L426 205Q412 99 379 14Q350 -64 307 -121Q266 -176 223 -217Q188 -250 137 -289Q104 -314 76 -330Q43 -346 2 -365Q-23 -375 -72 -387Q-105 -395 -139
-395Q-172 -395 -213 -385Q-248 -377 -276 -360Q-301 -346 -322 -330Q-340 -316 -340 -301Q-340 -299 -328 -279Q-324 -273 -315 -263T-301 -248Q-286 -230 -264 -211Q-258 -205 -245 -194T-225 -176Q-209 -164 -190 -152Q-174 -142 -166 -141Q-157 -141 -141 -154Q-137
-156 -126 -167T-106 -184Q-73 -209 -59 -215Q-34 -227 -2 -227Q23 -227 47 -215Q74 -201 98 -166Q118 -135 143 -55Q168 27 182 133L317 1124Q317 1134 313 1138T289 1153Q279 1159 238 1169Q199 1179 152 1188L162 1260H696L684 1188Z" />
<glyph unicode="K" glyph-name="K" horiz-adv-x="1204" d="M641 1188Q573 1172 543 1155Q508 1137 506 1124L442 659L852 1098Q856 1102 887 1141Q899 1155 895 1165T870 1180Q827 1188 815 1188L825 1260H1241L1233 1188Q1221 1186 1202 1183T1180 1180Q1160
1178 1141 1169L1110 1151Q1100 1145 1079 1124L618 676L971 203Q983 185 1004 178Q1033 170 1051 170Q1067 170 1104 178Q1132 184 1159 197L1188 127Q1153 98 1112 76Q1098 68 1024 31Q987 13 940 -2Q901 -14 881 -14Q852 -14 831 -4Q815 4 795 35L436 625L371
133Q369 123 395 104Q413 92 489 74L479 0H-8L2 74Q72 90 102 104Q135 118 137 133L274 1124Q276 1134 248 1155Q223 1171 156 1188L166 1260H651L641 1188Z" />
<glyph unicode="L" glyph-name="L" horiz-adv-x="991" d="M938 303Q924 235 918 213L895 123Q891 107 884 79T874 47Q868 29 858 0H-8L2 74Q72 90 102 104Q135 118 137 133L274 1124Q276 1134 248 1155Q223 1171 156 1188L166 1260H651L641 1188Q573 1172 543
1155Q508 1137 506 1124L377 193Q373 175 381 160Q387 146 406 137Q424 127 457 125Q502 121 541 121H643Q692 121 717 131Q754 145 774 166Q797 189 823 231Q843 264 874 330L938 303Z" />
<glyph unicode="M" glyph-name="M" horiz-adv-x="1605" d="M1632 1188Q1622 1188 1577 1180Q1540 1174 1509 1159L1382 133Q1380 123 1411 104Q1431 92 1509 74L1499 0H1018L1028 74Q1087 88 1130 104Q1169 118 1171 133L1274 954L750 0H664L403 954L283 133Q281
123 309 104Q329 90 401 74L393 0H6L14 74Q84 90 115 104Q150 120 152 133L299 1153Q268 1173 238 1180Q193 1188 178 1188L188 1260H510Q520 1260 524 1257Q532 1253 539 1245Q543 1239 551 1219Q553 1213 557 1199T563 1176L793 344L1249 1176Q1269 1215 1276
1221Q1278 1225 1285 1234T1296 1247Q1302 1253 1311 1257Q1315 1259 1327 1260H1640L1632 1188Z" />
<glyph unicode="N" glyph-name="N" horiz-adv-x="1263" d="M1341 1188Q1269 1178 1239 1159Q1210 1141 1206 1124L1047 -31Q959 -21 909 6Q856 37 836 80L389 922L281 133Q281 125 285 119Q291 111 303 102Q307 100 313 97T327 91T342 86Q350 82 399 74L389 0H-2L8
74Q80 84 109 100Q140 118 141 133L276 1114Q223 1175 158 1188L168 1260H424Q442 1260 449 1257Q461 1253 467 1247Q475 1241 483 1225L506 1182L958 330L1067 1124Q1067 1134 1065 1139Q1059 1148 1047 1157Q1041 1163 1010 1174Q990 1182 950 1188L958 1260H1350L1341
1188Z" />
<glyph unicode="O" glyph-name="O" horiz-adv-x="1171" d="M918 756Q918 836 901 913Q887 985 854 1042Q825 1093 776 1126Q729 1157 670 1157T559 1128Q510 1099 469 1051Q426 998 401 940Q370 866 354 807Q334 729 326 666T317 532Q317 442 334 360Q348 284
381 227Q414 168 457 139Q503 108 561 109Q622 109 676 139Q725 168 766 219Q806 268 834 336Q865 408 881 475Q901 553 909 621Q918 686 918 756ZM1155 774Q1155 704 1143 631Q1133 568 1104 485Q1079 417 1042 348Q1009 287 961 225Q918 170 866 125Q807 74 756
43Q707 14 633 -10Q572 -30 502 -31Q402 -31 319 10Q243 49 186 121Q133 189 105 287T76 485Q76 561 88 631Q100 697 123 770Q146 842 178 901Q212 962 252 1018Q309 1092 344 1124Q401 1177 455 1210Q514 1245 586 1268Q660 1291 735 1290Q839 1290 922 1249Q998
1210 1053 1137T1130 973Q1155 876 1155 774Z" />
<glyph unicode="P" glyph-name="P" horiz-adv-x="1062" d="M1087 942Q1087 856 1051 780Q1012 698 952 645Q893 590 805 555Q719 520 629 520Q596 520 551 530Q514 538 485 555L469 657Q485 649 530 635Q561 625 592 625Q647 625 698 645Q744 663 778 700Q811
735 829 788Q845 835 846 905Q846 987 821 1042Q796 1095 756 1128Q717 1159 659 1171Q604 1183 549 1184H532H516L371 133Q369 127 375 121T397 106Q409 100 444 90Q452 88 522 74L512 0H-8L2 74Q61 88 98 104Q133 120 135 133L276 1161Q231 1153 207 1149Q158
1141 133 1135V1225Q174 1237 240 1251Q283 1261 358 1272Q442 1284 479 1286Q561 1290 598 1290Q709 1290 805 1268Q891 1248 958 1202Q1019 1161 1055 1094Q1087 1030 1087 942Z" />
<glyph unicode="Q" glyph-name="Q" horiz-adv-x="1198" d="M918 756Q918 836 901 913Q887 985 854 1042Q825 1093 776 1126Q729 1157 670 1157T559 1128Q510 1099 469 1051Q426 998 401 940Q370 866 354 807Q334 729 326 666T317 532Q317 442 334 360Q348 284
381 227Q414 168 457 139Q503 108 561 109Q622 109 676 139Q725 168 766 219Q806 268 834 336Q865 408 881 475Q901 553 909 621Q918 686 918 756ZM1253 -125Q1228 -162 1194 -205Q1174 -230 1135 -268Q1108 -295 1081 -311Q1058 -325 1044 -326Q1001 -326 961
-311Q924 -299 879 -270Q834 -243 799 -213L719 -147L641 -82Q610 -57 559 -27Q549 -29 530 -29Q524 -29 516 -30T502 -31Q402 -31 319 10Q243 49 186 121Q133 189 105 287T76 485Q76 561 88 631Q100 697 123 770Q146 842 178 901Q212 962 252 1018Q309 1092 344
1124Q401 1177 455 1210Q514 1245 586 1268Q660 1291 735 1290Q839 1290 922 1249Q998 1210 1053 1137T1130 973Q1155 877 1155 774Q1155 704 1143 631Q1133 568 1104 485Q1079 417 1042 348Q1009 287 961 225Q918 172 854 115Q797 64 727 29Q780 6 823 -20L911
-72Q940 -88 993 -113Q1028 -129 1075 -129Q1091 -129 1100 -127Q1102 -127 1126 -117Q1144 -109 1163 -96L1214 -59L1253 -125Z" />
<glyph unicode="R" glyph-name="R" horiz-adv-x="1144" d="M561 1184H539H514L449 705Q463 699 496 694Q510 692 545 692Q592 692 645 709Q688 723 731 758Q768 789 791 836Q814 885 813 942Q813 1016 788 1063Q761 1112 729 1137Q692 1164 647 1174Q600 1184
561 1184ZM1159 117Q1106 84 1075 68Q1024 41 987 25Q936 2 911 -4Q874 -14 864 -14Q852 -14 832 -10T797 8Q779 26 764 49Q744 82 731 117L553 582Q512 582 492 584T434 594L373 133Q371 123 401 104Q424 90 496 74L485 0H-8L2 74Q67 89 100 104Q133 118 135 133L274
1161L201 1149Q164 1143 133 1137V1227Q184 1241 233 1251Q274 1259 350 1272Q362 1274 477 1284Q545 1290 612 1290Q718 1290 799 1270Q883 1247 938 1208Q991 1169 1024 1108Q1053 1053 1053 971Q1053 922 1032 868Q1014 821 969 762Q932 715 869 670T729 604L950
213Q965 188 981 176Q995 164 1016 162Q1034 160 1065 166Q1100 174 1135 184L1159 117Z" />
<glyph unicode="S" glyph-name="S" horiz-adv-x="974" d="M963 1198Q965 1196 961 1180Q959 1168 948 1145Q944 1137 936 1122T924 1100Q920 1090 910 1075T897 1055Q885 1033 873 1018T854 999L795 1006Q783 1049 762 1077Q739 1108 715 1130Q690 1152 659 1161Q624
1171 600 1171Q551 1171 512 1155Q469 1137 449 1117T414 1059Q402 1028 401 995Q401 972 408 948Q414 925 436 899Q452 879 500 844Q539 815 606 780Q657 753 743 700Q796 665 838 623Q871 588 891 535Q909 488 909 432Q909 342 868 256Q827 172 756 106Q688 45
588 6Q492 -31 381 -31Q347 -31 307 -25Q280 -21 227 -8Q190 0 152 16Q109 34 86 49Q68 61 43 86Q25 104 25 123Q25 127 33 152Q35 160 53 190Q61 204 82 233Q92 247 113 272Q128 290 143 303Q155 313 170 313Q180 313 193 299Q197 293 208 281T225 262Q233 252
242 240T264 213Q282 188 315 164Q343 142 377 127Q414 111 455 111Q500 111 545 127Q584 141 618 172Q651 203 670 244Q688 287 688 338Q688 383 674 418Q656 461 627 489Q593 523 541 557Q490 590 414 627Q344 660 303 692T236 764Q213 799 203 842Q193 887 193
928Q193 996 225 1059T322 1176Q379 1225 471 1257T668 1290Q758 1290 838 1262Q916 1233 963 1198Z" />
<glyph unicode="T" glyph-name="T" horiz-adv-x="1107" d="M758 0H238L246 74Q297 84 319 92Q350 102 367 111Q379 117 391 129Q401 139 401 145L537 1141H303Q291 1141 277 1131T246 1094Q234 1076 209 1028Q201 1010 187 987T158 932L94 958Q96 966 99 985T109
1028Q113 1048 131 1112L154 1194Q158 1206 163 1228T172 1260H1163L1194 1229Q1192 1217 1180 1165Q1174 1140 1161 1087L1141 1010Q1135 990 1130 972T1120 940H1051Q1047 1001 1047 1024Q1047 1038 1040 1087Q1038 1112 1026 1126Q1016 1140 995 1141H768L633
145Q633 137 637 131Q643 121 657 113Q680 99 700 92Q728 83 768 74L758 0Z" />
<glyph unicode="U" glyph-name="U" horiz-adv-x="1267" d="M1325 1188Q1259 1172 1231 1155Q1200 1137 1198 1124L1110 512Q1092 375 1044 279Q991 170 928 109Q856 39 770 4Q686 -31 584 -31Q500 -31 426 -7T297 67T209 186Q174 260 174 348Q174 395 184 463L279
1124Q282 1136 254 1155Q229 1171 162 1188L170 1260H651L641 1188Q578 1174 545 1155Q510 1137 508 1124L420 510Q418 500 416 482T412 453Q410 435 410 397Q410 258 471 186Q532 116 657 117Q723 117 770 143Q821 172 854 217Q891 266 911 329T942 469L1034 1124Q1034
1132 1030 1139Q1026 1143 1012 1155Q1008 1159 977 1171Q952 1181 924 1188L934 1260H1335L1325 1188Z" />
<glyph unicode="V" glyph-name="V" horiz-adv-x="1245" d="M1341 1188Q1288 1178 1239 1161Q1202 1149 1190 1120L698 82Q690 62 666 43Q643 27 614 10Q587 -4 555 -14Q549 -16 531 -22T502 -31L240 1120Q234 1147 207 1163Q182 1179 125 1188L133 1260H606L598
1188Q524 1182 496 1165Q471 1151 477 1122L662 285L1053 1120Q1067 1151 1040 1163Q1007 1179 942 1188L952 1260H1352L1341 1188Z" />
<glyph unicode="W" glyph-name="W" horiz-adv-x="1593" d="M1700 1188Q1622 1170 1587 1157Q1554 1145 1548 1124L1192 59Q1182 36 1165 23Q1142 5 1124 -4Q1099 -14 1079 -20Q1046 -30 1042 -31L850 877L473 59Q465 39 444 23Q430 11 401 -2Q362 -18 356 -20Q327
-28 315 -31L231 1116Q227 1143 205 1157Q174 1177 115 1188L125 1260H575L567 1188Q536 1184 496 1174Q471 1168 457 1158T440 1139Q438 1133 438 1116L496 385L887 1260H981L1169 385L1419 1124Q1423 1136 1413 1147Q1405 1155 1386 1161Q1382 1163 1374 1166T1359
1171T1343 1176Q1327 1180 1286 1188L1294 1260H1708L1700 1188Z" />
<glyph unicode="X" glyph-name="X" horiz-adv-x="1210" d="M1118 0H625L635 74Q672 76 702 84Q729 90 741 100Q751 108 752 123Q752 133 741 158L569 504L309 158Q299 146 289 121Q283 107 293 96Q301 88 326 82Q346 78 391 74L381 0H-35L-25 74Q36 80 80 98Q121
116 154 158L506 631L270 1104Q258 1127 248 1139Q236 1153 223 1161Q209 1169 188 1176Q163 1182 137 1188L147 1260H647L639 1188Q561 1180 533 1164T526 1104L678 799L897 1104Q915 1129 918 1141Q921 1156 911 1165Q903 1173 879 1180Q861 1184 813 1188L823
1260H1243L1233 1188Q1206 1186 1171 1178Q1153 1174 1124 1161Q1099 1151 1085 1139Q1065 1123 1053 1104L739 676L999 158Q1007 140 1022 121Q1032 109 1049 98Q1069 86 1081 82T1128 74L1118 0Z" />
<glyph unicode="Y" glyph-name="Y" horiz-adv-x="1169" d="M803 0H279L289 74Q334 84 360 92Q391 102 407 110T434 129Q442 137 442 145L496 532Q463 651 446 694L385 858Q358 930 319 1006Q285 1074 258 1122Q252 1134 244 1142T219 1157Q215 1159 180 1163Q164
1165 119 1165L123 1237Q137 1239 152 1243T186 1249Q198 1251 222 1254T258 1260Q276 1262 328 1268Q369 1272 379 1272Q402 1272 426 1260T463 1225Q486 1186 520 1108Q561 1018 582 969Q615 891 637 819L682 678L961 1120Q979 1147 956 1163Q934 1178 864 1188L874
1260H1262L1251 1188Q1239 1186 1220 1180T1196 1174Q1180 1170 1155 1161Q1147 1159 1126 1143Q1118 1137 1106 1120L727 522L676 145Q676 137 680 131Q686 121 700 113Q723 99 743 92Q776 82 811 74L803 0Z" />
<glyph unicode="Z" glyph-name="Z" horiz-adv-x="1062" d="M319 129H743Q759 129 780 145T817 190Q829 208 856 268L903 377L981 356Q975 323 967 274L950 174L934 76Q926 33 922 0H43L16 53L784 1133H422Q407 1133 385 1114Q360 1094 342 1067Q313 1026 297 993Q272
946 256 897L178 915L262 1280Q268 1278 283 1274T307 1268Q311 1268 325 1265T346 1262T365 1261T387 1260H436H1059L1081 1208L319 129Z" />
<glyph unicode="[" glyph-name="bracketleft" horiz-adv-x="722" d="M823 1567Q821 1559 813 1538Q803 1511 799 1505L784 1477Q782 1473 777 1466T772 1456H512L285 -190H541L575 -227Q575 -229 573 -233T570 -243T567 -252Q561 -266 553 -282T539 -313Q535 -323
526 -336H49L322 1599H791L823 1567Z" />
<glyph unicode="\" glyph-name="backslash" horiz-adv-x="856" d="M684 -336Q674 -332 651 -324L602 -305Q569 -293 555 -287Q530 -277 524 -270L137 1571L182 1599Q188 1597 199 1593T217 1587Q254 1577 264 1573Q280 1567 309 1554Q327 1546 342 1536L727 -303L684
-336Z" />
<glyph unicode="]" glyph-name="bracketright" horiz-adv-x="675" d="M418 -336H-49L-86 -299Q-86 -297 -76 -272Q-74 -266 -69 -256T-61 -240L-47 -211L-37 -190H225L459 1456H205L168 1491Q172 1507 176 1518Q178 1524 183 1534T190 1548L203 1577Q207 1587
215 1599H688L418 -336Z" />
<glyph unicode="^" glyph-name="asciicircum" d="M854 635Q817 606 801 596Q774 580 743 565L713 592L553 1315L223 635Q221 635 212 627T197 614Q193 610 183 604T166 594Q141 580 137 578Q123 570 113 565L94 592L516 1462Q528 1474 547 1487L584 1511Q609 1527
621 1534L653 1550L854 635Z" />
<glyph unicode="_" glyph-name="underscore" horiz-adv-x="919" d="M791 -164Q791 -166 780 -190Q774 -204 766 -221T750 -252L737 -276H-6L-31 -242Q-29 -238 -26 -230T-20 -217Q-14 -203 -6 -186Q-4 -180 2 -170T10 -156L27 -131H766L791 -164Z" />
<glyph unicode="`" glyph-name="grave" horiz-adv-x="604" d="M578 1055Q549 1039 535 1032Q515 1024 494 1020L205 1382L246 1434Q250 1434 263 1436T287 1440Q316 1446 348 1452Q397 1460 410 1462Q451 1466 453 1466L578 1055Z" />
<glyph unicode="a" glyph-name="a" horiz-adv-x="985" d="M584 379Q586 393 589 417T596 469L612 563Q622 620 627 651Q633 694 639 725Q625 739 578 772Q545 795 514 795Q473 795 438 772Q393 743 375 721Q350 692 328 645T293 555Q277 492 272 465Q264 404 264
379Q264 320 272 281Q280 244 295 211Q305 186 326 170Q342 156 362 156Q395 156 453 213Q508 268 584 379ZM981 106Q934 73 897 49Q868 31 819 2Q807 -4 754 -29Q725 -41 709 -41Q689 -41 670 -31Q645 -17 629 8Q609 39 594 82Q580 123 573 199Q544 158 504 111Q467
68 428 35Q383 -2 348 -20Q307 -40 266 -41Q229 -41 190 -23Q150 -5 117 39Q82 82 61 145Q38 213 39 305Q39 393 57 459Q77 535 117 604Q154 672 209 733Q258 786 336 842Q356 856 395 877Q430 895 465 907Q490 915 543 928Q578 936 625 936Q668 936 707 918Q748
900 782 877Q794 885 821 895T852 907Q895 925 911 936L942 870Q930 860 916 846T895 821Q887 809 881 784Q875 762 868 729Q860 692 842 590Q838 570 835 548T827 503T821 467Q813 414 809 367Q805 310 805 301Q805 229 819 188Q835 143 856 143T901 150Q934 158
965 172L981 106Z" />
<glyph unicode="b" glyph-name="b" horiz-adv-x="1019" d="M623 758Q607 758 584 743Q551 723 528 700Q483 655 459 623Q412 560 381 508Q367 406 365 385Q359 332 358 301Q358 276 375 248Q390 220 412 199Q428 183 461 162Q488 146 508 145Q557 142 594 170Q629
197 657 238Q671 256 690 303Q702 330 713 379Q723 420 725 457Q729 510 729 530Q729 581 723 625Q717 662 700 696Q686 723 666 741Q646 758 623 758ZM965 610Q961 499 920 395T801 188Q778 157 723 102Q682 61 627 29Q568 -6 516 -23Q459 -41 395 -41Q358 -41
313 -18Q262 9 221 45Q172 92 145 135Q114 188 115 240Q115 267 121 319Q135 434 135 440Q139 467 158 590L182 754Q188 797 195 839T209 920L231 1073Q245 1192 248 1200Q254 1255 254 1286Q254 1311 248 1323Q238 1341 236 1343Q230 1347 217 1352Q211 1354 201
1354Q197 1354 189 1351T176 1348Q156 1344 145 1339Q139 1337 127 1332T109 1325L90 1395Q158 1426 193 1440Q230 1454 299 1479Q356 1499 393 1509T455 1520Q488 1520 500 1502T512 1438Q512 1403 502 1317Q492 1235 477 1141Q473 1118 463 1048T446 936L412
721Q461 787 508 829Q551 868 596 895Q639 920 672 928T735 936Q784 936 825 916T897 852Q930 807 946 750Q965 688 965 610Z" />
<glyph unicode="c" glyph-name="c" horiz-adv-x="872" d="M905 823L856 776Q838 758 797 725Q760 694 739 684Q712 670 696 670T664 688Q633 727 629 731Q611 756 586 774Q559 794 532 795Q479 795 436 758T365 662T322 530Q308 460 307 387Q307 328 317 272Q325
233 348 186Q364 155 393 133Q418 115 451 115Q504 115 580 154Q664 197 764 281Q766 279 769 274T774 266Q778 258 791 244Q799 234 805 223Q805 223 813 211Q739 143 670 90Q604 39 549 12Q488 -19 446 -29Q397 -41 352 -41Q305 -41 262 -25Q209 -5 170 35Q125
80 99 147T72 322Q72 396 86 459Q102 533 131 592Q160 653 213 719Q256 772 338 827Q369 847 401 864Q446 887 481 899Q538 919 567 926Q614 936 653 936Q700 936 731 922Q776 902 797 889Q813 879 827 868T852 850Q878 831 905 823Z" />
<glyph unicode="d" glyph-name="d" horiz-adv-x="1017" d="M590 381Q608 508 612 532Q624 602 641 717Q623 737 582 770Q551 795 512 795Q469 795 436 774Q395 747 373 721Q348 692 326 645Q301 596 291 557Q279 511 272 465Q264 404 264 379Q264 270 297 211Q328
156 369 156Q381 156 403 168Q428 182 453 207Q484 238 514 276Q559 334 590 381ZM987 104L905 49Q889 41 864 25T827 2Q802 -12 762 -29Q731 -41 711 -41Q697 -41 674 -29T633 12Q613 43 598 86Q588 119 580 201Q500 84 418 20Q338 -41 268 -41Q227 -41 188 -20Q147
3 115 43Q81 86 59 154Q39 217 39 315Q39 395 57 469Q73 537 115 610Q154 680 207 737Q264 796 332 842Q365 865 393 877Q450 902 465 907Q494 917 541 928Q576 936 614 936Q626 936 643 930Q663 922 674 915L690 1030Q696 1061 705 1135Q709 1168 713 1221T717
1286Q717 1306 713 1322T705 1343T688 1352Q682 1354 672 1354Q668 1354 660 1351T647 1348Q639 1346 630 1344T612 1339Q606 1337 595 1333T571 1325L555 1395Q592 1411 662 1442Q752 1479 762 1483Q803 1499 848 1509Q889 1519 903 1520Q936 1520 954 1502T973
1438Q973 1399 967 1337Q961 1278 948 1200Q928 1077 922 1038Q908 952 891 866Q881 817 874 771T862 694Q856 665 836 537Q824 461 817 406Q811 348 811 313Q811 229 825 188Q840 145 862 145Q889 145 913 152Q940 158 971 172L987 104Z" />
<glyph unicode="e" glyph-name="e" horiz-adv-x="864" d="M399 737Q346 674 317 606Q286 532 281 434Q383 479 438 514Q487 545 526 584Q555 613 565 645Q575 680 575 709Q575 756 555 778T506 801Q502 801 485 797Q471 793 457 784Q437 772 426 764Q411 751 399
737ZM825 760Q825 731 819 700Q815 677 793 637Q773 600 737 565Q698 526 639 487Q578 446 494 406Q431 373 285 322Q291 273 305 236Q317 205 340 170Q352 150 383 129Q403 115 430 115Q477 115 555 154Q647 199 756 289Q762 286 768 276Q780 258 782 254Q786
246 795 233L803 217Q723 147 653 98Q573 41 530 16Q475 -15 428 -27Q375 -41 336 -41Q293 -41 244 -23Q193 -5 150 37Q113 72 78 143Q47 208 47 303Q47 375 68 453Q88 535 121 590Q158 655 207 713Q258 774 319 823Q348 848 375 862Q430 891 446 899Q493 917 524
926Q569 936 604 936Q659 936 705 920Q744 906 772 881Q797 858 811 823Q825 787 825 760Z" />
<glyph unicode="f" glyph-name="f" horiz-adv-x="655" d="M1016 1397Q994 1382 961 1354Q949 1344 939 1335T920 1318T895 1300Q885 1292 831 1257Q800 1237 791 1237Q775 1237 758 1257Q750 1267 742 1277T725 1298Q694 1333 688 1339Q668 1357 641 1358Q598
1358 569 1317Q538 1272 522 1219Q504 1156 492 1087Q480 1016 473 952L467 905H717L743 870Q741 866 737 862T730 855T722 846T713 836Q701 822 672 797Q633 764 631 762Q623 758 613 750T600 739Q588 768 559 776Q532 784 463 784H453L385 193Q373 89 328 -20Q285
-121 223 -211Q166 -295 88 -369Q14 -440 -59 -485L-100 -399Q-47 -368 -10 -315Q33 -252 61 -184Q88 -118 113 -27Q131 43 141 139L215 784H76L53 823L184 905H229Q237 977 258 1059Q278 1143 305 1198Q340 1272 381 1323Q430 1384 489 1427Q542 1466 600 1493Q655
1520 719 1520Q774 1520 815 1503Q854 1487 901 1462Q950 1435 971 1421Q993 1407 1016 1397Z" />
<glyph unicode="g" glyph-name="g" horiz-adv-x="960" d="M944 870Q909 841 891 803Q873 762 862 688Q848 584 842 477Q834 352 831 303Q829 246 821 150Q813 52 803 0Q791 -66 760 -131Q725 -205 688 -252Q643 -311 596 -354Q553 -395 492 -432Q451 -457 379
-481Q324 -499 270 -500Q213 -500 170 -489Q109 -475 76 -461Q35 -445 6 -424Q-21 -406 -20 -387Q-20 -379 -10 -358Q0 -340 12 -324L43 -287Q63 -262 74 -252Q78 -248 102 -229Q116 -219 119 -219Q131 -219 147 -236Q163 -254 193 -274Q213 -290 262 -311Q305
-329 362 -330Q393 -330 430 -315Q461 -303 487 -270Q510 -241 532 -184Q550 -137 567 -47Q579 25 588 104Q592 145 596 240Q561 187 514 129Q469 74 430 41Q379 -4 344 -20Q303 -40 258 -41Q225 -41 186 -23Q143 -3 111 38T53 145T29 305Q29 467 104 604Q184 745
330 842Q389 881 459 907Q535 936 625 936Q664 936 705 915Q742 897 784 868Q821 893 852 907L909 936L944 870ZM360 156Q370 156 395 170Q413 180 449 215Q472 238 518 299Q558 351 604 428Q606 461 614 541Q624 635 631 672Q634 694 643 715Q620 738 575 770Q540
795 510 795Q465 795 432 774Q395 749 371 721Q342 686 322 645Q306 612 287 557Q271 506 264 465Q258 419 258 379Q258 262 287 211Q317 156 360 156Z" />
<glyph unicode="h" glyph-name="h" horiz-adv-x="1075" d="M1049 111Q986 72 952 55Q940 47 854 8Q805 -15 766 -27Q719 -41 698 -41Q667 -41 645 -10Q622 23 623 76Q623 94 629 137Q639 209 643 233Q647 264 653 294T664 350Q674 411 682 469Q686 489 696 571Q702
617 702 639Q702 678 700 692Q698 708 690 725Q684 739 676 741Q664 745 653 745Q639 745 616 737Q591 729 563 711Q534 695 500 662Q471 635 441 582T393 463Q379 408 360 301Q356 281 352 250T346 209Q344 195 342 171T340 143Q336 106 336 98Q336 92 337 80T338
63L293 41L223 10L156 -20L113 -41L72 -2L92 127Q98 166 105 207T121 295L152 485L184 686Q194 743 200 793T213 879Q215 902 220 937T229 1000T235 1052T245 1125T254 1194Q258 1235 258 1286Q258 1315 256 1323Q252 1337 246 1343Q242 1347 233 1352Q229 1354
217 1354Q213 1354 205 1351T190 1348Q180 1346 172 1344T156 1339T136 1333T111 1325L94 1395Q182 1434 190 1436Q210 1444 238 1455T295 1477Q352 1497 389 1507Q432 1519 451 1520Q480 1520 498 1502T516 1438Q516 1397 512 1362Q510 1342 504 1298T496 1243Q486
1175 475 1100Q471 1080 464 1030T453 952Q447 913 442 881T432 819Q426 786 423 762T418 723Q533 838 637 887T829 936Q860 936 884 930T926 903Q941 885 950 854Q958 827 958 774Q958 741 952 692Q944 626 938 590L918 479Q908 422 897 371Q893 355 883 274Q877
231 877 203Q877 166 885 156Q893 144 911 143Q944 143 963 152L1022 176L1049 111Z" />
<glyph unicode="i" glyph-name="i" horiz-adv-x="567" d="M539 111Q492 82 442 55Q389 24 348 6Q295 -19 262 -29Q222 -41 195 -41Q162 -41 137 -10Q114 19 115 76Q115 107 121 158Q121 164 137 268Q143 309 160 395Q168 438 182 522Q196 610 199 629Q207 690
207 700Q207 720 203 737Q199 751 195 756Q185 766 182 766Q176 768 166 768Q162 768 142 764T111 756L74 743L55 811L150 852L254 893Q299 909 344 924Q385 936 406 936Q434 936 449 918Q465 898 465 852Q465 842 457 772Q451 717 438 657Q430 612 416 528Q412
501 405 467T391 397T375 283Q367 213 367 203Q367 172 373 158T397 143Q417 143 426 145Q442 149 452 151T483 162L518 176L539 111ZM561 1262Q561 1235 549 1204Q537 1171 516 1149Q493 1122 461 1108Q424 1092 385 1092Q332 1092 308 1116T283 1176Q283 1203
295 1233Q307 1266 328 1288Q350 1313 383 1331Q414 1347 459 1348Q512 1348 536 1324T561 1262Z" />
<glyph unicode="j" glyph-name="j" horiz-adv-x="563" d="M455 870Q455 868 451 831Q447 800 444 768Q440 731 436 688L428 604Q426 577 420 530Q416 491 414 473Q406 407 395 309Q387 235 367 88Q353 -10 317 -88Q282 -168 244 -227Q201 -293 160 -332Q88 -398
74 -410Q23 -449 -49 -475Q-117 -500 -174 -500Q-223 -500 -256 -489Q-293 -477 -328 -461Q-353 -449 -377 -428Q-395 -414 -395 -401Q-395 -385 -379 -360Q-361 -332 -336 -305Q-320 -287 -289 -256Q-266 -233 -256 -233Q-248 -233 -227 -250L-184 -283Q-159 -301
-131 -315Q-98 -331 -66 -332Q-26 -332 2 -313Q31 -295 49 -254Q69 -211 84 -147Q94 -104 113 10Q131 116 135 152Q141 189 144 220T152 276Q158 331 164 377L172 451Q175 476 178 512L184 584Q187 621 190 651Q192 671 193 700Q193 720 188 737Q184 751 180 756Q172
764 168 766T152 768Q148 768 127 764T96 756L59 743L41 811Q49 815 82 829T135 852Q188 875 240 893Q275 905 332 924Q373 936 389 936Q418 936 436 924T455 870ZM535 1262Q535 1229 524 1204Q512 1175 490 1149T434 1108Q397 1092 358 1092Q305 1092 281 1116T256
1176Q256 1203 268 1233Q280 1262 303 1288Q325 1313 358 1331Q389 1347 432 1348Q485 1348 510 1324T535 1262Z" />
<glyph unicode="k" glyph-name="k" horiz-adv-x="1003" d="M514 1417Q514 1360 510 1321Q508 1303 494 1192Q492 1180 471 1038Q463 977 444 872L416 698Q410 661 402 617T387 528L557 655L668 741Q713 778 721 795Q731 818 707 823T627 827L618 897Q724 913 778
920Q866 930 922 930Q983 930 999 913Q1019 893 1020 860Q1020 846 997 819Q970 788 934 760L834 684Q791 651 700 596L575 518Q604 485 625 453Q664 392 672 373L717 289Q731 262 760 217Q783 184 801 164Q821 144 842 143Q864 143 897 150Q938 158 971 176L1001
113Q956 76 932 57Q914 45 856 10Q813 -15 786 -25Q747 -39 731 -39Q696 -39 666 -8Q633 25 604 68Q573 115 545 174L487 289Q446 373 432 397Q401 450 381 477Q377 442 371 407T360 336Q356 299 346 215Q340 160 340 123Q340 78 344 66Q340 64 326 57T299 43L227
12Q209 4 192 -5T158 -20L115 -41L72 -2Q74 8 79 39T86 88Q90 113 95 150T109 236L139 420L172 623L205 829Q211 876 231 1018Q249 1149 252 1176Q258 1244 258 1282Q258 1313 256 1323Q254 1339 248 1343Q240 1351 231 1352Q229 1352 222 1353T211 1354Q209 1354
201 1351T186 1348Q166 1344 152 1339Q142 1337 133 1333T111 1325L92 1395Q162 1424 190 1436Q213 1444 240 1455T299 1477Q346 1493 395 1507Q438 1519 457 1520Q473 1520 481 1518Q491 1516 500 1503Q510 1489 512 1473Q514 1458 514 1417Z" />
<glyph unicode="l" glyph-name="l" horiz-adv-x="546" d="M516 111Q450 70 418 51Q395 39 322 4Q287 -12 233 -29Q192 -41 162 -41T111 -10Q88 23 88 78Q88 82 96 160Q102 215 115 297L141 469L172 662Q188 760 203 856Q207 885 212 915T222 982T229 1036Q241
1116 248 1186Q254 1249 254 1286Q254 1306 250 1323Q248 1333 238 1343Q234 1347 221 1352Q215 1354 203 1354Q199 1354 191 1351T178 1348Q153 1344 145 1339Q137 1337 127 1333T106 1325L88 1395Q176 1434 184 1436Q207 1444 234 1455T293 1477Q350 1497 387
1507Q430 1519 451 1520Q479 1520 494 1501Q512 1478 512 1438Q512 1420 504 1333Q498 1263 485 1184L459 1004Q447 926 428 811L397 618L371 444Q359 366 352 299Q344 213 344 203Q344 170 354 156Q364 144 381 143Q406 143 430 152Q496 172 502 176L516 111Z"
/>
<glyph unicode="m" glyph-name="m" horiz-adv-x="1562" d="M1513 111Q1427 60 1419 55Q1396 43 1323 8Q1270 -17 1237 -27Q1190 -41 1169 -41Q1151 -41 1141 -33Q1125 -21 1116 -10Q1108 2 1100 27Q1094 49 1094 76Q1094 94 1100 135L1114 229Q1126 303 1135 344Q1141
377 1155 465Q1167 549 1171 575Q1177 626 1178 659Q1178 700 1167 725Q1159 743 1139 743Q1129 743 1111 737T1065 715Q1042 701 1012 670Q983 641 956 600Q938 571 926 543Q910 502 901 477Q889 442 881 397Q881 393 864 295Q850 191 848 147Q844 79 846 63Q840
61 826 53T799 41L731 10L662 -20L616 -41L575 -2L618 201Q624 232 629 264T641 334T651 391Q655 420 674 549Q682 608 682 655Q682 704 672 723Q660 743 639 743Q633 743 614 737Q600 733 571 715Q544 699 518 672Q483 637 461 602Q447 582 428 547Q422 535 403
479Q393 450 383 395Q373 344 365 295Q353 221 344 147Q338 96 342 63L295 41L227 10L160 -20Q148 -26 133 -32T115 -41L76 -2Q92 82 115 211Q119 234 131 304T150 412Q158 463 172 582Q180 650 180 700Q180 720 176 737T168 758Q160 766 156 768H141Q125 768 115
766Q111 766 82 756Q64 750 43 743L27 811L121 852L225 893Q260 905 317 924Q356 936 377 936Q395 936 401 932Q411 926 418 913Q422 905 426 879Q428 865 428 821Q428 794 426 776Q426 768 425 750T422 723Q490 795 530 825Q587 868 629 891Q680 918 715 926Q762
936 799 936Q838 936 860 922Q891 904 903 885Q921 858 928 831Q934 800 934 768V754Q934 752 933 745T932 733Q995 796 1038 831Q1091 874 1128 893Q1179 918 1208 926Q1249 936 1284 936Q1313 936 1339 926Q1370 914 1384 898T1413 842Q1425 807 1425 760Q1425
723 1419 674Q1411 608 1405 573Q1403 557 1396 522T1384 467Q1376 428 1366 362Q1352 284 1350 272Q1344 229 1343 203Q1343 172 1354 158Q1364 146 1380 145Q1403 145 1436 154Q1456 158 1501 176L1513 111Z" />
<glyph unicode="n" glyph-name="n" horiz-adv-x="1079" d="M1057 111L961 55Q938 43 864 8Q811 -17 778 -27Q731 -41 715 -41Q676 -41 655 -10Q632 23 633 76Q633 94 639 137Q649 209 653 233Q657 264 663 294T674 350Q678 370 694 469Q698 489 709 571Q715 617
715 639Q715 696 705 723Q697 746 662 745Q648 745 625 737T572 709T512 659Q479 626 451 580Q420 533 406 465Q383 363 371 301Q367 285 364 258T358 223Q354 205 350 162Q348 144 348 111V63L303 41L233 10L166 -20L123 -41L82 -2Q94 49 109 135L133 276Q151
378 156 414Q170 523 172 537T178 584T184 635Q188 692 188 702Q188 731 186 739Q182 753 178 758Q170 766 166 768H150Q136 768 125 766Q119 766 92 756Q74 750 51 743L33 811L129 852Q203 881 238 893Q304 916 330 924Q373 936 387 936Q397 936 410 932Q418 930
424 915Q428 907 432 881Q434 867 434 823Q434 792 432 774T426 723Q537 834 641 885T838 936Q871 936 895 930Q922 924 936 905Q951 887 961 856Q971 821 971 776Q971 760 963 695T948 592Q936 518 928 479T907 371Q893 293 891 274Q885 231 885 203Q885 170 895
156Q905 144 922 143Q949 143 967 152Q971 154 992 162T1030 176L1057 111Z" />
<glyph unicode="o" glyph-name="o" horiz-adv-x="907" d="M639 481Q639 549 625 616Q613 671 590 715Q568 755 541 776Q514 796 479 797Q422 797 381 762Q344 729 317 672Q290 613 283 551Q273 475 272 422Q272 350 287 295Q305 225 324 193Q353 142 379 121Q412
94 440 94Q479 94 506 113Q543 138 557 158Q580 191 594 227Q610 270 618 307Q630 364 633 395L639 481ZM870 559Q870 483 854 424Q836 354 805 291Q776 230 727 168Q680 107 627 63Q602 43 569 23Q549 11 504 -10Q481 -20 436 -33Q405 -41 373 -41Q289 -41 231
-12Q168 19 127 70Q82 123 61 193Q38 267 39 344Q39 430 51 483Q67 555 96 612Q127 673 172 731Q213 782 287 840Q295 848 344 877Q373 895 410 907Q455 923 479 928Q528 936 549 936Q623 936 686 907Q747 878 788 829Q827 782 850 711Q870 647 870 559Z" />
<glyph unicode="p" glyph-name="p" horiz-adv-x="1024" d="M625 760Q611 760 578 743Q551 731 514 696Q487 671 444 618T375 514Q371 496 368 468T358 410Q348 355 338 289Q356 264 381 240Q397 224 434 199Q452 187 494 170Q521 160 549 160Q590 160 624 184T678
250Q701 299 713 377Q725 451 725 524Q725 573 715 621Q703 674 692 696Q676 729 662 743Q645 760 625 760ZM424 870Q424 837 408 729Q461 790 510 834Q563 879 596 897Q637 920 672 928Q705 936 741 936Q786 936 825 915Q866 892 895 856T942 760T961 627Q961
574 950 506Q942 451 922 383Q904 322 879 266Q859 221 825 166Q805 131 774 90Q747 55 711 25Q676 -4 639 -22T559 -41Q541 -41 504 -27Q469 -13 440 10Q420 26 377 70Q344 103 313 145L291 6Q268 -123 262 -170Q248 -279 248 -291Q246 -324 246 -369Q246 -394
252 -410Q244 -412 203 -426L133 -453Q96 -467 63 -481Q32 -491 18 -500L-20 -465Q-20 -457 -17 -444T-11 -411T-6 -377Q-2 -352 3 -319T16 -242L47 -74Q53 -37 63 12T82 113Q90 158 97 204T113 297L141 469Q153 553 160 608Q168 690 168 700Q168 720 164 737Q162
747 154 756Q148 762 137 766Q131 768 121 768Q117 768 97 764T66 756L29 743L10 811Q53 833 109 854Q203 891 215 895Q242 905 309 924Q352 936 369 936Q392 936 410 922Q424 909 424 870Z" />
<glyph unicode="q" glyph-name="q" horiz-adv-x="958" d="M371 156Q402 156 457 211Q514 268 592 379L621 553L649 723Q616 754 586 772Q551 795 520 795Q477 795 442 774Q405 754 377 721T326 645Q303 600 289 557Q274 511 264 465Q256 424 256 379Q256 328 266
281Q274 246 293 211Q307 186 330 170Q351 156 371 156ZM950 870L922 846Q902 828 899 821Q889 803 883 784Q877 762 870 729L827 467Q817 406 807 343T786 217L754 -6Q736 -125 731 -193Q725 -275 725 -332Q725 -391 735 -410Q731 -410 724 -414T707 -420L666
-434Q627 -448 617 -452T567 -471Q559 -473 554 -476T546 -480T538 -484T526 -489T512 -496T502 -500L459 -465Q463 -424 471 -367L494 -223Q508 -121 522 -41L557 166Q469 55 403 8Q335 -41 268 -41Q233 -41 193 -23Q150 -3 117 39Q82 82 61 145Q38 213 39 305Q39
387 59 461Q82 541 119 606T213 735Q264 792 340 842Q358 854 403 877Q442 895 479 907Q512 917 557 928Q592 936 627 936Q670 936 711 915Q740 901 788 872Q833 897 856 907Q872 915 887 922T918 936L950 870Z" />
<glyph unicode="r" glyph-name="r" horiz-adv-x="835" d="M893 850L872 819L846 776L817 729Q813 723 803 708T788 684Q778 666 766 653Q752 639 748 639Q732 639 713 651T680 678Q670 688 649 705Q634 717 618 717Q591 717 561 692Q524 663 498 623Q457 562 436
516Q403 442 385 383Q367 317 352 225Q340 137 342 63Q334 61 322 54T293 41Q232 14 223 10L158 -20L115 -41L76 -2Q107 154 117 211L150 410Q158 461 172 580Q180 648 180 700Q180 720 176 737Q172 751 168 756Q162 762 154 766Q150 768 139 768Q133 768 113 764T82
756Q57 748 43 743L27 811Q115 850 123 852T169 869T227 893Q293 916 319 924Q362 936 381 936Q391 936 403 932Q411 930 418 915Q422 905 426 885V836V807Q426 795 422 766Q422 754 420 744T416 721L410 678Q463 766 500 807Q555 870 578 887Q619 918 649 926Q686
936 715 936Q729 936 754 926Q772 918 799 901Q811 893 823 887T846 874Q868 860 893 850Z" />
<glyph unicode="s" glyph-name="s" horiz-adv-x="784" d="M788 844Q780 832 769 820T750 795Q721 758 707 743L668 705Q648 689 639 688Q623 688 604 711L559 756Q532 783 506 801Q477 821 440 821Q383 821 355 793T326 717T367 635T489 559Q516 545 569 512Q612
485 641 457T690 383T711 289Q711 248 690 201Q672 156 639 121Q612 92 561 55Q524 28 471 4Q430 -14 375 -29Q326 -41 283 -41Q224 -41 164 -25T68 14Q23 43 4 66Q-19 95 -18 113Q-18 129 -4 158Q16 199 29 219Q39 235 68 274Q86 299 98 299Q106 299 117 283Q121
277 127 266T141 242Q147 230 172 193Q188 168 215 142T272 101T346 86Q416 86 451 121Q490 160 489 215Q489 250 471 279Q446 316 426 334Q393 363 362 381Q313 410 289 422Q223 457 201 475Q172 500 145 532Q127 557 117 590Q109 617 109 653Q109 716 145 768Q184
821 238 858Q289 891 362 915Q425 935 494 936Q549 936 588 924T664 895Q687 885 727 864Q753 850 788 844Z" />
<glyph unicode="t" glyph-name="t" horiz-adv-x="692" d="M664 156Q609 113 554 76T449 14Q394 -15 356 -27Q315 -41 287 -41Q254 -41 225 -27Q194 -12 170 16Q147 43 131 80Q117 115 117 160V199Q117 205 118 217T119 238Q119 252 123 281Q123 285 125 303T129
332L203 784H68L43 823L164 905H221L227 940Q233 977 239 1003T254 1042Q260 1052 272 1065Q276 1069 283 1072T297 1081L487 1176L514 1151L500 1118Q494 1104 483 1063Q475 1028 465 963L455 905H696L725 870Q723 866 719 862T712 855T704 846T694 836Q682 822
653 797Q647 791 634 780T614 762Q594 746 586 739Q574 766 539 776Q508 784 440 784H436L379 424Q377 412 373 383T369 342Q369 336 368 324T367 305V279Q367 216 385 191T432 166Q471 166 514 180Q571 198 637 229L664 156Z" />
<glyph unicode="u" glyph-name="u" horiz-adv-x="1099" d="M1069 106L989 53Q973 43 911 6Q872 -17 840 -29T784 -41Q759 -41 739 -27Q716 -11 698 20Q675 57 665 98T651 209Q622 164 569 109Q538 76 477 31Q430 -4 381 -22T287 -41Q260 -41 227 -25Q192 -7 170
20Q145 49 127 98Q111 139 111 205Q111 248 115 276L127 365Q131 396 143 461Q155 531 160 555Q162 565 165 594T170 637Q176 674 176 700Q176 720 172 737Q168 751 164 756Q156 764 152 766T135 768Q131 768 111 764T80 756Q55 748 41 743L25 811Q113 850 121
852Q195 881 229 893Q286 913 324 924Q367 936 385 936Q414 936 424 918Q432 902 432 852Q432 823 426 776Q416 704 412 676Q404 621 394 562T375 446Q361 356 358 346Q352 299 352 270Q352 213 368 185T405 156T449 170Q488 195 508 213Q537 240 582 291Q609 322
666 406Q668 418 673 444T680 487L692 569Q694 579 698 604T705 641Q709 686 709 700Q709 720 705 737T698 756Q690 764 686 766T672 768Q668 768 647 764Q631 760 618 756Q612 754 601 750T584 743L565 811L662 852Q715 875 766 893Q815 911 858 923T918 936Q946
936 954 918Q962 902 963 852Q963 809 958 780Q948 714 944 688Q940 663 928 584Q924 555 919 531T909 481Q905 463 901 426T897 385Q891 340 891 307Q891 215 905 180Q921 143 944 143Q971 143 993 150Q1003 152 1051 172L1069 106Z" />
<glyph unicode="v" glyph-name="v" horiz-adv-x="976" d="M973 852Q973 832 948 764Q926 706 874 610Q843 555 737 377L530 41Q521 35 500 23Q490 17 484 15T469 8T451 0L399 -25L367 -41L326 -2Q301 176 299 182L262 377Q231 533 227 553Q207 639 195 678Q183
713 178 721Q169 736 160 745T141 758Q135 760 123 760Q117 760 97 756T66 748Q54 744 25 735L0 803Q18 811 42 823T92 848L184 891Q254 920 262 924Q295 936 313 936Q342 936 360 907Q376 882 399 809Q405 793 420 735Q424 719 442 627Q448 596 453 563T465 502L487
383Q491 358 493 344T498 316T502 287L510 233Q576 337 621 428Q668 522 688 573Q711 630 721 670Q727 695 727 723Q727 770 674 770Q649 770 639 768Q621 764 600 756L580 821Q592 827 619 840T655 858Q671 866 743 897Q766 907 827 926Q860 936 891 936Q924 936
948 918T973 852Z" />
<glyph unicode="w" glyph-name="w" horiz-adv-x="1386" d="M1391 860Q1391 831 1384 801Q1380 785 1360 725Q1345 682 1317 621Q1307 598 1245 479L1147 291L1012 43Q1004 39 981 27Q971 21 959 16T932 2L881 -25L848 -41L807 -2Q799 74 784 164Q782 182 774 237T762
322Q748 404 737 461Q731 492 711 569Q709 557 682 481Q668 440 635 358Q608 295 567 215L481 55Q473 51 449 37L393 6Q377 -2 363 -9T336 -23Q308 -38 299 -41L260 -2Q252 68 248 121Q242 189 234 256T219 391Q217 418 211 464T205 516Q199 571 193 614Q187 655
180 678Q174 709 166 721Q154 741 150 745Q142 753 129 758Q123 760 111 760Q107 760 86 756Q61 750 51 748Q39 744 10 735L-10 803L82 850Q131 875 174 893Q201 903 254 924Q288 936 303 936Q332 936 346 903Q361 869 377 799Q383 774 389 737Q395 690 401 643Q403
620 407 593T416 535L428 424Q436 350 438 328Q442 281 444 258Q471 309 520 416Q536 451 582 571Q609 643 625 711Q641 777 643 819Q672 844 690 858Q696 862 748 897L801 924Q826 936 842 936Q846 936 852 920L866 877Q868 871 883 813Q885 801 891 778T899 741L915
668Q921 631 928 600Q936 539 942 506L958 412Q960 396 965 366T973 324Q977 295 981 246Q1087 439 1141 555Q1194 674 1194 739Q1194 759 1180 772Q1164 784 1141 784Q1135 784 1102 780Q1098 780 1057 768L1030 836Q1071 861 1108 877Q1161 902 1186 909Q1237
925 1253 930Q1284 936 1306 936T1339 934Q1357 930 1366 924Q1378 915 1384 899Q1391 885 1391 860Z" />
<glyph unicode="x" glyph-name="x" horiz-adv-x="944" d="M930 102L846 45Q793 12 768 0Q739 -14 698 -31Q671 -41 641 -41Q613 -41 586 -16Q561 7 530 53Q507 86 477 154Q440 232 424 274Q383 221 336 154L236 4Q232 4 214 2T182 -2Q159 -6 111 -14Q97 -16 73
-21T39 -29Q2 -35 -14 -41L-43 2L53 88L162 193L270 301Q323 356 371 408Q336 500 317 543Q280 629 266 657Q246 700 215 737Q190 768 170 768Q168 768 139 764Q125 762 96 754Q57 746 41 741L20 811L109 854Q154 877 195 895Q211 903 270 924Q304 936 319 936Q344
936 373 905Q396 880 426 825Q461 764 483 711Q495 682 502 665T519 625T539 575L600 655Q610 669 628 695T647 723Q665 750 680 774Q690 792 690 801Q690 824 668 832T580 834L573 903Q581 905 606 910T645 918Q672 922 721 926Q733 928 756 931T791 934Q814 936
846 936Q901 936 928 920Q953 905 952 883Q952 844 860 740T590 451Q598 431 639 332Q662 277 688 231Q719 178 733 162Q756 135 776 135Q788 135 834 143Q863 149 905 170L930 102Z" />
<glyph unicode="y" glyph-name="y" horiz-adv-x="978" d="M961 860Q961 823 934 756Q906 685 860 584Q829 518 748 356L604 82Q551 -20 467 -154Q397 -265 330 -338Q260 -412 182 -457Q105 -500 16 -500Q-27 -500 -59 -492Q-96 -483 -127 -467Q-164 -449 -176
-438Q-196 -422 -197 -412Q-197 -398 -181 -369T-141 -307Q-123 -280 -94 -252Q-63 -221 -57 -219Q-10 -262 39 -285Q90 -308 125 -307Q178 -307 242 -248Q299 -193 369 -80Q365 -66 357 -21T342 51Q317 162 309 197Q303 226 297 250T286 293T272 346L233 485Q215
550 197 602Q172 672 166 684Q146 733 127 752Q111 768 92 768Q88 768 68 764Q43 760 35 756Q10 748 -4 743L-25 811Q0 823 23 833T68 854Q84 860 113 874T158 895Q164 897 236 924Q271 936 287 936Q314 936 336 907Q354 884 381 809Q387 793 420 694Q428 669 441
617T459 553Q459 549 500 395Q514 340 539 229L616 391Q645 450 680 539Q705 600 723 657Q739 710 739 731Q739 780 686 784Q672 786 651 780Q620 770 602 762L578 827Q627 856 653 868Q696 888 735 903Q776 919 811 928Q844 936 870 936Q893 936 903 934Q926 930
934 924Q948 912 954 899Q961 885 961 860Z" />
<glyph unicode="z" glyph-name="z" horiz-adv-x="782" d="M784 874Q741 829 686 762L604 657Q538 565 532 555L459 451Q445 431 426 400T381 336L285 211Q291 213 298 214T311 217Q327 221 337 223T367 225Q392 225 418 217Q449 209 481 199L547 180Q578 172 604
172Q610 172 627 176Q637 178 651 190Q667 204 682 223Q709 262 719 281L776 246Q739 164 725 135Q705 92 670 51Q639 14 606 -2Q569 -20 522 -20Q483 -20 436 -10Q430 -8 354 14L281 37Q244 47 219 47Q184 47 141 27L18 -31L-18 18Q70 129 82 145L178 279L272
412L358 537L434 643L500 727H268Q237 727 225 723Q207 717 193 703T166 659Q143 608 137 592L72 606Q84 667 92 700Q98 720 104 745T117 795L135 877Q143 912 147 936Q153 934 170 930T201 924Q232 916 268 915H756L784 874Z" />
<glyph unicode="{" glyph-name="braceleft" horiz-adv-x="686" d="M788 1524Q753 1504 715 1470Q674 1435 653 1409Q626 1372 610 1340T588 1268Q582 1217 582 1174Q582 1160 583 1134T584 1096T585 1057T586 1016Q586 976 580 924Q574 879 555 840Q543 813 506
764Q481 731 440 701T360 653Q452 635 485 566T504 385Q498 332 485 285L461 197L436 113Q424 74 418 29Q414 2 414 -47Q414 -80 426 -110T465 -168Q496 -199 537 -223L489 -315Q426 -288 348 -246Q287 -211 246 -168Q206 -125 190 -70T184 57Q190 108 203 152L227
236Q231 248 235 262T245 293T252 322Q262 359 272 422Q284 502 256 536T168 571H150H137Q135 571 132 570T127 569Q123 569 106 565L102 647Q211 678 266 733T334 862Q340 917 340 958Q340 1011 338 1036T336 1114Q336 1173 342 1210Q350 1276 387 1333Q422 1388
479 1440Q522 1479 606 1526Q672 1563 762 1599L788 1524Z" />
<glyph unicode="|" glyph-name="bar" horiz-adv-x="438" d="M193 -274Q187 -278 166 -291Q160 -295 148 -300T131 -307Q106 -319 94 -324Q88 -326 79 -331T66 -336L29 -303L289 1538Q291 1540 352 1573Q379 1587 416 1599L453 1571L193 -274Z" />
<glyph unicode="}" glyph-name="braceright" horiz-adv-x="686" d="M602 637Q493 606 438 551Q385 498 373 422Q365 373 365 326Q365 275 367 250Q371 201 371 172Q371 149 362 76Q352 4 317 -49Q280 -104 225 -154Q174 -199 98 -242Q27 -282 -55 -315L-82 -238Q-8
-193 51 -123Q108 -57 117 18Q123 70 123 111Q123 123 122 149T121 190T120 229T119 268Q119 293 127 362Q133 403 152 444Q172 487 199 520Q228 555 266 584Q309 617 344 631Q254 649 219 719Q184 787 201 899Q205 940 221 999L246 1087L270 1171Q278 1198 287
1255Q293 1294 293 1331Q293 1360 279 1395Q267 1426 240 1452Q209 1483 168 1507L215 1599Q307 1560 358 1530Q421 1491 459 1452Q499 1409 514 1354Q528 1299 520 1229Q506 1145 502 1133L477 1049L453 963Q441 922 434 862Q422 782 451 748Q478 715 537 715H555H567L571
716Q575 717 578 717L598 721L602 637Z" />
<glyph unicode="~" glyph-name="asciitilde" horiz-adv-x="983" d="M950 774Q930 731 887 672Q848 617 807 575Q766 532 719 506Q672 477 629 477Q589 477 549 502Q500 533 467 557T385 612Q345 637 305 637Q256 637 215 598Q168 553 121 475L76 502Q111 563 139
604Q178 659 219 700Q262 741 307 770Q354 799 397 799Q438 799 481 774Q520 751 563 719Q603 688 643 664Q684 639 719 639Q764 639 809 678Q856 719 903 799L950 774Z" />
<glyph unicode="&#xa0;" glyph-name="uni00A0" horiz-adv-x="489" />
<glyph unicode="&#xa1;" glyph-name="exclamdown" horiz-adv-x="477" d="M98 735Q98 770 110 803T150 866Q175 893 207 911Q242 929 285 930Q344 930 375 899T406 819Q406 785 393 752Q379 715 356 688Q329 657 299 641Q266 623 219 623Q160 623 127 655Q98 684
98 735ZM223 -422Q184 -445 170 -451L102 -483Q88 -489 71 -498T35 -516Q8 -530 -16 -537L-59 -506L150 487Q170 501 201 514Q209 518 227 524T254 535L279 512L223 -422Z" />
<glyph unicode="&#xa2;" glyph-name="cent" horiz-adv-x="931" d="M317 510Q317 420 346 362Q373 311 418 283L504 907Q459 884 426 844Q387 795 367 748Q342 693 330 631T317 510ZM637 1055H653H672Q715 1055 760 1038Q797 1024 838 1001Q852 993 873 980T903
961Q934 943 954 936Q946 930 926 909Q918 901 908 891T889 870L850 831L811 793Q786 773 776 766Q760 756 752 756Q740 756 727 774Q725 778 719 786T708 802T698 817Q678 848 662 868Q637 897 616 909L526 266Q554 272 582 285Q609 297 641 319Q709 366 711 369Q748
398 793 436Q797 430 805 420Q809 414 812 410T819 399Q825 391 833 379T844 365Q756 287 739 272Q693 232 653 205Q594 164 578 156Q553 144 508 127L492 4Q482 -6 444 -27Q440 -29 393 -49L375 -27L393 111Q377 111 332 119Q298 125 264 143Q219 168 199 186Q168
214 143 254Q123 289 104 348Q88 403 88 471T106 606Q122 669 164 739Q203 809 256 864Q313 925 385 973Q414 991 449 1008Q480 1022 520 1034L539 1163L586 1196Q602 1206 635 1217L655 1194L637 1055Z" />
<glyph unicode="&#xa3;" glyph-name="sterling" horiz-adv-x="931" d="M627 520H383Q371 397 332 309Q289 213 231 139Q288 143 305 143Q315 143 332 144T358 145T381 144T401 143T421 142T442 141Q448 141 463 140T487 139H547Q586 139 621 150Q662 162 680 178Q707
201 729 236Q756 275 782 332L846 307Q844 293 823 215Q815 182 799 125Q793 100 786 81T774 49Q770 39 760 0Q713 -27 651 -29Q596 -31 518 -25Q447 -19 371 -6Q320 2 221 10Q158 16 82 8Q21 2 -33 -31L-57 43Q-8 82 -2 88Q23 108 43 137Q59 160 76 195Q86 215
100 272Q110 311 121 379Q129 430 135 520H29L6 555Q6 557 9 563T14 573T21 586T29 598L41 623Q45 629 47 633T51 641H145Q159 772 204 882T315 1069Q389 1153 471 1192Q561 1235 664 1235Q697 1235 717 1233Q733 1231 780 1223Q803 1219 852 1202Q891 1190 930
1165Q928 1159 925 1145T920 1122Q914 1095 907 1065Q899 1024 893 999Q885 966 877 938Q875 926 870 908T862 885Q856 860 850 848H778Q782 971 741 1042T618 1114Q606 1114 578 1110Q562 1108 532 1090Q507 1076 487 1044Q458 1003 444 963Q428 916 412 831Q398
759 391 641H651L678 612L627 520Z" />
<glyph unicode="&#xa5;" glyph-name="yen" horiz-adv-x="931" d="M1073 1137Q1005 1123 979 1110Q948 1094 932 1069L594 512L592 504H829L848 481L803 385H575L545 143Q545 135 549 129Q555 119 569 111T610 92Q633 84 676 74L668 0H158L168 74Q209 82 238 92Q263
100 283 110T309 129Q317 141 317 143L348 385H90L76 410Q76 412 79 418T84 428L96 457Q104 477 108 485T116 498T119 504H365L367 518L322 672Q316 695 266 823Q256 850 209 961Q181 1026 154 1071Q150 1079 137 1092Q129 1100 115 1106Q111 1108 78 1112Q64 1114
18 1114L23 1188Q66 1192 86 1196L158 1208Q183 1212 227 1216T276 1221Q303 1221 324 1208Q347 1196 358 1174Q389 1119 414 1067Q437 1020 465 944Q471 930 481 904T500 856T514 815Q539 741 555 684L791 1069Q809 1094 786 1110Q761 1128 698 1137L709 1208H1083L1073
1137Z" />
<glyph unicode="&#xa7;" glyph-name="section" horiz-adv-x="921" d="M639 512Q657 537 664 555Q680 596 680 604Q686 651 676 692Q668 729 641 764Q618 795 573 827Q514 870 469 899Q449 911 416 936Q400 920 379 883Q361 850 358 827Q352 788 362 752Q370 725
399 688Q426 653 465 627Q488 611 513 595T563 559L639 512ZM881 670Q869 582 831 518Q792 450 745 410Q763 381 770 350Q776 311 772 279Q764 216 735 158Q708 103 674 72T596 18Q561 2 514 -12Q475 -22 436 -27Q387 -31 373 -31Q345 -31 311 -25Q266 -17 244
-10Q205 0 178 12Q145 26 119 45Q113 51 113 63Q113 88 115 104Q119 137 121 158Q121 162 133 221Q141 262 147 283Q149 287 154 307T164 338L236 328Q240 269 252 231Q270 182 291 156Q314 127 348 109T422 90Q487 90 520 114T563 201Q569 242 551 272Q531 305
504 330Q481 350 434 379L356 426Q327 442 279 485Q234 522 211 559Q178 610 166 655Q152 706 162 778Q170 827 180 848Q200 893 215 913Q233 940 264 970T322 1020Q297 1051 281 1092Q267 1131 272 1178Q281 1239 315 1288Q352 1341 397 1372Q444 1405 508 1423Q563
1439 629 1440Q668 1440 707 1434Q756 1426 780 1419Q807 1411 842 1393Q879 1373 889 1362Q891 1360 885 1327Q883 1321 864 1264Q856 1239 836 1194Q820 1159 807 1143L745 1151Q731 1249 700 1288Q663 1335 604 1335Q553 1335 518 1311T477 1239Q471 1208 485
1182Q499 1153 526 1133Q557 1108 592 1085L676 1032Q713 1009 758 975Q797 944 829 899Q858 858 874 801Q889 746 881 670Z" />
<glyph unicode="&#xa8;" glyph-name="dieresis" horiz-adv-x="1040" d="M539 1270Q539 1241 526 1206Q512 1169 496 1147Q476 1120 445 1102T379 1083Q328 1083 307 1114Q284 1147 285 1184Q285 1212 297 1245Q311 1286 328 1307Q348 1332 377 1352Q406 1370 442
1370Q469 1370 485 1362Q503 1354 514 1339Q526 1323 532 1307Q539 1288 539 1270ZM926 1270Q926 1241 913 1206Q899 1169 883 1147Q863 1120 832 1102T766 1083Q717 1083 694 1114Q671 1147 672 1184Q672 1217 682 1245Q694 1282 714 1306T764 1352Q791 1370 829
1370Q856 1370 872 1362Q890 1354 901 1339Q913 1323 920 1307Q926 1288 926 1270Z" />
<glyph unicode="&#xa9;" glyph-name="copyright" horiz-adv-x="1359" d="M1044 942L1004 911Q963 880 956 877Q940 865 911 848Q888 836 879 836Q865 836 850 852Q836 870 817 891Q805 905 776 930Q753 948 725 948Q688 948 657 930Q622 910 602 883Q573 848 557
811Q532 758 524 729Q512 688 506 641Q500 598 500 559Q500 502 514 465Q528 426 555 399Q575 379 616 365Q651 353 686 352Q731 352 793 383Q856 416 940 489Q942 487 945 482T950 475Q952 471 957 467T965 459Q973 447 977 442Q979 440 981 435L983 430Q944 391
864 332Q807 289 766 266Q723 243 678 233Q631 223 596 223Q549 223 504 238Q455 253 412 287Q371 320 342 379Q313 440 313 526Q313 567 324 629Q332 680 358 739Q383 796 424 847T530 950Q536 956 586 985Q619 1005 651 1016Q680 1026 727 1036Q762 1044 809
1044T891 1030Q934 1012 956 997Q995 970 1006 963Q1026 946 1044 942ZM1186 719Q1186 819 1155 905Q1124 989 1069 1055Q1018 1114 938 1153Q860 1190 768 1190Q690 1190 610 1163Q540 1140 471 1094Q410 1053 354 987Q301 924 264 854Q229 786 207 705Q187 629
186 545Q186 443 217 356Q248 272 303 207Q356 146 436 106Q513 69 608 70Q686 70 766 96Q840 121 903 166Q971 213 1020 272Q1065 325 1108 408Q1143 474 1165 559Q1186 635 1186 719ZM1294 752Q1294 662 1272 561Q1249 459 1208 375T1104 211Q1045 135 965 76Q895
23 793 -14Q709 -45 594 -45Q469 -45 377 0Q279 47 215 123Q154 197 115 305Q80 403 80 526Q80 624 102 713Q127 805 170 893Q215 983 274 1055Q335 1129 416 1186Q498 1245 586 1274Q678 1305 780 1305Q900 1305 995 1262Q1089 1219 1157 1145Q1220 1075 1260
969Q1294 873 1294 752Z" />
<glyph unicode="&#xaa;" glyph-name="ordfeminine" horiz-adv-x="614" d="M594 643Q586 623 580 614Q570 600 563 586H70L43 614Q47 624 59 645Q73 670 76 674H567L594 643ZM393 952L401 1012Q403 1022 406 1041T410 1069Q412 1079 416 1095T420 1118Q422 1130
424 1138T426 1151Q422 1155 393 1171Q379 1179 360 1180Q321 1180 297 1157Q277 1139 254 1098Q242 1073 229 1024Q221 989 221 952Q221 889 236 860Q250 829 270 829T322 860Q346 884 393 952ZM608 799Q536 756 520 748Q479 728 457 727Q449 727 436 733Q426
737 414 754Q404 766 393 791Q389 799 385 844Q356 803 309 760Q274 727 236 727Q216 727 188 737Q168 745 143 770Q120 793 109 827Q95 866 94 911Q94 1001 139 1073Q186 1149 262 1200Q287 1218 330 1237Q365 1251 416 1251Q445 1251 463 1241L506 1217L575 1251L594
1217Q590 1213 585 1211T575 1204Q573 1202 569 1197T563 1190Q559 1186 555 1171Q555 1169 552 1160T547 1143Q535 1086 530 1065Q526 1038 522 993Q520 962 516 936Q514 920 514 897Q514 863 520 842Q526 819 539 819Q555 819 561 821Q579 827 594 834L608 799Z"
/>
<glyph unicode="&#xab;" glyph-name="guillemotleft" horiz-adv-x="968" d="M426 426Q426 432 427 443T430 461Q430 465 431 473T434 485Q436 493 436 500L860 922L905 877L897 858Q893 850 885 838T868 811L829 745Q817 725 806 706T786 670Q776 654 764 634T741
594L702 526Q694 512 687 501T676 481L668 463L795 43L733 0L426 426ZM51 426Q51 432 52 443T55 461Q57 475 59 485Q59 495 63 500L485 922L532 877L520 858L494 811Q488 799 478 783T455 745L412 670L367 594Q363 586 328 526Q320 512 313 501T301 481L291 463L420
43L358 0L51 426Z" />
<glyph unicode="&#xac;" glyph-name="logicalnot" horiz-adv-x="931" d="M807 324Q795 312 786 299L760 260Q756 252 746 240T733 223Q721 205 713 203Q709 199 702 203L690 209Q688 209 683 211T676 215H668L692 438L207 492L45 516Q45 518 48 525T53 537Q61
553 66 563Q68 567 71 576T78 592Q80 596 84 602T88 610Q127 610 205 611T315 614Q438 618 471 618Q520 618 569 623Q577 623 597 624T625 627Q637 629 649 629Q655 629 655 633Q712 633 762 629Q801 625 815 621Q837 615 840 608L807 324Z" />
<glyph unicode="&#xae;" glyph-name="registered" horiz-adv-x="702" d="M756 1083Q744 1003 713 940T633 827Q582 776 523 750T389 723Q317 723 264 750Q209 779 174 828T125 940T123 1083Q133 1167 164 1227Q201 1297 246 1341Q295 1390 354 1417Q417 1446 487
1446Q555 1446 612 1417Q665 1390 702 1341Q735 1298 752 1227Q766 1167 756 1083ZM682 1083Q692 1142 682 1196Q674 1241 645 1288Q622 1325 575 1352Q536 1375 473 1374Q412 1374 367 1352Q320 1327 283 1288Q248 1249 225 1196Q205 1145 195 1083Q187 1022 195
971Q204 919 231 879Q262 834 299 815Q344 792 401 793Q456 793 508 815Q553 835 594 879Q629 918 651 971T682 1083ZM268 883L270 909Q305 917 309 928L352 1245Q340 1241 336 1241T328 1240T319 1239L322 1278Q359 1286 381 1290T451 1294Q492 1294 516 1286Q545
1278 561 1260Q577 1244 584 1225Q590 1209 586 1186Q580 1141 551 1112Q524 1085 479 1073L555 942Q561 930 571 930Q585 930 600 936L604 918L600 915L580 905L555 893Q549 891 544 887T532 881Q520 877 516 877Q506 877 500 883Q496 887 492 895L422 1067H408H397L379
928Q377 924 386 919T414 909L412 883H268ZM424 1251L403 1112Q405 1112 409 1111L412 1110H420Q455 1110 483 1124Q506 1134 512 1178Q516 1211 500 1229Q482 1252 436 1251H424Z" />
<glyph unicode="&#xaf;" glyph-name="overscore" horiz-adv-x="903" d="M963 1280Q963 1276 950 1253Q942 1235 932 1217T911 1182Q909 1178 904 1170T897 1157H190L168 1190Q174 1208 178 1217Q180 1223 186 1234T197 1251Q207 1269 215 1286Q219 1294 231 1313H936L963
1280Z" />
<glyph unicode="&#xb0;" glyph-name="degree" horiz-adv-x="667" d="M408 874Q435 874 455 886T492 922Q506 942 516 969Q524 992 524 1022Q524 1038 518 1057Q512 1077 504 1090Q496 1104 482 1112T447 1120T406 1108Q388 1098 367 1077Q351 1061 341 1030T330
975Q330 930 352 901Q373 874 408 874ZM668 1073Q668 999 637 938Q608 881 559 831Q514 786 459 762T354 737Q309 737 276 754Q249 768 225 795Q202 820 195 852Q187 883 186 918Q186 992 215 1049Q248 1115 291 1157Q338 1204 391 1230T498 1257Q541 1257 569
1243Q600 1227 623 1202Q641 1179 655 1143Q668 1110 668 1073Z" />
<glyph unicode="&#xb1;" glyph-name="plusminus" horiz-adv-x="817" d="M709 225Q709 223 698 199Q692 183 682 166L666 133Q658 119 653 111H29L4 143Q4 145 9 153T16 168L33 201Q37 205 41 215T49 231T56 246T61 256H684L709 225ZM778 733Q778 731 768 707Q762
691 752 674Q744 658 736 644T723 621H485L449 354Q445 352 426 344L395 332Q375 324 365 322Q350 319 340 315L315 346L352 621H98L74 651Q74 655 79 663T86 678Q90 686 94 693T102 709Q110 725 119 739Q123 745 126 754T131 766H373L410 1032Q414 1032 419 1035T432
1040Q446 1044 463 1051Q483 1059 494 1061Q502 1063 509 1066T520 1069L545 1038L506 766H756L778 733Z" />
<glyph unicode="&#xb4;" glyph-name="acute" horiz-adv-x="604" d="M606 1366L229 1020Q213 1024 195 1038Q172 1058 162 1069L395 1466L434 1460Q444 1458 463 1455T492 1450Q502 1448 521 1443T549 1436Q580 1430 584 1427L606 1366Z" />
<glyph unicode="&#xb5;" glyph-name="uni00B5" horiz-adv-x="1110" d="M1098 215Q1051 137 1010 90Q959 31 928 10Q891 -15 854 -29Q819 -41 791 -41Q766 -41 741 -20Q718 -2 705 31Q687 72 678 109Q670 150 666 205Q598 88 526 23Q456 -40 381 -41Q330 -41 283
-6Q242 25 205 90Q193 -19 203 -92Q215 -174 233 -236Q251 -299 270 -338L295 -389Q291 -391 284 -395T264 -403L217 -422Q190 -432 162 -444Q146 -450 132 -456T106 -467Q94 -471 83 -477T61 -487Q55 -489 49 -492T39 -498T33 -500L-8 -465Q-2 -402 10 -336Q16
-305 21 -266T35 -184L63 -16Q71 29 79 72T94 154Q100 191 108 231T123 315L145 461L164 586Q174 654 174 700Q174 720 170 737Q166 751 162 756Q154 764 150 766T135 768Q129 768 109 764T78 756L41 743L27 811Q33 813 90 838Q108 846 126 852T162 864L236 893L303
915Q315 919 333 923T356 930Q376 936 385 936Q414 936 424 918Q432 902 432 852Q432 840 428 782Q426 766 421 731T416 692Q412 667 409 644T401 596Q389 522 385 500Q383 492 379 461T373 414Q369 361 369 346Q369 264 393 221T453 178Q469 178 493 190T547 231Q580
264 610 309Q645 360 686 430Q688 438 702 518Q706 536 707 547T711 572T715 602Q723 657 725 676Q729 721 729 729Q729 772 727 795Q725 826 713 848L766 866L842 893L920 920L977 936Q979 932 985 924T993 911Q1003 899 1006 891L989 813L967 711Q961 680 956
649T944 592Q936 551 924 473Q910 379 907 367Q901 318 901 285Q901 222 913 197T938 172Q961 172 989 193Q1022 216 1063 274L1098 215Z" />
<glyph unicode="&#xb6;" glyph-name="paragraph" horiz-adv-x="1107" d="M1135 1188Q1067 1172 1036 1155Q1003 1137 1001 1124L829 -115Q826 -127 854 -145Q874 -159 946 -176L936 -250H324L334 -176Q408 -158 432 -145Q467 -127 469 -115L557 524Q532 520 522
520Q516 520 501 519T477 518Q387 518 301 545Q225 570 168 618Q113 667 88 737Q65 803 78 903Q90 991 131 1059Q176 1133 240 1182Q308 1235 395 1262Q487 1291 588 1290Q594 1290 611 1289T639 1288Q672 1286 711 1284Q725 1282 751 1281T793 1280Q807 1278 834
1278T877 1276L1087 1260H1145L1135 1188ZM571 633L647 1174Q635 1176 614 1176H588Q545 1176 500 1160T418 1112Q383 1083 355 1038T319 938Q311 895 319 829Q325 778 352 731Q375 692 422 662Q467 633 532 633H571ZM860 1143Q846 1147 825 1151L788 1157L614
-115Q614 -123 616 -127Q618 -133 625 -135Q627 -135 630 -137T635 -141Q643 -145 645 -145Q657 -141 670 -135Q682 -127 686 -115L860 1143Z" />
<glyph unicode="&#xb7;" glyph-name="middot" horiz-adv-x="477" d="M397 678Q397 644 385 610Q371 569 350 547Q325 518 291 500Q258 482 213 481Q150 481 119 512Q90 541 90 596Q90 627 102 659T141 723Q166 750 199 768Q234 786 276 786Q335 786 366 756T397 678Z" />
<glyph unicode="&#xb8;" glyph-name="cedilla" horiz-adv-x="323" d="M233 -221Q233 -276 201 -317Q166 -362 111 -387T-16 -412Q-90 -412 -164 -375L-166 -305Q-127 -321 -88 -326Q-53 -330 -29 -319Q-2 -309 10 -297Q24 -283 25 -260Q25 -240 4 -227Q-23 -213
-47 -215Q-27 -174 -18 -156Q-14 -146 -6 -124T2 -100Q18 -55 20 -49Q24 -33 33 4L131 2Q129 -21 121 -55Q115 -83 109 -98Q175 -102 203 -135Q233 -172 233 -221Z" />
<glyph unicode="&#xba;" glyph-name="ordmasculine" horiz-adv-x="507" d="M410 1014Q410 1090 383 1128Q354 1169 319 1169Q290 1169 268 1151Q250 1135 236 1104Q226 1079 221 1040Q221 1036 218 1010T215 971Q215 934 223 909Q233 880 246 858Q260 833 274
823Q292 811 311 811Q340 811 358 829T389 879Q403 914 406 944Q410 994 410 1014ZM510 643Q500 616 498 614Q492 606 483 586H45L23 614L35 645Q37 651 41 659T47 674H485L510 643ZM549 1049Q549 983 512 909Q475 837 418 791Q385 764 348 746T268 727Q227 727
190 743Q155 759 131 786T94 852Q82 889 82 936Q82 1012 112 1075T213 1194Q258 1227 285 1237Q322 1251 362 1251Q415 1251 446 1237Q483 1221 503 1194T536 1131T549 1049Z" />
<glyph unicode="&#xbb;" glyph-name="guillemotright" horiz-adv-x="968" d="M901 496L899 485Q899 469 897 461Q897 457 895 449T893 436L891 424L467 0L420 43L541 252L586 328Q590 336 625 395L651 442L662 461L655 477Q653 483 641 524Q629 567 621 592Q615
612 610 630T598 668L532 877L594 922L901 496ZM526 496Q522 471 520 461Q520 455 520 449T518 436L516 424L92 0L45 43L55 61Q59 69 67 81T84 109Q119 168 123 176Q135 196 146 216T166 252Q176 268 188 287T211 328L250 395Q256 407 263 420T276 442L287 461L276
489Q268 520 254 567L223 668L193 768Q179 815 168 846L160 877L217 922L526 496Z" />
<glyph unicode="&#xbf;" glyph-name="questiondown" horiz-adv-x="876" d="M342 733Q342 767 354 801Q368 838 391 864Q418 895 449 911Q483 929 528 930Q593 930 621 899Q650 866 649 815Q649 782 637 750Q625 716 600 688Q575 659 541 641Q510 625 463 625Q404
625 373 655T342 733ZM715 -168Q715 -234 682 -297Q647 -363 588 -414Q529 -463 442 -498Q358 -531 254 -530Q184 -530 131 -512T43 -461Q6 -428 -12 -383Q-30 -340 -31 -287Q-31 -205 -2 -137Q25 -74 70 -16Q113 39 166 86Q223 137 264 180Q313 231 344 281Q377
332 387 399L397 487Q415 503 449 516Q461 520 480 527T504 537L524 514L520 391Q518 330 496 274Q478 225 438 170Q393 104 367 74Q351 56 295 -20Q261 -66 240 -119Q220 -168 219 -229Q219 -274 227 -305Q237 -344 251 -366T292 -405T348 -422Q381 -422 406 -403Q429
-387 444 -354Q459 -323 463 -281Q467 -232 459 -193Q498 -177 510 -172L571 -154Q587 -150 635 -139Q643 -137 653 -135T672 -131T686 -129L715 -168Z" />
<glyph unicode="&#xc0;" glyph-name="Agrave" horiz-adv-x="1193" d="M879 1409L848 1368Q836 1352 815 1339L391 1575L408 1636Q414 1640 430 1649T451 1663L504 1690L557 1714L596 1731L879 1409ZM371 428L244 141Q232 108 260 96T365 74L354 0H-49L-41 74Q20
86 59 98Q96 110 109 141L575 1204Q591 1218 629 1243Q635 1247 688 1274Q717 1288 748 1298Q785 1310 801 1317L1028 141Q1030 127 1036 117Q1042 105 1053 96Q1057 92 1083 84Q1106 76 1133 74L1124 0H664L674 74Q754 80 774 92Q803 108 797 141L741 428H371ZM719
551L629 1022L424 551H719Z" />
<glyph unicode="&#xc1;" glyph-name="Aacute" horiz-adv-x="1193" d="M1071 1575L600 1339Q588 1347 575 1368Q555 1403 553 1409L907 1731L950 1708L995 1683L1038 1659Q1050 1653 1071 1636V1575ZM371 428L244 141Q232 108 260 96T365 74L354 0H-49L-41 74Q20
86 59 98Q96 110 109 141L575 1204Q591 1218 629 1243Q635 1247 688 1274Q717 1288 748 1298Q785 1310 801 1317L1028 141Q1030 127 1036 117Q1042 105 1053 96Q1057 92 1083 84Q1106 76 1133 74L1124 0H664L674 74Q754 80 774 92Q803 108 797 141L741 428H371ZM719
551L629 1022L424 551H719Z" />
<glyph unicode="&#xc2;" glyph-name="Acircumflex" horiz-adv-x="1193" d="M1038 1399Q1024 1376 1010 1364Q995 1349 979 1339L743 1513L467 1339Q459 1345 444 1362Q426 1385 420 1399L709 1706H831L1038 1399ZM371 428L244 141Q232 108 260 96T365 74L354 0H-49L-41
74Q20 86 59 98Q96 110 109 141L575 1204Q591 1218 629 1243Q635 1247 688 1274Q717 1288 748 1298Q785 1310 801 1317L1028 141Q1030 127 1036 117Q1042 105 1053 96Q1057 92 1083 84Q1106 76 1133 74L1124 0H664L674 74Q754 80 774 92Q803 108 797 141L741 428H371ZM719
551L629 1022L424 551H719Z" />
<glyph unicode="&#xc3;" glyph-name="Atilde" horiz-adv-x="1193" d="M1116 1630Q1112 1624 1102 1605T1085 1573Q1073 1553 1045 1512T999 1452Q966 1415 948 1401Q915 1374 895 1366Q868 1354 838 1354Q795 1354 764 1368Q748 1376 698 1405Q667 1423 635 1439T569
1456Q549 1456 530 1450Q518 1446 496 1427Q471 1407 459 1393Q451 1385 420 1343L354 1370Q372 1405 408 1460Q445 1517 473 1552Q506 1591 551 1622Q592 1651 635 1651Q674 1651 713 1634Q744 1622 780 1599L842 1563Q871 1547 899 1546Q942 1546 977 1575Q1011
1603 1051 1661L1116 1630ZM371 428L244 141Q232 108 260 96T365 74L354 0H-49L-41 74Q20 86 59 98Q96 110 109 141L575 1204Q591 1218 629 1243Q635 1247 688 1274Q717 1288 748 1298Q785 1310 801 1317L1028 141Q1030 127 1036 117Q1042 105 1053 96Q1057 92
1083 84Q1106 76 1133 74L1124 0H664L674 74Q754 80 774 92Q803 108 797 141L741 428H371ZM719 551L629 1022L424 551H719Z" />
<glyph unicode="&#xc4;" glyph-name="Adieresis" horiz-adv-x="1193" d="M1061 1550Q1061 1517 1051 1489Q1039 1452 1018 1427Q995 1398 969 1382T901 1366Q852 1366 831 1395Q808 1428 809 1464Q809 1499 819 1528Q833 1565 850 1587Q873 1618 899 1634Q926
1652 967 1653Q1014 1653 1038 1622Q1061 1593 1061 1550ZM674 1550Q674 1517 664 1489Q652 1452 631 1427Q608 1398 582 1382T514 1366Q465 1366 444 1395Q421 1428 422 1464Q422 1499 432 1528Q446 1565 463 1587Q486 1618 512 1634Q541 1652 580 1653Q627 1653
651 1622Q674 1593 674 1550ZM371 428L244 141Q232 108 260 96T365 74L354 0H-49L-41 74Q20 86 59 98Q96 110 109 141L575 1204Q591 1218 629 1243Q635 1247 688 1274Q717 1288 748 1298Q785 1310 801 1317L1028 141Q1030 127 1036 117Q1042 105 1053 96Q1057 92
1083 84Q1106 76 1133 74L1124 0H664L674 74Q754 80 774 92Q803 108 797 141L741 428H371ZM719 551L629 1022L424 551H719Z" />
<glyph unicode="&#xc5;" glyph-name="Aring" horiz-adv-x="1193" d="M942 1622Q942 1577 924 1528Q908 1483 870 1440Q839 1403 788 1372Q743 1345 690 1346Q656 1346 629 1358T584 1391Q566 1414 557 1436Q549 1461 549 1491Q549 1538 567 1587Q587 1644 618
1679Q652 1719 698 1747Q743 1774 797 1774Q831 1774 858 1761Q885 1749 903 1729Q926 1702 934 1679Q942 1655 942 1622ZM811 1583Q811 1616 797 1632Q781 1652 760 1653Q742 1653 725 1642Q715 1636 698 1616Q686 1601 680 1579Q674 1556 674 1534Q674 1499 688
1483Q703 1465 725 1464Q743 1464 757 1472T786 1499Q794 1509 802 1538T811 1583ZM371 428L244 141Q232 108 260 96T365 74L354 0H-49L-41 74Q20 86 59 98Q96 110 109 141L575 1204Q591 1218 629 1243Q635 1247 688 1274Q717 1288 748 1298Q785 1310 801 1317L1028
141Q1030 127 1036 117Q1042 105 1053 96Q1057 92 1083 84Q1106 76 1133 74L1124 0H664L674 74Q754 80 774 92Q803 108 797 141L741 428H371ZM719 551L629 1022L424 551H719Z" />
<glyph unicode="&#xc6;" glyph-name="AE" horiz-adv-x="1533" d="M813 1116Q813 1128 809 1132T795 1137Q787 1137 772 1126Q764 1120 754 1100L565 735H762L813 1116ZM1487 303Q1483 287 1478 264T1466 213L1444 123Q1438 98 1433 80T1423 47Q1413 12 1409 0H537L547
74Q606 88 643 104Q678 120 680 133L748 625H512L264 141Q248 110 268 96Q286 84 354 74L344 0H-39L-29 74Q37 84 63 96Q98 112 115 141L604 1104Q612 1120 610 1130Q606 1144 592 1153Q584 1157 549 1169Q526 1177 475 1188L483 1260H1524L1552 1229Q1550 1221
1545 1199T1538 1163L1520 1083Q1512 1050 1497 1006Q1495 998 1491 985T1484 964T1479 950H1409Q1417 1040 1405 1092Q1393 1139 1358 1139H1049L993 735H1360L1386 700Q1382 696 1377 687T1364 668Q1356 660 1350 650T1335 629Q1333 625 1324 614T1309 596T1295
581T1284 569Q1259 600 1225 612Q1188 624 1141 625H979L918 184Q916 172 922 158Q928 148 946 137Q964 128 1001 125Q1050 121 1100 121H1186Q1237 121 1262 131Q1295 143 1319 166Q1344 186 1370 231Q1399 278 1423 330L1487 303Z" />
<glyph unicode="&#xc7;" glyph-name="Ccedilla" horiz-adv-x="1038" d="M637 -221Q637 -272 602 -317Q565 -364 514 -387Q459 -412 387 -412Q313 -412 240 -375L238 -305Q277 -321 315 -326Q350 -330 375 -319Q402 -309 414 -297T426 -260Q426 -240 406 -227Q379
-213 356 -215Q364 -199 371 -185T385 -156Q389 -146 397 -124T406 -100Q416 -71 422 -49L428 -25Q373 -19 317 4Q245 35 184 100Q129 157 94 252Q61 338 61 459Q61 557 82 651Q105 755 141 840Q180 932 244 1016Q305 1100 389 1167Q430 1198 471 1219Q520 1244
563 1257Q608 1271 659 1282Q702 1290 756 1290Q811 1290 854 1282Q887 1276 944 1260Q985 1248 1020 1229Q1057 1209 1075 1190Q1077 1188 1071 1171Q1061 1144 1055 1135Q1053 1131 1045 1116T1030 1090Q1010 1057 999 1042Q985 1019 971 1001Q957 981 948 975L889
989Q869 1030 856 1051Q838 1082 809 1104Q772 1133 750 1141Q716 1153 676 1153Q629 1153 598 1143Q559 1131 520 1100Q461 1055 416 977Q373 901 348 821Q321 731 313 659Q301 553 301 516Q301 410 329 334T401 215T494 154Q549 134 588 133Q611 133 645 139Q674
145 719 162Q750 174 809 207Q877 246 922 279Q926 277 932 266L942 246Q946 234 950 223Q953 214 956 211Q895 150 823 98Q757 51 698 25Q641 -2 582 -14Q545 -22 528 -25L522 -55Q514 -94 512 -98Q578 -102 606 -135Q637 -172 637 -221Z" />
<glyph unicode="&#xc8;" glyph-name="Egrave" horiz-adv-x="1007" d="M946 303Q942 287 937 264T926 213L903 123Q899 107 892 79T883 47Q877 29 866 0H-8L2 74Q72 90 102 104Q135 118 137 133L274 1124Q276 1134 248 1155Q223 1171 156 1188L166 1260H981L1014
1229Q1012 1221 1007 1199T999 1163Q997 1155 994 1139T988 1109T981 1083Q977 1073 970 1047T958 1006Q944 963 938 950H868Q876 1040 864 1092Q852 1141 817 1141H508L451 735H819L848 700Q844 694 836 683T825 668Q819 660 811 650T797 629Q795 627 785 614T768
594L743 569Q729 587 715 596Q697 606 678 612Q651 620 627 623Q607 625 553 625H436L377 184Q373 168 379 158T403 137Q421 128 459 125Q508 121 557 121H649Q696 121 723 131Q760 145 780 166Q803 189 829 231Q858 278 883 330L946 303ZM784 1409L756 1368Q746
1352 723 1339L299 1575L315 1636Q321 1640 336 1649T358 1663L412 1690L463 1714L502 1731L784 1409Z" />
<glyph unicode="&#xc9;" glyph-name="Eacute" horiz-adv-x="1007" d="M946 303Q942 287 937 264T926 213L903 123Q899 107 892 79T883 47Q877 29 866 0H-8L2 74Q72 90 102 104Q135 118 137 133L274 1124Q276 1134 248 1155Q223 1171 156 1188L166 1260H981L1014
1229Q1012 1221 1007 1199T999 1163Q997 1155 994 1139T988 1109T981 1083Q977 1073 970 1047T958 1006Q944 963 938 950H868Q876 1040 864 1092Q852 1141 817 1141H508L451 735H819L848 700Q844 694 836 683T825 668Q819 660 811 650T797 629Q795 627 785 614T768
594L743 569Q729 587 715 596Q697 606 678 612Q651 620 627 623Q607 625 553 625H436L377 184Q373 168 379 158T403 137Q421 128 459 125Q508 121 557 121H649Q696 121 723 131Q760 145 780 166Q803 189 829 231Q858 278 883 330L946 303ZM979 1575L508 1339Q492
1349 481 1368Q469 1388 461 1409L813 1731L856 1708L903 1683L946 1659Q958 1653 979 1636V1575Z" />
<glyph unicode="&#xca;" glyph-name="Ecircumflex" horiz-adv-x="1007" d="M946 303Q942 287 937 264T926 213L903 123Q899 107 892 79T883 47Q877 29 866 0H-8L2 74Q72 90 102 104Q135 118 137 133L274 1124Q276 1134 248 1155Q223 1171 156 1188L166 1260H981L1014
1229Q1012 1221 1007 1199T999 1163Q997 1155 994 1139T988 1109T981 1083Q977 1073 970 1047T958 1006Q944 963 938 950H868Q876 1040 864 1092Q852 1141 817 1141H508L451 735H819L848 700Q844 694 836 683T825 668Q819 660 811 650T797 629Q795 627 785 614T768
594L743 569Q729 587 715 596Q697 606 678 612Q651 620 627 623Q607 625 553 625H436L377 184Q373 168 379 158T403 137Q421 128 459 125Q508 121 557 121H649Q696 121 723 131Q760 145 780 166Q803 189 829 231Q858 278 883 330L946 303ZM944 1399Q930 1376 915
1364Q900 1349 885 1339L651 1513L375 1339Q363 1347 350 1362Q332 1385 326 1399L616 1706H737L944 1399Z" />
<glyph unicode="&#xcb;" glyph-name="Edieresis" horiz-adv-x="1007" d="M969 1550Q969 1523 956 1489Q942 1448 926 1427Q906 1400 874 1382Q847 1366 809 1366Q758 1366 737 1395Q714 1428 715 1464Q715 1499 725 1528Q737 1561 758 1587Q781 1618 807 1634Q836
1652 872 1653Q919 1653 944 1622T969 1550ZM582 1550Q582 1523 569 1489Q555 1448 539 1427Q519 1400 487 1382Q460 1366 422 1366Q371 1366 350 1395Q327 1428 328 1464Q328 1495 340 1528Q354 1565 371 1587Q394 1618 420 1634Q447 1652 485 1653Q532 1653 557
1622T582 1550ZM946 303Q942 287 937 264T926 213L903 123Q899 107 892 79T883 47Q877 29 866 0H-8L2 74Q72 90 102 104Q135 118 137 133L274 1124Q276 1134 248 1155Q223 1171 156 1188L166 1260H981L1014 1229Q1012 1221 1007 1199T999 1163Q997 1155 994 1139T988
1109T981 1083Q977 1073 970 1047T958 1006Q944 963 938 950H868Q876 1040 864 1092Q852 1141 817 1141H508L451 735H819L848 700Q844 694 836 683T825 668Q819 660 811 650T797 629Q795 627 785 614T768 594L743 569Q729 587 715 596Q697 606 678 612Q651 620
627 623Q607 625 553 625H436L377 184Q373 168 379 158T403 137Q421 128 459 125Q508 121 557 121H649Q696 121 723 131Q760 145 780 166Q803 189 829 231Q858 278 883 330L946 303Z" />
<glyph unicode="&#xcc;" glyph-name="Igrave" horiz-adv-x="630" d="M594 1409L563 1368Q551 1350 532 1339L109 1575L125 1636Q131 1640 147 1649T168 1663L221 1690L272 1714L311 1731L594 1409ZM662 1188Q590 1172 561 1155Q526 1137 524 1124L389 133Q387
123 414 104Q432 92 508 74L498 0H12L23 74Q88 89 121 104Q156 120 158 133L293 1124Q296 1136 268 1155Q243 1171 174 1188L184 1260H672L662 1188Z" />
<glyph unicode="&#xcd;" glyph-name="Iacute" horiz-adv-x="630" d="M788 1575L317 1339Q301 1349 291 1368Q271 1403 268 1409L623 1731L666 1708L713 1683L756 1659Q768 1653 788 1636V1575ZM662 1188Q590 1172 561 1155Q526 1137 524 1124L389 133Q387 123
414 104Q432 92 508 74L498 0H12L23 74Q88 89 121 104Q156 120 158 133L293 1124Q296 1136 268 1155Q243 1171 174 1188L184 1260H672L662 1188Z" />
<glyph unicode="&#xce;" glyph-name="Icircumflex" horiz-adv-x="630" d="M754 1399Q738 1376 725 1364Q710 1349 694 1339L461 1513L182 1339Q174 1345 160 1362Q142 1385 135 1399L426 1706H547L754 1399ZM662 1188Q590 1172 561 1155Q526 1137 524 1124L389
133Q387 123 414 104Q432 92 508 74L498 0H12L23 74Q88 89 121 104Q156 120 158 133L293 1124Q296 1136 268 1155Q243 1171 174 1188L184 1260H672L662 1188Z" />
<glyph unicode="&#xcf;" glyph-name="Idieresis" horiz-adv-x="630" d="M776 1550Q776 1517 766 1489Q752 1448 735 1427Q715 1400 684 1382Q657 1366 616 1366Q567 1366 547 1395Q524 1428 524 1464Q524 1499 535 1528Q547 1561 567 1587Q590 1618 616 1634Q643
1652 682 1653Q729 1653 754 1622Q776 1593 776 1550ZM389 1550Q389 1517 379 1489Q365 1448 348 1427Q328 1400 297 1382Q270 1366 229 1366Q180 1366 160 1395Q137 1428 137 1464Q137 1499 147 1528Q159 1561 180 1587Q203 1618 229 1634Q258 1652 295 1653Q342
1653 367 1622Q389 1593 389 1550ZM662 1188Q590 1172 561 1155Q526 1137 524 1124L389 133Q387 123 414 104Q432 92 508 74L498 0H12L23 74Q88 89 121 104Q156 120 158 133L293 1124Q296 1136 268 1155Q243 1171 174 1188L184 1260H672L662 1188Z" />
<glyph unicode="&#xd1;" glyph-name="Ntilde" horiz-adv-x="1263" d="M1161 1630Q1157 1624 1147 1605T1130 1573Q1118 1553 1090 1512T1044 1452Q1011 1415 993 1401Q962 1376 938 1366Q910 1354 883 1354Q840 1354 809 1368Q793 1376 743 1405Q712 1423 680
1439T614 1456Q594 1456 575 1450Q563 1446 541 1427Q516 1407 504 1393Q496 1385 465 1343L399 1370Q417 1405 453 1460Q490 1517 518 1552Q551 1591 596 1622Q637 1651 680 1651Q719 1651 758 1634Q789 1622 825 1599L887 1563Q916 1547 944 1546Q987 1546 1022
1575Q1056 1603 1096 1661L1161 1630ZM1341 1188Q1269 1178 1239 1159Q1210 1141 1206 1124L1047 -31Q959 -21 909 6Q856 37 836 80L389 922L281 133Q281 125 285 119Q291 111 303 102Q307 100 313 97T327 91T342 86Q350 82 399 74L389 0H-2L8 74Q80 84 109 100Q140
118 141 133L276 1114Q223 1175 158 1188L168 1260H424Q442 1260 449 1257Q461 1253 467 1247Q475 1241 483 1225L506 1182L958 330L1067 1124Q1067 1134 1065 1139Q1059 1148 1047 1157Q1041 1163 1010 1174Q990 1182 950 1188L958 1260H1350L1341 1188Z" />
<glyph unicode="&#xd2;" glyph-name="Ograve" horiz-adv-x="1171" d="M889 1409L858 1368Q848 1352 825 1339L401 1575L418 1636Q424 1640 439 1649T461 1663L514 1690L567 1714L604 1731L889 1409ZM918 756Q918 836 901 913Q887 985 854 1042Q825 1093 776 1126Q729
1157 670 1157T559 1128Q510 1099 469 1051Q426 998 401 940Q370 866 354 807Q334 729 326 666T317 532Q317 442 334 360Q348 284 381 227Q414 168 457 139Q503 108 561 109Q622 109 676 139Q725 168 766 219Q806 268 834 336Q865 408 881 475Q901 553 909 621Q918
686 918 756ZM1155 774Q1155 704 1143 631Q1133 568 1104 485Q1079 417 1042 348Q1009 287 961 225Q918 170 866 125Q807 74 756 43Q707 14 633 -10Q572 -30 502 -31Q402 -31 319 10Q243 49 186 121Q133 189 105 287T76 485Q76 561 88 631Q100 697 123 770Q146
842 178 901Q212 962 252 1018Q309 1092 344 1124Q401 1177 455 1210Q514 1245 586 1268Q660 1291 735 1290Q839 1290 922 1249Q998 1210 1053 1137T1130 973Q1155 876 1155 774Z" />
<glyph unicode="&#xd3;" glyph-name="Oacute" horiz-adv-x="1171" d="M1081 1575L610 1339Q594 1349 584 1368Q572 1388 563 1409L918 1731L961 1708L1006 1683L1049 1659Q1061 1653 1081 1636V1575ZM918 756Q918 836 901 913Q887 985 854 1042Q825 1093 776 1126Q729
1157 670 1157T559 1128Q510 1099 469 1051Q426 998 401 940Q370 866 354 807Q334 729 326 666T317 532Q317 442 334 360Q348 284 381 227Q414 168 457 139Q503 108 561 109Q622 109 676 139Q725 168 766 219Q806 268 834 336Q865 408 881 475Q901 553 909 621Q918
686 918 756ZM1155 774Q1155 704 1143 631Q1133 568 1104 485Q1079 417 1042 348Q1009 287 961 225Q918 170 866 125Q807 74 756 43Q707 14 633 -10Q572 -30 502 -31Q402 -31 319 10Q243 49 186 121Q133 189 105 287T76 485Q76 561 88 631Q100 697 123 770Q146
842 178 901Q212 962 252 1018Q309 1092 344 1124Q401 1177 455 1210Q514 1245 586 1268Q660 1291 735 1290Q839 1290 922 1249Q998 1210 1053 1137T1130 973Q1155 876 1155 774Z" />
<glyph unicode="&#xd4;" glyph-name="Ocircumflex" horiz-adv-x="1171" d="M1049 1399Q1033 1376 1021 1364T987 1339L754 1513L477 1339Q465 1347 453 1362Q435 1385 428 1399L719 1706H842L1049 1399ZM918 756Q918 836 901 913Q887 985 854 1042Q825 1093 776
1126Q729 1157 670 1157T559 1128Q510 1099 469 1051Q426 998 401 940Q370 866 354 807Q334 729 326 666T317 532Q317 442 334 360Q348 284 381 227Q414 168 457 139Q503 108 561 109Q622 109 676 139Q725 168 766 219Q806 268 834 336Q865 408 881 475Q901 553
909 621Q918 686 918 756ZM1155 774Q1155 704 1143 631Q1133 568 1104 485Q1079 417 1042 348Q1009 287 961 225Q918 170 866 125Q807 74 756 43Q707 14 633 -10Q572 -30 502 -31Q402 -31 319 10Q243 49 186 121Q133 189 105 287T76 485Q76 561 88 631Q100 697
123 770Q146 842 178 901Q212 962 252 1018Q309 1092 344 1124Q401 1177 455 1210Q514 1245 586 1268Q660 1291 735 1290Q839 1290 922 1249Q998 1210 1053 1137T1130 973Q1155 876 1155 774Z" />
<glyph unicode="&#xd5;" glyph-name="Otilde" horiz-adv-x="1171" d="M1126 1630L1094 1573Q1069 1532 1055 1511Q1026 1470 1010 1452Q977 1415 958 1401Q927 1376 903 1366Q875 1354 848 1354Q805 1354 774 1368Q758 1376 709 1405Q678 1423 645 1439T580 1456Q560
1456 541 1450Q529 1446 506 1427Q481 1407 469 1393Q461 1385 430 1343L365 1370Q383 1405 418 1460Q455 1517 483 1552Q516 1591 561 1622Q602 1651 645 1651Q684 1651 723 1634Q754 1622 791 1599L852 1563Q881 1547 909 1546Q952 1546 987 1575Q1021 1603 1061
1661L1126 1630ZM918 756Q918 836 901 913Q887 985 854 1042Q825 1093 776 1126Q729 1157 670 1157T559 1128Q510 1099 469 1051Q426 998 401 940Q370 866 354 807Q334 729 326 666T317 532Q317 442 334 360Q348 284 381 227Q414 168 457 139Q503 108 561 109Q622
109 676 139Q725 168 766 219Q806 268 834 336Q865 408 881 475Q901 553 909 621Q918 686 918 756ZM1155 774Q1155 704 1143 631Q1133 568 1104 485Q1079 417 1042 348Q1009 287 961 225Q918 170 866 125Q807 74 756 43Q707 14 633 -10Q572 -30 502 -31Q402 -31
319 10Q243 49 186 121Q133 189 105 287T76 485Q76 561 88 631Q100 697 123 770Q146 842 178 901Q212 962 252 1018Q309 1092 344 1124Q401 1177 455 1210Q514 1245 586 1268Q660 1291 735 1290Q839 1290 922 1249Q998 1210 1053 1137T1130 973Q1155 876 1155 774Z"
/>
<glyph unicode="&#xd6;" glyph-name="Odieresis" horiz-adv-x="1171" d="M1071 1550Q1071 1517 1061 1489Q1049 1452 1028 1427Q1005 1398 979 1382T911 1366Q862 1366 842 1395Q817 1430 817 1464Q817 1495 829 1528Q843 1565 860 1587Q883 1618 909 1634Q938
1652 977 1653Q1022 1653 1046 1622T1071 1550ZM684 1550Q684 1517 674 1489Q662 1452 641 1427Q618 1398 592 1382T524 1366Q473 1366 453 1395Q430 1428 430 1464Q430 1495 442 1528Q456 1565 473 1587Q496 1618 522 1634Q549 1652 590 1653Q637 1653 662 1622Q684
1593 684 1550ZM918 756Q918 836 901 913Q887 985 854 1042Q825 1093 776 1126Q729 1157 670 1157T559 1128Q510 1099 469 1051Q426 998 401 940Q370 866 354 807Q334 729 326 666T317 532Q317 442 334 360Q348 284 381 227Q414 168 457 139Q503 108 561 109Q622
109 676 139Q725 168 766 219Q806 268 834 336Q865 408 881 475Q901 553 909 621Q918 686 918 756ZM1155 774Q1155 704 1143 631Q1133 568 1104 485Q1079 417 1042 348Q1009 287 961 225Q918 170 866 125Q807 74 756 43Q707 14 633 -10Q572 -30 502 -31Q402 -31
319 10Q243 49 186 121Q133 189 105 287T76 485Q76 561 88 631Q100 697 123 770Q146 842 178 901Q212 962 252 1018Q309 1092 344 1124Q401 1177 455 1210Q514 1245 586 1268Q660 1291 735 1290Q839 1290 922 1249Q998 1210 1053 1137T1130 973Q1155 876 1155 774Z"
/>
<glyph unicode="&#xd8;" glyph-name="Oslash" horiz-adv-x="1169" d="M918 756Q918 813 907 874L383 223Q414 166 459 137Q502 108 561 109Q622 109 676 139Q725 168 766 219Q806 268 834 336Q865 408 881 475Q901 553 909 621Q918 686 918 756ZM317 532Q317 477
319 451T330 375L860 1028Q829 1089 782 1124Q737 1157 670 1157Q611 1157 559 1128Q510 1099 469 1051Q426 998 401 940Q370 866 354 807Q334 729 326 666T317 532ZM1155 774Q1155 704 1143 631Q1133 568 1104 485Q1079 417 1042 348Q1009 287 961 225Q918 170
866 125Q807 74 756 43Q707 14 633 -10Q572 -30 502 -31Q430 -31 362 -8Q303 12 248 57L201 -2Q197 -6 168 -18Q154 -24 121 -32T74 -45Q66 -47 54 -50T39 -53L14 -16L158 162Q117 230 96 311Q76 391 76 485Q76 561 88 631Q100 697 123 770Q146 842 178 901Q212
962 252 1018Q309 1092 344 1124Q401 1177 455 1210Q514 1245 586 1268Q660 1291 735 1290Q818 1290 883 1266Q949 1241 997 1198L1051 1264Q1059 1270 1085 1280Q1095 1284 1130 1294L1174 1307Q1188 1309 1208 1313L1233 1276L1083 1090Q1120 1027 1139 944Q1155
872 1155 774Z" />
<glyph unicode="&#xd9;" glyph-name="Ugrave" horiz-adv-x="1267" d="M936 1409L905 1368Q893 1350 874 1339L451 1575L467 1636Q473 1640 488 1649T510 1663L563 1690L614 1714L653 1731L936 1409ZM1325 1188Q1259 1172 1231 1155Q1200 1137 1198 1124L1110 512Q1092
375 1044 279Q991 170 928 109Q856 39 770 4Q686 -31 584 -31Q500 -31 426 -7T297 67T209 186Q174 260 174 348Q174 395 184 463L279 1124Q282 1136 254 1155Q229 1171 162 1188L170 1260H651L641 1188Q578 1174 545 1155Q510 1137 508 1124L420 510Q418 500 416
482T412 453Q410 435 410 397Q410 258 471 186Q532 116 657 117Q723 117 770 143Q821 172 854 217Q891 266 911 329T942 469L1034 1124Q1034 1132 1030 1139Q1026 1143 1012 1155Q1008 1159 977 1171Q952 1181 924 1188L934 1260H1335L1325 1188Z" />
<glyph unicode="&#xda;" glyph-name="Uacute" horiz-adv-x="1267" d="M1130 1575L659 1339Q643 1349 633 1368Q613 1403 610 1409L965 1731L1008 1708L1055 1683L1098 1659Q1110 1653 1130 1636V1575ZM1325 1188Q1259 1172 1231 1155Q1200 1137 1198 1124L1110
512Q1092 375 1044 279Q991 170 928 109Q856 39 770 4Q686 -31 584 -31Q500 -31 426 -7T297 67T209 186Q174 260 174 348Q174 395 184 463L279 1124Q282 1136 254 1155Q229 1171 162 1188L170 1260H651L641 1188Q578 1174 545 1155Q510 1137 508 1124L420 510Q418
500 416 482T412 453Q410 435 410 397Q410 258 471 186Q532 116 657 117Q723 117 770 143Q821 172 854 217Q891 266 911 329T942 469L1034 1124Q1034 1132 1030 1139Q1026 1143 1012 1155Q1008 1159 977 1171Q952 1181 924 1188L934 1260H1335L1325 1188Z" />
<glyph unicode="&#xdb;" glyph-name="Ucircumflex" horiz-adv-x="1267" d="M1096 1399Q1082 1376 1067 1364Q1052 1349 1036 1339L803 1513L524 1339Q516 1345 502 1362Q484 1385 477 1399L768 1706H889L1096 1399ZM1325 1188Q1259 1172 1231 1155Q1200 1137 1198
1124L1110 512Q1092 375 1044 279Q991 170 928 109Q856 39 770 4Q686 -31 584 -31Q500 -31 426 -7T297 67T209 186Q174 260 174 348Q174 395 184 463L279 1124Q282 1136 254 1155Q229 1171 162 1188L170 1260H651L641 1188Q578 1174 545 1155Q510 1137 508 1124L420
510Q418 500 416 482T412 453Q410 435 410 397Q410 258 471 186Q532 116 657 117Q723 117 770 143Q821 172 854 217Q891 266 911 329T942 469L1034 1124Q1034 1132 1030 1139Q1026 1143 1012 1155Q1008 1159 977 1171Q952 1181 924 1188L934 1260H1335L1325 1188Z"
/>
<glyph unicode="&#xdc;" glyph-name="Udieresis" horiz-adv-x="1267" d="M1118 1550Q1118 1517 1108 1489Q1094 1448 1077 1427Q1057 1400 1026 1382Q999 1366 958 1366Q909 1366 889 1395Q866 1428 866 1464Q866 1499 877 1528Q889 1561 909 1587Q932 1618 958
1634Q987 1652 1024 1653Q1071 1653 1096 1622Q1118 1593 1118 1550ZM731 1550Q731 1517 721 1489Q707 1448 690 1427Q670 1400 639 1382Q612 1366 571 1366Q522 1366 502 1395Q479 1428 479 1464Q479 1499 489 1528Q501 1561 522 1587Q545 1618 571 1634Q598 1652
637 1653Q684 1653 709 1622Q731 1593 731 1550ZM1325 1188Q1259 1172 1231 1155Q1200 1137 1198 1124L1110 512Q1092 375 1044 279Q991 170 928 109Q856 39 770 4Q686 -31 584 -31Q500 -31 426 -7T297 67T209 186Q174 260 174 348Q174 395 184 463L279 1124Q282
1136 254 1155Q229 1171 162 1188L170 1260H651L641 1188Q578 1174 545 1155Q510 1137 508 1124L420 510Q418 500 416 482T412 453Q410 435 410 397Q410 258 471 186Q532 116 657 117Q723 117 770 143Q821 172 854 217Q891 266 911 329T942 469L1034 1124Q1034
1132 1030 1139Q1026 1143 1012 1155Q1008 1159 977 1171Q952 1181 924 1188L934 1260H1335L1325 1188Z" />
<glyph unicode="&#xdf;" glyph-name="germandbls" horiz-adv-x="1120" d="M1075 1225Q1075 1141 1051 1085Q1024 1024 991 989Q946 940 913 920Q897 910 836 864Q797 835 775 807T752 731Q752 690 774 666Q799 638 836 610Q885 573 913 555Q936 541 989 492Q1024
459 1051 414Q1074 375 1073 311Q1073 241 1042 186Q1007 123 952 74Q895 23 821 -8Q743 -41 664 -41Q625 -41 575 -25Q528 -9 494 14Q455 41 434 63Q409 91 410 113Q410 119 416 135Q418 141 424 153T432 172L457 215Q473 244 481 256Q493 274 505 286T524 299T541
283Q547 273 561 244Q567 234 572 221T586 193Q602 164 618 141Q630 123 662 102Q685 86 711 86Q729 86 762 94Q787 100 805 118T836 164Q848 193 848 233Q848 292 825 330Q796 375 766 401Q731 430 688 457Q651 480 612 512Q577 541 553 578Q530 611 530 668Q530
717 543 754Q553 783 580 817Q605 850 629 868Q637 874 645 881T657 892T669 901T686 913Q737 950 745 956Q773 978 795 1006Q822 1041 831 1069Q843 1106 843 1153T829 1237Q813 1282 791 1309Q766 1340 735 1358Q708 1374 672 1374Q613 1374 566 1340T487 1247Q452
1181 436 1112T410 952L322 193Q310 89 264 -20Q221 -121 160 -210T25 -371Q-43 -437 -123 -485L-166 -399Q-109 -368 -74 -315Q-31 -252 -2 -184Q21 -131 47 -27Q69 56 78 139L166 899Q189 1067 262 1198Q338 1331 469 1425Q530 1470 598 1493Q672 1518 745 1518Q823
1518 885 1493Q942 1470 989 1423Q1032 1380 1053 1329Q1075 1274 1075 1225Z" />
<glyph unicode="&#xe0;" glyph-name="agrave" horiz-adv-x="985" d="M688 1055Q659 1039 645 1032Q625 1024 604 1020L317 1382L356 1434Q360 1434 373 1436T397 1440L461 1452Q510 1460 522 1462Q563 1466 565 1466L688 1055ZM584 379Q586 393 589 417T596 469L612
563Q622 620 627 651Q633 694 639 725Q625 739 578 772Q545 795 514 795Q473 795 438 772Q393 743 375 721Q350 692 328 645T293 555Q277 492 272 465Q264 404 264 379Q264 320 272 281Q280 244 295 211Q305 186 326 170Q342 156 362 156Q395 156 453 213Q508 268
584 379ZM981 106Q934 73 897 49Q868 31 819 2Q807 -4 754 -29Q725 -41 709 -41Q689 -41 670 -31Q645 -17 629 8Q609 39 594 82Q580 123 573 199Q544 158 504 111Q467 68 428 35Q383 -2 348 -20Q307 -40 266 -41Q229 -41 190 -23Q150 -5 117 39Q82 82 61 145Q38
213 39 305Q39 393 57 459Q77 535 117 604Q154 672 209 733Q258 786 336 842Q356 856 395 877Q430 895 465 907Q490 915 543 928Q578 936 625 936Q668 936 707 918Q748 900 782 877Q794 885 821 895T852 907Q895 925 911 936L942 870Q930 860 916 846T895 821Q887
809 881 784Q875 762 868 729Q860 692 842 590Q838 570 835 548T827 503T821 467Q813 414 809 367Q805 310 805 301Q805 229 819 188Q835 143 856 143T901 150Q934 158 965 172L981 106Z" />
<glyph unicode="&#xe1;" glyph-name="aacute" horiz-adv-x="985" d="M956 1366L580 1020Q564 1024 545 1038Q522 1058 512 1069L745 1466L784 1460L842 1450Q852 1448 871 1443T899 1436Q930 1430 934 1427L956 1366ZM584 379Q586 393 589 417T596 469L612 563Q622
620 627 651Q633 694 639 725Q625 739 578 772Q545 795 514 795Q473 795 438 772Q393 743 375 721Q350 692 328 645T293 555Q277 492 272 465Q264 404 264 379Q264 320 272 281Q280 244 295 211Q305 186 326 170Q342 156 362 156Q395 156 453 213Q508 268 584 379ZM981
106Q934 73 897 49Q868 31 819 2Q807 -4 754 -29Q725 -41 709 -41Q689 -41 670 -31Q645 -17 629 8Q609 39 594 82Q580 123 573 199Q544 158 504 111Q467 68 428 35Q383 -2 348 -20Q307 -40 266 -41Q229 -41 190 -23Q150 -5 117 39Q82 82 61 145Q38 213 39 305Q39
393 57 459Q77 535 117 604Q154 672 209 733Q258 786 336 842Q356 856 395 877Q430 895 465 907Q490 915 543 928Q578 936 625 936Q668 936 707 918Q748 900 782 877Q794 885 821 895T852 907Q895 925 911 936L942 870Q930 860 916 846T895 821Q887 809 881 784Q875
762 868 729Q860 692 842 590Q838 570 835 548T827 503T821 467Q813 414 809 367Q805 310 805 301Q805 229 819 188Q835 143 856 143T901 150Q934 158 965 172L981 106Z" />
<glyph unicode="&#xe2;" glyph-name="acircumflex" horiz-adv-x="985" d="M918 1079Q902 1054 885 1042Q879 1036 850 1020L627 1245L340 1020Q322 1032 311 1042Q293 1060 285 1079L584 1456H721L918 1079ZM584 379Q586 393 589 417T596 469L612 563Q622 620
627 651Q633 694 639 725Q625 739 578 772Q545 795 514 795Q473 795 438 772Q393 743 375 721Q350 692 328 645T293 555Q277 492 272 465Q264 404 264 379Q264 320 272 281Q280 244 295 211Q305 186 326 170Q342 156 362 156Q395 156 453 213Q508 268 584 379ZM981
106Q934 73 897 49Q868 31 819 2Q807 -4 754 -29Q725 -41 709 -41Q689 -41 670 -31Q645 -17 629 8Q609 39 594 82Q580 123 573 199Q544 158 504 111Q467 68 428 35Q383 -2 348 -20Q307 -40 266 -41Q229 -41 190 -23Q150 -5 117 39Q82 82 61 145Q38 213 39 305Q39
393 57 459Q77 535 117 604Q154 672 209 733Q258 786 336 842Q356 856 395 877Q430 895 465 907Q490 915 543 928Q578 936 625 936Q668 936 707 918Q748 900 782 877Q794 885 821 895T852 907Q895 925 911 936L942 870Q930 860 916 846T895 821Q887 809 881 784Q875
762 868 729Q860 692 842 590Q838 570 835 548T827 503T821 467Q813 414 809 367Q805 310 805 301Q805 229 819 188Q835 143 856 143T901 150Q934 158 965 172L981 106Z" />
<glyph unicode="&#xe3;" glyph-name="atilde" horiz-adv-x="985" d="M987 1341Q983 1335 973 1316T956 1284Q944 1264 916 1223T870 1163Q837 1126 819 1112Q786 1085 766 1077Q737 1065 709 1065Q666 1065 635 1079Q619 1087 569 1116Q538 1134 506 1150T440
1167Q420 1167 401 1161Q389 1157 367 1139Q342 1119 330 1104Q322 1096 291 1055L227 1081Q260 1140 279 1171Q306 1212 346 1262Q383 1305 424 1333T508 1362Q547 1362 586 1346Q606 1338 653 1309L713 1274Q742 1258 772 1257Q813 1257 848 1286Q882 1314 922
1372L987 1341ZM584 379Q586 393 589 417T596 469L612 563Q622 620 627 651Q633 694 639 725Q625 739 578 772Q545 795 514 795Q473 795 438 772Q393 743 375 721Q350 692 328 645T293 555Q277 492 272 465Q264 404 264 379Q264 320 272 281Q280 244 295 211Q305
186 326 170Q342 156 362 156Q395 156 453 213Q508 268 584 379ZM981 106Q934 73 897 49Q868 31 819 2Q807 -4 754 -29Q725 -41 709 -41Q689 -41 670 -31Q645 -17 629 8Q609 39 594 82Q580 123 573 199Q544 158 504 111Q467 68 428 35Q383 -2 348 -20Q307 -40 266
-41Q229 -41 190 -23Q150 -5 117 39Q82 82 61 145Q38 213 39 305Q39 393 57 459Q77 535 117 604Q154 672 209 733Q258 786 336 842Q356 856 395 877Q430 895 465 907Q490 915 543 928Q578 936 625 936Q668 936 707 918Q748 900 782 877Q794 885 821 895T852 907Q895
925 911 936L942 870Q930 860 916 846T895 821Q887 809 881 784Q875 762 868 729Q860 692 842 590Q838 570 835 548T827 503T821 467Q813 414 809 367Q805 310 805 301Q805 229 819 188Q835 143 856 143T901 150Q934 158 965 172L981 106Z" />
<glyph unicode="&#xe4;" glyph-name="adieresis" horiz-adv-x="985" d="M940 1270Q940 1235 930 1206Q918 1173 897 1147Q874 1118 848 1102Q817 1084 780 1083Q733 1083 711 1114Q686 1149 686 1184Q686 1212 698 1245Q712 1286 729 1307Q749 1332 778 1352Q807
1370 846 1370Q871 1370 887 1362Q907 1352 917 1340T934 1307Q940 1288 940 1270ZM553 1270Q553 1235 543 1206Q531 1173 510 1147Q487 1118 461 1102Q430 1084 393 1083Q344 1083 324 1114Q299 1149 299 1184Q299 1212 311 1245Q325 1286 342 1307Q362 1334 393
1352T459 1370Q484 1370 500 1362Q520 1352 530 1340T547 1307Q553 1288 553 1270ZM584 379Q586 393 589 417T596 469L612 563Q622 620 627 651Q633 694 639 725Q625 739 578 772Q545 795 514 795Q473 795 438 772Q393 743 375 721Q350 692 328 645T293 555Q277
492 272 465Q264 404 264 379Q264 320 272 281Q280 244 295 211Q305 186 326 170Q342 156 362 156Q395 156 453 213Q508 268 584 379ZM981 106Q934 73 897 49Q868 31 819 2Q807 -4 754 -29Q725 -41 709 -41Q689 -41 670 -31Q645 -17 629 8Q609 39 594 82Q580 123
573 199Q544 158 504 111Q467 68 428 35Q383 -2 348 -20Q307 -40 266 -41Q229 -41 190 -23Q150 -5 117 39Q82 82 61 145Q38 213 39 305Q39 393 57 459Q77 535 117 604Q154 672 209 733Q258 786 336 842Q356 856 395 877Q430 895 465 907Q490 915 543 928Q578 936
625 936Q668 936 707 918Q748 900 782 877Q794 885 821 895T852 907Q895 925 911 936L942 870Q930 860 916 846T895 821Q887 809 881 784Q875 762 868 729Q860 692 842 590Q838 570 835 548T827 503T821 467Q813 414 809 367Q805 310 805 301Q805 229 819 188Q835
143 856 143T901 150Q934 158 965 172L981 106Z" />
<glyph unicode="&#xe5;" glyph-name="aring" horiz-adv-x="985" d="M813 1300Q813 1263 793 1208Q777 1163 739 1120Q705 1080 659 1053Q612 1024 559 1024Q530 1024 498 1038Q471 1050 455 1069Q435 1094 426 1116Q418 1141 418 1169Q418 1218 436 1268Q456 1321
489 1360Q526 1403 567 1427T666 1452Q705 1452 727 1442Q758 1428 774 1409Q794 1386 803 1360Q813 1329 813 1300ZM680 1264Q680 1297 666 1313Q652 1331 631 1331T596 1323T567 1296Q555 1281 549 1260Q543 1237 543 1212Q543 1179 557 1163Q573 1145 596 1145Q614
1145 629 1153Q639 1159 655 1180Q667 1194 674 1219Q680 1241 680 1264ZM584 379Q586 393 589 417T596 469L612 563Q622 620 627 651Q633 694 639 725Q625 739 578 772Q545 795 514 795Q473 795 438 772Q393 743 375 721Q350 692 328 645T293 555Q277 492 272
465Q264 404 264 379Q264 320 272 281Q280 244 295 211Q305 186 326 170Q342 156 362 156Q395 156 453 213Q508 268 584 379ZM981 106Q934 73 897 49Q868 31 819 2Q807 -4 754 -29Q725 -41 709 -41Q689 -41 670 -31Q645 -17 629 8Q609 39 594 82Q580 123 573 199Q544
158 504 111Q467 68 428 35Q383 -2 348 -20Q307 -40 266 -41Q229 -41 190 -23Q150 -5 117 39Q82 82 61 145Q38 213 39 305Q39 393 57 459Q77 535 117 604Q154 672 209 733Q258 786 336 842Q356 856 395 877Q430 895 465 907Q490 915 543 928Q578 936 625 936Q668
936 707 918Q748 900 782 877Q794 885 821 895T852 907Q895 925 911 936L942 870Q930 860 916 846T895 821Q887 809 881 784Q875 762 868 729Q860 692 842 590Q838 570 835 548T827 503T821 467Q813 414 809 367Q805 310 805 301Q805 229 819 188Q835 143 856 143T901
150Q934 158 965 172L981 106Z" />
<glyph unicode="&#xe6;" glyph-name="ae" horiz-adv-x="1323" d="M893 737Q836 674 809 600Q778 512 772 434Q874 479 930 514Q998 557 1022 584Q1055 621 1063 647Q1073 682 1073 715Q1073 756 1051 778T999 801Q976 801 950 784Q926 770 893 737ZM559 377Q559
381 560 385T561 393Q561 403 563 410Q569 449 575 492Q577 512 581 532T590 575Q596 618 602 655Q604 661 607 685T612 719Q575 752 547 770Q508 795 481 795Q438 795 406 774Q365 747 342 721Q313 686 293 645Q270 600 256 557Q242 516 236 465Q228 404 227 379Q227
326 237 279T260 209Q274 184 294 170T330 156Q361 156 420 213Q489 279 559 377ZM870 895Q862 889 856 883T846 874L827 856Q815 844 811 836Q801 816 799 809Q803 813 805 815T809 818T814 821T821 827Q833 837 846 846Q875 869 901 881Q936 899 967 909Q1010
925 1036 930Q1069 936 1102 936Q1151 936 1194 920Q1233 906 1260 881Q1283 861 1300 823Q1314 794 1315 760Q1315 731 1309 700Q1303 667 1284 635Q1268 604 1227 563Q1190 526 1130 487Q1067 446 983 406T772 317Q778 270 794 229T831 166Q854 139 877 127Q899
115 920 115Q967 115 1044 154Q1134 199 1247 289Q1253 286 1260 276Q1264 270 1272 254L1284 233L1292 217Q1222 158 1141 98Q1061 39 1016 16Q958 -15 911 -27Q858 -41 825 -41Q790 -41 754 -27Q715 -13 676 18Q635 49 606 96Q573 149 561 213Q528 166 485 117T401
35Q358 1 315 -20Q274 -40 231 -41Q200 -41 160 -23T86 39Q51 82 31 145Q8 213 8 305Q8 381 27 459Q43 531 84 604Q121 672 176 733Q225 786 303 842Q323 856 362 877Q397 895 432 907Q457 915 510 928Q545 936 592 936Q635 936 666 922Q707 904 725 891L770 913Q778
917 787 920T808 929T827 936L870 895Z" />
<glyph unicode="&#xe7;" glyph-name="ccedilla" horiz-adv-x="872" d="M557 -221Q557 -276 524 -317Q489 -362 434 -387T308 -412T162 -375L160 -305Q201 -321 235 -325T295 -319Q322 -309 334 -297Q348 -283 348 -260Q348 -240 328 -227Q301 -213 279 -215L305
-156Q309 -146 317 -124T326 -100Q336 -71 342 -49Q342 -45 346 -41Q299 -37 260 -25Q211 -7 170 35Q125 80 99 147T72 322Q72 396 86 459Q102 533 131 592Q160 653 213 719Q256 772 338 827Q369 847 401 864Q446 887 481 899Q538 919 567 926Q614 936 653 936Q700
936 731 922Q776 902 797 889Q813 879 827 868T852 850Q879 832 905 823L856 776Q838 758 797 725Q760 694 739 684Q712 670 696 670T664 688Q633 727 629 731Q611 756 586 774Q559 794 532 795Q479 795 436 758T365 662T322 530Q308 460 307 387Q307 328 317 272Q325
233 348 186Q364 155 393 133Q418 115 451 115Q504 115 580 154Q664 197 764 281Q766 279 769 274T774 266Q778 258 791 244Q799 234 805 223Q805 223 813 211Q739 143 670 90Q604 39 549 12Q500 -13 451 -27L444 -55Q438 -83 432 -98Q498 -102 526 -135Q557 -172
557 -221Z" />
<glyph unicode="&#xe8;" glyph-name="egrave" horiz-adv-x="864" d="M647 1055Q618 1039 604 1032Q584 1024 563 1020L274 1382L315 1434Q319 1434 332 1436T356 1440L418 1452Q465 1460 481 1462Q489 1462 498 1463T513 1465T522 1466L647 1055ZM399 737Q346
674 317 606Q286 532 281 434Q383 479 438 514Q487 545 526 584Q555 613 565 645Q575 680 575 709Q575 756 555 778T506 801Q502 801 485 797Q471 793 457 784Q437 772 426 764Q411 751 399 737ZM825 760Q825 731 819 700Q815 677 793 637Q773 600 737 565Q698
526 639 487Q578 446 494 406Q431 373 285 322Q291 273 305 236Q317 205 340 170Q352 150 383 129Q403 115 430 115Q477 115 555 154Q647 199 756 289Q762 286 768 276Q780 258 782 254Q786 246 795 233L803 217Q723 147 653 98Q573 41 530 16Q475 -15 428 -27Q375
-41 336 -41Q293 -41 244 -23Q193 -5 150 37Q113 72 78 143Q47 208 47 303Q47 375 68 453Q88 535 121 590Q158 655 207 713Q258 774 319 823Q348 848 375 862Q430 891 446 899Q493 917 524 926Q569 936 604 936Q659 936 705 920Q744 906 772 881Q797 858 811 823Q825
787 825 760Z" />
<glyph unicode="&#xe9;" glyph-name="eacute" horiz-adv-x="864" d="M915 1366L537 1020Q521 1024 502 1038Q479 1058 469 1069L705 1466L743 1460L801 1450Q811 1448 829 1443T856 1436L893 1427L915 1366ZM399 737Q346 674 317 606Q286 532 281 434Q383 479
438 514Q487 545 526 584Q555 613 565 645Q575 680 575 709Q575 756 555 778T506 801Q502 801 485 797Q471 793 457 784Q437 772 426 764Q411 751 399 737ZM825 760Q825 731 819 700Q815 677 793 637Q773 600 737 565Q698 526 639 487Q578 446 494 406Q431 373
285 322Q291 273 305 236Q317 205 340 170Q352 150 383 129Q403 115 430 115Q477 115 555 154Q647 199 756 289Q762 286 768 276Q780 258 782 254Q786 246 795 233L803 217Q723 147 653 98Q573 41 530 16Q475 -15 428 -27Q375 -41 336 -41Q293 -41 244 -23Q193
-5 150 37Q113 72 78 143Q47 208 47 303Q47 375 68 453Q88 535 121 590Q158 655 207 713Q258 774 319 823Q348 848 375 862Q430 891 446 899Q493 917 524 926Q569 936 604 936Q659 936 705 920Q744 906 772 881Q797 858 811 823Q825 787 825 760Z" />
<glyph unicode="&#xea;" glyph-name="ecircumflex" horiz-adv-x="864" d="M877 1079Q861 1054 844 1042Q838 1036 809 1020L584 1245L297 1020Q285 1028 270 1042Q247 1065 242 1079L541 1456H678L877 1079ZM399 737Q346 674 317 606Q286 532 281 434Q383 479
438 514Q487 545 526 584Q555 613 565 645Q575 680 575 709Q575 756 555 778T506 801Q502 801 485 797Q471 793 457 784Q437 772 426 764Q411 751 399 737ZM825 760Q825 731 819 700Q815 677 793 637Q773 600 737 565Q698 526 639 487Q578 446 494 406Q431 373
285 322Q291 273 305 236Q317 205 340 170Q352 150 383 129Q403 115 430 115Q477 115 555 154Q647 199 756 289Q762 286 768 276Q780 258 782 254Q786 246 795 233L803 217Q723 147 653 98Q573 41 530 16Q475 -15 428 -27Q375 -41 336 -41Q293 -41 244 -23Q193
-5 150 37Q113 72 78 143Q47 208 47 303Q47 375 68 453Q88 535 121 590Q158 655 207 713Q258 774 319 823Q348 848 375 862Q430 891 446 899Q493 917 524 926Q569 936 604 936Q659 936 705 920Q744 906 772 881Q797 858 811 823Q825 787 825 760Z" />
<glyph unicode="&#xeb;" glyph-name="edieresis" horiz-adv-x="864" d="M897 1270Q897 1235 887 1206Q873 1169 856 1147Q836 1120 805 1102T737 1083Q688 1083 668 1114Q645 1147 645 1184Q645 1217 655 1245Q667 1282 688 1306T737 1352Q766 1370 803 1370Q830
1370 846 1362Q864 1354 874 1339Q886 1323 893 1307Q897 1295 897 1270ZM512 1270Q512 1241 500 1206Q486 1169 469 1147Q449 1120 418 1102T352 1083Q303 1083 281 1114Q258 1147 258 1184Q258 1217 268 1245Q280 1282 301 1307Q324 1336 350 1352Q381 1370 418
1370Q443 1370 459 1362Q477 1354 487 1339Q499 1323 506 1307Q512 1288 512 1270ZM399 737Q346 674 317 606Q286 532 281 434Q383 479 438 514Q487 545 526 584Q555 613 565 645Q575 680 575 709Q575 756 555 778T506 801Q502 801 485 797Q471 793 457 784Q437
772 426 764Q411 751 399 737ZM825 760Q825 731 819 700Q815 677 793 637Q773 600 737 565Q698 526 639 487Q578 446 494 406Q431 373 285 322Q291 273 305 236Q317 205 340 170Q352 150 383 129Q403 115 430 115Q477 115 555 154Q647 199 756 289Q762 286 768
276Q780 258 782 254Q786 246 795 233L803 217Q723 147 653 98Q573 41 530 16Q475 -15 428 -27Q375 -41 336 -41Q293 -41 244 -23Q193 -5 150 37Q113 72 78 143Q47 208 47 303Q47 375 68 453Q88 535 121 590Q158 655 207 713Q258 774 319 823Q348 848 375 862Q430
891 446 899Q493 917 524 926Q569 936 604 936Q659 936 705 920Q744 906 772 881Q797 858 811 823Q825 787 825 760Z" />
<glyph unicode="&#xec;" glyph-name="igrave" horiz-adv-x="567" d="M539 111L442 55Q389 24 348 6Q295 -19 262 -29Q222 -41 195 -41Q162 -41 137 -10Q114 19 115 76Q115 107 121 158Q121 164 137 268Q143 309 160 395L182 522Q196 610 199 629Q207 690 207 700Q207
720 203 737Q199 751 195 756Q185 766 182 766Q176 768 166 768Q162 768 142 764T111 756L74 743L55 811L150 852L254 893Q299 909 344 924Q385 936 406 936Q434 936 449 918Q465 898 465 852Q465 842 457 772Q451 717 438 657L416 528L391 397Q385 362 375 283Q367
213 367 203Q367 172 373 158T397 143Q417 143 426 145Q442 149 452 151T483 162L518 176L539 111ZM496 1055Q467 1039 453 1032Q433 1024 412 1020L125 1382L164 1434Q168 1434 181 1436T205 1440L266 1452Q313 1460 330 1462Q371 1466 373 1466L496 1055Z" />
<glyph unicode="&#xed;" glyph-name="iacute" horiz-adv-x="567" d="M539 111L442 55Q389 24 348 6Q295 -19 262 -29Q222 -41 195 -41Q162 -41 137 -10Q114 19 115 76Q115 107 121 158Q121 164 137 268Q143 309 160 395L182 522Q196 610 199 629Q207 690 207 700Q207
720 203 737Q199 751 195 756Q185 766 182 766Q176 768 166 768Q162 768 142 764T111 756L74 743L55 811L150 852L254 893Q299 909 344 924Q385 936 406 936Q434 936 449 918Q465 898 465 852Q465 842 457 772Q451 717 438 657L416 528L391 397Q385 362 375 283Q367
213 367 203Q367 172 373 158T397 143Q417 143 426 145Q442 149 452 151T483 162L518 176L539 111ZM764 1366L385 1020Q371 1022 352 1038Q329 1058 319 1069L553 1466L592 1460L649 1450Q659 1448 677 1443T705 1436L741 1427L764 1366Z" />
<glyph unicode="&#xee;" glyph-name="icircumflex" horiz-adv-x="567" d="M539 111L442 55Q389 24 348 6Q295 -19 262 -29Q222 -41 195 -41Q162 -41 137 -10Q114 19 115 76Q115 107 121 158Q121 164 137 268Q143 309 160 395L182 522Q196 610 199 629Q207 690
207 700Q207 720 203 737Q199 751 195 756Q185 766 182 766Q176 768 166 768Q162 768 142 764T111 756L74 743L55 811L150 852L254 893Q299 909 344 924Q385 936 406 936Q434 936 449 918Q465 898 465 852Q465 842 457 772Q451 717 438 657L416 528L391 397Q385
362 375 283Q367 213 367 203Q367 172 373 158T397 143Q417 143 426 145Q442 149 452 151T483 162L518 176L539 111ZM725 1079Q709 1054 692 1042Q686 1036 657 1020L432 1245L145 1020Q133 1028 119 1042Q96 1065 90 1079L389 1456H526L725 1079Z" />
<glyph unicode="&#xef;" glyph-name="idieresis" horiz-adv-x="567" d="M539 111L442 55Q389 24 348 6Q295 -19 262 -29Q222 -41 195 -41Q162 -41 137 -10Q114 19 115 76Q115 107 121 158Q121 164 137 268Q143 309 160 395L182 522Q196 610 199 629Q207 690 207
700Q207 720 203 737Q199 751 195 756Q185 766 182 766Q176 768 166 768Q162 768 142 764T111 756L74 743L55 811L150 852L254 893Q299 909 344 924Q385 936 406 936Q434 936 449 918Q465 898 465 852Q465 842 457 772Q451 717 438 657L416 528L391 397Q385 362
375 283Q367 213 367 203Q367 172 373 158T397 143Q417 143 426 145Q442 149 452 151T483 162L518 176L539 111ZM748 1270Q748 1241 735 1206Q721 1169 705 1147Q685 1120 654 1102T588 1083Q537 1083 516 1114Q493 1147 494 1184Q494 1212 506 1245Q520 1286 537
1307Q557 1332 586 1352Q615 1370 651 1370Q678 1370 694 1362Q712 1354 723 1339Q735 1323 741 1307Q748 1288 748 1270ZM360 1270Q360 1241 348 1206Q334 1169 317 1147Q294 1118 268 1102Q237 1084 201 1083Q152 1083 129 1114Q106 1147 106 1184Q106 1212 119
1245Q133 1286 150 1307Q173 1336 199 1352Q230 1370 266 1370Q291 1370 307 1362Q325 1354 336 1339Q348 1323 354 1307Q360 1288 360 1270Z" />
<glyph unicode="&#xf1;" glyph-name="ntilde" horiz-adv-x="1079" d="M1024 1341L991 1284Q966 1243 952 1223Q932 1192 905 1163Q868 1120 856 1112Q825 1087 801 1077Q774 1065 743 1065Q700 1065 670 1079Q662 1083 606 1116Q575 1134 543 1150T475 1167Q457
1167 438 1161Q426 1157 403 1139Q378 1119 367 1104Q359 1096 328 1055L262 1081Q280 1116 315 1171Q346 1222 381 1262Q418 1305 459 1333T543 1362Q582 1362 621 1346Q641 1338 688 1309L750 1274Q779 1258 809 1257Q848 1257 883 1286Q922 1317 958 1372L1024
1341ZM1057 111L961 55Q938 43 864 8Q811 -17 778 -27Q731 -41 715 -41Q676 -41 655 -10Q632 23 633 76Q633 94 639 137Q649 209 653 233Q657 264 663 294T674 350Q678 370 694 469Q698 489 709 571Q715 617 715 639Q715 696 705 723Q697 746 662 745Q648 745 625
737T572 709T512 659Q479 626 451 580Q420 533 406 465Q383 363 371 301Q367 285 364 258T358 223Q354 205 350 162Q348 144 348 111V63L303 41L233 10L166 -20L123 -41L82 -2Q94 49 109 135L133 276Q151 378 156 414Q170 523 172 537T178 584T184 635Q188 692
188 702Q188 731 186 739Q182 753 178 758Q170 766 166 768H150Q136 768 125 766Q119 766 92 756Q74 750 51 743L33 811L129 852Q203 881 238 893Q304 916 330 924Q373 936 387 936Q397 936 410 932Q418 930 424 915Q428 907 432 881Q434 867 434 823Q434 792 432
774T426 723Q537 834 641 885T838 936Q871 936 895 930Q922 924 936 905Q951 887 961 856Q971 821 971 776Q971 760 963 695T948 592Q936 518 928 479T907 371Q893 293 891 274Q885 231 885 203Q885 170 895 156Q905 144 922 143Q949 143 967 152Q971 154 992 162T1030
176L1057 111Z" />
<glyph unicode="&#xf2;" glyph-name="ograve" horiz-adv-x="907" d="M635 1055Q606 1039 592 1032Q572 1024 551 1020L262 1382L303 1434Q307 1434 320 1436T344 1440L406 1452Q453 1460 469 1462Q510 1466 512 1466L635 1055ZM639 481Q639 549 625 616Q613 671
590 715Q568 755 541 776Q514 796 479 797Q422 797 381 762Q344 729 317 672Q290 613 283 551Q273 475 272 422Q272 350 287 295Q305 225 324 193Q353 142 379 121Q412 94 440 94Q479 94 506 113Q543 138 557 158Q580 191 594 227Q610 270 618 307Q630 364 633
395L639 481ZM870 559Q870 483 854 424Q836 354 805 291Q776 230 727 168Q680 107 627 63Q602 43 569 23Q549 11 504 -10Q481 -20 436 -33Q405 -41 373 -41Q289 -41 231 -12Q168 19 127 70Q82 123 61 193Q38 267 39 344Q39 430 51 483Q67 555 96 612Q127 673 172
731Q213 782 287 840Q295 848 344 877Q373 895 410 907Q455 923 479 928Q528 936 549 936Q623 936 686 907Q747 878 788 829Q827 782 850 711Q870 647 870 559Z" />
<glyph unicode="&#xf3;" glyph-name="oacute" horiz-adv-x="907" d="M903 1366L524 1020Q510 1022 492 1038Q469 1058 459 1069L692 1466L731 1460L788 1450Q798 1448 817 1443T844 1436L881 1427L903 1366ZM639 481Q639 549 625 616Q613 671 590 715Q568 755
541 776Q514 796 479 797Q422 797 381 762Q344 729 317 672Q290 613 283 551Q273 475 272 422Q272 350 287 295Q305 225 324 193Q353 142 379 121Q412 94 440 94Q479 94 506 113Q543 138 557 158Q580 191 594 227Q610 270 618 307Q630 364 633 395L639 481ZM870
559Q870 483 854 424Q836 354 805 291Q776 230 727 168Q680 107 627 63Q602 43 569 23Q549 11 504 -10Q481 -20 436 -33Q405 -41 373 -41Q289 -41 231 -12Q168 19 127 70Q82 123 61 193Q38 267 39 344Q39 430 51 483Q67 555 96 612Q127 673 172 731Q213 782 287
840Q295 848 344 877Q373 895 410 907Q455 923 479 928Q528 936 549 936Q623 936 686 907Q747 878 788 829Q827 782 850 711Q870 647 870 559Z" />
<glyph unicode="&#xf4;" glyph-name="ocircumflex" horiz-adv-x="907" d="M864 1079Q848 1054 831 1042Q825 1036 797 1020L571 1245L285 1020Q273 1028 258 1042Q235 1065 229 1079L528 1456H666L864 1079ZM639 481Q639 549 625 616Q613 671 590 715Q568 755
541 776Q514 796 479 797Q422 797 381 762Q344 729 317 672Q290 613 283 551Q273 475 272 422Q272 350 287 295Q305 225 324 193Q353 142 379 121Q412 94 440 94Q479 94 506 113Q543 138 557 158Q580 191 594 227Q610 270 618 307Q630 364 633 395L639 481ZM870
559Q870 483 854 424Q836 354 805 291Q776 230 727 168Q680 107 627 63Q602 43 569 23Q549 11 504 -10Q481 -20 436 -33Q405 -41 373 -41Q289 -41 231 -12Q168 19 127 70Q82 123 61 193Q38 267 39 344Q39 430 51 483Q67 555 96 612Q127 673 172 731Q213 782 287
840Q295 848 344 877Q373 895 410 907Q455 923 479 928Q528 936 549 936Q623 936 686 907Q747 878 788 829Q827 782 850 711Q870 647 870 559Z" />
<glyph unicode="&#xf5;" glyph-name="otilde" horiz-adv-x="907" d="M934 1341L901 1284Q876 1243 862 1223Q842 1192 815 1163Q778 1120 766 1112Q735 1087 711 1077Q684 1065 653 1065Q610 1065 580 1079Q572 1083 516 1116Q485 1134 453 1150T385 1167Q367
1167 348 1161Q336 1157 313 1139Q288 1119 276 1104Q268 1096 238 1055L172 1081Q190 1116 225 1171Q256 1222 291 1262Q328 1305 369 1333T453 1362Q492 1362 530 1346Q550 1338 598 1309L659 1274Q688 1258 719 1257Q758 1257 793 1286Q832 1317 868 1372L934
1341ZM639 481Q639 549 625 616Q613 671 590 715Q568 755 541 776Q514 796 479 797Q422 797 381 762Q344 729 317 672Q290 613 283 551Q273 475 272 422Q272 350 287 295Q305 225 324 193Q353 142 379 121Q412 94 440 94Q479 94 506 113Q543 138 557 158Q580 191
594 227Q610 270 618 307Q630 364 633 395L639 481ZM870 559Q870 483 854 424Q836 354 805 291Q776 230 727 168Q680 107 627 63Q602 43 569 23Q549 11 504 -10Q481 -20 436 -33Q405 -41 373 -41Q289 -41 231 -12Q168 19 127 70Q82 123 61 193Q38 267 39 344Q39
430 51 483Q67 555 96 612Q127 673 172 731Q213 782 287 840Q295 848 344 877Q373 895 410 907Q455 923 479 928Q528 936 549 936Q623 936 686 907Q747 878 788 829Q827 782 850 711Q870 647 870 559Z" />
<glyph unicode="&#xf6;" glyph-name="odieresis" horiz-adv-x="907" d="M887 1270Q887 1241 874 1206Q860 1169 844 1147Q824 1120 793 1102T725 1083Q676 1083 655 1114Q632 1147 633 1184Q633 1217 643 1245Q655 1282 675 1306T725 1352Q754 1370 791 1370Q818
1370 834 1362Q852 1354 862 1339Q874 1323 881 1307Q887 1288 887 1270ZM500 1270Q500 1241 487 1206Q473 1169 457 1147Q437 1120 406 1102T340 1083Q291 1083 268 1114Q245 1147 246 1184Q246 1217 256 1245Q268 1282 289 1307Q312 1336 338 1352Q369 1370 406
1370Q431 1370 446 1362Q464 1354 475 1339Q487 1323 494 1307Q500 1288 500 1270ZM639 481Q639 549 625 616Q613 671 590 715Q568 755 541 776Q514 796 479 797Q422 797 381 762Q344 729 317 672Q290 613 283 551Q273 475 272 422Q272 350 287 295Q305 225 324
193Q353 142 379 121Q412 94 440 94Q479 94 506 113Q543 138 557 158Q580 191 594 227Q610 270 618 307Q630 364 633 395L639 481ZM870 559Q870 483 854 424Q836 354 805 291Q776 230 727 168Q680 107 627 63Q602 43 569 23Q549 11 504 -10Q481 -20 436 -33Q405
-41 373 -41Q289 -41 231 -12Q168 19 127 70Q82 123 61 193Q38 267 39 344Q39 430 51 483Q67 555 96 612Q127 673 172 731Q213 782 287 840Q295 848 344 877Q373 895 410 907Q455 923 479 928Q528 936 549 936Q623 936 686 907Q747 878 788 829Q827 782 850 711Q870
647 870 559Z" />
<glyph unicode="&#xf7;" glyph-name="divide" horiz-adv-x="817" d="M764 604Q762 600 758 591T752 578Q742 551 737 545Q735 541 719 512Q709 494 707 489H80L55 522Q57 526 60 534T66 547L82 580Q86 586 90 596T98 610Q100 614 105 622T113 635H737L764 604ZM471
324Q469 297 455 270Q439 237 426 225Q401 200 387 193Q369 183 344 182Q303 182 287 209Q273 232 279 283Q283 312 295 338Q311 371 324 383Q338 397 362 412Q384 424 406 424Q487 424 471 324ZM543 846Q539 817 526 791Q510 758 498 745Q478 725 459 715Q437
703 416 702Q375 702 358 729Q344 752 350 803Q354 832 367 858Q381 887 395 901Q415 921 434 931T477 942Q557 942 543 846Z" />
<glyph unicode="&#xf8;" glyph-name="oslash" horiz-adv-x="907" d="M272 422Q272 414 273 398T274 375Q274 361 279 332L592 713Q574 752 541 776Q514 796 479 797Q422 797 381 762Q344 729 317 672Q290 613 283 551Q272 475 272 422ZM639 481Q639 487 638 503T637
526Q637 538 633 567L324 193Q349 148 377 121T440 94Q479 94 506 113Q543 138 557 158Q580 191 594 227Q610 270 618 307Q630 364 633 395L639 481ZM870 559Q870 483 854 424Q836 354 805 291Q776 230 727 168Q680 107 627 63Q602 43 569 23Q549 11 504 -10Q481
-20 436 -33Q405 -41 373 -41Q320 -41 266 -25Q223 -11 180 18L166 0Q162 -4 135 -14Q115 -22 92 -33Q86 -37 70 -41T47 -49Q24 -59 14 -61L-14 -25L96 111Q39 207 39 344Q39 430 51 483Q67 555 96 612Q127 673 172 731Q213 782 287 840Q295 848 344 877Q373 895
410 907Q455 923 479 928Q528 936 549 936Q606 936 649 922Q696 906 731 883L743 897Q759 905 774 911Q782 915 793 920T817 930L858 946Q866 948 877 953T893 958L922 920L815 791Q870 696 870 559Z" />
<glyph unicode="&#xf9;" glyph-name="ugrave" horiz-adv-x="1099" d="M1069 106L989 53Q973 43 911 6Q872 -17 840 -29T784 -41Q759 -41 739 -27Q716 -11 698 20Q675 57 665 98T651 209Q622 164 569 109Q538 76 477 31Q430 -4 381 -22T287 -41Q260 -41 227 -25Q192
-7 170 20Q145 49 127 98Q111 139 111 205Q111 248 115 276L127 365Q131 396 143 461Q155 531 160 555Q162 565 165 594T170 637Q176 674 176 700Q176 720 172 737Q168 751 164 756Q156 764 152 766T135 768Q131 768 111 764T80 756Q55 748 41 743L25 811Q113 850
121 852Q195 881 229 893Q286 913 324 924Q367 936 385 936Q414 936 424 918Q432 902 432 852Q432 823 426 776Q416 704 412 676Q404 621 394 562T375 446Q361 356 358 346Q352 299 352 270Q352 213 368 185T405 156T449 170Q488 195 508 213Q537 240 582 291Q609
322 666 406Q668 418 673 444T680 487L692 569Q694 579 698 604T705 641Q709 686 709 700Q709 720 705 737T698 756Q690 764 686 766T672 768Q668 768 647 764Q631 760 618 756Q612 754 601 750T584 743L565 811L662 852Q715 875 766 893Q815 911 858 923T918 936Q946
936 954 918Q962 902 963 852Q963 809 958 780Q948 714 944 688Q940 663 928 584Q924 555 919 531T909 481Q905 463 901 426T897 385Q891 340 891 307Q891 215 905 180Q921 143 944 143Q971 143 993 150Q1003 152 1051 172L1069 106ZM727 1055Q698 1039 684 1032Q664
1024 643 1020L354 1382L395 1434Q399 1434 412 1436T436 1440L498 1452Q545 1460 561 1462Q569 1462 578 1463T593 1465T602 1466L727 1055Z" />
<glyph unicode="&#xfa;" glyph-name="uacute" horiz-adv-x="1099" d="M1069 106L989 53Q973 43 911 6Q872 -17 840 -29T784 -41Q759 -41 739 -27Q716 -11 698 20Q675 57 665 98T651 209Q622 164 569 109Q538 76 477 31Q430 -4 381 -22T287 -41Q260 -41 227 -25Q192
-7 170 20Q145 49 127 98Q111 139 111 205Q111 248 115 276L127 365Q131 396 143 461Q155 531 160 555Q162 565 165 594T170 637Q176 674 176 700Q176 720 172 737Q168 751 164 756Q156 764 152 766T135 768Q131 768 111 764T80 756Q55 748 41 743L25 811Q113 850
121 852Q195 881 229 893Q286 913 324 924Q367 936 385 936Q414 936 424 918Q432 902 432 852Q432 823 426 776Q416 704 412 676Q404 621 394 562T375 446Q361 356 358 346Q352 299 352 270Q352 213 368 185T405 156T449 170Q488 195 508 213Q537 240 582 291Q609
322 666 406Q668 418 673 444T680 487L692 569Q694 579 698 604T705 641Q709 686 709 700Q709 720 705 737T698 756Q690 764 686 766T672 768Q668 768 647 764Q631 760 618 756Q612 754 601 750T584 743L565 811L662 852Q715 875 766 893Q815 911 858 923T918 936Q946
936 954 918Q962 902 963 852Q963 809 958 780Q948 714 944 688Q940 663 928 584Q924 555 919 531T909 481Q905 463 901 426T897 385Q891 340 891 307Q891 215 905 180Q921 143 944 143Q971 143 993 150Q1003 152 1051 172L1069 106ZM995 1366L616 1020Q600 1024
582 1038Q566 1052 551 1069L784 1466L823 1460L881 1450Q891 1448 909 1443T936 1436L973 1427L995 1366Z" />
<glyph unicode="&#xfb;" glyph-name="ucircumflex" horiz-adv-x="1099" d="M1069 106L989 53Q973 43 911 6Q872 -17 840 -29T784 -41Q759 -41 739 -27Q716 -11 698 20Q675 57 665 98T651 209Q622 164 569 109Q538 76 477 31Q430 -4 381 -22T287 -41Q260 -41 227
-25Q192 -7 170 20Q145 49 127 98Q111 139 111 205Q111 248 115 276L127 365Q131 396 143 461Q155 531 160 555Q162 565 165 594T170 637Q176 674 176 700Q176 720 172 737Q168 751 164 756Q156 764 152 766T135 768Q131 768 111 764T80 756Q55 748 41 743L25 811Q113
850 121 852Q195 881 229 893Q286 913 324 924Q367 936 385 936Q414 936 424 918Q432 902 432 852Q432 823 426 776Q416 704 412 676Q404 621 394 562T375 446Q361 356 358 346Q352 299 352 270Q352 213 368 185T405 156T449 170Q488 195 508 213Q537 240 582 291Q609
322 666 406Q668 418 673 444T680 487L692 569Q694 579 698 604T705 641Q709 686 709 700Q709 720 705 737T698 756Q690 764 686 766T672 768Q668 768 647 764Q631 760 618 756Q612 754 601 750T584 743L565 811L662 852Q715 875 766 893Q815 911 858 923T918 936Q946
936 954 918Q962 902 963 852Q963 809 958 780Q948 714 944 688Q940 663 928 584Q924 555 919 531T909 481Q905 463 901 426T897 385Q891 340 891 307Q891 215 905 180Q921 143 944 143Q971 143 993 150Q1003 152 1051 172L1069 106ZM956 1079Q940 1054 924 1042Q918
1036 889 1020L664 1245L377 1020Q365 1028 350 1042Q327 1065 322 1079L621 1456H758L956 1079Z" />
<glyph unicode="&#xfc;" glyph-name="udieresis" horiz-adv-x="1099" d="M979 1270Q979 1241 967 1206Q953 1169 936 1147Q916 1120 885 1102T817 1083Q770 1083 748 1114Q725 1147 725 1184Q725 1217 735 1245Q747 1282 767 1306T817 1352Q844 1370 883 1370Q910
1370 926 1362Q944 1354 954 1339Q966 1323 973 1307Q979 1288 979 1270ZM592 1270Q592 1241 580 1206Q566 1169 549 1147Q529 1120 498 1102T432 1083Q381 1083 360 1114Q337 1147 338 1184Q338 1217 348 1245Q360 1282 381 1307Q404 1336 430 1352Q461 1370 498
1370Q523 1370 539 1362Q557 1354 567 1339Q579 1323 586 1307Q592 1288 592 1270ZM1069 106L989 53Q973 43 911 6Q872 -17 840 -29T784 -41Q759 -41 739 -27Q716 -11 698 20Q675 57 665 98T651 209Q622 164 569 109Q538 76 477 31Q430 -4 381 -22T287 -41Q260
-41 227 -25Q192 -7 170 20Q145 49 127 98Q111 139 111 205Q111 248 115 276L127 365Q131 396 143 461Q155 531 160 555Q162 565 165 594T170 637Q176 674 176 700Q176 720 172 737Q168 751 164 756Q156 764 152 766T135 768Q131 768 111 764T80 756Q55 748 41
743L25 811Q113 850 121 852Q195 881 229 893Q286 913 324 924Q367 936 385 936Q414 936 424 918Q432 902 432 852Q432 823 426 776Q416 704 412 676Q404 621 394 562T375 446Q361 356 358 346Q352 299 352 270Q352 213 368 185T405 156T449 170Q488 195 508 213Q537
240 582 291Q609 322 666 406Q668 418 673 444T680 487L692 569Q694 579 698 604T705 641Q709 686 709 700Q709 720 705 737T698 756Q690 764 686 766T672 768Q668 768 647 764Q631 760 618 756Q612 754 601 750T584 743L565 811L662 852Q715 875 766 893Q815 911
858 923T918 936Q946 936 954 918Q962 902 963 852Q963 809 958 780Q948 714 944 688Q940 663 928 584Q924 555 919 531T909 481Q905 463 901 426T897 385Q891 340 891 307Q891 215 905 180Q921 143 944 143Q971 143 993 150Q1003 152 1051 172L1069 106Z" />
<glyph unicode="&#xff;" glyph-name="ydieresis" horiz-adv-x="978" d="M948 1270Q948 1235 938 1206Q924 1169 907 1147Q887 1120 856 1102T788 1083Q741 1083 719 1114Q696 1147 696 1184Q696 1217 707 1245Q719 1282 739 1306T788 1352Q815 1370 854 1370Q881
1370 897 1362Q915 1354 926 1339Q936 1327 942 1307Q948 1288 948 1270ZM561 1270Q561 1235 551 1206Q537 1169 520 1147Q500 1120 469 1102T403 1083Q352 1083 332 1114Q309 1147 309 1184Q309 1217 319 1245Q331 1282 352 1307Q375 1336 401 1352Q432 1370 469
1370Q494 1370 510 1362Q528 1354 539 1339Q549 1327 555 1307Q561 1288 561 1270ZM961 860Q961 823 934 756Q906 685 860 584Q829 518 748 356L604 82Q551 -20 467 -154Q397 -265 330 -338Q260 -412 182 -457Q105 -500 16 -500Q-27 -500 -59 -492Q-96 -483 -127
-467Q-164 -449 -176 -438Q-196 -422 -197 -412Q-197 -398 -181 -369T-141 -307Q-123 -280 -94 -252Q-63 -221 -57 -219Q-10 -262 39 -285Q90 -308 125 -307Q178 -307 242 -248Q299 -193 369 -80Q365 -66 357 -21T342 51Q317 162 309 197Q303 226 297 250T286 293T272
346L233 485Q215 550 197 602Q172 672 166 684Q146 733 127 752Q111 768 92 768Q88 768 68 764Q43 760 35 756Q10 748 -4 743L-25 811Q0 823 23 833T68 854Q84 860 113 874T158 895Q164 897 236 924Q271 936 287 936Q314 936 336 907Q354 884 381 809Q387 793 420
694Q428 669 441 617T459 553Q459 549 500 395Q514 340 539 229L616 391Q645 450 680 539Q705 600 723 657Q739 710 739 731Q739 780 686 784Q672 786 651 780Q620 770 602 762L578 827Q627 856 653 868Q696 888 735 903Q776 919 811 928Q844 936 870 936Q893 936
903 934Q926 930 934 924Q948 912 954 899Q961 885 961 860Z" />
<glyph unicode="&#x131;" glyph-name="dotlessi" horiz-adv-x="567" d="M539 111L442 55Q389 24 348 6Q295 -19 262 -29Q222 -41 195 -41Q162 -41 137 -10Q114 19 115 76Q115 107 121 158Q121 164 137 268Q143 309 160 395L182 522Q196 610 199 629Q207 690 207
700Q207 720 203 737Q199 751 195 756Q185 766 182 766Q176 768 166 768Q162 768 142 764T111 756L74 743L55 811L150 852L254 893Q299 909 344 924Q385 936 406 936Q434 936 449 918Q465 898 465 852Q465 842 457 772Q451 717 438 657L416 528L391 397Q385 362
375 283Q367 213 367 203Q367 172 373 158T397 143Q417 143 426 145Q442 149 452 151T483 162L518 176L539 111Z" />
<glyph unicode="&#x152;" glyph-name="OE" horiz-adv-x="1601" d="M557 109Q600 109 616 111Q641 113 666 121Q676 123 707 139Q730 149 748 164L870 1063Q839 1108 780 1135Q729 1158 666 1157Q588 1157 532 1116Q473 1073 432 1001Q387 923 360 827Q331 718
319 612Q307 503 319 412Q331 326 365 252Q392 193 446 147Q494 109 557 109ZM1575 1260L1608 1229Q1606 1221 1601 1199T1593 1163Q1581 1110 1573 1083Q1569 1073 1562 1047T1550 1006Q1548 998 1544 985T1537 964T1532 950H1462Q1470 1040 1458 1092Q1446 1141
1411 1141H1112L1057 735H1413L1440 700L1417 668Q1394 635 1391 629Q1389 627 1379 614T1362 594L1337 569Q1321 589 1311 596Q1288 610 1278 612Q1251 620 1229 623Q1211 625 1163 625H1040L981 184Q979 174 983 158Q985 146 1003 138T1057 125Q1102 121 1151
121H1241Q1290 121 1317 131Q1354 145 1374 166Q1403 195 1425 231Q1445 264 1477 330L1540 303Q1526 235 1520 213L1497 123Q1493 107 1486 79T1477 47Q1467 12 1462 0H782Q741 0 692 -4Q661 -6 627 -14Q590 -22 569 -25Q508 -31 498 -31Q387 -31 301 20Q217 69
166 152Q111 240 91 346T82 575Q90 667 119 758Q144 836 193 928Q232 1000 295 1073Q344 1128 424 1188Q487 1235 569 1264Q643 1291 731 1290Q760 1290 797 1286Q820 1284 850 1276Q852 1276 869 1271T897 1264Q930 1260 954 1260H1575Z" />
<glyph unicode="&#x153;" glyph-name="oe" horiz-adv-x="1439" d="M977 737Q922 682 891 604Q862 530 852 434Q956 481 1014 516Q1067 547 1106 584Q1140 615 1149 645Q1157 672 1157 709Q1157 748 1135 774T1081 801Q1056 801 1030 782Q1006 766 977 737ZM639
481Q639 558 627 616Q617 669 590 717Q572 752 537 776Q508 796 471 797Q422 797 381 762Q342 729 317 674Q288 611 279 553Q265 475 264 422Q264 356 281 295Q297 232 319 193Q348 142 375 121Q408 94 432 94Q485 94 528 133Q567 170 592 227Q617 286 629 352Q639
409 639 481ZM1403 760Q1403 744 1395 702Q1389 667 1368 637Q1343 598 1311 565Q1276 530 1212 489Q1136 440 1065 406Q973 361 854 319Q860 268 874 236Q890 197 911 170Q929 145 956 129Q979 115 1005 115T1059 123Q1088 131 1128 154Q1187 185 1219 207Q1276
248 1329 289L1341 276Q1351 266 1358 254Q1362 246 1370 233Q1372 229 1375 223L1378 217Q1286 137 1231 98Q1151 41 1108 16Q1053 -15 1004 -27Q947 -41 907 -41Q878 -41 852 -33Q819 -23 788 -6Q751 14 725 41Q696 70 674 115Q649 88 623 63Q594 36 565 23Q542
11 498 -10Q475 -20 430 -33Q399 -41 369 -41Q287 -41 229 -12Q170 17 127 70Q82 123 61 193Q38 267 39 344Q39 430 51 483Q65 551 96 610Q127 671 172 729Q218 787 283 840Q297 852 342 877Q376 895 410 907Q453 923 479 928Q524 936 543 936Q647 936 717 889Q789
840 821 758Q852 789 897 823Q907 831 950 862Q979 880 1020 899Q1067 917 1098 926Q1143 936 1182 936Q1231 936 1276 920Q1319 904 1345 881T1389 823Q1403 795 1403 760Z" />
<glyph unicode="&#x178;" glyph-name="Ydieresis" horiz-adv-x="1169" d="M1065 1550Q1065 1517 1055 1489Q1043 1452 1022 1427Q999 1398 973 1382T905 1366Q856 1366 836 1395Q811 1430 811 1464Q811 1495 823 1528Q837 1565 854 1587Q877 1618 903 1634Q930
1652 971 1653Q1018 1653 1042 1622Q1065 1593 1065 1550ZM678 1550Q678 1517 668 1489Q656 1452 635 1427Q612 1398 586 1382T518 1366Q469 1366 449 1395Q426 1428 426 1464Q426 1499 436 1528Q450 1565 467 1587Q490 1618 516 1634Q545 1652 584 1653Q631 1653
655 1622Q678 1593 678 1550ZM803 0H279L289 74Q334 84 360 92Q391 102 407 110T434 129Q442 137 442 145L496 532Q463 651 446 694L385 858Q358 930 319 1006Q285 1074 258 1122Q252 1134 244 1142T219 1157Q215 1159 180 1163Q164 1165 119 1165L123 1237Q137
1239 152 1243T186 1249Q198 1251 222 1254T258 1260Q276 1262 328 1268Q369 1272 379 1272Q402 1272 426 1260T463 1225Q486 1186 520 1108Q561 1018 582 969Q615 891 637 819L682 678L961 1120Q979 1147 956 1163Q934 1178 864 1188L874 1260H1262L1251 1188Q1239
1186 1220 1180T1196 1174Q1180 1170 1155 1161Q1147 1159 1126 1143Q1118 1137 1106 1120L727 522L676 145Q676 137 680 131Q686 121 700 113Q723 99 743 92Q776 82 811 74L803 0Z" />
<glyph unicode="&#x192;" glyph-name="florin" horiz-adv-x="655" d="M1016 1397Q994 1382 961 1354Q949 1344 939 1335T920 1318T895 1300Q885 1292 831 1257Q800 1237 791 1237Q775 1237 758 1257Q750 1267 742 1277T725 1298Q694 1333 688 1339Q668 1357 641
1358Q598 1358 569 1317Q538 1272 522 1219Q504 1156 492 1087Q480 1016 473 952L467 905H717L743 870Q741 866 737 862T730 855T722 846T713 836Q701 822 672 797Q633 764 631 762Q623 758 613 750T600 739Q588 768 559 776Q532 784 463 784H455Q453 757 449 725T440
655Q434 587 426 518L410 381Q408 356 403 313T395 256Q387 197 381 147Q371 71 371 68Q355 -22 330 -80Q301 -150 266 -205Q233 -256 180 -313Q133 -362 78 -410Q60 -424 18 -449Q-7 -463 -45 -477Q-68 -485 -113 -494Q-148 -500 -176 -500Q-221 -500 -252 -490T-319
-461Q-348 -447 -371 -428Q-389 -414 -389 -401Q-389 -385 -373 -360Q-361 -342 -332 -305Q-318 -287 -287 -256Q-264 -233 -254 -233T-223 -250L-180 -283Q-160 -299 -125 -315Q-92 -331 -63 -332Q-20 -332 6 -313Q34 -295 55 -252Q69 -221 92 -145Q110 -84 129
12Q138 58 147 117Q159 193 164 242Q166 262 171 308T178 379Q180 414 184 450T193 522L205 659Q207 677 210 720T215 784H76L53 823L184 905H229Q241 985 260 1059Q280 1143 307 1198Q338 1259 383 1323Q428 1382 489 1427Q542 1466 600 1493Q655 1520 719 1520Q774
1520 815 1503Q854 1487 901 1462Q950 1435 971 1421Q993 1407 1016 1397Z" />
<glyph unicode="&#x2c6;" glyph-name="circumflex" horiz-adv-x="649" d="M743 1079Q727 1054 711 1042Q705 1036 676 1020L453 1245L166 1020Q148 1032 137 1042Q119 1060 111 1079L410 1456H547L743 1079Z" />
<glyph unicode="&#x2c7;" glyph-name="caron" horiz-adv-x="555" d="M453 1042H315L113 1415Q129 1433 147 1450Q176 1475 180 1477L406 1255L692 1477Q704 1467 721 1450Q731 1440 748 1415L453 1042Z" />
<glyph unicode="&#x2d8;" glyph-name="breve" horiz-adv-x="622" d="M748 1335Q711 1253 664 1198Q615 1139 569 1108Q520 1074 471 1059Q418 1043 385 1042Q340 1042 295 1059Q258 1071 213 1110Q176 1141 143 1200Q112 1255 94 1335L113 1354Q119 1360 123 1366T133
1376Q141 1382 154 1395Q160 1401 172 1409Q186 1360 213 1325Q236 1294 270 1270Q297 1252 334 1241Q365 1233 395 1233Q430 1233 465 1241Q508 1251 543 1270Q580 1290 618 1325Q651 1356 682 1409Q684 1407 689 1403T698 1395L717 1376Q729 1364 735 1356Q739
1352 742 1345T748 1335Z" />
<glyph unicode="&#x2d9;" glyph-name="dotaccent" horiz-adv-x="362" d="M424 1270Q424 1235 414 1206Q402 1173 381 1147Q358 1118 332 1102Q301 1084 264 1083Q217 1083 195 1114Q172 1147 172 1184Q172 1217 182 1245Q194 1282 215 1306T264 1352Q291 1370
330 1370Q355 1370 371 1362Q391 1352 401 1340T418 1307Q424 1288 424 1270Z" />
<glyph unicode="&#x2da;" glyph-name="ring" horiz-adv-x="468" d="M420 1264Q420 1297 406 1313Q391 1331 369 1331Q349 1331 334 1323T305 1296Q297 1284 289 1260Q283 1237 283 1212Q283 1179 297 1163Q311 1145 336 1145Q352 1145 366 1153T395 1180Q403 1190
411 1219T420 1264ZM551 1300Q551 1257 532 1208Q518 1167 477 1120Q443 1080 397 1053Q350 1024 299 1024Q266 1024 238 1038Q205 1054 193 1069Q175 1089 166 1116Q158 1141 158 1169Q158 1218 176 1268Q196 1325 227 1360Q264 1403 305 1427T403 1452Q444 1452
467 1442Q494 1430 512 1409Q532 1386 541 1360Q551 1329 551 1300Z" />
<glyph unicode="&#x2db;" glyph-name="ogonek" horiz-adv-x="376" d="M362 -295Q348 -311 305 -348Q268 -379 236 -397Q197 -420 158 -432Q111 -446 78 -446Q53 -446 27 -440Q-4 -434 -23 -422Q-50 -406 -63 -383Q-79 -356 -80 -317Q-80 -266 -51 -215Q-23 -166
23 -123Q78 -70 123 -41Q184 0 233 25L336 18Q283 -19 258 -39T197 -104Q166 -141 154 -170Q138 -207 137 -231Q137 -260 158 -281Q176 -299 205 -299Q225 -299 264 -283Q295 -271 342 -229L362 -295Z" />
<glyph unicode="&#x2dc;" glyph-name="tilde" horiz-adv-x="743" d="M868 1341L836 1284Q811 1243 797 1223Q768 1182 752 1163Q719 1126 700 1112Q669 1087 645 1077Q617 1065 590 1065Q547 1065 516 1079Q500 1087 451 1116Q420 1134 387 1150T322 1167Q302
1167 283 1161Q271 1157 248 1139Q223 1119 211 1104Q203 1096 172 1055L106 1081Q124 1116 160 1171Q191 1222 225 1262Q262 1305 303 1333T387 1362Q426 1362 465 1346Q485 1338 532 1309Q546 1301 554 1296T573 1285T594 1274Q623 1258 651 1257Q694 1257 729
1286Q763 1314 803 1372L868 1341Z" />
<glyph unicode="&#x2dd;" glyph-name="hungarumlaut" horiz-adv-x="696" d="M205 1020Q185 1024 171 1032T135 1057L326 1466Q328 1466 356 1462T401 1456Q409 1454 423 1451T444 1448Q458 1446 471 1442L492 1386L205 1020ZM498 1020Q478 1024 464 1032T428 1057L618
1466Q620 1466 649 1462T694 1456Q702 1454 716 1451T737 1448Q755 1446 766 1442L784 1386L498 1020Z" />
<glyph unicode="&#x3a9;" glyph-name="Omega" horiz-adv-x="1251" d="M39 0L8 35Q8 43 13 63T20 98Q22 116 37 180Q43 209 59 266Q77 334 82 342H150Q154 252 164 213Q176 170 213 170H395Q321 244 266 322Q215 394 184 465Q155 533 145 602T145 739T178 870Q205
942 242 999Q283 1062 332 1112Q385 1167 451 1206Q514 1245 596 1268Q680 1291 766 1290Q881 1290 967 1254T1106 1147Q1158 1079 1180 981Q1200 889 1184 762Q1172 684 1139 616Q1100 536 1051 473Q985 389 922 326Q830 234 754 170H956Q972 170 987 180Q1003
192 1014 211Q1037 250 1042 264Q1050 280 1059 301T1079 344L1147 326L1130 252L1110 160Q1104 133 1098 111T1087 70Q1077 23 1069 0H610L633 170L735 305L811 414Q842 457 868 502Q891 537 907 582Q927 635 934 664Q946 721 950 754Q962 842 952 922Q942 1000
913 1053Q882 1108 833 1138T721 1169Q670 1169 627 1151Q586 1133 547 1098Q502 1057 481 1024Q452 979 432 936Q409 887 397 846Q385 803 379 766Q371 692 369 670Q365 627 369 586Q371 563 383 504Q391 465 414 414Q453 324 463 305Q475 280 535 170L512 0H39Z"
/>
<glyph unicode="&#x3c0;" glyph-name="pi" horiz-adv-x="1060" d="M1001 195Q950 117 911 76Q866 27 831 4Q792 -23 764 -31Q729 -41 702 -41Q673 -41 651 -33Q626 -24 608 -2Q594 14 580 57Q568 94 567 152Q567 183 573 225Q585 315 590 334Q596 369 625 485Q656
608 676 690Q602 696 551 705Q508 711 418 719Q406 664 386 549T356 377Q338 246 334 213Q328 162 324 63Q306 51 297 47Q287 43 275 38T252 29Q227 19 201 7T147 -16L98 -35Q78 -43 59 -47Q57 -45 57 -44Q55 -41 53 -37Q51 -35 48 -30T43 -23Q37 -15 31 -4Q71
61 104 125Q124 164 166 274Q193 348 223 465Q256 596 281 725H256H233Q196 725 180 723Q162 721 133 709Q98 695 88 686L37 653L4 713L72 786Q82 798 141 858Q175 892 209 913Q244 936 272 936Q381 936 471 930Q506 928 564 923T639 915Q705 909 786 901Q854 895
918 895Q958 895 991 913Q1030 933 1055 954L1098 899Q1086 883 1071 866T1040 829Q1013 794 977 758T913 702Q884 682 854 682H827H801Q772 571 758 481Q744 393 743 309Q743 254 748 233Q752 208 764 186Q772 172 786 164Q798 158 811 158Q827 158 838 160Q844
162 870 174Q872 176 907 205Q927 223 952 256L1001 195Z" />
<glyph unicode="&#x2013;" glyph-name="endash" horiz-adv-x="901" d="M856 549Q856 547 846 522Q838 508 829 492L813 463Q803 445 801 440H53L29 471Q29 473 39 498Q41 502 55 526L72 555L86 580H829L856 549Z" />
<glyph unicode="&#x2014;" glyph-name="emdash" horiz-adv-x="1540" d="M1495 549Q1491 533 1485 522L1468 492L1452 463Q1450 459 1446 451T1440 440H53L29 471Q29 473 39 498Q41 502 55 526L72 555L86 580H1470L1495 549Z" />
<glyph unicode="&#x2018;" glyph-name="quoteleft" horiz-adv-x="477" d="M471 1401Q446 1372 426 1343Q408 1316 385 1276Q367 1241 354 1206Q344 1175 344 1139Q344 1088 379 1063T463 1040L471 965Q463 957 444 946Q432 938 397 924Q387 920 367 912T340 901Q309
889 279 879Q269 875 249 870T227 864Q213 860 195 860Q164 883 145 915Q122 954 123 1010Q123 1076 150 1137Q183 1211 217 1260Q260 1317 311 1366Q364 1417 414 1450L471 1401Z" />
<glyph unicode="&#x2019;" glyph-name="quoteright" horiz-adv-x="477" d="M483 1292Q483 1226 457 1165Q430 1102 387 1044Q334 972 295 936Q236 879 193 852L135 901Q162 932 180 961Q217 1018 221 1026Q235 1053 250 1096Q260 1127 260 1163Q260 1214 227 1239Q192
1264 141 1262L133 1337Q141 1345 160 1356Q166 1360 209 1378Q246 1394 266 1403Q276 1407 326 1423Q336 1427 355 1432T377 1438Q391 1442 412 1442Q441 1422 461 1389Q483 1349 483 1292Z" />
<glyph unicode="&#x201a;" glyph-name="quotesinglbase" horiz-adv-x="528" d="M373 106Q373 40 346 -20Q315 -90 279 -141Q232 -207 184 -250Q125 -307 82 -334L25 -283Q50 -254 70 -225Q95 -192 111 -160Q125 -133 139 -90Q151 -53 152 -20Q152 29 117 53T33
78L23 154Q25 156 29 158T39 164T51 170Q80 186 98 195Q108 199 129 207T156 217Q166 221 215 238Q225 242 244 247T266 252Q280 256 301 256Q334 231 350 203Q373 163 373 106Z" />
<glyph unicode="&#x201c;" glyph-name="quotedblleft" horiz-adv-x="927" d="M471 1401Q446 1372 426 1343Q408 1316 385 1276Q367 1241 354 1206Q344 1175 344 1139Q344 1088 379 1063T463 1040L471 965Q463 957 444 946Q432 938 397 924Q387 920 367 912T340
901Q309 889 279 879Q269 875 249 870T227 864Q213 860 195 860Q164 883 145 915Q122 954 123 1010Q123 1076 150 1137Q183 1211 217 1260Q260 1317 311 1366Q364 1417 414 1450L471 1401ZM913 1401Q888 1372 868 1343Q850 1316 827 1276Q813 1249 799 1206Q787
1169 786 1139Q786 1088 821 1063T905 1040L915 965Q911 961 887 946Q875 938 840 924Q830 920 809 912T782 901Q741 885 723 879Q713 875 694 870T672 864Q658 860 637 860Q606 883 588 915Q565 954 565 1010Q565 1076 592 1137Q621 1205 662 1260Q709 1323 754
1366Q807 1417 856 1450L913 1401Z" />
<glyph unicode="&#x201d;" glyph-name="quotedblright" horiz-adv-x="927" d="M483 1292Q483 1226 457 1165Q430 1102 387 1044Q334 972 295 936Q236 879 193 852L135 901Q162 932 180 961Q217 1018 221 1026Q235 1053 250 1096Q260 1127 260 1163Q260 1214 227
1239Q192 1264 141 1262L133 1337Q141 1345 160 1356Q166 1360 209 1378Q246 1394 266 1403Q276 1407 326 1423Q336 1427 355 1432T377 1438Q391 1442 412 1442Q441 1422 461 1389Q483 1349 483 1292ZM926 1292Q926 1226 899 1165Q868 1095 831 1044Q784 978 737
936Q678 881 637 852L578 901Q605 932 623 961Q660 1018 664 1026Q678 1053 692 1096Q704 1133 705 1163Q705 1214 670 1239T586 1262L578 1337Q586 1345 604 1356Q616 1364 651 1378Q669 1386 711 1403Q721 1407 770 1423Q780 1427 799 1432T821 1438Q835 1442
854 1442Q887 1417 903 1389Q926 1349 926 1292Z" />
<glyph unicode="&#x201e;" glyph-name="quotedblbase" horiz-adv-x="966" d="M373 106Q373 40 346 -20Q315 -90 279 -141Q232 -207 184 -250Q125 -307 82 -334L25 -283Q50 -254 70 -225Q95 -192 111 -160Q125 -133 139 -90Q151 -53 152 -20Q152 29 117 53T33 78L23
154Q25 156 29 158T39 164T51 170Q80 186 98 195Q108 199 129 207T156 217Q166 221 215 238Q225 242 244 247T266 252Q280 256 301 256Q334 231 350 203Q373 163 373 106ZM815 106Q815 40 788 -20Q757 -90 721 -141Q674 -207 627 -250Q568 -305 526 -334L469 -283Q483
-267 512 -225Q545 -178 555 -160Q569 -133 584 -90Q594 -59 594 -20Q594 29 559 53T475 78L467 154Q469 156 494 170Q516 182 543 195Q553 199 573 207T600 217Q610 221 659 238Q669 242 689 247T711 252Q725 256 745 256Q774 236 793 203Q815 163 815 106Z" />
<glyph unicode="&#x2020;" glyph-name="dagger" horiz-adv-x="913" d="M971 1112Q963 1096 944 1063L903 993L860 924Q842 895 823 872Q813 880 794 891T770 905Q754 915 717 932Q694 942 662 948Q623 956 596 958Q590 901 598 819Q604 743 625 680Q576 567 545
469Q520 389 502 272Q492 204 494 156Q498 86 512 37Q503 31 481 18Q475 16 432 -4Q405 -16 381 -27Q375 -29 367 -32T353 -38T344 -41L315 -12Q333 27 344 59L369 133Q377 158 389 207Q399 246 401 272Q413 364 410 471T389 680Q430 756 453 819Q480 897 494 958Q396
948 326 930Q244 910 160 872L137 924Q141 932 166 973Q170 979 207 1040L250 1110Q268 1139 287 1161Q297 1155 314 1145T338 1130Q369 1112 391 1104Q428 1092 446 1087Q481 1079 510 1077Q514 1140 504 1223Q496 1286 469 1362Q475 1366 520 1391Q538 1401 555
1409T588 1425Q623 1443 653 1458Q690 1476 700 1481L741 1448Q698 1362 664 1264Q631 1174 612 1077Q702 1083 780 1104Q866 1127 948 1161L971 1112Z" />
<glyph unicode="&#x2021;" glyph-name="daggerdbl" horiz-adv-x="913" d="M971 1112Q963 1096 944 1063L903 993L860 924Q842 895 823 872Q768 909 719 930Q674 948 598 958Q594 886 602 842Q614 772 631 721Q592 647 571 598Q555 559 535 481Q703 493 868 567L891
518Q887 510 880 498T862 469L821 399L778 330Q753 291 743 279L690 307Q674 317 637 334Q629 338 580 352Q549 360 514 365Q512 336 512 285Q512 250 518 215Q524 176 532 150Q544 105 555 80Q532 66 504 49Q500 47 438 14Q403 -4 373 -18Q336 -36 326 -41L285
-8Q322 66 365 176Q392 248 414 365Q330 357 246 334Q172 316 80 279L57 330Q71 359 84 379Q88 385 125 446L168 516Q186 545 205 567Q254 532 309 510T428 481Q430 520 422 598Q416 656 397 721Q422 766 457 842Q482 897 494 958Q400 948 328 930Q262 914 160
872L137 924Q141 932 166 973Q170 979 207 1040L250 1110Q268 1139 287 1161Q342 1124 391 1104T512 1077V1155Q512 1192 506 1225Q498 1270 492 1292Q488 1302 469 1362Q475 1366 482 1370T501 1380T522 1391Q540 1401 557 1409T590 1425Q625 1443 655 1458Q692
1476 702 1481L743 1448Q704 1366 668 1264Q639 1184 614 1077Q704 1083 782 1104Q864 1124 948 1161L971 1112Z" />
<glyph unicode="&#x2022;" glyph-name="bullet" horiz-adv-x="528" d="M479 713Q479 656 461 598Q443 537 410 494Q377 449 328 418Q283 389 215 389Q176 389 150 401Q125 411 102 438Q86 456 76 491T66 559Q66 614 84 674Q102 729 137 778Q168 821 221 854Q270
885 332 885Q369 885 397 872Q424 860 444 834Q462 809 471 780Q479 754 479 713Z" />
<glyph unicode="&#x2026;" glyph-name="ellipsis" horiz-adv-x="1458" d="M1333 168Q1333 135 1321 98Q1309 63 1284 35Q1257 4 1227 -12Q1193 -30 1147 -31Q1082 -31 1055 0Q1026 33 1026 84Q1026 115 1038 150Q1048 181 1077 211Q1104 242 1135 258Q1168 276
1212 276Q1271 276 1302 246T1333 168ZM842 168Q842 135 829 98Q817 59 795 35Q770 6 735 -12Q701 -30 655 -31Q590 -31 563 0Q534 33 535 84Q535 111 549 150Q561 184 586 211Q611 240 645 258T723 276Q780 276 811 246T842 168ZM350 168Q350 129 340 98Q328 63
304 35T244 -12T166 -31Q101 -31 74 0Q43 35 43 84Q43 111 57 150Q69 184 94 211Q119 240 153 258T231 276Q290 276 322 246Q350 217 350 168Z" />
<glyph unicode="&#x2030;" glyph-name="perthousand" horiz-adv-x="2035" d="M1769 416Q1769 500 1747 539Q1724 576 1690 575Q1657 575 1636 555Q1611 530 1597 500Q1583 471 1571 424Q1559 379 1552 340Q1548 317 1544 258Q1540 209 1540 197Q1540 115 1561
80Q1581 43 1624 43Q1647 43 1669 61T1706 111Q1726 152 1735 178Q1739 192 1753 258Q1761 301 1765 342Q1769 396 1769 416ZM1960 399Q1960 323 1935 248Q1912 176 1862 109Q1815 48 1747 6Q1681 -33 1587 -33Q1532 -33 1489 -13T1411 43Q1382 72 1362 123Q1344
168 1343 219Q1343 289 1370 373Q1395 451 1444 512T1562 612T1724 651Q1775 651 1819 633Q1866 613 1892 584Q1923 550 1941 504T1960 399ZM1116 416Q1116 500 1094 539Q1074 576 1036 575Q1003 575 983 555Q958 530 944 500Q930 471 918 424Q906 379 899 340Q895
317 891 258Q889 233 889 197Q889 115 909 80Q929 43 973 43Q996 43 1018 61T1055 111Q1069 142 1081 178Q1097 233 1102 258Q1110 315 1112 342Q1116 396 1116 416ZM1307 399Q1307 323 1282 248T1210 109T1094 6T936 -33Q877 -33 836 -13T760 43Q727 76 709 123Q693
164 692 219Q692 296 717 373Q742 451 791 512Q838 571 911 612Q981 651 1071 651Q1122 651 1165 633Q1212 613 1239 584Q1270 550 1288 504T1307 399ZM268 6Q256 0 238 -6Q213 -14 199 -16L158 -25Q133 -29 125 -31L106 0L1120 1198Q1128 1204 1149 1210Q1155
1212 1169 1215T1190 1221Q1204 1225 1229 1229Q1237 1231 1247 1234T1260 1237L1280 1206L268 6ZM506 1004Q506 1047 500 1077T481 1126Q465 1149 457 1155Q443 1163 424 1163Q391 1163 371 1143Q346 1118 332 1087Q318 1058 305 1012Q293 967 287 928Q283 901
279 848Q277 823 276 784Q276 702 296 668T360 633Q387 633 406 649Q428 667 442 698Q462 739 471 766Q475 780 489 846Q499 889 502 928Q506 981 506 1004ZM694 987Q694 913 670 836Q645 760 598 696Q555 639 481 596Q411 555 324 555Q267 555 223 575Q178 595
147 631Q116 665 98 711Q80 758 80 807Q80 877 106 961Q131 1037 180 1098T299 1198T459 1237Q514 1237 553 1221Q598 1203 627 1169Q660 1134 676 1092Q694 1045 694 987Z" />
<glyph unicode="&#x2039;" glyph-name="guilsinglleft" horiz-adv-x="593" d="M51 426Q51 432 52 443T55 461Q57 475 59 485Q59 495 63 500L485 922L532 877L520 858L494 811Q488 799 478 783T455 745L412 670L367 594Q363 586 328 526Q320 512 313 501T301 481L291
463L420 43L358 0L51 426Z" />
<glyph unicode="&#x203a;" glyph-name="guilsinglright" horiz-adv-x="593" d="M45 43L55 61Q59 69 67 81T84 109Q119 168 123 176Q135 196 146 216T166 252Q176 268 188 287T211 328L250 395Q256 407 263 420T276 442L287 461L276 489Q268 520 254 567L223 668L193
768Q179 815 168 846L160 877L217 922L526 496Q522 471 520 461Q520 455 520 449T518 436L516 424L92 0L45 43Z" />
<glyph unicode="&#x2044;" glyph-name="fraction" horiz-adv-x="1183" d="M246 2Q232 -6 217 -8Q213 -8 202 -11T184 -16Q178 -16 167 -18T150 -23Q144 -23 139 -25T127 -29T119 -31L100 0L1085 1202L1096 1206Q1106 1210 1112 1212Q1116 1212 1128 1215T1147
1221L1180 1229Q1200 1233 1208 1235L1227 1206L246 2Z" />
<glyph unicode="&#x20ac;" glyph-name="Euro" horiz-adv-x="931" d="M592 436H313Q313 344 332 283Q352 215 377 182Q406 145 442 129Q481 113 516 113Q541 113 567 119Q596 125 627 139Q661 154 700 182Q735 205 795 256Q805 242 815 224T834 188Q773 125 713
78Q654 33 610 10Q573 -8 516 -20Q469 -30 430 -31Q359 -31 295 0Q225 33 182 88Q133 149 106 233Q79 315 80 436H0L-23 469Q-23 471 -20 476T-14 487Q-10 499 -4 512L8 537Q12 543 13 548T16 557H86Q86 559 87 564T88 571Q88 579 90 584L96 629Q98 635 100 649T104
672H61L39 705L45 723L57 748Q61 754 63 760T68 772L78 793H135Q174 912 225 987Q282 1073 350 1126Q420 1181 504 1208Q586 1235 686 1235Q776 1235 852 1206Q922 1179 967 1135Q969 1133 963 1118L946 1085L920 1042L891 999Q887 993 878 980T864 961L842 938L784
950Q753 1022 709 1065Q668 1104 598 1104Q567 1104 537 1092Q508 1080 475 1045T414 950Q385 895 360 793H694L721 762L680 672H336Q336 664 334 655T330 635Q328 629 328 617T326 598Q322 582 322 578L319 557H606L633 526L592 436Z" />
<glyph unicode="&#x2122;" glyph-name="trademark" horiz-adv-x="1204" d="M598 1249Q595 1240 592 1225L586 1194Q586 1188 582 1178T576 1161T567 1135H541Q539 1164 535 1188Q533 1208 516 1208H426L381 868Q381 864 391 858Q397 854 436 844L430 807H219L225
844Q266 854 272 858Q286 864 287 868L332 1208H240Q228 1208 217 1192Q203 1169 182 1133L156 1143Q164 1163 164 1169L172 1202Q176 1220 180 1237L188 1262H586L598 1249ZM1188 1225Q1165 1225 1141 1217L1096 864Q1096 860 1108 854Q1114 852 1147 844L1141
807H946L952 844L993 854Q1007 860 1008 864L1042 1139L842 807H805L696 1137L657 864Q657 860 666 854Q670 852 705 844L698 807H543L549 844Q586 852 588 854Q602 860 602 864L651 1212Q633 1220 629 1223Q621 1225 604 1225L608 1262H739Q748 1262 752 1255Q760
1241 762 1231L856 938L1034 1231Q1048 1256 1053 1257Q1061 1261 1065 1262H1192L1188 1225Z" />
<glyph unicode="&#x2202;" glyph-name="partialdiff" horiz-adv-x="940" d="M639 563Q633 618 614 662Q594 711 569 737Q538 770 512 784Q479 800 453 801Q410 801 377 776Q342 751 317 705Q286 648 272 596Q256 539 246 455Q234 375 242 309Q252 231 270 190Q293
137 322 113Q355 84 387 84Q438 84 477 115Q516 144 547 207T600 356Q625 458 639 555V559V563ZM879 698Q854 530 823 436Q786 323 741 244Q694 158 645 106Q593 51 541 20Q480 -15 442 -25Q385 -39 356 -39Q266 -39 197 -4Q131 29 86 92T27 240Q13 326 27 426Q35
487 57 553Q77 614 113 672Q150 731 188 776Q235 829 276 858Q335 899 377 913Q430 931 483 932Q503 932 534 922T588 897Q604 887 635 856Q662 829 674 807Q688 936 672 1030Q656 1116 625 1167Q592 1218 553 1237Q508 1257 481 1257Q448 1257 418 1251Q383 1245
356 1231Q315 1211 293 1194Q268 1176 219 1135L176 1176L334 1360Q395 1385 436 1395Q489 1409 526 1409Q573 1409 627 1397Q676 1385 725 1356Q770 1329 807 1276Q850 1215 868 1147Q893 1059 895 958Q899 837 879 698Z" />
<glyph unicode="&#x2206;" glyph-name="uni2206" horiz-adv-x="1136" d="M780 197L717 492L688 623L659 758L631 891L604 1014L543 881L477 743L414 606Q396 567 381 534T354 477L221 197L211 166Q207 156 215 150Q224 144 246 143H311H674H741Q766 143 774 150Q784
156 784 166Q784 172 780 197ZM1008 0H29L14 59L225 504L313 690L403 881L487 1059L555 1206Q604 1240 659 1267T770 1317Q782 1258 805 1149Q815 1104 824 1055T846 952L891 743L936 539L1040 59L1008 0Z" />
<glyph unicode="&#x220f;" glyph-name="product" horiz-adv-x="1214" d="M-14 0L-6 74Q53 88 90 104Q125 120 127 133L262 1124Q265 1136 238 1155Q211 1173 147 1188L158 1260H1280L1272 1188Q1204 1172 1174 1155Q1139 1137 1137 1124L999 133Q997 123 1026
104Q1049 90 1116 74L1108 0H635L643 74Q702 88 739 104Q772 118 774 133L905 1079Q905 1091 899 1104Q893 1118 874 1126Q851 1138 829 1143Q802 1149 766 1149H631Q604 1149 567 1141Q538 1135 522 1126Q504 1116 494 1104Q482 1088 481 1079L352 133Q350 123
377 104Q397 90 469 74L459 0H-14Z" />
<glyph unicode="&#x2211;" glyph-name="summation" horiz-adv-x="1046" d="M965 397Q961 364 946 301L924 186L903 78L889 0H41L12 51L463 612L190 1210L199 1260H907Q913 1260 929 1261T952 1262Q966 1262 999 1266Q1015 1268 1053 1276L1010 930L928 911Q922
977 911 1028Q903 1069 889 1094Q877 1117 865 1122T838 1128H469L674 674L293 199H727Q750 199 774 209Q794 217 813 242Q827 260 848 309L893 418L965 397Z" />
<glyph unicode="&#x221a;" glyph-name="radical" horiz-adv-x="1130" d="M1311 1409Q1309 1405 1306 1397T1300 1382L1284 1346L1268 1309Q1260 1291 1255 1282H1096L643 86Q631 66 602 43Q582 27 541 8Q488 -17 479 -18Q469 -22 455 -27T436 -33L203 784H88L63
819Q65 823 69 831T76 846L92 879L109 911Q113 919 117 925T123 938H369L571 233L1038 1442H1286L1311 1409Z" />
<glyph unicode="&#x221e;" glyph-name="infinity" horiz-adv-x="1241" d="M328 440Q342 440 367 444Q383 446 408 461Q453 486 459 492L524 545Q504 582 489 600Q456 643 446 651Q413 680 397 690Q374 704 344 705Q311 705 293 694Q271 682 256 664Q244 650 233
625Q225 605 221 584Q219 570 223 537Q225 519 242 489Q252 473 276 455Q297 440 328 440ZM946 715Q926 715 905 709Q887 703 860 690Q829 674 807 657L743 608Q758 580 780 553Q809 516 825 502Q850 480 874 465Q897 451 928 451Q961 451 979 461Q1001 473 1016
492Q1028 506 1038 530Q1048 553 1051 569Q1055 596 1049 618T1030 664Q1018 684 995 700Q975 715 946 715ZM438 872Q479 872 522 856Q557 842 592 815Q619 795 647 758Q651 752 692 694Q749 745 795 778Q841 812 881 833T954 864Q985 872 1024 872Q1073 872 1106
856Q1145 838 1167 805Q1194 770 1202 725Q1212 678 1202 618Q1193 557 1159 496Q1128 439 1073 387Q1028 346 961 311Q900 280 834 281Q793 281 750 297Q711 311 678 338Q649 361 618 395Q616 397 573 459Q522 414 465 371Q416 334 383 315Q348 295 315 289Q274
281 248 281Q203 281 166 299Q127 317 105 350T72 430Q62 483 70 537Q79 598 113 659Q146 718 199 766Q254 815 311 843T438 872Z" />
<glyph unicode="&#x222b;" glyph-name="integral'" horiz-adv-x="696" d="M1040 1397Q1034 1393 987 1354Q936 1311 920 1300Q910 1292 856 1257Q825 1237 815 1237Q801 1237 784 1257L750 1298Q719 1333 713 1339Q693 1357 666 1358Q625 1358 596 1317Q561 1268
547 1219Q529 1156 516 1087Q504 1016 498 952L483 821Q479 790 476 750T467 662Q461 619 457 575T449 487Q445 454 438 396T428 319L410 172Q408 152 403 117T395 68Q379 -22 354 -80Q325 -150 291 -205Q258 -256 205 -313Q158 -362 102 -410Q84 -424 43 -449Q18
-463 -20 -477Q-45 -485 -86 -494Q-119 -500 -152 -500Q-195 -500 -225 -489Q-262 -477 -295 -461Q-324 -447 -346 -428Q-364 -414 -365 -401Q-365 -385 -348 -360Q-336 -342 -307 -305Q-293 -287 -262 -256Q-239 -233 -229 -233T-199 -250Q-189 -258 -178 -266T-154
-283Q-129 -301 -100 -315Q-67 -331 -39 -332Q4 -332 31 -313Q59 -295 80 -252Q100 -213 119 -145Q129 -106 154 12Q164 59 174 139Q176 157 183 209T195 293Q199 322 204 378T211 461Q219 539 225 629Q227 658 232 709T240 778Q242 798 254 899Q270 1005 283 1055Q301
1129 332 1196Q361 1262 406 1321Q447 1374 514 1427Q567 1466 625 1493Q680 1520 743 1520Q798 1520 840 1503Q879 1487 926 1462Q975 1435 995 1421Q1017 1407 1040 1397Z" />
<glyph unicode="&#x2248;" glyph-name="approxequal" horiz-adv-x="884" d="M811 461Q783 421 750 387T682 332Q645 307 614 297Q581 285 549 285Q510 285 475 299Q450 309 406 334Q394 340 336 367Q299 383 264 383Q221 383 186 356Q143 323 102 281L51 358Q104
438 176 487Q246 534 307 535Q348 535 385 520Q430 504 461 487Q475 479 492 470T528 453Q557 439 590 438Q613 438 631 446Q660 458 674 469Q703 489 715 502Q740 527 752 541L811 461ZM852 764Q824 724 791 690Q754 653 725 635Q690 612 655 600Q622 588 590
588Q551 588 516 602Q491 612 446 637Q434 643 377 670Q346 684 307 684Q264 684 227 659Q188 632 143 586L94 662Q155 746 217 791Q285 840 348 840Q385 840 428 823Q463 809 502 791L569 758Q602 742 631 741Q656 741 674 750Q703 762 717 772Q733 784 758 805Q776
821 793 844L852 764Z" />
<glyph unicode="&#x2260;" glyph-name="notequal" horiz-adv-x="884" d="M799 455Q797 451 793 441T786 426Q782 416 770 395L754 362Q744 344 741 340H367L233 152Q219 142 205 137L162 123L119 111Q111 109 101 106T86 100L61 143L201 340H68L43 373Q45 377
48 385T53 397Q57 407 70 428L86 461Q88 465 93 473T100 485H303L414 639H109L84 672Q86 678 94 698Q98 706 102 713T111 729Q119 745 127 760Q129 764 134 772T141 784H514L645 971Q653 977 678 985Q682 987 696 992T719 999Q725 1001 738 1004T758 1010Q783 1018
793 1020L819 979L682 784H813L840 754Q838 750 834 741T827 727Q821 711 811 694Q803 678 795 664Q786 649 782 639H580L469 485H772L799 455Z" />
<glyph unicode="&#x2264;" glyph-name="lessequal" horiz-adv-x="884" d="M784 274Q782 270 778 261T772 248Q766 232 756 215L739 182Q729 164 727 160H53L29 193Q29 195 34 203T41 217L57 250Q65 266 74 281Q78 287 81 295T86 305H760L784 274ZM90 639Q96 653
102 668T115 700Q131 741 141 760L860 1032L885 999L836 870L332 680L791 487L807 444L756 399Q719 366 698 354L115 598L90 639Z" />
<glyph unicode="&#x2265;" glyph-name="greaterequal" horiz-adv-x="884" d="M770 274Q768 264 758 248L741 215L725 182Q717 168 713 160H39L14 193Q14 195 19 203T27 217L43 250Q51 266 59 281Q61 285 66 293T74 305H745L770 274ZM811 788L836 748Q832 738 824
715T813 686Q805 663 784 627L68 354L43 385Q43 387 47 397T53 414Q55 422 59 431T68 451Q70 457 75 470T82 489T88 504T92 514L596 707L135 899L121 942Q133 954 170 987T227 1032L811 788Z" />
<glyph unicode="&#x25ca;" glyph-name="lozenge" horiz-adv-x="665" d="M217 705L365 254L543 582L395 1032L217 705ZM45 627L371 1204Q383 1216 401 1227Q405 1229 420 1239T446 1253Q458 1261 469 1266T492 1278Q508 1288 524 1294L715 659L391 84Q379 72 360
61Q317 36 313 35Q301 29 290 23T268 10Q248 -2 238 -6L45 627Z" />
<glyph unicode="&#xfb01;" glyph-name="uniFB01" horiz-adv-x="1236" d="M1233 1262Q1233 1235 1221 1204Q1209 1171 1188 1149Q1165 1122 1133 1108Q1096 1092 1057 1092Q1004 1092 979 1116T954 1176Q954 1209 965 1233Q977 1262 999 1288Q1021 1313 1055 1331Q1086
1347 1130 1348Q1183 1348 1208 1324T1233 1262ZM1032 1397Q1010 1382 977 1354Q926 1311 909 1300L848 1257Q817 1237 807 1237Q791 1237 774 1257Q766 1267 758 1277T741 1298Q710 1333 705 1339Q685 1357 657 1358Q626 1358 606 1339Q588 1323 567 1290Q549
1261 537 1219Q523 1170 514 1133Q502 1072 498 1040Q490 977 487 952L481 905H831Q878 905 903 909Q915 911 940 914T977 920Q1011 926 1038 932Q1056 936 1077 936Q1102 936 1118 918Q1134 898 1135 852Q1135 842 1126 772Q1124 747 1110 657Q1106 628 1087 528Q1085
516 1076 469T1063 397Q1049 307 1047 283Q1039 213 1038 203Q1038 172 1044 158T1069 143Q1089 143 1098 145Q1102 147 1111 149T1124 152Q1132 154 1153 162Q1155 164 1168 168T1190 176L1208 111Q1161 82 1112 55Q1059 24 1018 6Q961 -21 934 -29Q894 -41 866
-41Q833 -41 809 -10Q786 19 786 76Q786 107 793 160Q799 212 811 276Q825 364 834 412Q850 504 856 543Q868 600 874 655Q882 721 883 729Q883 733 882 738T881 745Q871 765 836 776Q805 784 731 784H469L399 193Q387 80 344 -20Q305 -114 238 -211Q177 -299 104
-369Q30 -440 -43 -485L-86 -399Q-29 -368 6 -315Q45 -260 76 -184Q103 -118 127 -27Q145 43 156 139L229 784H90L68 823L199 905H244Q252 977 272 1059Q290 1135 322 1198Q357 1272 397 1323Q446 1384 506 1427Q559 1466 616 1493Q671 1520 735 1520Q788 1520
829 1503Q868 1487 915 1462Q964 1435 985 1421Q1003 1407 1032 1397Z" />
<glyph unicode="&#xfb02;" glyph-name="uniFB02" horiz-adv-x="1218" d="M1190 111Q1143 82 1090 51Q1067 39 993 4Q958 -12 905 -29Q864 -41 834 -41T782 -10Q762 19 762 78Q762 123 768 166Q770 186 777 236T788 317Q798 387 817 508L850 717Q856 764 865 815T883
922L907 1100Q916 1165 913 1204Q911 1241 891 1278Q866 1323 817 1347T715 1372Q676 1372 639 1352Q606 1334 582 1300Q559 1267 543 1225Q523 1168 516 1137Q504 1080 500 1042Q498 1024 494 1001T487 952L481 905H778L799 877Q797 873 770 842L733 801L694 762Q680
748 668 739Q662 753 645 762Q631 770 602 776Q596 778 545 782Q522 784 473 784H469L399 193Q387 80 344 -20Q305 -114 238 -211Q177 -299 104 -369Q30 -440 -43 -485L-86 -399Q-29 -368 6 -315Q45 -260 76 -184Q103 -118 127 -27Q145 43 156 139L229 784H88L70
823L199 905H244Q252 977 272 1059Q290 1131 322 1196Q355 1266 397 1317Q448 1378 506 1419Q555 1456 639 1489Q719 1520 823 1520Q895 1520 963 1497Q1020 1479 1073 1436Q1104 1411 1122 1386Q1134 1370 1151 1337Q1155 1327 1159 1309Q1161 1297 1161 1266Q1161
1233 1159 1214L1153 1159Q1141 1042 1130 985Q1124 942 1116 895T1100 799Q1092 748 1084 702T1069 614L1042 444Q1030 364 1024 303Q1016 221 1016 203Q1016 170 1026 156Q1035 144 1051 143Q1078 143 1102 152Q1168 172 1174 176L1190 111Z" />
</font>
</defs>
</svg>
