<?xml version="1.0" standalone="no"?> <!DOCTYPE svg PUBLIC "-//W3C//DTD SVG 1.0//EN" "http://www.w3.org/TR/2001/REC-SVG-20010904/DTD/svg10.dtd" > <svg xmlns="http://www.w3.org/2000/svg" width="100%" height="100%">
<defs >
<font id="GentiumBasic-Italic" horiz-adv-x="874" ><font-face
    font-family="Gentium Basic"
    units-per-em="2048"
    panose-1="2 0 6 6 8 0 0 2 0 4"
    ascent="1729"
    descent="-537"
    alphabetic="0" />
<missing-glyph horiz-adv-x="1024" d="M102 0V1092H922V0H102ZM205 102H819V989H205V102Z" />
<glyph unicode=" " glyph-name="space" horiz-adv-x="409" />
<glyph unicode="!" glyph-name="exclam" horiz-adv-x="409" d="M283 152Q283 125 272 88Q266 65 242 29Q226 6 197 -14Q172 -30 135 -31Q94 -31 74 -4Q51 25 51 68Q51 99 63 129Q79 170 94 186Q119 215 141 229Q166 245 201 246Q238 246 260 220T283 152ZM250
389Q236 379 215 367Q207 363 176 350L152 371L238 1341L272 1366Q280 1372 295 1380T317 1393Q342 1409 365 1419Q381 1427 410 1436L446 1411L250 389Z" />
<glyph unicode="&quot;" glyph-name="quotedbl" horiz-adv-x="790" d="M305 874Q287 864 270 862Q245 858 231 858L264 1382Q270 1384 277 1387T293 1395Q297 1397 308 1402T326 1409L358 1421L383 1430L420 1409L305 874ZM631 874Q615 864 598 862Q573 858 557
858L590 1382Q596 1384 603 1387T618 1395Q622 1397 633 1402T651 1409L684 1421L709 1430L745 1409L631 874Z" />
<glyph unicode="#" glyph-name="numbersign" horiz-adv-x="821" d="M354 590H530L625 846H449L354 590ZM770 961H911L930 936Q912 893 909 889L889 846H727L633 590H778L797 563L778 518L758 475H590L477 170Q461 156 436 145L387 127L367 147L487 475H311L199
170Q183 156 158 145L109 127L86 147L209 475H74L55 500Q57 504 63 519T74 545L96 590H250L344 846H207L188 870Q190 874 196 890T207 918Q221 947 229 961H387L496 1251Q518 1266 539 1276Q545 1278 561 1284T584 1292L606 1270L492 961H668L774 1251Q792 1263
819 1276Q827 1278 841 1284T862 1292L885 1270L770 961Z" />
<glyph unicode="$" glyph-name="dollar" horiz-adv-x="821" d="M250 950Q250 934 256 911Q262 886 279 868Q306 837 326 821Q357 796 403 770L455 1133Q406 1129 371 1113T305 1067Q280 1047 264 1012Q250 983 250 950ZM614 342Q614 377 606 401Q596 432 578 457Q555
488 528 508Q493 537 453 559L387 94Q432 102 477 127Q518 150 549 182Q576 211 596 256Q614 296 614 342ZM793 1145Q797 1145 796 1137T788 1120Q765 1085 760 1079Q756 1073 744 1058T725 1036Q709 1020 696 1012L668 1016Q645 1047 608 1077T532 1122L477 731Q561
684 596 662Q647 627 678 590Q713 549 725 512Q739 471 739 418Q739 346 711 272Q684 204 633 143Q588 90 514 43Q451 2 373 -16L354 -137Q344 -147 340 -150Q338 -152 334 -154T328 -158T321 -162T313 -164Q301 -168 295 -168L274 -147L291 -31H276H262Q227 -31
178 -18Q141 -8 86 14Q47 30 14 57Q-17 82 -16 109Q-16 119 -4 141Q19 180 23 186Q41 211 57 225Q77 241 87 241T115 219Q117 215 158 170Q176 150 219 121Q256 96 307 90L379 598L354 610Q301 635 250 676Q203 713 180 743Q155 776 143 815Q133 846 133 885Q133
940 158 995Q183 1052 225 1098Q266 1141 332 1178Q395 1213 469 1225L483 1337Q489 1341 495 1344T504 1350Q508 1352 509 1353Q510 1355 512 1356Q514 1358 517 1358Q520 1360 522 1360Q526 1362 543 1366L563 1343L549 1231Q615 1231 684 1204Q742 1182 793
1145Z" />
<glyph unicode="%" glyph-name="percent" horiz-adv-x="1314" d="M1075 387Q1075 479 1045 522T971 565Q938 565 918 547T877 496Q861 469 848 428Q836 385 829 350Q821 293 819 276Q817 251 817 215Q817 131 846 90Q873 51 922 51Q955 51 975 70Q993 84 1014
117Q1028 137 1042 182Q1054 219 1061 256Q1069 305 1071 328Q1075 373 1075 387ZM1212 377Q1212 311 1188 240Q1161 162 1122 106Q1083 53 1020 8Q963 -31 887 -31Q836 -31 801 -10Q764 10 737 47Q712 80 696 133Q682 178 682 242Q682 281 692 332Q701 378 722
424T772 510Q799 549 835 579T915 628T1006 647Q1055 647 1094 627T1157 569Q1184 530 1198 483Q1212 438 1212 377ZM256 16Q240 6 229 2Q223 0 211 -5T193 -12Q173 -18 154 -25L123 -35L104 0L1067 1188Q1090 1202 1130 1217Q1142 1221 1165 1228T1196 1237L1221
1204L256 16ZM506 975Q506 1067 475 1110T399 1153Q364 1153 344 1135Q326 1119 305 1085Q291 1060 276 1016Q264 975 258 938Q254 909 250 864Q246 815 246 803Q246 720 276 680Q307 639 352 639Q381 639 403 657T444 705Q458 725 473 770Q485 807 492 844Q500
893 502 915Q506 961 506 975ZM641 965Q641 926 631 874Q622 828 601 782T551 696Q520 651 487 625Q450 594 408 576T315 557Q264 557 229 578Q192 598 166 635Q143 666 125 723Q111 768 111 829Q111 868 121 920Q130 966 151 1012T201 1098Q230 1139 266 1169Q301
1198 344 1216T436 1235Q483 1235 522 1214Q565 1191 587 1157T627 1071Q641 1026 641 965Z" />
<glyph unicode="&amp;" glyph-name="ampersand" horiz-adv-x="1189" d="M516 1130Q508 1077 514 1010Q520 945 539 881Q590 912 649 958Q698 997 723 1028Q751 1062 766 1096Q778 1125 786 1161Q792 1202 791 1231Q787 1266 776 1288Q764 1315 739 1329Q716 1343
678 1343Q643 1343 614 1325Q586 1307 565 1276Q545 1245 532 1208Q524 1179 516 1130ZM446 84Q526 84 594 109Q664 134 721 176Q686 223 641 291Q608 342 565 420Q540 465 496 559Q473 606 440 705Q385 662 346 623Q301 578 279 545Q251 505 236 465Q222 428 215
383Q207 313 221 258Q235 205 270 164Q301 127 350 104Q393 84 446 84ZM1274 748Q1258 728 1223 696L1174 659Q1154 671 1139 676Q1131 678 1119 682T1100 688Q1084 692 1059 696Q1030 700 1024 700Q1032 673 1034 666Q1038 641 1038 627V582Q1036 559 1032 522Q1024
456 985 377Q944 293 891 227L938 174Q967 141 981 127Q1016 92 1051 84Q1094 74 1143 88L1145 45Q1030 -4 1006 -12Q951 -30 930 -31Q912 -31 868 6Q843 29 772 111Q700 52 602 8Q512 -31 403 -31Q317 -31 252 -4Q184 23 139 72Q92 123 74 195Q56 269 68 362Q74
415 102 477Q127 530 174 590Q219 647 279 698Q365 772 412 803Q396 862 389 940Q383 1003 393 1073Q407 1165 436 1223Q471 1295 518 1343Q565 1394 623 1421Q684 1450 741 1450Q800 1450 836 1430Q873 1410 893 1372Q913 1337 920 1290Q926 1251 918 1194Q902
1090 826 1002T633 838L563 795Q581 738 618 662Q659 576 684 532Q733 446 760 408Q817 324 838 297Q873 348 891 389Q903 416 918 481Q924 530 918 569Q912 610 893 641T852 688T801 705L784 733Q802 751 817 762Q835 774 858 784H1257L1274 748Z" />
<glyph unicode="&apos;" glyph-name="quotesingle" horiz-adv-x="409" d="M305 874Q287 864 270 862Q245 858 231 858L264 1382Q270 1384 277 1387T293 1395Q299 1397 309 1402T323 1409T340 1415T356 1421Q366 1425 383 1430L420 1409L305 874Z" />
<glyph unicode="(" glyph-name="parenleft" horiz-adv-x="602" d="M705 1559Q629 1504 571 1427Q497 1327 449 1229Q394 1116 350 973Q305 826 285 672Q267 545 266 385Q266 250 289 121Q312 -4 350 -104Q390 -205 449 -270L412 -315Q322 -268 254 -170Q188 -74
152 53Q115 178 109 332Q103 475 125 641Q145 788 199 958Q246 1101 322 1237Q398 1368 485 1460Q575 1554 682 1604L705 1559Z" />
<glyph unicode=")" glyph-name="parenright" horiz-adv-x="602" d="M500 627Q480 465 426 313Q371 153 303 41Q225 -88 139 -174Q47 -266 -57 -315L-82 -270Q-6 -215 51 -141Q125 -45 174 51Q235 174 274 299Q319 442 340 598Q358 721 358 887Q358 1024 336 1159Q316
1284 274 1391Q235 1493 176 1559L213 1604Q303 1557 371 1454Q434 1358 471 1225T514 940Q520 781 500 627Z" />
<glyph unicode="*" glyph-name="asterisk" horiz-adv-x="724" d="M416 1188L686 1384L707 1368Q717 1360 729 1352Q737 1346 750 1333Q760 1323 764 1317L760 1276L436 1135L698 1006Q692 983 686 946Q680 907 672 891L635 868L401 1081L391 756Q387 754 381 751T367
743Q361 741 353 736T338 729Q328 725 311 717L287 709L256 727L342 1079L72 883L29 915Q13 927 -6 950L0 993L322 1133L59 1262Q61 1266 62 1276T63 1290L70 1321Q74 1337 78 1352Q82 1370 86 1376L123 1399L356 1188L367 1513L391 1526Q397 1528 403 1532T418
1540Q438 1548 446 1552T471 1561L504 1540L416 1188Z" />
<glyph unicode="+" glyph-name="plus" horiz-adv-x="768" d="M721 596Q715 578 713 573L702 549L690 524Q686 518 685 514T682 506H449L412 236Q406 232 389 227Q385 225 377 221T365 217T351 215T338 211Q322 207 315 205L295 227L334 506H94L76 528Q78 536 83
548T94 575L117 621H350L389 891Q395 893 436 905L485 920L506 897L467 621H702L721 596Z" />
<glyph unicode="," glyph-name="comma" horiz-adv-x="409" d="M303 102Q303 77 291 43Q271 -12 260 -31Q223 -92 213 -109Q195 -136 154 -184Q125 -217 86 -254Q61 -277 16 -305L-18 -270Q136 -107 135 0Q135 16 129 34T111 66Q101 76 78 82Q60 88 27 84L18 129Q28
139 59 158Q86 174 123 190Q168 210 190 219Q219 229 238 229Q248 225 268 209Q276 203 289 186Q295 178 299 154Q303 125 303 102Z" />
<glyph unicode="-" glyph-name="hyphen" horiz-adv-x="638" d="M580 541Q568 512 559 496L539 455H61L43 479Q55 508 63 522Q67 528 74 542T86 565H561L580 541Z" />
<glyph unicode="." glyph-name="period" horiz-adv-x="409" d="M283 152Q283 125 272 88Q266 65 242 29Q226 6 197 -14Q172 -30 135 -31Q94 -31 74 -4Q51 25 51 68Q51 99 63 129Q79 170 94 186Q119 215 141 229Q166 245 201 246Q238 246 260 220T283 152Z" />
<glyph unicode="/" glyph-name="slash" horiz-adv-x="817" d="M43 -285Q29 -295 16 -299Q12 -301 1 -306T-16 -313L-53 -326Q-63 -330 -69 -332T-82 -336L-111 -311L793 1550Q811 1562 852 1579L913 1599L944 1577L43 -285Z" />
<glyph unicode="0" glyph-name="zero" horiz-adv-x="821" d="M649 786Q649 858 635 930Q623 991 598 1034Q573 1075 543 1098Q510 1121 477 1120Q422 1120 379 1084T305 985Q276 928 254 850Q234 782 221 700Q213 655 205 555Q199 487 199 440Q199 264 246 174Q291
86 373 86Q432 86 473 125Q516 166 547 225Q582 293 598 365Q616 439 629 520Q643 606 645 668Q649 761 649 786ZM803 784Q803 723 797 655Q789 573 776 514Q762 446 735 371Q715 310 672 236Q633 173 602 131Q573 92 520 47Q479 12 428 -10Q381 -30 319 -31Q251
-31 198 4T113 98Q78 159 63 242Q47 330 47 422Q47 479 53 547Q59 621 74 684Q90 758 113 823Q138 895 172 961Q201 1016 240 1067Q277 1116 322 1155T418 1214Q467 1234 528 1235Q596 1235 649 1200Q704 1165 735 1108Q772 1040 786 965Q803 876 803 784Z" />
<glyph unicode="1" glyph-name="one" horiz-adv-x="821" d="M666 0H63L70 53Q152 63 190 74Q247 88 268 96Q299 108 311 120T326 143L434 940Q440 980 440 1001Q440 1024 432 1038Q424 1046 412 1049Q402 1051 369 1051Q342 1051 299 1044Q246 1036 195 1024L182
1075Q229 1089 276 1108Q350 1137 387 1153Q426 1169 494 1202Q551 1229 578 1245L606 1210L461 143Q457 133 467 121Q475 111 500 98Q527 84 565 74T674 53L666 0Z" />
<glyph unicode="2" glyph-name="two" horiz-adv-x="821" d="M784 1063T784 1006T756 868Q729 794 657 688Q575 567 469 444Q350 307 164 115H539Q557 115 567 123Q575 129 590 143Q594 147 610 174Q622 194 629 207Q643 238 657 299L700 287L649 0H14L0 74Q197
271 305 395Q432 540 502 643Q578 754 608 834Q641 920 641 977Q641 1051 596 1096T467 1141Q430 1141 399 1122Q366 1102 346 1073Q324 1042 309 1006Q295 969 291 934L262 918Q254 912 233 903Q231 901 221 897T205 891Q190 888 168 885L147 915Q153 968 190
1024Q231 1085 281 1126Q338 1175 403 1204Q471 1235 541 1235Q586 1235 635 1221Q678 1209 713 1180Q746 1153 764 1110Q784 1063 784 1006Z" />
<glyph unicode="3" glyph-name="three" horiz-adv-x="821" d="M733 1001Q733 946 715 901Q695 850 668 815Q643 782 594 748Q559 723 504 698Q551 692 588 668Q623 645 651 606Q680 569 694 524Q708 481 709 428Q709 333 678 250Q645 164 590 104Q531 43 453 6Q373
-31 270 -31Q194 -31 131 4Q55 45 -12 119L27 186Q66 149 96 129Q133 104 154 94Q170 86 211 78Q238 72 274 72Q348 72 399 98T487 172Q524 218 543 276Q561 335 561 401Q561 458 543 502Q527 541 498 569Q467 598 434 610Q397 622 362 623H344H334L330 622Q326
621 324 621L303 616L297 676Q369 699 408 717Q467 746 502 774Q539 805 565 858Q590 907 590 973Q590 1008 582 1034Q574 1063 555 1087Q539 1110 508 1126Q481 1140 440 1141Q405 1141 377 1128Q354 1118 328 1092Q308 1072 297 1038Q287 1003 287 973Q256 957
223 946Q192 937 156 934L135 965Q141 1010 174 1055Q211 1104 258 1143Q299 1176 371 1208Q430 1235 496 1235Q553 1235 600 1217T676 1163T719 1087T733 1001Z" />
<glyph unicode="4" glyph-name="four" horiz-adv-x="821" d="M162 455H500L580 1040L162 455ZM756 426Q752 422 745 413T733 399T722 389T713 381Q697 369 694 367Q682 359 674 350H610L578 104Q576 98 580 90Q584 84 598 76Q618 66 635 59Q647 55 694 43L688
0H248L254 43Q344 61 350 63Q395 73 412 82Q437 92 442 98Q450 106 453 115L483 350H39L12 383L565 1174Q594 1186 639 1210L700 1245L727 1210L625 457H733L756 426Z" />
<glyph unicode="5" glyph-name="five" horiz-adv-x="821" d="M799 1194L772 1161Q762 1149 741 1128Q723 1110 713 1102Q709 1098 700 1091T686 1079H338Q330 1040 319 1004Q313 979 308 957T297 909Q291 882 283 859T270 819L252 754Q289 766 338 772Q404 780
434 780Q502 780 557 756Q608 733 647 688Q688 639 705 592Q723 537 723 478T711 356Q701 303 672 240Q641 172 612 133Q573 82 530 47T426 -10Q371 -30 303 -31Q215 -31 143 4Q63 43 -4 119L37 186Q100 139 119 129Q162 104 186 94Q227 78 244 76Q277 72 295 72Q371
72 424 106Q476 140 510 193Q545 246 559 311Q575 383 575 444Q575 493 561 535Q545 578 520 606Q493 635 455 653Q420 669 365 670Q264 670 156 590L119 623Q129 660 143 707Q149 727 152 739T160 769T170 807Q176 832 184 859T201 915L229 1022Q237 1051 242
1076T254 1122Q264 1163 272 1204H666Q697 1204 711 1206T745 1212Q761 1214 776 1223L799 1194Z" />
<glyph unicode="6" glyph-name="six" horiz-adv-x="821" d="M451 659Q394 659 340 633Q291 608 227 539Q219 480 217 457Q215 430 215 373Q215 226 268 150Q319 76 412 76Q451 76 483 92T539 137Q566 172 578 201Q593 238 602 274Q614 323 616 352Q620 405 621
422Q621 496 606 539Q592 584 565 612Q540 641 512 649Q478 659 451 659ZM799 1190Q701 1170 602 1116Q518 1069 446 995Q380 925 330 838Q283 756 254 655Q324 721 387 745Q452 770 504 770Q633 770 696 694Q762 616 762 483Q762 426 750 369Q738 316 713 254Q693
207 653 145Q624 100 573 53Q530 13 475 -8Q418 -31 360 -31Q294 -31 242 -2Q190 26 150 78Q113 125 90 201Q67 275 68 360Q68 462 90 571Q110 671 156 768Q199 858 262 942Q321 1020 406 1087Q478 1144 584 1192Q680 1233 791 1249L799 1190Z" />
<glyph unicode="7" glyph-name="seven" horiz-adv-x="821" d="M866 1167L754 948L641 731L535 524Q515 485 442 334L362 170Q313 61 305 43Q242 -6 150 -31L117 2L297 295L451 567L588 825L721 1079H311Q307 1079 298 1078T285 1077Q275 1077 256 1063Q244 1053
219 1018Q196 985 170 930L133 948L150 1006Q156 1024 160 1042T168 1077L188 1149Q197 1183 207 1204H842L866 1167Z" />
<glyph unicode="8" glyph-name="eight" horiz-adv-x="821" d="M287 940Q287 897 303 870Q319 841 350 815Q379 788 416 768Q436 756 455 745T492 725Q523 743 553 772Q571 788 600 829Q616 854 631 895Q643 932 643 975Q643 1055 596 1098T471 1141Q428 1141 397
1124Q364 1106 340 1079Q317 1054 301 1014Q287 979 287 940ZM592 342Q592 401 575 436Q557 475 528 508Q501 537 463 563Q422 590 385 610Q340 579 299 545Q268 518 233 469Q208 434 193 383Q179 340 178 274Q178 231 190 195Q202 160 229 129Q254 102 289 86Q326
70 369 70Q424 70 467 94T537 158Q562 193 578 246Q592 291 592 342ZM778 1001Q778 946 760 899Q744 856 709 815Q676 774 637 745Q584 704 555 686Q588 668 625 637T684 575Q709 542 725 496Q741 451 741 397Q741 315 707 236Q672 160 612 98Q553 39 473 4T311
-31Q245 -31 190 -9T102 53Q71 90 51 143Q33 192 33 250Q33 320 57 379Q82 436 123 487Q158 530 217 575T324 647Q318 651 305 660T281 677T262 690Q237 708 213 741Q186 774 176 807Q164 844 164 889Q164 963 194 1026T276 1135Q328 1181 393 1208Q454 1235 530
1235Q589 1235 637 1217Q688 1197 715 1169Q748 1136 762 1096Q778 1050 778 1001Z" />
<glyph unicode="9" glyph-name="nine" horiz-adv-x="821" d="M420 555Q492 555 549 594Q600 629 645 692Q647 715 651 764Q653 789 653 836Q653 922 639 973Q623 1030 598 1065Q571 1100 545 1114Q512 1130 483 1130Q438 1130 401 1114Q370 1100 340 1069Q313
1042 295 1006Q281 977 266 930Q258 905 250 848Q244 807 244 770Q244 707 262 664Q278 625 305 598Q330 573 362 563Q389 555 420 555ZM803 862Q803 684 756 537Q709 387 614 262Q522 139 387 59Q250 -23 76 -43L68 16Q195 47 279 94Q371 147 440 219Q508 289
555 381Q600 467 625 573Q576 520 506 479Q445 444 367 444Q306 444 258 465Q213 485 176 524T123 612Q105 663 104 725Q104 784 119 842Q134 903 162 958Q195 1026 227 1065Q276 1124 313 1153Q364 1192 418 1212Q475 1235 535 1235Q588 1235 639 1212Q684 1192
723 1145Q762 1096 782 1028T803 862Z" />
<glyph unicode=":" glyph-name="colon" horiz-adv-x="409" d="M383 866Q383 839 373 805Q365 774 342 745Q324 718 297 702Q272 686 236 686Q195 686 174 713Q151 742 152 784Q152 813 164 844Q180 885 195 901Q220 930 242 944Q267 960 301 961Q340 961 360 936Q383
909 383 866ZM283 152Q283 125 272 88Q266 65 242 29Q226 6 197 -14Q172 -30 135 -31Q94 -31 74 -4Q51 25 51 68Q51 99 63 129Q79 170 94 186Q119 215 141 229Q166 245 201 246Q238 246 260 220T283 152Z" />
<glyph unicode=";" glyph-name="semicolon" horiz-adv-x="409" d="M383 866Q383 839 373 805Q365 774 342 745Q324 718 297 702Q272 686 236 686Q195 686 174 713Q151 742 152 784Q152 813 164 844Q180 885 195 901Q220 930 242 944Q267 960 301 961Q340 961 360
936Q383 909 383 866ZM303 102Q303 77 291 43Q271 -12 260 -31Q223 -92 213 -109Q195 -136 154 -184Q125 -217 86 -254Q61 -277 16 -305L-18 -270Q136 -107 135 0Q135 16 129 34T111 66Q101 76 78 82Q60 88 27 84L18 129Q28 139 59 158Q86 174 123 190Q168 210
190 219Q219 229 238 229Q248 225 268 209Q276 203 289 186Q295 178 299 154Q303 125 303 102Z" />
<glyph unicode="&lt;" glyph-name="less" horiz-adv-x="839" d="M805 874Q805 872 803 867T799 858T797 850Q795 844 792 838T786 823T781 809T776 795Q774 791 768 772L227 563L713 354L723 317Q717 311 712 307T702 299L684 287Q680 285 674 280T666 272T660
267T650 261T641 256L72 504L49 530Q57 557 68 582Q82 617 88 625L786 899L805 874Z" />
<glyph unicode="=" glyph-name="equal" horiz-adv-x="839" d="M805 745Q799 727 797 723L786 698Q784 694 781 686T776 674Q772 668 770 664T766 655H109L90 680L109 725L131 770H786L805 745ZM766 446Q760 428 758 424L748 397Q746 393 742 386T735 375L725 354H70L49
379Q53 389 59 400T70 424Q74 430 80 445T90 469H748L766 446Z" />
<glyph unicode="&gt;" glyph-name="greater" horiz-adv-x="839" d="M784 625L768 575Q758 546 748 530L49 256L31 281Q31 283 33 288T37 297T39 305Q41 311 43 317T47 332T52 346T57 360Q59 372 68 383L606 592L123 801L113 838Q119 844 123 848T131 854L150 868Q152
870 158 875T168 883Q174 887 195 899L764 651L784 625Z" />
<glyph unicode="?" glyph-name="question" horiz-adv-x="811" d="M442 152Q442 125 432 88Q426 65 401 29Q387 9 354 -14Q329 -30 293 -31Q252 -31 231 -4Q208 25 209 68Q209 99 221 129Q237 170 252 186Q277 215 299 229Q324 245 358 246Q397 246 419 220T442
152ZM809 1186Q809 1097 784 1032Q759 969 719 911Q682 860 633 811Q588 766 545 717Q506 672 469 612Q440 565 426 485L414 389Q394 371 381 365Q377 363 340 348L317 369L322 485Q322 548 348 608Q371 661 410 715Q453 776 487 813Q516 844 565 909Q596 950 625
1012Q650 1065 649 1128Q649 1229 606 1282T475 1335Q432 1335 401 1317Q368 1297 350 1264Q332 1229 326 1190Q320 1143 328 1098Q291 1082 289 1081Q264 1073 254 1071Q250 1071 239 1068T221 1063T202 1060T182 1059L162 1090Q162 1151 190 1214Q217 1271 270
1323Q325 1374 395 1401Q471 1430 561 1430Q626 1430 672 1411Q717 1393 748 1360Q781 1325 795 1282Q809 1241 809 1186Z" />
<glyph unicode="@" glyph-name="at" horiz-adv-x="1591" d="M1161 842L1159 840Q1151 820 1147 807Q1145 801 1144 794T1141 776T1137 760Q1125 707 1110 612Q1090 485 1088 469T1079 413T1071 352Q1067 317 1067 279Q1067 211 1071 186Q1077 147 1085 129Q1093
109 1106 102Q1122 94 1128 94Q1153 94 1192 127Q1233 162 1268 217Q1313 289 1337 350Q1372 436 1382 510Q1400 621 1390 719T1354 893T1280 1030Q1235 1089 1176 1130Q1113 1173 1049 1193T907 1214Q817 1214 731 1186T578 1110Q507 1061 449 993Q386 919 346
848Q303 768 272 682Q241 598 229 504Q204 320 238 180Q271 43 352 -57Q432 -155 545 -205Q664 -256 795 -256Q871 -256 944 -238Q1038 -215 1083 -195Q1155 -164 1200 -137Q1255 -104 1284 -82L1300 -137Q1265 -172 1204 -217Q1141 -264 1073 -295Q987 -334 915
-352Q825 -375 731 -375Q567 -375 432 -316T213 -147Q125 -34 90 117Q53 271 82 465Q96 571 139 686Q182 803 239 891T381 1067Q461 1150 553 1208Q647 1267 747 1300T961 1333Q1092 1333 1204 1280Q1321 1225 1391 1128Q1469 1022 1497 883Q1528 733 1501 549Q1489
465 1460 385Q1431 303 1393 242Q1358 185 1305 125Q1258 72 1208 35Q1161 -2 1112 -20Q1061 -40 1026 -41Q1010 -41 991 -29Q975 -19 958 18Q946 45 936 112T926 270Q916 252 868 172Q835 119 797 70Q756 19 719 -10Q680 -41 637 -41Q602 -41 565 -23Q524 -3 496
38T444 145Q424 206 424 305Q424 377 440 459Q456 545 487 604Q520 667 571 733Q616 788 692 842Q702 848 723 860T752 877Q781 895 817 907Q833 913 887 928Q918 936 952 936Q992 936 1026 918Q1071 893 1092 879L1141 909Q1149 913 1192 936L1212 901Q1198 891
1180 872Q1170 862 1159 842H1161ZM942 428Q944 448 946 460T951 489T958 524Q960 538 965 571T975 621Q983 666 989 705Q991 715 994 735T999 764L969 788Q959 796 934 809Q911 819 893 825Q871 831 850 831Q807 831 766 809T694 750Q661 711 637 664Q610 615
596 567Q576 504 569 467Q561 424 561 379Q561 305 571 262Q583 209 602 172Q618 141 645 117Q668 97 700 96Q725 96 756 127Q791 162 817 205Q870 289 883 311Q905 350 942 428Z" />
<glyph unicode="A" glyph-name="A" horiz-adv-x="1146" d="M371 444L227 111Q211 78 244 66Q279 52 350 43L344 0H-35L-29 43Q32 55 72 68Q109 80 123 111L610 1229Q622 1241 641 1253L678 1278Q696 1290 715 1300Q721 1304 731 1309T745 1317L961 111Q965 93
969 86Q977 74 985 68Q995 60 1018 53Q1045 45 1071 43L1067 0H682L686 43Q760 49 788 63Q819 79 813 111L756 444H371ZM739 535L645 1079L410 535H739Z" />
<glyph unicode="B" glyph-name="B" horiz-adv-x="1013" d="M551 1206H494Q484 1206 468 1205T442 1204L379 725H410Q492 725 545 735Q611 747 662 776Q711 804 741 856Q772 909 772 987Q772 1044 750 1089T696 1157Q661 1184 625 1194Q585 1206 551 1206ZM518
649Q485 649 436 645Q411 643 367 635L293 104Q291 96 303 86Q321 76 346 70Q373 62 393 59Q426 55 442 55Q450 55 465 54T487 53Q555 53 606 80Q663 111 698 154Q739 205 758 256Q778 311 778 375Q778 428 764 473Q748 522 719 561Q690 598 637 625Q588 649 518
649ZM934 410Q934 312 897 231Q862 153 793 92Q734 39 641 2Q557 -31 461 -31H414Q396 -31 354 -27Q340 -27 323 -25T289 -20Q279 -20 256 -19T223 -16Q182 -12 66 0H0L6 43Q67 57 106 73T147 104L297 1194Q279 1192 248 1186T213 1180Q170 1172 141 1165V1227L236
1251Q273 1261 336 1272Q350 1274 449 1284Q510 1290 578 1290Q666 1290 723 1274Q791 1256 834 1223Q881 1188 903 1145Q928 1099 928 1040Q928 991 911 938Q897 891 866 848Q841 815 795 774Q756 741 707 723Q752 713 799 682Q838 657 870 614T918 522Q934 467
934 410Z" />
<glyph unicode="C" glyph-name="C" horiz-adv-x="993" d="M1016 1190Q1020 1182 1010 1167Q1000 1151 981 1130L944 1087Q936 1079 925 1069T911 1057L881 1065Q846 1106 782 1139Q724 1170 641 1169Q600 1169 551 1151Q506 1135 461 1100Q398 1053 354 977Q303
889 281 821Q250 731 240 659Q228 579 227 516Q227 401 256 328Q287 248 332 197Q375 148 434 121Q489 96 543 96Q602 96 678 131Q760 170 868 256Q874 254 877 248Q879 246 881 242T885 233Q885 231 889 227T893 221T894 216T897 211Q827 143 770 96Q713 51 655
23Q602 -4 553 -16Q512 -26 457 -27Q379 -27 313 6Q241 41 193 100Q136 168 106 252Q75 340 76 459Q76 553 94 651T152 840Q195 938 252 1016Q313 1100 397 1167Q467 1222 555 1257Q639 1290 733 1290T901 1262Q971 1233 1016 1190Z" />
<glyph unicode="D" glyph-name="D" horiz-adv-x="1116" d="M1077 745Q1077 647 1061 567Q1041 473 1010 395Q979 319 926 240Q879 168 809 115Q737 60 659 31Q577 0 481 0H0L6 43Q67 57 106 73T147 104L297 1194L143 1176V1239Q249 1266 371 1278Q484 1290 586
1290Q705 1290 795 1251Q883 1214 948 1141Q1009 1073 1044 969Q1077 870 1077 745ZM504 1206H473Q467 1206 459 1205T444 1204L299 139Q297 125 303 115Q313 101 326 96Q349 88 375 86Q395 84 455 84Q529 84 592 113Q653 142 705 188Q756 237 795 299Q832 360
862 436Q887 502 901 582Q915 668 915 727Q915 836 889 922T809 1073Q757 1138 680 1171Q600 1206 504 1206Z" />
<glyph unicode="E" glyph-name="E" horiz-adv-x="944" d="M856 244Q827 129 815 92Q809 76 803 55T793 21T784 0H0L6 43Q67 57 106 73T147 104L293 1155Q295 1167 264 1186Q241 1198 168 1217L174 1260H911L936 1235Q932 1219 924 1178Q920 1158 907 1116Q903
1104 896 1084T887 1057Q877 1026 868 1010H825Q829 1041 829 1087Q829 1110 821 1135Q815 1155 803 1161Q787 1169 772 1169H436L379 735H752L772 707Q770 705 750 678Q746 672 737 664T723 649Q715 639 696 621Q684 609 674 600Q662 616 639 627Q614 639 596
643Q561 651 530 653Q503 655 436 655H367L299 154Q295 138 301 128T326 106Q344 97 381 94Q430 90 477 90H598Q651 90 670 94Q701 100 721 117Q746 135 768 170Q790 204 817 262L856 244Z" />
<glyph unicode="F" glyph-name="F" horiz-adv-x="890" d="M944 1235Q940 1219 932 1178Q928 1158 915 1116Q911 1104 904 1084T895 1057Q885 1026 877 1010H836Q840 1069 838 1087Q834 1120 829 1135Q823 1155 811 1161Q795 1169 780 1169H436L377 735H700L723
707Q713 693 700 678Q694 672 687 664T674 649Q666 639 647 621Q635 609 625 600Q588 637 547 645Q500 655 436 655H367L291 104Q289 98 297 92T324 78Q361 62 444 43L438 0H0L6 43Q67 57 106 73T147 104L293 1155Q295 1167 264 1186Q241 1198 168 1217L174 1260H920L944
1235Z" />
<glyph unicode="G" glyph-name="G" horiz-adv-x="1071" d="M1057 539Q1004 525 979 502T950 457L940 387L928 299Q926 279 924 256T918 213Q916 199 913 180T909 154Q843 103 774 57Q706 14 670 0Q625 -18 582 -25Q542 -31 502 -31Q416 -31 342 2Q265 36 207 100Q146
168 111 258T76 473Q76 563 98 663T160 850Q195 930 256 1014Q303 1080 381 1143Q467 1211 569 1249Q675 1290 793 1290Q813 1290 858 1282Q897 1276 928 1264Q951 1256 995 1231Q1032 1211 1055 1188Q1061 1182 1051 1165Q1041 1151 1022 1128Q1010 1114 983 1087Q969
1073 948 1057L920 1063Q904 1086 864 1114Q833 1137 803 1149Q778 1159 731 1165Q692 1171 647 1171Q614 1171 555 1145Q510 1125 446 1075Q397 1036 354 969Q311 899 285 825Q254 739 240 666T225 516Q225 407 258 330T342 201Q399 144 455 123Q521 98 580 98Q631
98 686 115Q735 129 772 156L813 457Q813 471 809 477Q801 489 783 497T715 516Q658 528 596 539L602 582H1063L1057 539Z" />
<glyph unicode="H" glyph-name="H" horiz-adv-x="1234" d="M578 1217Q504 1199 477 1186Q438 1168 436 1155L375 705H932L993 1155Q995 1167 965 1186Q942 1200 870 1217L874 1260H1286L1280 1217Q1206 1199 1180 1186Q1141 1168 1139 1155L993 104Q991 92 1022
74Q1045 62 1118 43L1112 0H702L709 43Q770 57 809 74Q844 88 848 104L918 614H362L293 104Q291 92 322 74Q345 60 416 43L410 0H0L6 43Q67 57 106 73T147 104L293 1155Q295 1167 264 1186Q241 1198 168 1217L174 1260H584L578 1217Z" />
<glyph unicode="I" glyph-name="I" horiz-adv-x="571" d="M598 1217Q524 1199 498 1186Q459 1168 457 1155L311 104Q309 92 340 74Q363 62 436 43L430 0H20L27 43Q88 57 127 73T168 104L311 1155Q313 1167 283 1186Q260 1200 188 1217L195 1260H604L598 1217Z" />
<glyph unicode="J" glyph-name="J" horiz-adv-x="577" d="M623 1217Q553 1201 522 1186Q483 1168 481 1155L350 205Q338 105 307 6Q282 -74 250 -127T178 -219Q135 -262 100 -289Q82 -303 41 -328Q21 -340 -20 -356Q-49 -368 -80 -375Q-107 -381 -125 -381Q-152
-381 -178 -371Q-207 -361 -221 -350Q-233 -342 -252 -324Q-264 -312 -264 -302T-250 -274Q-240 -262 -215 -242T-176 -213Q-156 -201 -143 -201Q-133 -201 -123 -211Q-114 -220 -98 -229Q-71 -245 -61 -250Q-43 -258 -10 -258Q19 -258 43 -242Q74 -222 100 -180Q133
-129 156 -59Q183 25 197 133L338 1155Q338 1161 332 1167Q324 1175 307 1184Q297 1190 256 1200Q240 1204 168 1217L172 1260H629L623 1217Z" />
<glyph unicode="K" glyph-name="K" horiz-adv-x="1101" d="M578 1217Q504 1199 477 1186Q438 1168 436 1155L367 647L825 1128Q845 1148 858 1169Q866 1183 858 1195T829 1210Q811 1212 772 1217L778 1260H1161L1155 1217Q1143 1215 1125 1212T1100 1208Q1084
1206 1059 1198Q1043 1192 1024 1182Q1008 1172 991 1155L506 672L856 156Q866 142 887 125Q905 111 924 111Q949 111 979 119Q1006 125 1059 147L1077 111Q1052 93 1004 59Q961 30 934 18Q895 0 874 -6Q849 -14 827 -14Q807 -14 799 -12Q795 -12 776 -2Q772 0
754 18Q746 26 731 51L365 637L293 104Q291 92 322 74Q345 60 416 43L410 0H0L6 43Q67 57 106 73T147 104L293 1155Q295 1167 264 1186Q241 1198 168 1217L174 1260H584L578 1217Z" />
<glyph unicode="L" glyph-name="L" horiz-adv-x="917" d="M848 244Q819 129 807 92Q782 18 774 0H0L6 43Q67 57 106 73T147 104L293 1155Q295 1167 264 1186Q241 1198 168 1217L174 1260H584L578 1217Q504 1199 477 1186Q438 1168 436 1155L299 154Q297 138 303
123Q309 111 328 104Q359 94 379 92Q402 90 461 90H588Q639 90 659 94Q690 100 713 117Q738 135 760 170Q782 204 809 262L848 244Z" />
<glyph unicode="M" glyph-name="M" horiz-adv-x="1509" d="M1532 1217Q1501 1217 1470 1208Q1429 1198 1399 1182L1278 104Q1275 92 1309 74Q1334 62 1407 43L1401 0H991L997 43Q1056 57 1100 74Q1140 89 1143 104L1251 1059L711 0H670L391 1047L256 104Q254 92
285 74Q308 60 379 43L373 0H4L10 43Q71 57 111 74Q146 88 150 104L305 1180Q278 1198 242 1208Q211 1216 182 1217L188 1260H453Q463 1260 467 1257Q475 1253 477 1245L480 1235Q483 1225 485 1219Q491 1204 498 1176L748 281L1206 1176Q1212 1184 1218 1198T1229
1218T1240 1235L1247 1245Q1253 1254 1260 1257Q1264 1259 1276 1260H1536L1532 1217Z" />
<glyph unicode="N" glyph-name="N" horiz-adv-x="1236" d="M1288 1217Q1218 1207 1188 1190Q1155 1172 1153 1155L989 -31Q975 -29 950 -25Q936 -23 920 -12Q914 -8 895 10Q885 20 870 45L373 1004L250 104Q247 92 274 74T371 43L365 0H0L6 43Q69 51 106 72Q141
90 143 104L289 1153Q264 1182 231 1196Q206 1206 158 1217L164 1260H342H377Q387 1260 399 1251Q401 1249 416 1227Q420 1221 426 1210T440 1182L924 258L1047 1155Q1047 1163 1043 1169T1022 1186Q1014 1190 983 1202Q965 1208 924 1217L930 1260H1294L1288 1217Z"
/>
<glyph unicode="O" glyph-name="O" horiz-adv-x="1114" d="M936 756Q936 842 918 915Q900 987 864 1044Q831 1097 778 1133Q727 1166 662 1165Q588 1165 526 1135Q458 1102 418 1057Q373 1010 338 942T283 809Q263 739 252 666Q242 588 242 532Q242 448 262 360Q280
282 317 223Q352 168 403 133Q450 100 516 100Q594 100 655 131T762 213Q809 266 842 332Q876 400 897 473Q915 536 925 618T936 756ZM1085 774Q1085 704 1073 631Q1059 545 1038 485Q1011 411 981 348Q952 289 901 225Q864 180 811 125Q762 78 711 43Q668 16 598
-10Q543 -30 471 -31Q375 -31 303 10Q229 51 184 121Q137 195 113 287Q90 375 90 485Q90 548 102 618Q116 696 135 760Q158 834 186 897Q213 954 258 1018Q315 1092 348 1124Q397 1173 453 1210Q506 1245 571 1268Q639 1291 705 1290Q803 1290 874 1249T993 1137Q1042
1061 1063 973Q1085 872 1085 774Z" />
<glyph unicode="P" glyph-name="P" horiz-adv-x="964" d="M975 942Q975 854 942 782Q907 704 852 653Q794 598 717 567Q635 534 553 535Q520 535 475 545Q438 553 410 569L399 643Q433 628 467 618Q498 610 532 610Q600 610 653 630T747 692T809 786Q832 843 831
905Q831 991 805 1047Q780 1100 731 1139Q686 1174 625 1190Q559 1206 496 1206H469Q465 1206 456 1205T442 1204L293 104Q289 98 297 90Q303 84 319 76Q331 70 367 59Q375 57 444 43L438 0H0L6 43Q67 57 106 73T147 104L297 1194Q285 1192 261 1189T223 1184Q182
1178 141 1165V1225Q198 1245 227 1253Q260 1261 324 1274Q377 1284 432 1286Q510 1290 559 1290Q651 1290 731 1268Q805 1248 862 1202Q917 1159 946 1094Q975 1026 975 942Z" />
<glyph unicode="Q" glyph-name="Q" horiz-adv-x="1134" d="M936 756Q936 842 918 915Q900 987 864 1044Q831 1097 778 1133Q727 1166 662 1165Q588 1165 526 1135Q458 1102 418 1057Q373 1010 338 942T283 809Q263 739 252 666Q242 588 242 532Q242 448 262 360Q280
282 317 223Q352 168 403 133Q450 100 516 100Q594 100 655 131T762 213Q809 266 842 332Q876 400 897 473Q915 536 925 618T936 756ZM1104 -117Q1081 -154 1047 -195Q1022 -226 993 -250Q966 -273 946 -285T911 -297Q856 -297 805 -268Q760 -241 707 -197Q658
-154 612 -109Q573 -70 514 -29Q500 -31 471 -31Q375 -31 303 10Q229 51 184 121Q137 195 113 287Q90 375 90 485Q90 548 102 618Q116 696 135 760Q158 834 186 897Q213 954 258 1018Q315 1092 348 1124Q397 1173 453 1210Q506 1245 571 1268Q639 1291 705 1290Q803
1290 874 1249T993 1137Q1042 1061 1063 973Q1086 873 1085 774Q1085 704 1073 631Q1059 545 1038 485Q1011 411 981 348Q952 289 901 225Q833 143 786 100Q727 45 651 10Q696 -19 727 -43L799 -98Q848 -131 870 -143Q901 -159 938 -160Q946 -160 963 -156Q977
-152 991 -143Q1020 -127 1030 -119Q1053 -105 1083 -82L1104 -117Z" />
<glyph unicode="R" glyph-name="R" horiz-adv-x="1075" d="M1077 109L999 61Q995 59 969 43T930 20Q905 8 872 -4Q845 -14 834 -14Q816 -14 801 -8Q781 0 770 10Q762 18 737 51Q725 67 702 117L475 590Q457 592 416 596Q379 600 360 604L293 104Q291 92 322 74Q345
60 416 43L410 0H0L6 43Q67 57 106 73T147 104L297 1194L219 1182Q172 1174 141 1167V1227L231 1251Q262 1259 328 1272Q340 1274 434 1284Q491 1290 559 1290Q651 1290 719 1270Q790 1248 842 1208Q889 1171 920 1108Q949 1047 948 971Q948 930 930 874Q910 811
874 764Q833 707 770 662T612 598L846 184Q862 157 881 135Q895 119 920 115Q947 111 975 119Q987 123 1059 147L1077 109ZM514 1206H477Q471 1206 460 1205T442 1204L371 678Q398 670 428 666Q465 662 485 662Q548 662 606 680Q667 700 709 731Q748 762 778 819Q805
870 805 942Q805 1020 778 1067Q749 1118 707 1149Q662 1182 614 1192Q553 1206 514 1206Z" />
<glyph unicode="S" glyph-name="S" horiz-adv-x="897" d="M872 1198Q876 1194 872 1184Q869 1175 860 1159Q858 1157 838 1130L813 1100Q805 1090 788 1073Q778 1063 770 1059L741 1065Q723 1090 703 1110T657 1149Q637 1165 604 1176Q573 1186 547 1186Q490 1186
451 1169Q408 1151 381 1124Q353 1096 338 1063Q322 1026 322 995Q322 981 330 948Q336 925 358 899Q380 874 420 844Q455 817 528 780Q594 747 662 702Q717 665 751 625T800 541T815 440Q815 344 776 260Q737 174 670 111Q604 48 516 8Q430 -31 328 -31Q291 -31
242 -18Q197 -8 150 16Q111 36 76 63Q47 86 47 115Q47 127 59 150Q67 164 88 197Q98 213 123 238Q139 254 154 254Q164 254 182 229Q205 198 227 174Q250 147 295 121Q336 96 395 96Q458 96 508 117Q565 142 600 172Q641 211 662 256Q685 307 684 360Q684 399 672
436Q660 475 631 506Q604 535 551 571Q510 600 424 641Q352 676 315 707Q272 744 248 780Q221 819 213 854Q203 895 203 928Q203 996 233 1059Q264 1124 319 1176Q374 1227 453 1257Q539 1290 629 1290Q699 1290 762 1262Q827 1233 872 1198Z" />
<glyph unicode="T" glyph-name="T" horiz-adv-x="1064" d="M684 0H238L244 43Q320 59 365 82Q402 100 403 115L551 1169H279Q267 1169 254 1163Q244 1159 229 1141Q219 1129 197 1087Q170 1040 150 995L113 1014Q115 1024 123 1073Q129 1112 137 1139Q149 1184
156 1204Q165 1235 174 1260H1096L1118 1235Q1116 1225 1108 1180Q1100 1139 1094 1118L1077 1055Q1075 1051 1070 1031T1061 999H1020Q1018 1044 1014 1081Q1012 1112 1004 1135Q998 1155 983 1161Q967 1169 950 1169H692L549 115Q547 105 578 82Q605 64 690 43L684
0Z" />
<glyph unicode="U" glyph-name="U" horiz-adv-x="1226" d="M1280 1217Q1206 1199 1182 1186Q1147 1168 1145 1155L1055 512Q1037 380 993 279Q948 175 887 109Q822 41 739 4Q661 -31 557 -31Q473 -31 406 -7T289 68Q242 115 213 186Q186 254 186 348Q186 407 195
463L293 1155Q295 1167 264 1186Q241 1198 168 1217L174 1260H584L578 1217Q508 1201 477 1186Q438 1168 436 1155L348 510Q342 455 342 453V397Q342 321 358 270Q376 211 410 172Q447 129 494 109Q545 86 608 86Q667 86 727 119Q780 150 825 203Q864 250 895 326Q922
394 932 469L1024 1155Q1026 1165 997 1186Q977 1200 905 1217L911 1260H1286L1280 1217Z" />
<glyph unicode="V" glyph-name="V" horiz-adv-x="1212" d="M1298 1217Q1237 1205 1198 1193T1147 1151L647 59Q637 34 616 20Q587 0 573 -6Q544 -18 530 -23Q522 -25 510 -28T496 -31L256 1151Q248 1182 226 1194T139 1217L145 1260H543L537 1217Q463 1211 435
1197T412 1151L602 195L1042 1151Q1058 1180 1024 1194Q991 1206 920 1217L926 1260H1305L1298 1217Z" />
<glyph unicode="W" glyph-name="W" horiz-adv-x="1570" d="M1665 1217L1610 1204Q1594 1200 1565 1192Q1545 1186 1531 1176T1513 1155L1153 59Q1141 30 1128 20Q1103 0 1090 -6Q1057 -20 1049 -23L1016 -31L852 946L467 59Q457 34 436 20Q405 -3 395 -6Q366 -18
352 -23L319 -31L246 1147Q242 1174 219 1188Q192 1204 129 1217L135 1260H526L520 1217Q475 1211 449 1204Q426 1200 408 1188Q393 1179 389 1169Q385 1157 385 1147L444 254L881 1260H936L1116 254L1409 1155Q1413 1167 1405 1176Q1393 1188 1378 1192Q1360 1198
1335 1204Q1319 1208 1278 1217L1284 1260H1669L1665 1217Z" />
<glyph unicode="X" glyph-name="X" horiz-adv-x="1169" d="M1085 0H674L680 43Q715 45 745 53Q770 59 784 70Q796 78 797 92Q797 108 788 127L580 549L287 127Q256 84 285 66Q310 50 397 43L391 0H-20L-14 43Q49 49 90 66Q136 84 164 127L528 653L293 1133Q275
1164 270 1169Q260 1181 244 1192Q230 1200 209 1206L158 1217L164 1260H575L569 1217Q487 1207 465 1194Q436 1178 459 1133L639 768L895 1133Q911 1156 911 1171Q911 1185 897 1194Q885 1200 852 1208Q832 1212 784 1217L791 1260H1202L1196 1217Q1155 1213 1137
1208Q1117 1202 1090 1192Q1065 1182 1051 1169Q1035 1157 1018 1133L688 666L956 127Q962 113 979 92Q991 78 1008 68Q1020 60 1044 53Q1071 45 1092 43L1085 0Z" />
<glyph unicode="Y" glyph-name="Y" horiz-adv-x="1144" d="M733 0H287L293 43Q373 59 416 82Q449 98 453 115L512 551Q500 602 465 709Q451 756 401 874Q370 952 330 1032Q291 1112 260 1155Q252 1169 238 1180Q226 1190 211 1192Q191 1196 170 1196Q156 1196
111 1192L102 1235Q108 1237 129 1242T162 1249Q185 1253 225 1262Q264 1270 287 1272Q324 1276 334 1276Q361 1276 385 1237Q408 1202 430 1159Q463 1098 479 1063Q512 993 526 958Q565 866 569 852L602 756Q610 733 625 678L934 1151Q952 1178 928 1194Q910 1206
838 1217L844 1260H1204L1198 1217Q1155 1209 1100 1190Q1067 1180 1047 1151L657 543L598 115Q598 111 604 100Q610 92 627 82Q650 68 670 61Q693 53 739 43L733 0Z" />
<glyph unicode="Z" glyph-name="Z" horiz-adv-x="1021" d="M242 100H727Q750 100 766 109Q780 115 801 143Q815 163 840 211Q867 266 887 317L936 303Q930 270 924 229Q922 209 918 189T909 148T901 107T895 68Q891 48 888 31T883 0H49L31 45L821 1167H399Q383
1167 365 1155Q340 1139 324 1120Q297 1091 281 1059Q263 1026 242 963L190 975L262 1286Q285 1278 305 1272Q321 1268 346 1264Q375 1260 387 1260H434H1006L1024 1214L242 100Z" />
<glyph unicode="[" glyph-name="bracketleft" horiz-adv-x="585" d="M686 1573Q680 1548 668 1524L649 1487H387L147 -221H403L432 -250Q430 -256 416 -295L395 -336H2L274 1599H659L686 1573Z" />
<glyph unicode="\" glyph-name="backslash" horiz-adv-x="817" d="M647 -336L621 -326L588 -313Q582 -311 572 -306T557 -299Q543 -293 535 -285L145 1577L182 1599Q219 1587 240 1579Q277 1565 295 1550L682 -311L647 -336Z" />
<glyph unicode="]" glyph-name="bracketright" horiz-adv-x="585" d="M328 -336H-57L-86 -307L-68 -258Q-59 -233 -49 -221H213L453 1487H199L170 1513Q178 1542 186 1559L207 1599H598L328 -336Z" />
<glyph unicode="^" glyph-name="asciicircum" horiz-adv-x="937" d="M854 635Q817 606 801 596Q774 580 743 565L713 592L553 1315L223 635Q221 635 212 627T197 614Q193 610 183 604T166 594Q141 580 137 578Q123 570 113 565L94 592L516 1462Q528 1474 547 1487L584
1511Q609 1527 621 1534L653 1550L854 635Z" />
<glyph unicode="_" glyph-name="underscore" horiz-adv-x="892" d="M731 -156Q725 -181 713 -203L692 -246H-37L-53 -219Q-45 -190 -37 -174L-12 -131H713L731 -156Z" />
<glyph unicode="`" glyph-name="grave" horiz-adv-x="604" d="M565 1047Q540 1033 532 1030Q516 1026 504 1026L254 1411L285 1448Q289 1450 299 1451T315 1452Q340 1456 354 1456Q362 1456 374 1457T393 1458H426L565 1047Z" />
<glyph unicode="a" glyph-name="a" horiz-adv-x="921" d="M602 430Q606 455 618 524L635 618Q639 641 643 661T651 700Q657 737 662 760Q642 776 629 784Q604 800 590 807Q586 809 577 813T560 820T547 825Q524 831 500 831Q455 831 414 809Q371 786 338 750Q309
719 276 664Q247 615 229 567Q209 514 201 467Q191 412 190 379Q190 305 201 262Q213 209 231 172Q245 143 276 117Q299 97 332 96Q357 96 391 127Q432 166 463 205Q496 248 536 313T602 430ZM901 68Q827 17 760 -14Q703 -41 678 -41Q660 -41 644 -29T614 18Q600
59 594 115Q586 197 586 272Q572 245 522 172Q483 113 442 70Q389 15 354 -10Q307 -41 266 -41Q231 -41 195 -23T127 39Q94 86 74 145Q54 206 53 305Q53 381 71 459T127 604Q162 667 217 733Q262 786 342 842Q362 856 401 877Q435 895 469 907Q492 915 537 928Q568
936 602 936Q622 936 643 930Q668 924 682 915L719 897Q735 887 750 877L799 907Q828 923 852 936L872 901Q847 881 844 877Q838 871 825 850Q817 836 811 815Q799 774 797 760Q779 672 768 612Q748 485 745 469Q741 436 731 352Q725 300 725 279Q725 236 729 182Q733
141 737 121Q743 96 753 86T774 76Q794 76 821 82Q858 90 889 104L901 68Z" />
<glyph unicode="b" glyph-name="b" horiz-adv-x="954" d="M604 803Q586 803 549 778Q518 758 469 709Q430 670 381 604Q340 549 299 471Q287 401 281 344Q277 307 276 256Q276 229 291 201Q303 176 334 146T391 102Q428 86 459 86Q496 86 526 98Q553 108 584 133Q609
151 631 178Q647 196 668 229Q693 272 705 303Q715 330 727 383Q733 410 737 459T741 530Q741 598 729 651Q719 694 696 735Q676 772 653 786Q627 803 604 803ZM885 610Q881 493 854 397Q823 293 752 188Q723 149 676 102T586 29Q531 -6 481 -23Q426 -41 362 -41Q342
-41 315 -31Q303 -27 264 0Q233 20 211 43Q182 72 166 96Q148 123 135 156Q123 187 123 217Q123 244 129 299Q131 317 138 361T147 430Q147 436 170 594Q178 641 184 686T197 772L225 954Q245 1099 248 1120Q250 1145 257 1190T266 1255Q272 1314 272 1346Q272
1371 266 1382Q258 1400 254 1403Q246 1409 238 1411Q232 1413 219 1413Q213 1413 193 1409Q185 1407 177 1404T160 1399Q142 1393 119 1386L106 1425Q120 1431 149 1442T193 1460Q238 1480 274 1491Q284 1493 308 1500T342 1511Q367 1519 383 1520Q414 1520 422
1501Q432 1481 432 1438Q432 1405 426 1356Q424 1344 421 1305T414 1241Q400 1137 393 1102L369 946L344 784L319 627Q374 719 426 772Q489 840 530 868Q579 903 627 920Q672 936 702 936Q741 936 774 916T834 852Q857 815 872 750Q885 700 885 610Z" />
<glyph unicode="c" glyph-name="c" horiz-adv-x="794" d="M813 815L768 782Q739 762 723 752Q694 736 682 729Q666 721 649 721Q637 721 623 737L584 776Q568 792 537 813Q508 831 477 831Q432 831 393 809T324 750Q299 719 270 664Q247 619 231 563Q216 511 207
459Q199 412 199 358Q199 290 213 242Q227 191 254 152Q274 119 315 96Q350 76 395 76Q413 76 440 82Q465 88 506 104Q529 114 588 150Q615 166 686 221L702 199Q704 195 709 190T717 180Q639 108 578 66Q521 27 465 -2Q430 -20 373 -33Q338 -41 297 -41Q260 -41
221 -25Q176 -5 141 35Q100 82 78 147Q53 217 53 322Q53 396 68 461Q84 539 113 600Q144 666 195 731Q242 790 319 842Q329 848 381 877Q416 895 451 907Q476 915 524 928Q557 936 590 936Q637 936 668 920Q707 900 729 881Q743 869 778 840Q801 819 813 815Z"
/>
<glyph unicode="d" glyph-name="d" horiz-adv-x="968" d="M621 424Q631 498 641 561L668 723L631 760Q611 778 590 795Q563 813 543 821Q516 831 489 831Q444 831 403 809Q364 789 330 750Q297 715 270 664Q247 621 227 568T199 467Q191 424 190 379Q190 314 203
262Q213 217 240 172Q258 141 289 117Q316 97 346 96Q373 96 406 121Q433 139 475 190Q506 225 547 295L621 424ZM924 68Q838 11 784 -14Q725 -41 696 -41Q678 -41 662 -25Q644 -9 633 27Q621 64 614 127Q608 188 608 281Q579 226 535 160Q498 105 453 57Q412 14
365 -14Q320 -41 276 -41Q241 -41 203 -20Q166 0 131 43Q97 86 76 154Q53 226 53 315Q53 403 70 469Q90 547 121 610Q154 676 209 737Q261 795 332 842Q365 865 393 877Q399 879 422 891T459 907Q482 915 526 928Q557 936 592 936Q617 936 643 920Q676 900 694
883Q706 957 717 1026Q725 1089 735 1157Q739 1188 750 1266Q754 1299 754 1346Q754 1366 750 1382T741 1403T725 1411Q719 1413 709 1413Q707 1413 682 1409Q672 1407 664 1404T647 1399Q627 1393 602 1386L590 1425L674 1460Q717 1478 754 1491L817 1511Q842
1519 858 1520Q887 1520 899 1501Q913 1478 913 1438Q913 1420 905 1337Q899 1274 887 1198Q885 1180 877 1124T862 1034Q844 928 831 858Q815 770 801 684Q793 639 788 599T776 524Q764 452 758 391Q750 313 750 299Q750 184 762 131T795 78Q820 78 848 84Q885
92 911 104L924 68Z" />
<glyph unicode="e" glyph-name="e" horiz-adv-x="804" d="M391 782Q354 749 326 709Q295 666 271 617T227 512Q211 461 207 403Q350 460 414 496Q486 537 528 575Q567 612 580 645Q590 674 590 715Q590 750 582 768Q570 797 561 805Q547 819 532 825Q516 831 498
831Q482 831 451 819Q418 807 391 782ZM750 788T750 760T744 701T717 637Q697 602 659 567Q626 534 563 494Q522 467 416 414Q367 389 207 328Q213 271 231 225Q251 172 272 145Q299 110 322 94Q350 76 377 76Q387 76 428 80Q451 82 498 100Q535 114 586 143Q631
168 696 221Q700 219 715 201Q725 189 727 180Q631 98 582 66Q514 21 469 -2Q430 -20 381 -33Q346 -41 305 -41Q272 -41 229 -23Q190 -7 152 36T88 143Q63 208 63 303Q63 380 82 457Q100 531 137 602Q178 680 223 733T342 846Q362 864 393 881Q420 895 455 909Q496
925 518 930Q553 936 582 936Q625 936 657 920Q688 906 709 881Q729 858 739 823Z" />
<glyph unicode="f" glyph-name="f" horiz-adv-x="557" d="M903 1403L858 1370Q850 1364 834 1354T811 1339Q797 1329 768 1315Q748 1305 737 1305Q723 1305 711 1323T682 1362Q672 1376 645 1399Q623 1417 596 1417Q557 1417 528 1395Q497 1370 477 1335Q455 1298
440 1249Q428 1210 414 1149Q402 1097 395 1044Q391 1009 383 952L377 905H633L653 877Q643 861 627 846L590 815Q578 805 553 788L526 770Q522 780 510 793Q504 799 481 807Q475 809 436 813Q418 815 373 815H367L295 193Q283 91 250 -20Q221 -116 172 -211Q133
-287 61 -369Q0 -440 -74 -485L-100 -422Q-49 -393 -10 -334Q33 -266 61 -197Q88 -131 113 -31Q131 39 141 139L219 815H68L53 846L154 905H229Q235 964 252 1059Q262 1125 291 1198Q316 1264 356 1323Q397 1384 459 1427Q473 1437 487 1446T512 1462Q537 1480
561 1493Q590 1507 616 1513T674 1520Q715 1520 754 1503Q789 1489 817 1466Q858 1435 866 1427Q888 1409 903 1403Z" />
<glyph unicode="g" glyph-name="g" horiz-adv-x="909" d="M338 96Q361 96 395 129Q422 154 473 219Q508 264 557 348Q594 409 633 504L641 584Q643 625 653 672Q657 701 662 713Q664 719 668 730T674 748Q660 760 641 774Q625 788 602 801Q577 815 555 823T502
831Q457 831 416 809Q373 786 340 750Q305 713 276 664Q251 625 231 567Q206 504 201 467Q191 412 190 379Q190 314 203 262Q217 199 233 172Q253 137 280 117T338 96ZM879 901Q844 872 825 831Q805 788 797 719Q783 615 776 502Q768 363 766 319Q766 301 754 156Q748
68 733 0Q715 -104 670 -194T564 -352T424 -461Q348 -500 270 -500Q229 -500 180 -487Q129 -475 90 -457Q47 -437 23 -418Q-4 -398 -4 -379T8 -340Q18 -322 39 -301L72 -268Q86 -256 94 -256Q100 -256 111 -266Q115 -270 121 -276T133 -291Q141 -301 162 -322Q178
-338 205 -354Q230 -368 264 -379Q301 -389 346 -389Q442 -389 502 -301Q559 -215 588 -47Q594 -16 602 57Q606 88 610 154L616 244L621 336Q603 297 545 207Q510 154 455 86Q410 33 358 -6Q311 -41 266 -41Q231 -41 195 -23Q160 -5 125 39Q94 78 72 145Q52 206
51 305Q51 381 70 459Q90 545 123 604Q160 672 215 733Q266 790 344 842Q354 848 375 860T403 877Q432 895 469 907Q492 915 537 928Q568 936 602 936Q624 936 645 930Q663 924 686 913Q698 907 723 891Q731 885 739 880T756 868Q779 891 805 907Q830 921 856 936L879
901Z" />
<glyph unicode="h" glyph-name="h" horiz-adv-x="1011" d="M969 72Q897 29 815 -12Q758 -41 713 -41Q684 -41 662 -10Q639 23 639 76Q639 94 645 141Q647 155 649 171T655 212T662 250Q672 311 682 381L702 514Q704 528 710 568T719 627Q725 676 725 700Q725 747
723 764Q721 778 711 805Q705 819 690 827Q678 833 655 834Q639 834 608 819Q581 807 532 772Q512 758 446 692Q397 643 362 582Q335 535 317 463Q303 408 285 301Q281 276 270 205Q268 189 266 161T264 129Q260 84 260 72Q260 39 262 25Q258 23 247 19T229 10Q219
6 210 1T190 -8L150 -25Q144 -29 134 -34T119 -41L86 -10Q94 43 109 123Q117 164 123 209T137 299Q157 414 170 500L203 711L233 918Q249 1027 258 1102Q260 1122 266 1174T274 1251Q280 1314 281 1346Q281 1366 277 1382T268 1403T256 1411Q252 1413 240 1413Q236
1413 211 1409Q203 1407 193 1404T172 1399L125 1386L113 1425L197 1460Q240 1478 276 1491Q288 1495 311 1502T342 1511Q367 1519 383 1520Q411 1520 426 1501Q442 1481 442 1438Q442 1413 436 1358Q434 1348 420 1231Q404 1102 399 1077Q383 968 375 918Q369
879 364 844T354 778L338 678Q404 758 453 799Q516 852 563 879Q618 910 668 922Q725 936 762 936Q825 936 852 897T879 760Q879 726 872 674Q870 658 856 561L836 436Q826 373 815 315Q799 215 799 211Q793 164 793 135Q793 100 805 88T829 76Q860 76 887 84Q918
93 954 109L969 72Z" />
<glyph unicode="i" glyph-name="i" horiz-adv-x="503" d="M455 72Q408 43 371 23L301 -12Q266 -28 246 -35Q221 -41 199 -41Q168 -41 145 -10Q125 19 125 76Q125 88 133 162Q139 217 152 285Q162 353 174 426Q180 461 186 495T199 565Q211 635 217 684Q225 754
225 760Q225 780 221 796T213 817Q207 823 201 825T184 827Q180 827 160 823T127 815Q121 813 114 811T97 807T84 803L70 840L154 877Q205 897 231 907L295 928Q320 936 334 936Q361 936 373 918T385 852Q385 840 377 766Q371 709 358 639L334 494Q328 451 320
411T307 346Q295 274 289 221Q281 147 281 135Q281 106 287 90Q293 76 311 76Q346 76 371 84Q430 104 440 109L455 72ZM481 1262Q481 1231 473 1206Q464 1178 449 1157Q437 1139 410 1120Q390 1106 358 1106Q329 1106 311 1124Q295 1140 295 1176Q295 1207 303
1231Q312 1259 328 1280Q344 1303 367 1319Q387 1333 418 1333Q447 1333 465 1315Q481 1299 481 1262Z" />
<glyph unicode="j" glyph-name="j" horiz-adv-x="501" d="M375 870Q375 850 373 831Q369 800 367 768Q363 731 358 688Q356 665 353 645T348 604Q346 577 340 530Q336 491 334 473Q334 465 331 438T326 393Q324 370 315 297Q309 246 303 186Q299 147 287 66Q264
-55 236 -131Q205 -211 172 -264Q138 -319 98 -356Q69 -383 16 -424Q-2 -438 -43 -459Q-74 -474 -104 -483Q-135 -491 -164 -496Q-201 -500 -209 -500Q-240 -500 -266 -492Q-307 -480 -324 -471Q-349 -459 -367 -447T-385 -424T-371 -389Q-361 -371 -340 -350Q-315
-325 -303 -315Q-287 -301 -274 -301Q-268 -301 -256 -313Q-238 -331 -223 -342Q-196 -360 -172 -371Q-141 -383 -98 -383Q-12 -383 41 -281Q96 -177 127 10Q145 116 150 152Q164 256 166 276Q170 307 174 377L182 451Q182 457 186 493T193 551Q195 582 199 614T205
676Q209 713 209 727Q209 735 210 745T211 760Q211 789 209 797Q205 811 199 817Q195 821 186 825Q182 827 170 827Q166 827 145 823Q118 819 111 815Q99 811 70 803L55 840L139 877Q188 897 217 907L281 928Q306 936 319 936Q344 936 360 924Q375 911 375 870ZM459
1262Q459 1237 449 1206Q440 1178 424 1157Q412 1139 385 1120Q365 1106 334 1106Q268 1106 268 1176Q268 1207 276 1231Q285 1259 301 1280Q317 1303 340 1319Q360 1333 391 1333T440 1315T459 1262Z" />
<glyph unicode="k" glyph-name="k" horiz-adv-x="897" d="M440 1417Q440 1377 434 1319L418 1188Q416 1165 395 1032Q383 948 369 860L340 682Q324 573 313 508L528 670Q604 729 641 760Q686 799 698 819Q710 841 686 850Q657 860 596 858L592 897Q664 907 705
918Q760 930 823 930Q870 930 884 916T899 868Q899 854 877 825Q852 792 815 762Q766 719 715 682Q682 657 580 594L463 522Q494 483 516 446Q547 395 569 350L621 252Q644 209 670 164Q690 131 717 100Q737 75 758 76Q789 76 807 78Q836 82 872 102L889 68Q819
9 774 -14Q725 -39 686 -39Q651 -39 616 -4Q582 30 549 82Q518 129 485 199L426 324Q397 383 369 432Q342 479 313 502Q309 479 301 424T289 340Q275 227 272 199Q264 117 264 92Q264 49 270 27Q266 25 254 20T236 10Q216 2 195 -8L154 -25L121 -41L86 -10Q88 0
93 31T100 84L125 238Q131 271 138 322T156 432Q174 538 190 649Q198 706 207 760T225 866L254 1067Q270 1198 274 1233Q280 1303 281 1343Q281 1372 279 1382Q277 1394 269 1402T254 1411Q252 1411 245 1412T233 1413Q231 1413 207 1409Q195 1407 170 1399Q150
1393 125 1386L111 1425Q125 1431 153 1442T197 1460Q240 1478 276 1491Q288 1495 311 1502T342 1511Q367 1519 381 1520Q397 1520 406 1518Q416 1516 424 1503Q434 1489 436 1473Q440 1444 440 1417Z" />
<glyph unicode="l" glyph-name="l" horiz-adv-x="479" d="M436 72L350 20Q301 -9 281 -16Q250 -28 226 -34T174 -41Q146 -41 125 -10Q102 23 102 78Q102 103 109 164Q109 174 129 305Q133 330 139 381T156 489L188 692Q196 741 203 792T219 897Q246 1073 248 1087Q260
1177 266 1243Q274 1333 274 1346Q274 1366 270 1382Q268 1392 258 1403Q254 1407 242 1411Q236 1413 223 1413Q221 1413 197 1409Q193 1409 164 1399Q144 1393 119 1386L104 1425L188 1460Q231 1478 268 1491L332 1511Q357 1519 373 1520Q402 1520 418 1501Q434
1481 434 1438Q434 1420 426 1329Q420 1263 408 1174Q406 1160 379 983L346 776Q338 729 331 678T315 573Q313 559 302 489T287 385Q275 297 268 236Q260 150 260 135Q260 102 270 88Q279 76 295 76Q322 76 348 84Q405 100 424 109L436 72Z" />
<glyph unicode="m" glyph-name="m" horiz-adv-x="1476" d="M1413 72Q1341 29 1260 -12Q1203 -41 1155 -41Q1127 -41 1106 -10Q1086 19 1085 76Q1085 94 1092 139Q1096 164 1101 190T1110 244Q1126 348 1130 375Q1146 465 1153 508Q1155 522 1162 566T1171 631Q1177
686 1178 719Q1178 778 1165 807Q1153 834 1135 834Q1115 834 1087 821Q1062 811 1024 778Q993 753 948 705Q915 670 870 600Q852 571 834 530Q818 495 809 461Q797 416 793 383Q787 342 778 295Q762 203 760 139Q756 73 760 25L725 10Q715 6 705 1T684 -8T665
-16T645 -25L612 -41L580 -10L623 203Q646 322 659 410Q673 504 684 586Q694 672 694 700Q694 776 678 805T635 834Q623 834 596 821Q567 809 532 780Q509 762 459 707Q416 660 381 602Q367 582 346 537Q328 494 319 465Q310 428 301 385Q297 369 292 337T285 295Q267
184 264 139Q260 55 262 25Q258 23 247 19T229 10Q219 6 210 1T190 -8L150 -25Q144 -29 134 -34T119 -41L86 -10Q98 43 113 137Q127 213 139 289Q143 316 150 356T164 438Q168 467 174 512T182 571Q191 632 195 682Q199 748 199 760Q199 789 197 797Q193 813 188
817Q182 823 174 827Q170 829 160 829Q158 829 133 825Q121 823 96 815L53 803L41 842Q100 867 125 877Q176 897 203 907L266 928Q291 936 305 936Q323 936 330 932Q339 926 342 913Q348 888 348 879Q348 873 349 854T350 821Q350 817 349 808T348 793Q348 789
347 777T346 758Q346 746 342 717T338 678Q393 744 449 797Q501 846 547 877Q590 906 635 922Q676 936 719 936Q758 936 780 922T819 881Q833 858 840 825Q846 794 846 760V725Q846 717 842 688Q910 766 948 803Q993 844 1040 879Q1083 910 1122 922Q1169 936 1198
936Q1225 936 1251 926Q1276 918 1292 898T1319 842Q1327 811 1327 760Q1327 721 1321 668Q1319 652 1305 555Q1301 528 1295 498T1282 432Q1276 389 1262 313Q1250 239 1245 209Q1239 163 1239 135Q1239 104 1249 90Q1257 78 1276 78Q1296 78 1333 86Q1360 92
1403 109L1413 72Z" />
<glyph unicode="n" glyph-name="n" horiz-adv-x="1011" d="M973 72Q885 19 819 -12Q760 -41 717 -41Q680 -41 662 -11T643 76Q643 94 649 141Q651 155 653 171T659 212T666 250L688 381L711 514Q713 528 719 568T727 627Q733 676 733 700Q733 774 717 807Q703
836 657 836Q649 836 612 819Q581 805 539 772Q490 733 453 692Q402 635 371 580Q344 533 326 465Q314 418 291 301Q273 195 270 147Q266 63 268 25Q264 23 253 19T236 10Q226 6 216 1T195 -8Q175 -16 156 -25Q150 -29 140 -34T125 -41L92 -10Q102 37 119 133Q135
223 145 287L170 440Q174 469 180 517T188 580Q198 648 201 690Q205 756 205 762Q205 791 203 799T195 819Q193 823 184 827Q180 829 168 829Q166 829 141 825Q133 823 106 815Q86 809 61 803L47 842Q106 867 131 877Q174 895 211 907Q223 911 245 918T276 928Q301
936 315 936Q325 936 338 932Q344 930 348 915Q352 899 352 881Q352 875 353 857T354 823Q354 819 353 809T352 793T351 773T350 752Q350 740 346 711Q344 697 344 678Q405 752 453 795Q506 842 561 874T664 922Q709 936 758 936Q791 936 813 928Q840 918 854 897Q870
874 878 844T887 762Q887 728 881 676Q879 660 864 563Q860 532 842 438Q834 399 819 315Q803 215 803 211Q797 164 797 135Q797 102 807 88Q815 76 834 76Q861 76 887 84Q934 98 958 109L973 72Z" />
<glyph unicode="o" glyph-name="o" horiz-adv-x="862" d="M668 504Q668 658 612 737Q555 819 453 819Q379 819 332 778Q283 735 254 674Q223 608 211 537Q197 451 197 399Q197 333 213 272T260 168Q295 119 328 98Q371 71 414 72Q461 72 496 92Q535 115 561 147Q586
176 610 227Q630 266 643 319Q655 370 662 416Q668 465 668 504ZM811 559Q811 487 797 424Q783 365 752 291Q725 230 680 168Q637 110 582 63Q562 47 526 23Q501 7 469 -10Q449 -20 408 -33Q381 -41 346 -41Q272 -41 221 -12Q164 19 129 70Q88 127 72 193Q54 263
53 344Q53 416 65 483T104 610Q133 676 176 729Q222 787 287 840Q340 881 399 907Q462 936 522 936Q598 936 655 907Q710 878 745 829Q778 780 795 711Q811 639 811 559Z" />
<glyph unicode="p" glyph-name="p" horiz-adv-x="964" d="M610 805Q582 805 543 780Q506 757 457 709Q404 656 367 600Q316 524 291 461L266 313Q282 280 307 248Q330 217 371 180Q408 147 444 127Q483 107 526 106Q579 106 621 135Q666 168 686 219Q700 250 715
301Q723 332 731 385Q737 428 737 465Q737 477 738 499T739 532Q739 602 727 653Q713 712 698 739Q680 772 658 788T610 805ZM348 870Q348 841 342 786Q334 716 322 643Q392 747 440 801Q491 854 543 889Q584 918 629 928Q662 936 696 936Q735 936 768 915Q809
888 829 856Q856 811 870 760Q884 705 885 627Q885 531 856 416Q825 293 766 188Q743 145 713 106Q686 71 649 35Q615 1 575 -20Q536 -40 492 -41Q459 -41 426 -20Q391 3 362 33Q319 80 301 109Q295 117 276 146T246 193L215 6Q180 -201 172 -309T176 -446Q172
-446 168 -448T161 -452T152 -454T141 -457Q121 -463 100 -471Q92 -473 79 -479T59 -487Q34 -495 27 -500L-6 -471Q-4 -461 1 -430T8 -381L33 -238Q39 -201 48 -156T66 -59L100 137Q108 182 112 207T122 266T133 336Q135 354 146 419T162 518Q180 643 182 664Q190
750 190 760Q190 780 186 797Q184 807 174 817Q168 823 160 825Q154 827 143 827Q137 827 117 823T84 815T43 803L29 840L115 877Q158 895 195 907Q207 911 229 918T260 928Q285 936 301 936Q319 936 333 922T348 870Z" />
<glyph unicode="q" glyph-name="q" horiz-adv-x="917" d="M348 96Q377 96 410 127Q451 166 481 205Q536 279 559 313Q594 364 631 434L684 760Q674 768 650 784T610 807Q583 817 563 823Q530 831 512 831Q469 831 424 809Q387 791 346 750Q315 719 279 664Q252
625 227 567Q209 526 195 467Q183 418 182 379Q182 311 197 262Q213 205 235 172T289 117Q317 96 348 96ZM895 901Q870 881 866 877Q860 871 848 850Q840 836 834 815Q828 793 821 760L776 492L733 231Q725 176 720 143T710 71T698 -10Q673 -188 672 -213Q662 -311
662 -365Q662 -428 672 -446Q647 -456 639 -459L596 -471Q590 -473 576 -479T555 -487Q537 -493 522 -500L487 -471Q489 -463 494 -426T504 -360Q514 -286 530 -190L565 23Q573 72 582 132T602 260Q571 207 528 147Q495 102 444 51Q401 8 358 -16T276 -41Q245 -41
205 -23T131 39Q96 82 76 145Q53 213 53 305Q53 387 74 461Q97 541 133 606T227 735Q278 792 354 842Q364 848 386 860T414 877Q443 895 479 907Q502 915 547 928Q578 936 612 936Q634 936 655 930Q678 924 696 915Q704 911 716 904T733 895Q751 885 768 874Q776
882 817 907Q825 913 844 922T872 936L895 901Z" />
<glyph unicode="r" glyph-name="r" horiz-adv-x="724" d="M768 850Q764 844 755 831T741 811L713 766Q707 756 684 729Q672 715 662 715Q639 715 629 725L604 750L582 772Q570 784 555 784Q528 784 494 748Q455 705 426 655Q387 589 360 526Q327 452 307 383Q299
356 287 299Q279 262 272 207Q264 141 262 111Q259 65 262 25Q258 23 247 19T229 10Q219 6 210 1T190 -8L150 -25Q144 -29 134 -34T119 -41L86 -10Q92 17 101 68T115 137Q127 196 141 289Q159 400 164 436Q166 452 173 499T182 569Q184 583 188 623T195 682Q199
748 199 760Q199 780 195 796T186 817T174 825Q170 827 158 827Q156 827 131 823Q111 819 96 815L55 803L41 840L125 877Q168 895 205 907Q217 911 239 918T270 928Q295 936 309 936Q325 936 331 932T342 913Q346 897 346 879Q346 873 347 854T348 821Q348 817
344 784Q342 768 338 727Q336 717 334 698T330 668Q328 652 325 640T322 618Q371 716 414 778Q467 854 494 877Q537 912 567 924Q602 936 635 936Q651 936 668 926Q678 920 696 901Q704 893 713 887T729 874Q750 858 768 850Z" />
<glyph unicode="s" glyph-name="s" horiz-adv-x="710" d="M698 844Q690 836 678 823T659 803Q647 791 623 770Q603 752 592 748Q580 742 571 741Q557 741 543 758Q529 776 510 797Q500 809 467 834Q442 852 410 852Q385 852 354 842Q331 834 307 814T272 768Q258
735 258 709Q258 674 291 635Q322 598 406 559Q441 543 487 514Q530 487 561 457Q594 424 614 383T635 289Q635 217 600 160Q563 99 508 55Q442 4 385 -16Q317 -41 252 -41Q213 -41 160 -27Q113 -15 78 6Q41 29 18 53Q-5 80 -4 98Q-4 106 8 129Q16 143 37 172Q49
190 69 206T98 223T113 211Q117 205 121 198T131 180L160 139Q178 114 199 98Q224 80 256 68Q291 56 332 55Q369 55 399 68Q419 76 453 104Q480 129 492 158Q504 189 504 223Q504 260 487 293Q469 330 446 350Q415 379 385 397Q371 407 311 436Q256 463 221 485Q190
505 164 537Q144 560 133 592Q123 623 123 653Q123 716 154 768Q187 821 233 858Q280 893 344 915Q403 935 463 936Q515 936 549 924Q588 910 610 897Q616 893 657 864Q678 850 698 844Z" />
<glyph unicode="t" glyph-name="t" horiz-adv-x="628" d="M580 117Q531 80 481 49Q456 33 389 0Q346 -22 309 -31Q268 -41 252 -41Q225 -41 205 -27Q182 -11 164 16Q148 43 137 80Q127 121 127 160V199Q127 205 129 217T131 238Q131 252 135 281Q137 295 141 332L217
815H74L59 846L160 905H231L238 940Q244 980 250 1008Q254 1031 266 1053Q275 1071 285 1083Q291 1091 307 1104L408 1176L436 1151Q436 1149 422 1118Q422 1116 416 1097T406 1063Q392 1008 385 963L377 905H625L645 877Q635 861 618 846L582 815Q570 805 545
788L518 770Q514 780 502 793Q496 799 473 807Q467 809 428 813Q410 815 365 815H362L291 356Q289 344 285 316T281 274Q281 268 280 256T279 238V211Q279 152 301 119Q321 90 352 90Q393 90 438 104Q493 120 563 154L580 117Z" />
<glyph unicode="u" glyph-name="u" horiz-adv-x="1021" d="M975 68Q905 21 838 -14Q785 -41 743 -41Q723 -41 705 -23T674 35Q662 75 655 139Q649 202 655 297Q615 223 569 162Q518 94 475 53Q428 8 375 -16Q324 -41 268 -41Q250 -41 223 -25Q192 -5 174 20Q154
51 137 98Q121 147 121 205Q121 234 127 281Q129 289 132 324T139 381Q151 451 157 489T176 598Q180 614 190 694Q194 723 195 760Q195 789 193 797Q189 813 184 817Q182 819 170 825Q166 827 154 827Q152 827 127 823Q111 821 94 815L51 803L39 840L123 877Q166
895 203 907L266 928Q291 936 305 936Q336 936 344 918Q354 898 354 852Q354 823 348 776Q338 694 334 674Q330 643 324 611T313 557Q305 510 295 440Q291 420 281 338Q275 291 274 262Q274 164 295 123Q315 80 352 80Q368 80 406 100Q433 114 479 162Q520 203
571 276Q628 358 674 446Q680 489 688 532Q694 567 702 618Q702 624 707 652T715 694Q719 743 719 760Q719 789 717 797Q713 813 709 817Q703 823 699 825T682 827Q678 827 658 823T627 815Q602 807 588 803L573 840L655 877Q688 891 731 907Q743 911 763 918T793
928Q816 936 831 936Q859 936 868 918Q876 902 877 852Q877 823 870 776Q860 694 856 674Q844 600 836 559Q830 528 815 442Q811 417 801 336Q795 287 795 254Q795 168 809 119Q821 76 846 76Q873 76 899 82Q915 86 961 104L975 68Z" />
<glyph unicode="v" glyph-name="v" horiz-adv-x="911" d="M893 852Q893 825 870 758Q845 682 799 592Q738 471 664 344Q586 207 457 2L436 -8L412 -20Q406 -24 399 -26T385 -31Q369 -39 362 -41L330 -10Q328 6 326 25T320 71T313 115Q303 185 291 258L266 406Q254
480 242 545Q222 656 219 662Q203 736 199 745Q187 780 182 788Q173 803 164 812T145 825Q139 827 127 827Q121 827 101 823T70 815Q58 811 29 803L16 840Q39 848 96 877Q129 893 168 907Q180 911 199 918T223 928Q246 936 260 936Q275 936 285 930Q297 922 305
907Q309 899 322 868Q330 845 340 809Q342 801 358 727Q370 672 383 604L408 461Q414 426 420 391T432 322Q434 306 440 266T449 209Q455 164 455 150Q541 289 586 377Q643 490 678 569Q723 675 735 713Q753 770 754 797Q754 820 737 827Q717 837 692 838Q684 838
656 834T612 823L594 858Q602 862 655 887Q667 893 690 901T719 911Q752 923 776 930Q803 936 819 936Q856 936 874 918T893 852Z" />
<glyph unicode="w" glyph-name="w" horiz-adv-x="1288" d="M1278 860Q1278 821 1274 799Q1268 762 1255 715Q1247 678 1217 600Q1176 494 1155 449L1061 252Q983 94 932 2L911 -8L887 -20Q883 -22 875 -25T862 -31Q846 -39 840 -41L807 -10Q803 19 799 49T791
111Q787 136 785 157T780 195T774 244L754 379Q750 406 743 450T733 504Q725 555 715 610Q706 659 696 690Q696 676 682 627Q659 551 651 526Q616 434 604 403Q600 393 580 344T547 268Q527 223 481 133Q458 88 414 10Q410 8 405 5T393 -2Q381 -8 367 -16T338 -31Q322
-39 315 -41L283 -10Q283 -4 277 42T268 115Q264 150 261 185T254 256L238 401Q236 419 231 466T221 539Q219 551 214 594T205 657Q191 737 188 745Q182 776 174 788Q165 803 156 813Q148 821 135 825Q129 827 117 827Q113 827 93 823T60 815T18 803L4 840Q27 848
84 877Q113 891 154 907L207 928Q230 936 244 936Q273 936 287 903Q295 885 317 799Q319 789 324 760T332 721Q336 703 341 661T348 608Q352 585 357 542T365 479Q373 411 379 350Q381 336 385 297T391 240Q394 191 397 166Q422 215 479 336Q520 422 555 522Q596
637 614 705Q637 783 643 864Q645 864 656 875T676 891Q707 911 711 913L743 930Q757 936 770 936Q774 936 780 920Q786 905 793 877L799 852Q805 827 807 813Q809 801 814 778T821 741L836 668Q842 631 848 600Q848 596 864 496Q870 467 874 438T883 379L901 258Q907
217 915 147Q1009 323 1038 389Q1084 493 1112 573Q1137 643 1147 707Q1157 768 1157 799Q1157 819 1143 831Q1127 843 1102 844Q1096 844 1067 840Q1057 838 1026 829L1008 866Q1037 884 1073 899Q1081 901 1099 909T1128 922Q1144 928 1169 932Q1173 932 1179
933T1189 935T1194 936Q1217 936 1227 934Q1245 930 1253 924Q1265 915 1272 899Q1278 885 1278 860Z" />
<glyph unicode="x" glyph-name="x" horiz-adv-x="899" d="M877 72Q834 41 801 20Q758 -9 741 -14Q696 -34 694 -35Q671 -41 653 -41Q622 -41 592 -10Q567 15 532 74Q512 107 473 195Q453 240 416 338L362 268L301 186L231 92Q194 43 160 -10Q119 -16 78 -23Q31
-29 -6 -41L-29 -6Q17 34 70 86L178 199Q205 226 285 315L383 428L326 578Q297 654 270 705Q252 744 215 793Q190 828 166 827L137 823Q123 821 94 813Q69 807 41 801L27 840Q95 869 106 874L178 907Q188 911 206 917T233 928Q251 936 266 936Q293 936 322 901Q353
862 379 811Q402 768 436 682L498 532L578 633Q582 639 645 727Q676 770 694 800T713 838Q713 850 711 856Q709 864 697 868T668 872Q637 872 616 870L614 911Q653 921 731 930Q782 936 807 936Q854 936 874 920Q892 905 893 883Q893 860 870 829Q833 778 801 741L686
614L530 444L586 305Q596 278 639 188Q659 145 690 106Q715 75 739 76Q751 76 793 84Q824 90 860 109L877 72Z" />
<glyph unicode="y" glyph-name="y" horiz-adv-x="925" d="M893 860Q893 823 874 772Q847 696 815 629L705 408L541 82Q469 -57 408 -156Q338 -267 270 -340Q198 -418 125 -459T-37 -500Q-74 -500 -92 -496Q-123 -490 -139 -484T-170 -467Q-180 -459 -180 -449Q-180
-435 -172 -416T-147 -371Q-132 -346 -117 -328Q-99 -308 -86 -301Q-53 -321 -45 -326Q-20 -338 -10 -340Q10 -344 23 -344H55Q139 -344 215 -266Q299 -180 377 -43Q369 2 352 86Q327 201 319 238L283 391Q263 477 246 537Q228 605 209 659Q189 720 176 745Q158
790 137 811Q121 827 104 827Q98 827 78 823Q53 819 45 815Q20 807 6 803L-6 840Q17 848 74 877Q113 895 143 907Q151 911 169 917T197 928Q215 936 231 936Q246 936 256 930Q268 922 276 907Q286 891 295 868L317 809Q348 715 358 682Q393 559 403 522Q407 504
423 443T449 346Q482 207 489 166L553 293L616 424Q653 500 672 545Q711 639 717 653Q742 719 748 737Q758 768 758 791Q758 840 705 844Q676 846 614 821L596 858Q657 895 723 918Q778 936 811 936Q834 936 844 934Q858 932 868 924Q880 915 887 899Q893 885 893
860Z" />
<glyph unicode="z" glyph-name="z" horiz-adv-x="774" d="M776 885Q696 801 629 709L500 530L373 346Q301 242 229 150Q233 154 256 160Q281 166 311 166Q327 166 365 156Q381 152 399 147T438 135Q491 119 520 113Q559 105 598 104Q612 104 621 106Q633 110 647
121Q667 137 682 154Q688 162 719 213L754 193Q723 125 705 90Q680 45 659 25Q634 0 602 -10Q567 -20 522 -20Q475 -20 428 -10Q422 -8 346 14L272 37Q231 47 205 47Q185 47 172 43Q168 41 133 27Q111 18 84 2L18 -31L-4 2Q84 113 100 135L207 283L313 436L414
582Q494 697 500 705Q531 748 569 795H268Q248 795 227 791Q213 787 197 772Q187 762 172 733Q164 717 145 666L106 674Q126 770 143 829Q157 882 170 936Q174 934 188 931T211 924Q229 916 268 915H756L776 885Z" />
<glyph unicode="{" glyph-name="braceleft" horiz-adv-x="638" d="M741 1552Q704 1529 666 1497Q631 1468 602 1430Q569 1387 553 1348T526 1251Q520 1212 520 1155Q520 1132 524 1087Q526 1064 526 1018Q526 973 518 922Q512 875 496 840Q480 803 453 764Q430
729 391 700Q348 667 313 653Q356 645 387 621Q415 599 430 565T449 485Q451 440 442 385Q432 319 422 283Q414 254 397 205Q391 187 386 167T375 129Q363 92 356 43Q350 6 350 -55Q350 -92 365 -131Q375 -162 406 -195Q439 -230 477 -254L449 -315Q388 -286 326
-244Q277 -209 244 -160Q217 -119 207 -57Q198 1 207 72Q217 138 227 170Q229 176 237 202T250 244Q266 293 274 319Q284 352 295 422Q307 504 275 545T172 586H154H143Q141 586 137 585T131 584Q127 584 111 580L102 633Q216 664 281 725Q344 784 356 862Q362
901 362 932V983Q362 1014 360 1028T358 1071V1124Q358 1155 365 1194Q388 1331 479 1430Q577 1534 723 1599L741 1552Z" />
<glyph unicode="|" glyph-name="bar" horiz-adv-x="409" d="M176 -285Q158 -299 127 -313Q113 -319 72 -336L43 -311L305 1550Q315 1558 334 1568T356 1579Q370 1587 408 1599L438 1577L176 -285Z" />
<glyph unicode="}" glyph-name="braceright" horiz-adv-x="638" d="M557 651Q443 620 379 559Q316 498 303 422Q297 381 297 352V301Q297 272 299 258T301 215V162Q301 131 295 92Q285 20 256 -35Q223 -96 180 -145Q143 -188 72 -238Q6 -283 -63 -315L-82 -266Q-45
-243 -6 -211Q29 -182 57 -143Q86 -106 104 -61Q124 -12 131 35Q139 88 139 102V154Q139 185 137 199T135 244V297Q135 325 141 365Q149 414 164 446Q187 495 207 520Q240 561 268 584Q303 613 346 631Q303 639 272 664Q245 684 229 721Q213 756 211 799Q207 846
217 901Q227 964 238 1001Q240 1007 248 1037T260 1081Q276 1130 283 1155Q299 1216 301 1241Q309 1290 309 1339Q309 1378 295 1417Q283 1452 254 1481Q221 1514 180 1538L211 1599Q287 1564 336 1528Q387 1491 416 1446Q445 1403 455 1343Q463 1294 453 1214Q443
1148 432 1116Q430 1110 422 1084T410 1043T399 1002T387 965Q377 930 367 864Q355 784 385 741Q414 700 487 700H506H516Q518 700 522 701T528 702L549 707L557 651Z" />
<glyph unicode="~" glyph-name="asciitilde" horiz-adv-x="980" d="M965 774Q938 727 899 672Q854 609 821 575Q778 532 733 506Q686 477 643 477Q603 477 563 502Q512 533 482 557T399 612Q359 637 319 637Q270 637 229 598Q182 553 135 475L90 502Q110 545 154
604Q193 659 233 700T321 770T412 799Q453 799 496 774Q535 751 578 719Q618 688 657 664Q696 639 733 639Q778 639 823 678T920 799L965 774Z" />
<glyph unicode="&#xa0;" glyph-name="uni00A0" horiz-adv-x="409" />
<glyph unicode="&#xa1;" glyph-name="exclamdown" horiz-adv-x="409" d="M111 748Q111 775 121 811Q127 834 152 870Q166 890 199 913Q224 929 258 930Q301 930 322 903Q345 874 344 831Q344 800 332 770Q316 729 301 713Q276 684 254 670Q229 654 195 653Q154
653 133 680Q111 709 111 748ZM158 -442Q152 -446 142 -452T121 -467T99 -481T76 -494Q51 -508 29 -520Q11 -530 -14 -537L-51 -512L143 510Q157 520 178 532Q182 534 188 537T203 544T217 549L242 528L158 -442Z" />
<glyph unicode="&#xa2;" glyph-name="cent" horiz-adv-x="821" d="M250 510Q250 451 260 416Q274 367 291 336Q309 301 338 277T395 240L494 946Q436 931 389 885Q346 842 313 776Q280 713 266 643Q250 567 250 510ZM586 1051Q596 1053 614 1053Q620 1053 628
1054T641 1055Q682 1055 719 1038Q753 1023 780 1001Q794 989 829 961Q852 941 864 936Q848 924 823 903L784 868Q759 848 750 842Q734 832 722 832T700 846Q696 852 686 865T674 883Q662 901 633 921T571 948L473 225Q483 225 516 233Q547 241 571 256Q637 295
645 301Q678 324 737 373Q739 371 744 363T754 350Q756 348 768 330L668 244Q643 221 586 184Q555 164 518 145Q502 137 459 123L440 -18Q432 -26 424 -31Q422 -33 418 -35T412 -39T406 -41T399 -43Q395 -45 379 -49L360 -27L379 111H367Q353 111 315 119Q292 123
258 141Q233 153 201 186Q173 214 152 254Q127 299 117 346Q105 401 104 471Q104 543 119 606Q135 680 164 739Q199 811 246 864Q301 927 371 973Q389 985 434 1006Q457 1016 506 1032L526 1186Q530 1188 533 1191T540 1197T545 1200Q553 1204 555 1206T560 1209Q563
1211 565 1210Q571 1214 586 1217L606 1194L586 1051Z" />
<glyph unicode="&#xa3;" glyph-name="sterling" horiz-adv-x="821" d="M522 537H305Q299 478 283 406Q269 345 246 287T197 184Q166 133 141 100Q202 106 246 106Q297 106 319 104L391 100Q428 98 475 100Q518 100 549 106Q584 112 604 129Q633 149 651 180Q680
227 702 272L739 254Q735 238 728 211T719 172Q715 156 707 129T698 98Q690 67 680 41Q676 29 668 0Q623 -25 567 -29Q518 -31 451 -25Q392 -19 326 -6Q281 2 199 10Q144 16 76 8Q23 2 -31 -31L-43 18Q-27 32 12 66Q35 86 55 113Q69 133 88 172Q100 199 115 256Q121
279 133 373Q135 387 150 537H47L33 561Q41 581 45 594Q51 614 59 627H158Q174 785 207 883Q244 998 299 1073Q356 1151 436 1194Q512 1235 621 1235Q652 1235 666 1233Q676 1231 711 1223Q717 1221 764 1202Q793 1192 834 1165Q832 1159 828 1137T819 1102Q807
1053 801 1026Q797 1010 790 986T780 954Q770 913 762 899H719Q723 1024 676 1079Q629 1136 541 1137Q516 1137 492 1130Q463 1122 442 1108Q417 1090 397 1057Q379 1028 358 967Q340 912 328 827Q316 745 309 627H537L555 604L522 537Z" />
<glyph unicode="&#xa5;" glyph-name="yen" horiz-adv-x="821" d="M973 1180Q930 1170 887 1153Q860 1143 842 1114L502 524V512H711L727 487L700 422H489L453 111Q450 99 477 80Q506 62 573 43L569 0H182L188 43Q268 63 293 78Q324 96 326 111L365 422H152L137
446L162 512H375L379 535Q373 560 336 686Q313 764 281 848Q246 936 219 999Q194 1056 160 1118Q151 1133 142 1142T117 1155Q97 1159 82 1159Q72 1159 31 1155L23 1196Q29 1198 43 1202T74 1210L129 1223Q166 1231 182 1233Q215 1237 223 1237Q243 1237 266 1198Q284
1167 307 1122Q311 1112 348 1030Q356 1012 369 976T389 928Q412 873 426 827Q446 761 455 733Q473 672 475 657L743 1114Q759 1141 739 1155Q717 1170 659 1180L666 1221H977L973 1180Z" />
<glyph unicode="&#xa7;" glyph-name="section" horiz-adv-x="864" d="M516 528Q528 520 538 514T561 502Q575 494 604 473Q639 498 657 524Q673 549 682 594Q688 645 678 678Q666 715 637 750Q614 779 559 821Q528 846 449 899Q414 919 381 952Q361 946 350 932Q332
907 326 897Q310 862 307 858Q305 848 299 821Q293 780 303 741Q311 706 340 672Q360 645 412 606Q467 563 516 528ZM809 655Q797 567 756 504T670 408Q688 385 698 344Q706 311 700 262Q692 196 666 143Q641 94 608 61Q577 30 537 10Q504 -6 463 -16Q424 -26 397
-29Q377 -31 350 -31Q317 -31 250 -6Q197 12 137 53Q131 57 133 86Q137 127 141 154Q145 174 158 231Q167 271 176 293L213 283Q211 244 223 201Q233 166 260 133Q280 106 324 86Q361 68 410 68Q473 68 520 102Q566 136 575 207Q581 250 567 276Q555 299 522 328Q499
348 457 373Q432 387 383 420Q317 463 285 492Q242 529 215 569T176 662Q164 709 174 774Q180 817 195 846Q211 883 231 911Q256 946 279 967Q297 983 334 1008Q305 1055 297 1096Q287 1147 295 1200Q303 1255 334 1307Q361 1352 403 1382Q438 1407 496 1425Q541
1439 596 1440Q624 1440 657 1434Q680 1430 721 1413Q754 1399 778 1386Q803 1372 819 1354Q823 1350 817 1325Q811 1307 799 1280Q783 1247 774 1233L754 1202L721 1210Q684 1286 645 1317Q604 1350 559 1350Q502 1350 463 1321Q428 1294 418 1239Q412 1202 420
1176Q429 1148 451 1120Q467 1097 506 1067Q543 1038 584 1010Q600 1000 617 987T654 959T684 936Q727 903 760 862Q795 817 805 774Q817 721 809 655Z" />
<glyph unicode="&#xa8;" glyph-name="dieresis" horiz-adv-x="1040" d="M512 1262Q512 1231 504 1206Q495 1178 479 1157Q463 1134 441 1120T387 1106T338 1124T319 1176Q319 1201 330 1231Q338 1254 356 1280T395 1319Q418 1333 446 1333Q477 1333 496 1315Q512
1299 512 1262ZM887 1262Q887 1237 877 1206Q868 1178 852 1157Q838 1137 811 1120Q788 1106 760 1106Q729 1106 711 1124T692 1176Q692 1201 702 1231Q711 1259 727 1280Q743 1303 766 1319Q786 1333 817 1333Q850 1333 868 1315T887 1262Z" />
<glyph unicode="&#xa9;" glyph-name="copyright" horiz-adv-x="1359" d="M1014 942L942 895Q907 872 885 872Q875 872 862 887Q858 893 846 903T829 918Q823 924 784 948Q761 962 725 963Q684 963 647 944Q612 926 582 893Q549 856 530 819Q499 758 492 733Q480
700 469 643Q461 602 461 559Q461 502 477 461Q493 422 524 383Q551 350 592 332Q627 316 672 315Q687 315 709 322Q734 328 760 342Q795 358 829 381Q847 393 918 444Q920 440 926 434T934 424Q936 422 940 416T946 408Q897 365 821 311Q770 276 725 256Q674 233
649 229Q614 223 580 223Q549 223 508 238Q461 254 426 286T362 379Q335 434 336 526Q336 592 346 641Q356 688 385 754Q410 811 453 862Q496 915 561 965Q577 979 614 997Q653 1015 680 1024Q703 1030 748 1038Q782 1044 809 1044Q854 1044 883 1030Q918 1012
938 997Q950 987 981 963Q1004 944 1014 942ZM1200 719Q1200 820 1170 909T1083 1063Q1026 1129 948 1165Q864 1204 768 1204Q678 1204 604 1178T461 1104T342 995Q281 919 250 858Q215 788 193 705Q173 629 172 545Q172 444 203 354Q234 266 289 199Q338 138 426
94Q504 55 606 55Q696 55 770 82Q852 111 913 156Q983 205 1032 266Q1087 336 1122 403Q1157 473 1180 557Q1200 633 1200 719ZM1280 752Q1280 662 1257 561Q1234 465 1194 381Q1143 279 1092 217Q1029 141 954 88Q870 27 788 0Q696 -31 594 -31Q479 -31 387 12Q293
55 229 129Q163 205 129 307Q94 411 94 526Q94 616 117 713Q137 801 182 891Q223 971 287 1049Q346 1119 424 1176Q496 1227 590 1260Q680 1291 778 1290Q889 1290 983 1249T1143 1137Q1204 1069 1243 965Q1280 867 1280 752Z" />
<glyph unicode="&#xaa;" glyph-name="ordfeminine" horiz-adv-x="585" d="M549 635Q543 620 537 610Q537 608 526 586H76L59 606Q61 610 64 619T70 633Q78 649 82 659H530L549 635ZM401 963L410 1014L418 1067Q420 1075 423 1090T426 1112Q428 1126 432 1143Q407
1159 393 1167Q373 1179 346 1180Q311 1180 279 1153Q248 1128 225 1090Q205 1055 193 1012T180 938Q180 870 203 825Q223 784 256 784Q266 784 287 801Q299 811 326 842Q340 858 365 899Q395 951 401 963ZM563 768Q500 729 487 725Q456 713 442 713Q433 713 424
719Q414 725 408 743Q400 766 397 795Q393 840 393 879Q391 875 380 856T360 825Q335 788 317 770Q290 743 268 729Q241 713 221 713Q207 713 182 723Q168 729 145 756Q131 772 117 811Q107 840 106 897Q106 987 145 1059Q186 1135 262 1186Q282 1198 295 1204Q324
1218 330 1221Q334 1223 341 1226T354 1231T367 1233Q392 1237 401 1237Q426 1237 444 1227Q467 1215 481 1204Q495 1216 537 1237L547 1217Q541 1213 532 1204Q522 1194 520 1190Q512 1176 512 1171Q508 1155 506 1143Q500 1116 492 1063T479 985Q475 965 471
922Q469 904 469 883Q469 822 475 797Q481 774 494 774Q508 774 518 776Q533 779 555 788L563 768Z" />
<glyph unicode="&#xab;" glyph-name="guillemotleft" horiz-adv-x="880" d="M57 414Q61 439 63 449Q65 457 66 471Q66 481 70 485L442 889L475 860L465 842L436 797L393 729L346 655L299 580L256 512L227 467L217 451L365 37L324 6L57 414ZM385 414Q389 439 391
449Q395 465 395 471Q395 483 397 485L770 889L805 860L793 842L764 797L721 729L674 655L627 580L584 512L555 467L545 451L692 37L651 6L385 414Z" />
<glyph unicode="&#xac;" glyph-name="logicalnot" horiz-adv-x="821" d="M725 324Q709 312 678 295Q660 285 627 272L606 297L637 506H70L51 530Q53 534 56 542T62 558T70 573L92 618H739L762 596L725 324Z" />
<glyph unicode="&#xae;" glyph-name="registered" horiz-adv-x="702" d="M735 1083Q727 1015 694 948Q663 885 618 840T512 766T389 737Q326 737 275 766T191 840T145 948Q133 1016 141 1083T182 1219Q213 1282 260 1329Q306 1375 365 1403Q420 1430 487 1430Q550
1430 602 1403Q651 1376 686 1329T733 1219Q745 1157 735 1083ZM682 1083Q692 1144 680 1196Q668 1251 641 1288Q614 1327 571 1352Q532 1375 473 1374Q416 1374 373 1352Q324 1325 289 1288Q252 1248 227 1196Q204 1149 195 1083Q185 1020 197 971Q209 916 236
879Q267 836 305 815Q350 792 401 792T502 815T588 879Q625 919 649 971Q672 1020 682 1083ZM276 887L279 905Q316 913 319 924L365 1249L326 1243L328 1274Q365 1282 385 1286T451 1290Q488 1290 510 1282Q537 1272 549 1260Q565 1244 571 1225Q577 1205 575 1186Q569
1143 539 1112Q512 1085 469 1075L541 934Q547 922 555 922Q571 922 586 928L590 909L586 907Q580 905 574 902T560 896T547 891Q522 881 516 881Q506 881 500 887Q496 891 492 899L420 1069H418Q408 1069 391 1073L371 924Q369 920 378 915T406 905L403 887H276ZM436
1255H426H416L395 1110Q399 1108 408 1108H420Q467 1108 489 1122T518 1178Q520 1192 518 1206Q516 1216 506 1231Q496 1243 479 1249Q461 1255 436 1255Z" />
<glyph unicode="&#xaf;" glyph-name="overscore" horiz-adv-x="800" d="M834 1257Q832 1247 825 1233Q823 1229 818 1219T811 1204Q803 1190 797 1178Q793 1170 784 1157H236L219 1182Q221 1188 229 1204L242 1233Q244 1239 249 1248T256 1260Q264 1276 268 1282H815L834
1257Z" />
<glyph unicode="&#xb0;" glyph-name="degree" horiz-adv-x="626" d="M362 852Q399 852 424 868Q457 891 471 911Q491 942 500 969Q510 1004 510 1028Q510 1075 487 1110Q467 1143 428 1143Q399 1143 377 1128Q348 1110 330 1090Q310 1067 297 1034Q285 1003 285
967Q285 936 289 922Q295 897 303 885Q312 870 328 860Q342 852 362 852ZM614 1073Q614 1026 600 985Q584 938 561 907Q532 868 508 846Q477 819 444 799Q403 774 383 768Q356 760 326 760T266 772Q235 786 219 805Q196 832 188 856Q178 887 178 918Q178 981 207
1042Q234 1097 279 1143Q320 1184 373 1210Q422 1235 467 1235Q496 1235 524 1223Q547 1213 571 1188Q587 1172 602 1137Q614 1106 614 1073Z" />
<glyph unicode="&#xb1;" glyph-name="plusminus" horiz-adv-x="768" d="M735 725Q729 707 727 702L717 678Q715 674 712 667T707 655L696 635H465L426 367Q414 359 406 356Q402 356 393 352T379 348T366 344T352 340T341 339T330 336L309 356L348 635H109L90 659L109
705L131 750H365L403 1022Q409 1024 451 1036L500 1051L520 1026L481 750H717L735 725ZM666 221Q660 203 657 199L647 172Q645 168 642 161T637 150L627 129H39L20 154L39 199Q41 205 49 221T61 246H647L666 221Z" />
<glyph unicode="&#xb4;" glyph-name="acute" horiz-adv-x="604" d="M571 1374L217 1026Q199 1030 193 1036L172 1061L444 1458L469 1452Q475 1450 502 1442Q514 1438 535 1430Q553 1422 557 1419L571 1374Z" />
<glyph unicode="&#xb5;" glyph-name="uni00B5" horiz-adv-x="1050" d="M717 500L733 602Q737 629 748 694Q752 723 752 760Q752 780 748 825Q746 858 735 877Q745 881 755 885T774 893Q784 897 796 900T819 907L864 924L909 936Q913 932 916 925T922 915Q926 909
930 897L913 817Q909 792 904 765T893 707Q887 674 882 642T870 582Q856 504 848 453Q844 420 834 340Q828 288 827 254Q827 201 829 182Q833 153 838 141Q844 126 850 123Q858 119 864 119Q876 119 883 121Q897 127 907 135Q913 141 938 174Q975 223 987 244L1022
215Q971 125 946 88Q909 35 885 10Q856 -19 827 -31Q804 -41 768 -41Q682 -41 680 244Q647 183 610 129Q571 74 537 39Q496 -2 461 -20Q422 -40 381 -41Q346 -41 317 -27Q282 -11 262 14Q239 41 217 78Q207 96 184 162L176 104Q162 12 166 -88Q170 -182 178 -248Q186
-309 201 -362Q213 -405 219 -420Q213 -422 202 -426T178 -436Q153 -446 127 -459L76 -483Q62 -489 54 -493T41 -500L6 -471Q12 -422 25 -342L51 -186Q57 -153 64 -108T80 -16Q88 23 91 44T98 94T109 156L137 319Q151 399 162 467Q164 494 172 547T184 625Q188
645 193 698Q197 743 197 760Q197 789 195 797Q191 813 186 817Q184 819 172 825Q168 827 158 827Q156 827 131 823Q111 819 96 815L55 803L41 840L125 877Q168 895 205 907Q217 911 239 918T270 928Q295 936 309 936Q337 936 346 918Q356 898 356 852Q356 836
352 782Q352 770 350 757T345 726T340 698Q334 653 326 606Q322 588 318 565T309 516Q301 459 299 434Q295 385 295 369Q295 310 303 268Q312 222 328 188Q340 159 367 137Q390 119 414 119Q451 119 492 145Q535 172 580 227Q623 278 674 369Q680 377 689 396T702
424Q704 440 708 458T717 500Z" />
<glyph unicode="&#xb6;" glyph-name="paragraph" horiz-adv-x="1019" d="M799 1159L762 1171Q752 1173 744 1176T727 1182L543 -145Q541 -153 553 -163T573 -176Q579 -174 598 -164Q612 -156 614 -145L799 1159ZM555 610L639 1200Q584 1206 543 1206Q484 1206
436 1186Q387 1163 348 1129T285 1042Q258 987 252 938Q244 883 252 825Q260 774 293 721Q326 670 377 641Q432 610 512 610H555ZM1034 1217Q956 1199 932 1186Q893 1168 891 1155L709 -145Q707 -155 739 -176Q762 -188 836 -207L829 -250H299L305 -207Q383 -189
408 -176Q447 -158 449 -145L545 532Q520 528 508 528Q502 528 486 527T461 526Q369 526 301 549Q225 574 176 621Q129 666 102 739Q79 805 92 903Q104 991 145 1059Q190 1135 250 1182Q316 1235 395 1262Q481 1291 571 1290Q577 1290 592 1289T618 1288Q638 1288
680 1284Q690 1282 713 1281T748 1280Q758 1278 780 1278T813 1276Q856 1272 900 1268T975 1260H1040L1034 1217Z" />
<glyph unicode="&#xb7;" glyph-name="middot" horiz-adv-x="409" d="M336 678Q336 651 326 617T297 557Q279 534 250 514Q225 498 188 498Q147 498 127 524Q104 553 104 596Q104 625 117 655Q133 696 147 713Q172 742 195 756Q220 772 254 772Q291 772 313 746T336 678Z" />
<glyph unicode="&#xb8;" glyph-name="cedilla" horiz-adv-x="323" d="M219 -221Q219 -274 188 -317Q155 -364 109 -387Q64 -410 -2 -410Q-61 -410 -125 -375L-127 -336Q-70 -363 -33 -362Q8 -362 37 -350Q62 -340 78 -315Q92 -295 92 -268Q92 -243 70 -227T0 -215Q4
-207 23 -150Q25 -146 32 -126T41 -96L53 -47Q57 -35 59 -22T63 4L131 2Q127 -12 124 -33T119 -63T112 -88T104 -113Q157 -117 188 -143Q219 -172 219 -221Z" />
<glyph unicode="&#xba;" glyph-name="ordmasculine" horiz-adv-x="507" d="M440 1006Q440 1088 410 1130Q377 1175 326 1176Q289 1176 260 1153Q233 1133 217 1096Q197 1053 193 1022Q187 982 186 948Q186 907 195 881Q204 850 219 825Q231 805 258 786Q278 772
303 772Q340 772 367 797Q396 824 410 856Q426 897 432 932Q440 986 440 1006ZM469 635Q463 620 457 610Q455 608 446 586H76L59 606Q61 610 64 619T70 633Q78 649 82 659H451L469 635ZM518 1034Q518 993 510 961Q498 912 487 889Q475 860 449 823Q429 794 395
768Q360 741 334 729Q297 713 268 713Q229 713 201 729Q173 744 152 772Q132 799 121 838Q111 879 111 920Q111 998 137 1063Q165 1131 236 1186Q264 1208 297 1223Q328 1237 362 1237Q405 1237 434 1223Q465 1208 483 1180Q499 1153 510 1116Q518 1083 518 1034Z"
/>
<glyph unicode="&#xbb;" glyph-name="guillemotright" horiz-adv-x="880" d="M807 485L806 480Q805 475 805 471Q805 457 803 449L799 414L422 6L387 37L649 451Q647 459 639 479Q629 510 612 555L575 655L539 754Q523 799 512 829L500 860L543 889L807 485ZM477
485V471Q477 465 473 449L469 414L94 6L59 37L322 451Q320 459 311 479Q305 495 298 513T283 555Q277 573 269 600T248 655L211 754Q203 777 196 795T182 829L172 860L213 889L477 485Z" />
<glyph unicode="&#xbf;" glyph-name="questiondown" horiz-adv-x="811" d="M352 750Q352 777 362 811Q370 836 393 870Q409 893 438 913Q463 929 500 930Q541 930 561 903Q584 874 584 831Q584 798 573 772Q559 735 541 715Q519 690 492 672Q467 656 434 655Q397
655 375 680Q352 707 352 750ZM631 -190Q631 -251 602 -315Q575 -372 522 -424Q467 -475 397 -502Q321 -531 231 -530Q172 -530 121 -510Q76 -492 45 -459Q16 -428 0 -381Q-16 -336 -16 -285Q-16 -205 10 -131Q37 -59 74 -10Q114 42 160 88Q191 119 248 184Q291
233 324 287Q353 334 367 414L381 510Q401 528 414 535Q428 543 455 553L475 530L473 414Q469 344 447 291T385 184Q348 132 305 86Q276 55 227 -10Q196 -51 168 -113Q143 -164 143 -229Q143 -327 186 -380T317 -434Q360 -434 391 -416Q424 -396 442 -362Q465 -321
469 -289Q475 -242 467 -199Q473 -197 485 -191T504 -182Q522 -174 537 -172Q541 -172 553 -169T571 -164T591 -161T610 -160L631 -190Z" />
<glyph unicode="&#xc0;" glyph-name="Agrave" horiz-adv-x="1146" d="M848 1393Q832 1373 825 1364Q816 1355 801 1346L399 1589L412 1636Q414 1638 422 1644T436 1655Q456 1667 469 1673L506 1694L535 1708L848 1393ZM371 444L227 111Q211 78 244 66Q279 52 350
43L344 0H-35L-29 43Q32 55 72 68Q109 80 123 111L610 1229Q622 1241 641 1253L678 1278Q696 1290 715 1300Q721 1304 731 1309T745 1317L961 111Q965 93 969 86Q977 74 985 68Q995 60 1018 53Q1045 45 1071 43L1067 0H682L686 43Q760 49 788 63Q819 79 813 111L756
444H371ZM739 535L645 1079L410 535H739Z" />
<glyph unicode="&#xc1;" glyph-name="Aacute" horiz-adv-x="1146" d="M1032 1589L578 1346Q568 1352 559 1364Q553 1372 545 1393L936 1708L958 1694L987 1673Q997 1667 1014 1655L1032 1636V1589ZM371 444L227 111Q211 78 244 66Q279 52 350 43L344 0H-35L-29
43Q32 55 72 68Q109 80 123 111L610 1229Q622 1241 641 1253L678 1278Q696 1290 715 1300Q721 1304 731 1309T745 1317L961 111Q965 93 969 86Q977 74 985 68Q995 60 1018 53Q1045 45 1071 43L1067 0H682L686 43Q760 49 788 63Q819 79 813 111L756 444H371ZM739
535L645 1079L410 535H739Z" />
<glyph unicode="&#xc2;" glyph-name="Acircumflex" horiz-adv-x="1146" d="M983 1391L963 1362Q957 1354 938 1346L725 1550L459 1346Q449 1352 442 1362Q430 1378 426 1391L700 1692H793L983 1391ZM371 444L227 111Q211 78 244 66Q279 52 350 43L344 0H-35L-29
43Q32 55 72 68Q109 80 123 111L610 1229Q622 1241 641 1253L678 1278Q696 1290 715 1300Q721 1304 731 1309T745 1317L961 111Q965 93 969 86Q977 74 985 68Q995 60 1018 53Q1045 45 1071 43L1067 0H682L686 43Q760 49 788 63Q819 79 813 111L756 444H371ZM739
535L645 1079L410 535H739Z" />
<glyph unicode="&#xc3;" glyph-name="Atilde" horiz-adv-x="1146" d="M1042 1614Q1013 1561 995 1534Q962 1487 938 1462Q903 1427 870 1411Q829 1391 797 1391T739 1409Q733 1413 724 1420T707 1433T690 1446Q678 1456 643 1483Q620 1499 594 1499Q559 1499 522
1468Q495 1445 444 1380L401 1403Q426 1446 449 1481Q482 1528 506 1552Q541 1587 573 1604Q610 1622 647 1622T709 1606Q748 1581 760 1569L805 1532Q827 1514 848 1513Q877 1513 920 1546T997 1632L1042 1614ZM371 444L227 111Q211 78 244 66Q279 52 350 43L344
0H-35L-29 43Q32 55 72 68Q109 80 123 111L610 1229Q622 1241 641 1253L678 1278Q696 1290 715 1300Q721 1304 731 1309T745 1317L961 111Q965 93 969 86Q977 74 985 68Q995 60 1018 53Q1045 45 1071 43L1067 0H682L686 43Q760 49 788 63Q819 79 813 111L756 444H371ZM739
535L645 1079L410 535H739Z" />
<glyph unicode="&#xc4;" glyph-name="Adieresis" horiz-adv-x="1146" d="M1004 1548Q1004 1517 995 1493Q987 1470 969 1444Q953 1421 930 1407T877 1393Q848 1393 830 1411T811 1462Q811 1493 819 1518Q827 1545 846 1569Q858 1587 885 1606Q905 1620 936 1620T985
1602T1004 1548ZM631 1548Q631 1517 623 1493Q614 1465 598 1444Q584 1424 557 1407Q534 1393 506 1393Q475 1393 457 1411T438 1462Q438 1487 448 1517T473 1568T514 1606Q537 1620 565 1620Q596 1620 614 1602Q631 1585 631 1548ZM371 444L227 111Q211 78 244
66Q279 52 350 43L344 0H-35L-29 43Q32 55 72 68Q109 80 123 111L610 1229Q622 1241 641 1253L678 1278Q696 1290 715 1300Q721 1304 731 1309T745 1317L961 111Q965 93 969 86Q977 74 985 68Q995 60 1018 53Q1045 45 1071 43L1067 0H682L686 43Q760 49 788 63Q819
79 813 111L756 444H371ZM739 535L645 1079L410 535H739Z" />
<glyph unicode="&#xc5;" glyph-name="Aring" horiz-adv-x="1146" d="M897 1599Q897 1558 879 1516Q854 1459 831 1432Q802 1397 760 1370Q720 1345 674 1346Q649 1346 625 1356Q602 1366 588 1382Q572 1402 564 1421T555 1468Q555 1519 571 1561Q591 1610 618
1642Q651 1681 690 1706Q727 1729 778 1729Q833 1729 864 1692Q897 1652 897 1599ZM811 1563Q811 1600 797 1626T752 1653Q724 1653 702 1640Q682 1628 666 1606Q652 1586 646 1561T639 1511Q639 1476 655 1448T702 1419Q725 1419 750 1434Q766 1444 784 1468Q798
1488 804 1513T811 1563ZM371 444L227 111Q211 78 244 66Q279 52 350 43L344 0H-35L-29 43Q32 55 72 68Q109 80 123 111L610 1229Q622 1241 641 1253L678 1278Q696 1290 715 1300Q721 1304 731 1309T745 1317L961 111Q965 93 969 86Q977 74 985 68Q995 60 1018
53Q1045 45 1071 43L1067 0H682L686 43Q760 49 788 63Q819 79 813 111L756 444H371ZM739 535L645 1079L410 535H739Z" />
<glyph unicode="&#xc6;" glyph-name="AE" horiz-adv-x="1462" d="M819 1147Q819 1157 811 1163Q805 1167 793 1167Q783 1167 769 1157T745 1130L551 735H764L819 1147ZM1380 244Q1349 121 1341 92Q1327 41 1309 0H532L539 43Q600 57 639 74Q674 88 678 104L752
655H510L238 111Q224 84 248 68Q273 54 344 43L340 0H-35L-29 43Q32 55 70 68Q103 78 121 111L635 1133Q643 1149 635 1161T606 1182Q584 1191 551 1200Q539 1204 509 1209T473 1217L479 1260H1432L1454 1235Q1450 1219 1442 1178Q1438 1158 1426 1117T1407 1057Q1397
1026 1389 1010H1348Q1350 1041 1350 1087Q1350 1116 1343 1135Q1337 1155 1323 1161Q1307 1169 1294 1169H967L907 735H1272L1292 707Q1290 705 1270 678Q1266 672 1257 662T1243 647Q1235 637 1219 621Q1211 613 1194 600Q1182 616 1167 625Q1147 637 1135 641Q1112
649 1087 651Q1050 655 1024 655H897L827 154Q823 138 829 128T854 106Q872 97 909 94Q958 90 1004 90H1118Q1169 90 1190 94Q1225 100 1245 117Q1270 135 1292 170Q1321 217 1343 262L1380 244Z" />
<glyph unicode="&#xc7;" glyph-name="Ccedilla" horiz-adv-x="993" d="M588 -221Q588 -274 557 -317Q524 -364 477 -387Q432 -410 365 -410Q308 -410 244 -375L242 -336Q299 -363 336 -362Q376 -362 403 -350T446 -315Q460 -295 461 -268Q461 -243 439 -227T369
-215Q373 -207 391 -150Q403 -113 408 -96L420 -47Q422 -41 426 -25Q363 -19 313 4Q245 39 193 100Q136 168 106 252Q75 340 76 459Q76 553 94 651T152 840Q195 938 252 1016Q313 1100 397 1167Q467 1222 555 1257Q639 1290 733 1290T901 1262Q971 1233 1016 1190Q1020
1182 1010 1167Q1000 1151 981 1130L944 1087Q936 1079 925 1069T911 1057L881 1065Q846 1106 782 1139Q724 1170 641 1169Q600 1169 551 1151Q506 1135 461 1100Q398 1053 354 977Q303 889 281 821Q250 731 240 659Q228 579 227 516Q227 401 256 328Q287 248 332
197Q375 148 434 121Q489 96 543 96Q602 96 678 131Q760 170 868 256Q874 254 877 248Q879 246 881 242T885 233Q885 231 889 227T893 221T894 216T897 211Q827 143 770 96Q713 51 655 23Q610 0 553 -14Q512 -22 494 -25Q492 -33 489 -47T485 -63L473 -113Q524
-115 555 -143Q588 -172 588 -221Z" />
<glyph unicode="&#xc8;" glyph-name="Egrave" horiz-adv-x="944" d="M856 244Q827 129 815 92Q809 76 803 55T793 21T784 0H0L6 43Q67 57 106 73T147 104L293 1155Q295 1167 264 1186Q241 1198 168 1217L174 1260H911L936 1235Q932 1219 924 1178Q920 1158 907
1116Q903 1104 896 1084T887 1057Q877 1026 868 1010H825Q829 1041 829 1087Q829 1110 821 1135Q815 1155 803 1161Q787 1169 772 1169H436L379 735H752L772 707Q770 705 750 678Q746 672 737 664T723 649Q715 639 696 621Q684 609 674 600Q662 616 639 627Q614
639 596 643Q561 651 530 653Q503 655 436 655H367L299 154Q295 138 301 128T326 106Q344 97 381 94Q430 90 477 90H598Q651 90 670 94Q701 100 721 117Q746 135 768 170Q790 204 817 262L856 244ZM741 1393Q725 1373 719 1364Q710 1355 694 1346L295 1589L305
1636Q307 1636 316 1643T332 1655Q352 1667 365 1673L399 1694L428 1708L741 1393Z" />
<glyph unicode="&#xc9;" glyph-name="Eacute" horiz-adv-x="944" d="M856 244Q827 129 815 92Q809 76 803 55T793 21T784 0H0L6 43Q67 57 106 73T147 104L293 1155Q295 1167 264 1186Q241 1198 168 1217L174 1260H911L936 1235Q932 1219 924 1178Q920 1158 907
1116Q903 1104 896 1084T887 1057Q877 1026 868 1010H825Q829 1041 829 1087Q829 1110 821 1135Q815 1155 803 1161Q787 1169 772 1169H436L379 735H752L772 707Q770 705 750 678Q746 672 737 664T723 649Q715 639 696 621Q684 609 674 600Q662 616 639 627Q614
639 596 643Q561 651 530 653Q503 655 436 655H367L299 154Q295 138 301 128T326 106Q344 97 381 94Q430 90 477 90H598Q651 90 670 94Q701 100 721 117Q746 135 768 170Q790 204 817 262L856 244ZM928 1589L473 1346Q463 1352 455 1364Q449 1372 440 1393L831
1708L854 1694L881 1673Q901 1661 909 1655L928 1636V1589Z" />
<glyph unicode="&#xca;" glyph-name="Ecircumflex" horiz-adv-x="944" d="M856 244Q827 129 815 92Q809 76 803 55T793 21T784 0H0L6 43Q67 57 106 73T147 104L293 1155Q295 1167 264 1186Q241 1198 168 1217L174 1260H911L936 1235Q932 1219 924 1178Q920 1158
907 1116Q903 1104 896 1084T887 1057Q877 1026 868 1010H825Q829 1041 829 1087Q829 1110 821 1135Q815 1155 803 1161Q787 1169 772 1169H436L379 735H752L772 707Q770 705 750 678Q746 672 737 664T723 649Q715 639 696 621Q684 609 674 600Q662 616 639 627Q614
639 596 643Q561 651 530 653Q503 655 436 655H367L299 154Q295 138 301 128T326 106Q344 97 381 94Q430 90 477 90H598Q651 90 670 94Q701 100 721 117Q746 135 768 170Q790 204 817 262L856 244ZM879 1391L858 1362Q852 1354 834 1346L618 1550L352 1346Q346
1350 338 1362Q322 1389 319 1391L596 1692H686L879 1391Z" />
<glyph unicode="&#xcb;" glyph-name="Edieresis" horiz-adv-x="944" d="M899 1548Q899 1517 891 1493Q883 1470 864 1444Q848 1421 826 1407T772 1393T723 1411Q707 1427 707 1462Q707 1493 715 1518Q725 1549 739 1569Q751 1587 778 1606Q798 1620 831 1620Q862
1620 880 1602T899 1548ZM526 1548Q526 1523 516 1493Q507 1465 492 1444Q476 1421 453 1407T401 1393Q368 1393 350 1411Q334 1427 334 1462Q334 1493 342 1518Q350 1545 369 1569Q385 1592 407 1606T461 1620Q490 1620 508 1602T526 1548ZM856 244Q827 129 815
92Q809 76 803 55T793 21T784 0H0L6 43Q67 57 106 73T147 104L293 1155Q295 1167 264 1186Q241 1198 168 1217L174 1260H911L936 1235Q932 1219 924 1178Q920 1158 907 1116Q903 1104 896 1084T887 1057Q877 1026 868 1010H825Q829 1041 829 1087Q829 1110 821
1135Q815 1155 803 1161Q787 1169 772 1169H436L379 735H752L772 707Q770 705 750 678Q746 672 737 664T723 649Q715 639 696 621Q684 609 674 600Q662 616 639 627Q614 639 596 643Q561 651 530 653Q503 655 436 655H367L299 154Q295 138 301 128T326 106Q344
97 381 94Q430 90 477 90H598Q651 90 670 94Q701 100 721 117Q746 135 768 170Q790 204 817 262L856 244Z" />
<glyph unicode="&#xcc;" glyph-name="Igrave" horiz-adv-x="571" d="M557 1393Q541 1373 535 1364Q526 1355 510 1346L109 1589L121 1636Q123 1638 131 1644T145 1655Q155 1661 180 1673L215 1694L244 1708L557 1393ZM598 1217Q524 1199 498 1186Q459 1168 457
1155L311 104Q309 92 340 74Q363 62 436 43L430 0H20L27 43Q88 57 127 73T168 104L311 1155Q313 1167 283 1186Q260 1200 188 1217L195 1260H604L598 1217Z" />
<glyph unicode="&#xcd;" glyph-name="Iacute" horiz-adv-x="571" d="M743 1589L289 1346Q275 1354 268 1364L256 1393L645 1708L670 1694L696 1673Q716 1661 725 1655L743 1636V1589ZM598 1217Q524 1199 498 1186Q459 1168 457 1155L311 104Q309 92 340 74Q363
62 436 43L430 0H20L27 43Q88 57 127 73T168 104L311 1155Q313 1167 283 1186Q260 1200 188 1217L195 1260H604L598 1217Z" />
<glyph unicode="&#xce;" glyph-name="Icircumflex" horiz-adv-x="571" d="M694 1391Q688 1383 681 1374T672 1362Q666 1352 649 1346L434 1550L168 1346Q158 1352 152 1362Q140 1378 135 1391L410 1692H502L694 1391ZM598 1217Q524 1199 498 1186Q459 1168 457
1155L311 104Q309 92 340 74Q363 62 436 43L430 0H20L27 43Q88 57 127 73T168 104L311 1155Q313 1167 283 1186Q260 1200 188 1217L195 1260H604L598 1217Z" />
<glyph unicode="&#xcf;" glyph-name="Idieresis" horiz-adv-x="571" d="M715 1548Q715 1523 705 1493Q696 1465 680 1444Q666 1424 639 1407Q616 1393 588 1393Q557 1393 539 1411T520 1462Q520 1487 530 1517T555 1569Q567 1587 594 1606Q614 1620 645 1620Q678
1620 696 1602T715 1548ZM342 1548Q342 1523 332 1493Q323 1465 307 1444Q291 1421 269 1407T215 1393T166 1411T147 1462Q147 1487 158 1518Q166 1545 184 1569Q200 1592 223 1606T274 1620Q305 1620 323 1602T342 1548ZM598 1217Q524 1199 498 1186Q459 1168
457 1155L311 104Q309 92 340 74Q363 62 436 43L430 0H20L27 43Q88 57 127 73T168 104L311 1155Q313 1167 283 1186Q260 1200 188 1217L195 1260H604L598 1217Z" />
<glyph unicode="&#xd1;" glyph-name="Ntilde" horiz-adv-x="1236" d="M1083 1614Q1054 1561 1036 1534Q1003 1487 979 1462Q944 1427 911 1411Q870 1391 838 1391T780 1409Q774 1413 765 1420T748 1433T731 1446Q719 1456 684 1483Q661 1499 635 1499Q600 1499
563 1468Q536 1445 485 1380L442 1403Q467 1446 489 1481Q522 1528 547 1552Q582 1587 614 1604Q651 1622 688 1622T750 1606Q789 1581 801 1569L846 1532Q868 1514 889 1513Q918 1513 961 1546T1038 1632L1083 1614ZM1288 1217Q1218 1207 1188 1190Q1155 1172
1153 1155L989 -31Q975 -29 950 -25Q936 -23 920 -12Q914 -8 895 10Q885 20 870 45L373 1004L250 104Q247 92 274 74T371 43L365 0H0L6 43Q69 51 106 72Q141 90 143 104L289 1153Q264 1182 231 1196Q206 1206 158 1217L164 1260H342H377Q387 1260 399 1251Q401
1249 416 1227Q420 1221 426 1210T440 1182L924 258L1047 1155Q1047 1163 1043 1169T1022 1186Q1014 1190 983 1202Q965 1208 924 1217L930 1260H1294L1288 1217Z" />
<glyph unicode="&#xd2;" glyph-name="Ograve" horiz-adv-x="1114" d="M852 1393Q836 1373 829 1364Q820 1355 805 1346L403 1589L416 1636Q418 1638 426 1644T440 1655Q460 1667 473 1673L510 1694L539 1708L852 1393ZM936 756Q936 842 918 915Q900 987 864 1044Q831
1097 778 1133Q727 1166 662 1165Q588 1165 526 1135Q458 1102 418 1057Q373 1010 338 942T283 809Q263 739 252 666Q242 588 242 532Q242 448 262 360Q280 282 317 223Q352 168 403 133Q450 100 516 100Q594 100 655 131T762 213Q809 266 842 332Q876 400 897
473Q915 536 925 618T936 756ZM1085 774Q1085 704 1073 631Q1059 545 1038 485Q1011 411 981 348Q952 289 901 225Q864 180 811 125Q762 78 711 43Q668 16 598 -10Q543 -30 471 -31Q375 -31 303 10Q229 51 184 121Q137 195 113 287Q90 375 90 485Q90 548 102 618Q116
696 135 760Q158 834 186 897Q213 954 258 1018Q315 1092 348 1124Q397 1173 453 1210Q506 1245 571 1268Q639 1291 705 1290Q803 1290 874 1249T993 1137Q1042 1061 1063 973Q1085 872 1085 774Z" />
<glyph unicode="&#xd3;" glyph-name="Oacute" horiz-adv-x="1114" d="M1036 1589L582 1346Q572 1352 563 1364Q557 1372 549 1393L940 1708L963 1694L991 1673Q1001 1667 1018 1655L1036 1636V1589ZM936 756Q936 842 918 915Q900 987 864 1044Q831 1097 778 1133Q727
1166 662 1165Q588 1165 526 1135Q458 1102 418 1057Q373 1010 338 942T283 809Q263 739 252 666Q242 588 242 532Q242 448 262 360Q280 282 317 223Q352 168 403 133Q450 100 516 100Q594 100 655 131T762 213Q809 266 842 332Q876 400 897 473Q915 536 925 618T936
756ZM1085 774Q1085 704 1073 631Q1059 545 1038 485Q1011 411 981 348Q952 289 901 225Q864 180 811 125Q762 78 711 43Q668 16 598 -10Q543 -30 471 -31Q375 -31 303 10Q229 51 184 121Q137 195 113 287Q90 375 90 485Q90 548 102 618Q116 696 135 760Q158 834
186 897Q213 954 258 1018Q315 1092 348 1124Q397 1173 453 1210Q506 1245 571 1268Q639 1291 705 1290Q803 1290 874 1249T993 1137Q1042 1061 1063 973Q1085 872 1085 774Z" />
<glyph unicode="&#xd4;" glyph-name="Ocircumflex" horiz-adv-x="1114" d="M987 1391L967 1362Q961 1354 942 1346L727 1550L463 1346Q453 1352 446 1362Q430 1389 428 1391L705 1692H797L987 1391ZM936 756Q936 842 918 915Q900 987 864 1044Q831 1097 778 1133Q727
1166 662 1165Q588 1165 526 1135Q458 1102 418 1057Q373 1010 338 942T283 809Q263 739 252 666Q242 588 242 532Q242 448 262 360Q280 282 317 223Q352 168 403 133Q450 100 516 100Q594 100 655 131T762 213Q809 266 842 332Q876 400 897 473Q915 536 925 618T936
756ZM1085 774Q1085 704 1073 631Q1059 545 1038 485Q1011 411 981 348Q952 289 901 225Q864 180 811 125Q762 78 711 43Q668 16 598 -10Q543 -30 471 -31Q375 -31 303 10Q229 51 184 121Q137 195 113 287Q90 375 90 485Q90 548 102 618Q116 696 135 760Q158 834
186 897Q213 954 258 1018Q315 1092 348 1124Q397 1173 453 1210Q506 1245 571 1268Q639 1291 705 1290Q803 1290 874 1249T993 1137Q1042 1061 1063 973Q1085 872 1085 774Z" />
<glyph unicode="&#xd5;" glyph-name="Otilde" horiz-adv-x="1114" d="M1047 1614Q1018 1561 999 1534Q970 1495 940 1462Q903 1425 874 1411Q833 1391 801 1391T743 1409Q737 1413 728 1420T711 1433T694 1446Q682 1456 647 1483Q624 1499 598 1499Q563 1499 526
1468Q499 1445 449 1380L406 1403Q431 1446 453 1481Q486 1528 510 1552Q545 1587 578 1604Q615 1622 651 1622T713 1606Q752 1581 764 1569L809 1532Q831 1514 852 1513Q881 1513 924 1546T1001 1632L1047 1614ZM936 756Q936 842 918 915Q900 987 864 1044Q831
1097 778 1133Q727 1166 662 1165Q588 1165 526 1135Q458 1102 418 1057Q373 1010 338 942T283 809Q263 739 252 666Q242 588 242 532Q242 448 262 360Q280 282 317 223Q352 168 403 133Q450 100 516 100Q594 100 655 131T762 213Q809 266 842 332Q876 400 897
473Q915 536 925 618T936 756ZM1085 774Q1085 704 1073 631Q1059 545 1038 485Q1011 411 981 348Q952 289 901 225Q864 180 811 125Q762 78 711 43Q668 16 598 -10Q543 -30 471 -31Q375 -31 303 10Q229 51 184 121Q137 195 113 287Q90 375 90 485Q90 548 102 618Q116
696 135 760Q158 834 186 897Q213 954 258 1018Q315 1092 348 1124Q397 1173 453 1210Q506 1245 571 1268Q639 1291 705 1290Q803 1290 874 1249T993 1137Q1042 1061 1063 973Q1085 872 1085 774Z" />
<glyph unicode="&#xd6;" glyph-name="Odieresis" horiz-adv-x="1114" d="M1008 1548Q1008 1517 999 1493Q991 1470 973 1444Q957 1421 934 1407T881 1393T831 1411Q815 1427 815 1462Q815 1493 823 1518Q831 1545 850 1569Q862 1587 889 1606Q909 1620 940 1620T989
1602T1008 1548ZM635 1548Q635 1517 627 1493Q619 1470 600 1444Q584 1421 562 1407T510 1393Q479 1393 461 1411T442 1462Q442 1493 451 1518Q459 1545 477 1569Q491 1589 518 1606Q541 1620 569 1620Q600 1620 618 1602Q635 1585 635 1548ZM936 756Q936 842 918
915Q900 987 864 1044Q831 1097 778 1133Q727 1166 662 1165Q588 1165 526 1135Q458 1102 418 1057Q373 1010 338 942T283 809Q263 739 252 666Q242 588 242 532Q242 448 262 360Q280 282 317 223Q352 168 403 133Q450 100 516 100Q594 100 655 131T762 213Q809
266 842 332Q876 400 897 473Q915 536 925 618T936 756ZM1085 774Q1085 704 1073 631Q1059 545 1038 485Q1011 411 981 348Q952 289 901 225Q864 180 811 125Q762 78 711 43Q668 16 598 -10Q543 -30 471 -31Q375 -31 303 10Q229 51 184 121Q137 195 113 287Q90
375 90 485Q90 548 102 618Q116 696 135 760Q158 834 186 897Q213 954 258 1018Q315 1092 348 1124Q397 1173 453 1210Q506 1245 571 1268Q639 1291 705 1290Q803 1290 874 1249T993 1137Q1042 1061 1063 973Q1085 872 1085 774Z" />
<glyph unicode="&#xd8;" glyph-name="Oslash" horiz-adv-x="1114" d="M1085 774Q1085 704 1073 631Q1059 545 1038 485Q1011 411 981 348Q952 289 901 225Q864 180 811 125Q762 78 711 43Q668 16 598 -10Q543 -30 471 -31Q391 -31 332 -4Q266 25 225 70L170 -2Q160
-12 143 -18Q123 -26 111 -31Q105 -33 94 -37T76 -43L47 -53L27 -20L164 158Q127 226 109 309T90 485Q90 548 102 618Q116 696 135 760Q158 834 186 897Q213 954 258 1018Q315 1092 348 1124Q397 1173 453 1210Q506 1245 571 1268Q639 1291 705 1290Q787 1290 846
1264Q912 1235 952 1190L1010 1264Q1030 1278 1071 1292Q1094 1300 1130 1313L1153 1280L1016 1100Q1049 1034 1067 950Q1085 868 1085 774ZM242 532Q242 407 276 307L854 1061Q821 1108 770 1136T662 1165Q588 1165 526 1135Q458 1102 418 1057Q373 1010 338 942T283
809Q263 739 252 666Q242 587 242 532ZM936 756Q936 819 928 862Q916 923 905 956L330 205Q363 156 412 127Q457 100 516 100Q594 100 655 131T762 213Q809 266 842 332Q876 400 897 473Q915 536 925 618T936 756Z" />
<glyph unicode="&#xd9;" glyph-name="Ugrave" horiz-adv-x="1226" d="M907 1393Q893 1373 885 1364Q876 1355 860 1346L461 1589L471 1636L481 1644Q491 1651 498 1655Q518 1667 530 1673L565 1694L596 1708L907 1393ZM1280 1217Q1206 1199 1182 1186Q1147 1168
1145 1155L1055 512Q1037 380 993 279Q948 175 887 109Q822 41 739 4Q661 -31 557 -31Q473 -31 406 -7T289 68Q242 115 213 186Q186 254 186 348Q186 407 195 463L293 1155Q295 1167 264 1186Q241 1198 168 1217L174 1260H584L578 1217Q508 1201 477 1186Q438 1168
436 1155L348 510Q342 455 342 453V397Q342 321 358 270Q376 211 410 172Q447 129 494 109Q545 86 608 86Q667 86 727 119Q780 150 825 203Q864 250 895 326Q922 394 932 469L1024 1155Q1026 1165 997 1186Q977 1200 905 1217L911 1260H1286L1280 1217Z" />
<glyph unicode="&#xda;" glyph-name="Uacute" horiz-adv-x="1226" d="M1094 1589L639 1346Q629 1352 621 1364Q615 1372 606 1393L997 1708L1020 1694L1047 1673Q1067 1661 1075 1655L1094 1636V1589ZM1280 1217Q1206 1199 1182 1186Q1147 1168 1145 1155L1055
512Q1037 380 993 279Q948 175 887 109Q822 41 739 4Q661 -31 557 -31Q473 -31 406 -7T289 68Q242 115 213 186Q186 254 186 348Q186 407 195 463L293 1155Q295 1167 264 1186Q241 1198 168 1217L174 1260H584L578 1217Q508 1201 477 1186Q438 1168 436 1155L348
510Q342 455 342 453V397Q342 321 358 270Q376 211 410 172Q447 129 494 109Q545 86 608 86Q667 86 727 119Q780 150 825 203Q864 250 895 326Q922 394 932 469L1024 1155Q1026 1165 997 1186Q977 1200 905 1217L911 1260H1286L1280 1217Z" />
<glyph unicode="&#xdb;" glyph-name="Ucircumflex" horiz-adv-x="1226" d="M1044 1391L1024 1362Q1018 1354 999 1346L784 1550L518 1346Q512 1350 504 1362Q488 1389 485 1391L762 1692H854L1044 1391ZM1280 1217Q1206 1199 1182 1186Q1147 1168 1145 1155L1055
512Q1037 380 993 279Q948 175 887 109Q822 41 739 4Q661 -31 557 -31Q473 -31 406 -7T289 68Q242 115 213 186Q186 254 186 348Q186 407 195 463L293 1155Q295 1167 264 1186Q241 1198 168 1217L174 1260H584L578 1217Q508 1201 477 1186Q438 1168 436 1155L348
510Q342 455 342 453V397Q342 321 358 270Q376 211 410 172Q447 129 494 109Q545 86 608 86Q667 86 727 119Q780 150 825 203Q864 250 895 326Q922 394 932 469L1024 1155Q1026 1165 997 1186Q977 1200 905 1217L911 1260H1286L1280 1217Z" />
<glyph unicode="&#xdc;" glyph-name="Udieresis" horiz-adv-x="1226" d="M1065 1548Q1065 1517 1057 1493Q1049 1470 1030 1444Q1014 1421 992 1407T938 1393T889 1411Q873 1427 872 1462Q872 1493 881 1518Q891 1549 905 1569Q917 1587 944 1606Q964 1620 997
1620Q1028 1620 1046 1602T1065 1548ZM692 1548Q692 1523 682 1493Q673 1465 657 1444Q641 1421 619 1407T567 1393Q534 1393 516 1411Q500 1427 500 1462Q500 1493 508 1518Q516 1545 535 1569Q549 1589 575 1606Q598 1620 626 1620T673 1602T692 1548ZM1280 1217Q1206
1199 1182 1186Q1147 1168 1145 1155L1055 512Q1037 380 993 279Q948 175 887 109Q822 41 739 4Q661 -31 557 -31Q473 -31 406 -7T289 68Q242 115 213 186Q186 254 186 348Q186 407 195 463L293 1155Q295 1167 264 1186Q241 1198 168 1217L174 1260H584L578 1217Q508
1201 477 1186Q438 1168 436 1155L348 510Q342 455 342 453V397Q342 321 358 270Q376 211 410 172Q447 129 494 109Q545 86 608 86Q667 86 727 119Q780 150 825 203Q864 250 895 326Q922 394 932 469L1024 1155Q1026 1165 997 1186Q977 1200 905 1217L911 1260H1286L1280
1217Z" />
<glyph unicode="&#xdf;" glyph-name="germandbls" horiz-adv-x="997" d="M940 1225Q940 1141 913 1077Q888 1020 848 979Q811 942 764 913L678 862Q637 835 612 807Q585 774 586 731Q586 696 610 668Q639 635 674 612L756 559Q799 531 836 498Q877 461 899 418Q924
373 924 311Q924 241 901 186Q876 125 831 74T723 -8Q653 -41 573 -41Q530 -41 489 -27Q452 -15 416 10Q389 26 362 57Q342 80 342 104Q342 110 354 133Q370 162 381 174Q401 199 414 209Q430 223 442 223Q448 223 454 211T469 180Q475 168 492 139Q502 121 522
101T563 70Q588 58 621 57Q703 57 745 102T788 233Q788 294 764 336Q741 373 702 406Q661 439 621 463Q572 492 541 514Q506 541 479 580Q454 617 455 668Q455 731 469 768Q483 803 510 838Q535 869 563 889Q571 895 627 928Q645 938 661 949T690 967Q721 985 745
1010Q768 1033 784 1069Q798 1100 799 1153Q799 1204 788 1241Q774 1290 754 1319Q727 1356 692 1376T604 1397Q547 1397 502 1358Q455 1317 422 1257Q385 1189 365 1114Q342 1034 334 952L246 193Q234 91 201 -20Q172 -116 123 -211Q82 -291 12 -371Q-45 -437
-123 -485L-150 -422Q-99 -393 -59 -334Q-16 -266 12 -197Q39 -131 63 -31Q81 39 92 139L180 899Q190 983 211 1057Q238 1151 262 1198Q291 1257 342 1321Q388 1379 453 1425Q471 1439 508 1464Q522 1474 565 1493Q593 1505 620 1511T670 1518Q736 1518 784 1493Q835
1466 870 1423Q903 1382 922 1329Q940 1277 940 1225Z" />
<glyph unicode="&#xe0;" glyph-name="agrave" horiz-adv-x="921" d="M602 430Q606 455 618 524L635 618Q639 641 643 661T651 700Q657 737 662 760Q642 776 629 784Q604 800 590 807Q586 809 577 813T560 820T547 825Q524 831 500 831Q455 831 414 809Q371 786
338 750Q309 719 276 664Q247 615 229 567Q209 514 201 467Q191 412 190 379Q190 305 201 262Q213 209 231 172Q245 143 276 117Q299 97 332 96Q357 96 391 127Q432 166 463 205Q496 248 536 313T602 430ZM901 68Q827 17 760 -14Q703 -41 678 -41Q660 -41 644 -29T614
18Q600 59 594 115Q586 197 586 272Q572 245 522 172Q483 113 442 70Q389 15 354 -10Q307 -41 266 -41Q231 -41 195 -23T127 39Q94 86 74 145Q54 206 53 305Q53 381 71 459T127 604Q162 667 217 733Q262 786 342 842Q362 856 401 877Q435 895 469 907Q492 915 537
928Q568 936 602 936Q622 936 643 930Q668 924 682 915L719 897Q735 887 750 877L799 907Q828 923 852 936L872 901Q847 881 844 877Q838 871 825 850Q817 836 811 815Q799 774 797 760Q779 672 768 612Q748 485 745 469Q741 436 731 352Q725 300 725 279Q725 236
729 182Q733 141 737 121Q743 96 753 86T774 76Q794 76 821 82Q858 90 889 104L901 68ZM621 1047Q596 1033 588 1030Q572 1026 557 1026L307 1411L340 1448Q344 1450 354 1451T371 1452Q396 1456 410 1456Q418 1456 430 1457T449 1458H481L621 1047Z" />
<glyph unicode="&#xe1;" glyph-name="aacute" horiz-adv-x="921" d="M602 430Q606 455 618 524L635 618Q639 641 643 661T651 700Q657 737 662 760Q642 776 629 784Q604 800 590 807Q586 809 577 813T560 820T547 825Q524 831 500 831Q455 831 414 809Q371 786
338 750Q309 719 276 664Q247 615 229 567Q209 514 201 467Q191 412 190 379Q190 305 201 262Q213 209 231 172Q245 143 276 117Q299 97 332 96Q357 96 391 127Q432 166 463 205Q496 248 536 313T602 430ZM901 68Q827 17 760 -14Q703 -41 678 -41Q660 -41 644 -29T614
18Q600 59 594 115Q586 197 586 272Q572 245 522 172Q483 113 442 70Q389 15 354 -10Q307 -41 266 -41Q231 -41 195 -23T127 39Q94 86 74 145Q54 206 53 305Q53 381 71 459T127 604Q162 667 217 733Q262 786 342 842Q362 856 401 877Q435 895 469 907Q492 915 537
928Q568 936 602 936Q622 936 643 930Q668 924 682 915L719 897Q735 887 750 877L799 907Q828 923 852 936L872 901Q847 881 844 877Q838 871 825 850Q817 836 811 815Q799 774 797 760Q779 672 768 612Q748 485 745 469Q741 436 731 352Q725 300 725 279Q725 236
729 182Q733 141 737 121Q743 96 753 86T774 76Q794 76 821 82Q858 90 889 104L901 68ZM895 1374L541 1026Q523 1030 516 1036L496 1061L768 1458L793 1452Q799 1450 825 1442L856 1430Q879 1422 881 1419L895 1374Z" />
<glyph unicode="&#xe2;" glyph-name="acircumflex" horiz-adv-x="921" d="M602 430Q606 455 618 524L635 618Q639 641 643 661T651 700Q657 737 662 760Q642 776 629 784Q604 800 590 807Q586 809 577 813T560 820T547 825Q524 831 500 831Q455 831 414 809Q371
786 338 750Q309 719 276 664Q247 615 229 567Q209 514 201 467Q191 412 190 379Q190 305 201 262Q213 209 231 172Q245 143 276 117Q299 97 332 96Q357 96 391 127Q432 166 463 205Q496 248 536 313T602 430ZM901 68Q827 17 760 -14Q703 -41 678 -41Q660 -41 644
-29T614 18Q600 59 594 115Q586 197 586 272Q572 245 522 172Q483 113 442 70Q389 15 354 -10Q307 -41 266 -41Q231 -41 195 -23T127 39Q94 86 74 145Q54 206 53 305Q53 381 71 459T127 604Q162 667 217 733Q262 786 342 842Q362 856 401 877Q435 895 469 907Q492
915 537 928Q568 936 602 936Q622 936 643 930Q668 924 682 915L719 897Q735 887 750 877L799 907Q828 923 852 936L872 901Q847 881 844 877Q838 871 825 850Q817 836 811 815Q799 774 797 760Q779 672 768 612Q748 485 745 469Q741 436 731 352Q725 300 725 279Q725
236 729 182Q733 141 737 121Q743 96 753 86T774 76Q794 76 821 82Q858 90 889 104L901 68ZM842 1071Q836 1063 829 1054T819 1042Q813 1032 797 1026L588 1290L315 1026Q305 1032 299 1042Q287 1058 283 1071L565 1442H657L842 1071Z" />
<glyph unicode="&#xe3;" glyph-name="atilde" horiz-adv-x="921" d="M901 1325Q872 1272 854 1245Q821 1198 797 1174Q766 1143 729 1124Q688 1104 655 1104Q620 1104 598 1120Q565 1145 549 1159Q537 1169 502 1196Q479 1212 453 1212Q418 1212 381 1182Q354
1159 303 1094L260 1114Q289 1167 307 1194Q340 1241 365 1266Q400 1301 432 1317Q469 1335 508 1335Q543 1335 567 1319Q606 1294 618 1282L664 1243Q682 1227 707 1227Q738 1227 780 1260Q817 1289 856 1346L901 1325ZM602 430Q606 455 618 524L635 618Q639 641
643 661T651 700Q657 737 662 760Q642 776 629 784Q604 800 590 807Q586 809 577 813T560 820T547 825Q524 831 500 831Q455 831 414 809Q371 786 338 750Q309 719 276 664Q247 615 229 567Q209 514 201 467Q191 412 190 379Q190 305 201 262Q213 209 231 172Q245
143 276 117Q299 97 332 96Q357 96 391 127Q432 166 463 205Q496 248 536 313T602 430ZM901 68Q827 17 760 -14Q703 -41 678 -41Q660 -41 644 -29T614 18Q600 59 594 115Q586 197 586 272Q572 245 522 172Q483 113 442 70Q389 15 354 -10Q307 -41 266 -41Q231 -41
195 -23T127 39Q94 86 74 145Q54 206 53 305Q53 381 71 459T127 604Q162 667 217 733Q262 786 342 842Q362 856 401 877Q435 895 469 907Q492 915 537 928Q568 936 602 936Q622 936 643 930Q668 924 682 915L719 897Q735 887 750 877L799 907Q828 923 852 936L872
901Q847 881 844 877Q838 871 825 850Q817 836 811 815Q799 774 797 760Q779 672 768 612Q748 485 745 469Q741 436 731 352Q725 300 725 279Q725 236 729 182Q733 141 737 121Q743 96 753 86T774 76Q794 76 821 82Q858 90 889 104L901 68Z" />
<glyph unicode="&#xe4;" glyph-name="adieresis" horiz-adv-x="921" d="M862 1262Q862 1231 854 1206Q845 1178 829 1157Q815 1137 788 1120Q765 1106 735 1106Q706 1106 688 1124T670 1176Q670 1201 680 1231Q689 1259 705 1280Q721 1303 743 1319Q763 1333 794
1333T843 1315T862 1262ZM489 1262Q489 1231 481 1206Q472 1178 457 1157Q443 1137 416 1120Q393 1106 365 1106Q334 1106 316 1124T297 1176Q297 1201 307 1231Q316 1259 332 1280Q348 1305 373 1319Q396 1333 424 1333Q455 1333 473 1315Q489 1299 489 1262ZM602
430Q606 455 618 524L635 618Q639 641 643 661T651 700Q657 737 662 760Q642 776 629 784Q604 800 590 807Q586 809 577 813T560 820T547 825Q524 831 500 831Q455 831 414 809Q371 786 338 750Q309 719 276 664Q247 615 229 567Q209 514 201 467Q191 412 190 379Q190
305 201 262Q213 209 231 172Q245 143 276 117Q299 97 332 96Q357 96 391 127Q432 166 463 205Q496 248 536 313T602 430ZM901 68Q827 17 760 -14Q703 -41 678 -41Q660 -41 644 -29T614 18Q600 59 594 115Q586 197 586 272Q572 245 522 172Q483 113 442 70Q389
15 354 -10Q307 -41 266 -41Q231 -41 195 -23T127 39Q94 86 74 145Q54 206 53 305Q53 381 71 459T127 604Q162 667 217 733Q262 786 342 842Q362 856 401 877Q435 895 469 907Q492 915 537 928Q568 936 602 936Q622 936 643 930Q668 924 682 915L719 897Q735 887
750 877L799 907Q828 923 852 936L872 901Q847 881 844 877Q838 871 825 850Q817 836 811 815Q799 774 797 760Q779 672 768 612Q748 485 745 469Q741 436 731 352Q725 300 725 279Q725 236 729 182Q733 141 737 121Q743 96 753 86T774 76Q794 76 821 82Q858 90
889 104L901 68Z" />
<glyph unicode="&#xe5;" glyph-name="aring" horiz-adv-x="921" d="M750 1280Q750 1233 733 1194Q713 1147 684 1112Q651 1073 614 1051Q573 1026 526 1026Q503 1026 479 1036Q452 1046 440 1063Q424 1083 416 1101T408 1149Q408 1192 426 1239Q446 1292 473 1323Q502
1358 545 1384Q586 1409 633 1409Q688 1409 719 1372T750 1280ZM666 1243Q666 1278 651 1305Q635 1334 604 1333Q576 1333 555 1321Q539 1311 520 1286Q506 1266 500 1241Q492 1208 492 1192Q492 1157 508 1129T555 1100Q580 1100 604 1114Q622 1124 639 1147Q653
1165 659 1194Q666 1218 666 1243ZM602 430Q606 455 618 524L635 618Q639 641 643 661T651 700Q657 737 662 760Q642 776 629 784Q604 800 590 807Q586 809 577 813T560 820T547 825Q524 831 500 831Q455 831 414 809Q371 786 338 750Q309 719 276 664Q247 615
229 567Q209 514 201 467Q191 412 190 379Q190 305 201 262Q213 209 231 172Q245 143 276 117Q299 97 332 96Q357 96 391 127Q432 166 463 205Q496 248 536 313T602 430ZM901 68Q827 17 760 -14Q703 -41 678 -41Q660 -41 644 -29T614 18Q600 59 594 115Q586 197
586 272Q572 245 522 172Q483 113 442 70Q389 15 354 -10Q307 -41 266 -41Q231 -41 195 -23T127 39Q94 86 74 145Q54 206 53 305Q53 381 71 459T127 604Q162 667 217 733Q262 786 342 842Q362 856 401 877Q435 895 469 907Q492 915 537 928Q568 936 602 936Q622
936 643 930Q668 924 682 915L719 897Q735 887 750 877L799 907Q828 923 852 936L872 901Q847 881 844 877Q838 871 825 850Q817 836 811 815Q799 774 797 760Q779 672 768 612Q748 485 745 469Q741 436 731 352Q725 300 725 279Q725 236 729 182Q733 141 737 121Q743
96 753 86T774 76Q794 76 821 82Q858 90 889 104L901 68Z" />
<glyph unicode="&#xe6;" glyph-name="ae" horiz-adv-x="1323" d="M911 782Q874 749 846 709Q809 656 788 616Q770 579 748 512Q728 453 725 403Q877 462 934 496Q1006 537 1049 575Q1088 612 1100 645Q1110 674 1110 715Q1110 750 1102 768Q1090 797 1081 805Q1067
819 1051 825Q1037 831 1018 831Q1002 831 971 819Q938 807 911 782ZM598 442Q602 467 606 492T614 537Q620 574 629 631Q635 674 641 709Q643 721 646 739T649 760V762Q629 778 616 786Q591 802 578 809Q549 821 535 825Q512 831 489 831Q444 831 403 809Q364
789 330 750Q297 715 270 664Q247 621 227 568T199 467Q191 424 190 379Q190 320 201 262Q209 211 229 172Q245 141 272 117Q295 97 326 96Q353 96 385 127T459 211Q496 260 532 322Q571 387 598 442ZM862 901Q842 885 836 879Q826 869 819 856L805 827Q799 813
793 786Q828 821 860 845T913 881Q954 901 975 909Q1016 925 1038 930Q1073 936 1102 936Q1143 936 1176 920Q1211 904 1229 881Q1249 858 1259 823T1270 760T1264 701T1237 637Q1217 602 1180 567Q1147 534 1083 494Q1042 467 936 414Q887 389 727 328Q733 265
750 225Q770 172 791 145Q816 112 842 94Q870 76 897 76Q907 76 948 80Q971 82 1018 100Q1055 114 1106 143Q1151 168 1217 221Q1227 215 1235 201Q1239 193 1247 180Q1163 108 1102 66Q1045 27 989 -2Q950 -20 901 -33Q866 -41 825 -41Q796 -41 754 -25Q717 -11
678 29Q641 66 616 125Q591 182 586 270Q566 233 520 170Q479 115 438 70Q389 17 348 -10Q302 -41 262 -41Q227 -41 191 -23T123 39Q98 74 74 145Q54 206 53 305Q53 391 70 459Q90 545 123 604Q158 667 213 733Q258 786 338 842Q348 848 369 860T397 877Q430 895
461 907Q484 915 528 928Q559 936 592 936Q610 936 633 930Q658 924 672 915L709 897Q719 891 728 885T743 874Q757 886 791 907Q816 921 842 936L862 901Z" />
<glyph unicode="&#xe7;" glyph-name="ccedilla" horiz-adv-x="794" d="M475 -221Q475 -274 444 -317Q411 -364 365 -387Q320 -410 254 -410Q195 -410 131 -375L129 -336Q186 -363 223 -362Q266 -362 293 -350Q318 -340 334 -315Q348 -295 348 -268Q348 -243 326
-227T256 -215Q260 -207 279 -150Q281 -146 288 -126T297 -96Q299 -88 302 -72T307 -47L309 -41H297Q260 -41 221 -25Q176 -5 141 35Q100 82 78 147Q53 217 53 322Q53 396 68 461Q84 539 113 600Q144 666 195 731Q242 790 319 842Q329 848 381 877Q416 895 451
907Q476 915 524 928Q557 936 590 936Q637 936 668 920Q707 900 729 881Q743 869 778 840Q801 820 813 815L768 782Q739 762 723 752Q694 736 682 729Q666 721 649 721Q637 721 623 737L584 776Q568 792 537 813Q508 831 477 831Q432 831 393 809T324 750Q299 719
270 664Q247 619 231 563Q216 511 207 459Q199 412 199 358Q199 290 213 242Q227 191 254 152Q274 119 315 96Q350 76 395 76Q413 76 440 82Q465 88 506 104Q529 114 588 150Q615 166 686 221L702 199Q704 195 709 190T717 180Q639 108 578 66Q512 19 465 0Q420
-20 381 -31Q377 -56 375 -64T368 -88T360 -113Q413 -117 444 -143Q475 -172 475 -221Z" />
<glyph unicode="&#xe8;" glyph-name="egrave" horiz-adv-x="804" d="M580 1047Q553 1031 549 1030Q533 1026 518 1026L268 1411L299 1448Q303 1450 313 1451T330 1452Q355 1456 369 1456Q377 1456 390 1457T410 1458H440L580 1047ZM391 782Q354 749 326 709Q295
666 271 617T227 512Q211 461 207 403Q350 460 414 496Q486 537 528 575Q567 612 580 645Q590 674 590 715Q590 750 582 768Q570 797 561 805Q547 819 532 825Q516 831 498 831Q482 831 451 819Q418 807 391 782ZM750 788T750 760T744 701T717 637Q697 602 659
567Q626 534 563 494Q522 467 416 414Q367 389 207 328Q213 271 231 225Q251 172 272 145Q299 110 322 94Q350 76 377 76Q387 76 428 80Q451 82 498 100Q535 114 586 143Q631 168 696 221Q700 219 715 201Q725 189 727 180Q631 98 582 66Q514 21 469 -2Q430 -20
381 -33Q346 -41 305 -41Q272 -41 229 -23Q190 -7 152 36T88 143Q63 208 63 303Q63 380 82 457Q100 531 137 602Q178 680 223 733T342 846Q362 864 393 881Q420 895 455 909Q496 925 518 930Q553 936 582 936Q625 936 657 920Q688 906 709 881Q729 858 739 823Z"
/>
<glyph unicode="&#xe9;" glyph-name="eacute" horiz-adv-x="804" d="M854 1374L500 1026Q484 1028 477 1036Q465 1048 455 1061L727 1458L752 1452Q758 1450 784 1442Q796 1438 817 1430Q835 1422 840 1419L854 1374ZM391 782Q354 749 326 709Q295 666 271 617T227
512Q211 461 207 403Q350 460 414 496Q486 537 528 575Q567 612 580 645Q590 674 590 715Q590 750 582 768Q570 797 561 805Q547 819 532 825Q516 831 498 831Q482 831 451 819Q418 807 391 782ZM750 788T750 760T744 701T717 637Q697 602 659 567Q626 534 563
494Q522 467 416 414Q367 389 207 328Q213 271 231 225Q251 172 272 145Q299 110 322 94Q350 76 377 76Q387 76 428 80Q451 82 498 100Q535 114 586 143Q631 168 696 221Q700 219 715 201Q725 189 727 180Q631 98 582 66Q514 21 469 -2Q430 -20 381 -33Q346 -41
305 -41Q272 -41 229 -23Q190 -7 152 36T88 143Q63 208 63 303Q63 380 82 457Q100 531 137 602Q178 680 223 733T342 846Q362 864 393 881Q420 895 455 909Q496 925 518 930Q553 936 582 936Q625 936 657 920Q688 906 709 881Q729 858 739 823Z" />
<glyph unicode="&#xea;" glyph-name="ecircumflex" horiz-adv-x="804" d="M801 1071L780 1042Q774 1034 756 1026L549 1290L274 1026Q264 1032 258 1042Q246 1058 242 1071L526 1442H618L801 1071ZM391 782Q354 749 326 709Q295 666 271 617T227 512Q211 461 207
403Q350 460 414 496Q486 537 528 575Q567 612 580 645Q590 674 590 715Q590 750 582 768Q570 797 561 805Q547 819 532 825Q516 831 498 831Q482 831 451 819Q418 807 391 782ZM750 788T750 760T744 701T717 637Q697 602 659 567Q626 534 563 494Q522 467 416
414Q367 389 207 328Q213 271 231 225Q251 172 272 145Q299 110 322 94Q350 76 377 76Q387 76 428 80Q451 82 498 100Q535 114 586 143Q631 168 696 221Q700 219 715 201Q725 189 727 180Q631 98 582 66Q514 21 469 -2Q430 -20 381 -33Q346 -41 305 -41Q272 -41
229 -23Q190 -7 152 36T88 143Q63 208 63 303Q63 380 82 457Q100 531 137 602Q178 680 223 733T342 846Q362 864 393 881Q420 895 455 909Q496 925 518 930Q553 936 582 936Q625 936 657 920Q688 906 709 881Q729 858 739 823Z" />
<glyph unicode="&#xeb;" glyph-name="edieresis" horiz-adv-x="804" d="M823 1262Q823 1237 813 1206Q804 1178 788 1157Q774 1137 748 1120Q725 1106 696 1106Q665 1106 647 1124Q631 1140 631 1176Q631 1207 639 1231Q648 1259 664 1280Q680 1303 702 1319Q722
1333 756 1333Q787 1333 805 1315T823 1262ZM451 1262Q451 1237 440 1206Q431 1178 416 1157Q400 1134 377 1120T326 1106Q293 1106 275 1124T256 1176Q256 1201 266 1231Q274 1254 292 1280T332 1319Q355 1333 385 1333Q414 1333 432 1315T451 1262ZM391 782Q354
749 326 709Q295 666 271 617T227 512Q211 461 207 403Q350 460 414 496Q486 537 528 575Q567 612 580 645Q590 674 590 715Q590 750 582 768Q570 797 561 805Q547 819 532 825Q516 831 498 831Q482 831 451 819Q418 807 391 782ZM750 788T750 760T744 701T717
637Q697 602 659 567Q626 534 563 494Q522 467 416 414Q367 389 207 328Q213 271 231 225Q251 172 272 145Q299 110 322 94Q350 76 377 76Q387 76 428 80Q451 82 498 100Q535 114 586 143Q631 168 696 221Q700 219 715 201Q725 189 727 180Q631 98 582 66Q514 21
469 -2Q430 -20 381 -33Q346 -41 305 -41Q272 -41 229 -23Q190 -7 152 36T88 143Q63 208 63 303Q63 380 82 457Q100 531 137 602Q178 680 223 733T342 846Q362 864 393 881Q420 895 455 909Q496 925 518 930Q553 936 582 936Q625 936 657 920Q688 906 709 881Q729
858 739 823Z" />
<glyph unicode="&#xec;" glyph-name="igrave" horiz-adv-x="503" d="M455 72L371 23L301 -12Q266 -28 246 -35Q221 -41 199 -41Q168 -41 145 -10Q125 19 125 76Q125 88 133 162Q139 217 152 285L174 426L199 565Q211 635 217 684Q225 754 225 760Q225 780 221
796T213 817Q207 823 201 825T184 827Q180 827 160 823T127 815Q121 813 114 811T97 807T84 803L70 840L154 877Q205 897 231 907L295 928Q320 936 334 936Q361 936 373 918T385 852Q385 840 377 766Q371 709 358 639L334 494L307 346Q295 274 289 221Q281 147
281 135Q281 106 287 90Q293 76 311 76Q346 76 371 84Q430 104 440 109L455 72ZM426 1047Q399 1031 395 1030Q379 1026 365 1026L115 1411L147 1448Q151 1450 161 1451T178 1452Q203 1456 217 1456Q225 1456 237 1457T256 1458H289L426 1047Z" />
<glyph unicode="&#xed;" glyph-name="iacute" horiz-adv-x="503" d="M455 72L371 23L301 -12Q266 -28 246 -35Q221 -41 199 -41Q168 -41 145 -10Q125 19 125 76Q125 88 133 162Q139 217 152 285L174 426L199 565Q211 635 217 684Q225 754 225 760Q225 780 221
796T213 817Q207 823 201 825T184 827Q180 827 160 823T127 815Q121 813 114 811T97 807T84 803L70 840L154 877Q205 897 231 907L295 928Q320 936 334 936Q361 936 373 918T385 852Q385 840 377 766Q371 709 358 639L334 494L307 346Q295 274 289 221Q281 147
281 135Q281 106 287 90Q293 76 311 76Q346 76 371 84Q430 104 440 109L455 72ZM702 1374L346 1026Q332 1028 324 1036Q312 1048 301 1061L573 1458L600 1452Q606 1450 633 1442L664 1430Q682 1422 686 1419L702 1374Z" />
<glyph unicode="&#xee;" glyph-name="icircumflex" horiz-adv-x="503" d="M455 72L371 23L301 -12Q266 -28 246 -35Q221 -41 199 -41Q168 -41 145 -10Q125 19 125 76Q125 88 133 162Q139 217 152 285L174 426L199 565Q211 635 217 684Q225 754 225 760Q225 780
221 796T213 817Q207 823 201 825T184 827Q180 827 160 823T127 815Q121 813 114 811T97 807T84 803L70 840L154 877Q205 897 231 907L295 928Q320 936 334 936Q361 936 373 918T385 852Q385 840 377 766Q371 709 358 639L334 494L307 346Q295 274 289 221Q281
147 281 135Q281 106 287 90Q293 76 311 76Q346 76 371 84Q430 104 440 109L455 72ZM647 1071L627 1042Q621 1034 602 1026L395 1290L123 1026Q113 1032 106 1042Q90 1069 88 1071L373 1442H465L647 1071Z" />
<glyph unicode="&#xef;" glyph-name="idieresis" horiz-adv-x="503" d="M455 72L371 23L301 -12Q266 -28 246 -35Q221 -41 199 -41Q168 -41 145 -10Q125 19 125 76Q125 88 133 162Q139 217 152 285L174 426L199 565Q211 635 217 684Q225 754 225 760Q225 780 221
796T213 817Q207 823 201 825T184 827Q180 827 160 823T127 815Q121 813 114 811T97 807T84 803L70 840L154 877Q205 897 231 907L295 928Q320 936 334 936Q361 936 373 918T385 852Q385 840 377 766Q371 709 358 639L334 494L307 346Q295 274 289 221Q281 147
281 135Q281 106 287 90Q293 76 311 76Q346 76 371 84Q430 104 440 109L455 72ZM670 1262Q670 1231 662 1206Q654 1183 635 1157Q619 1134 596 1120T543 1106T494 1124Q478 1140 477 1176Q477 1207 485 1231Q493 1254 512 1280Q528 1303 551 1319Q571 1333 602
1333T651 1315T670 1262ZM297 1262Q297 1231 289 1206Q281 1183 262 1157Q246 1134 224 1120T172 1106Q141 1106 123 1124T104 1176Q104 1207 113 1231Q121 1254 139 1280Q155 1305 180 1319Q203 1333 231 1333T278 1315T297 1262Z" />
<glyph unicode="&#xf1;" glyph-name="ntilde" horiz-adv-x="1011" d="M936 1325Q914 1285 887 1245Q854 1198 829 1174Q796 1141 764 1124Q723 1104 688 1104T631 1120Q598 1145 582 1159Q570 1169 535 1196Q512 1212 485 1212Q452 1212 416 1182Q389 1159 338
1094L295 1114Q324 1167 342 1194Q375 1241 399 1266Q434 1301 467 1317Q504 1335 541 1335T602 1319Q641 1294 653 1282L698 1243Q716 1227 739 1227Q770 1227 813 1259T891 1346L936 1325ZM973 72Q885 19 819 -12Q760 -41 717 -41Q680 -41 662 -11T643 76Q643
94 649 141Q651 155 653 171T659 212T666 250L688 381L711 514Q713 528 719 568T727 627Q733 676 733 700Q733 774 717 807Q703 836 657 836Q649 836 612 819Q581 805 539 772Q490 733 453 692Q402 635 371 580Q344 533 326 465Q314 418 291 301Q273 195 270 147Q266
63 268 25Q264 23 253 19T236 10Q226 6 216 1T195 -8Q175 -16 156 -25Q150 -29 140 -34T125 -41L92 -10Q102 37 119 133Q135 223 145 287L170 440Q174 469 180 517T188 580Q198 648 201 690Q205 756 205 762Q205 791 203 799T195 819Q193 823 184 827Q180 829 168
829Q166 829 141 825Q133 823 106 815Q86 809 61 803L47 842Q106 867 131 877Q174 895 211 907Q223 911 245 918T276 928Q301 936 315 936Q325 936 338 932Q344 930 348 915Q352 899 352 881Q352 875 353 857T354 823Q354 819 353 809T352 793T351 773T350 752Q350
740 346 711Q344 697 344 678Q405 752 453 795Q506 842 561 874T664 922Q709 936 758 936Q791 936 813 928Q840 918 854 897Q870 874 878 844T887 762Q887 728 881 676Q879 660 864 563Q860 532 842 438Q834 399 819 315Q803 215 803 211Q797 164 797 135Q797 102
807 88Q815 76 834 76Q861 76 887 84Q934 98 958 109L973 72Z" />
<glyph unicode="&#xf2;" glyph-name="ograve" horiz-adv-x="862" d="M575 1047Q550 1033 543 1030Q527 1026 512 1026L262 1411L295 1448Q299 1450 309 1451T326 1452Q351 1456 365 1456Q373 1456 385 1457T403 1458H436L575 1047ZM668 504Q668 658 612 737Q555
819 453 819Q379 819 332 778Q283 735 254 674Q223 608 211 537Q197 451 197 399Q197 333 213 272T260 168Q295 119 328 98Q371 71 414 72Q461 72 496 92Q535 115 561 147Q586 176 610 227Q630 266 643 319Q655 370 662 416Q668 465 668 504ZM811 559Q811 487 797
424Q783 365 752 291Q725 230 680 168Q637 110 582 63Q562 47 526 23Q501 7 469 -10Q449 -20 408 -33Q381 -41 346 -41Q272 -41 221 -12Q164 19 129 70Q88 127 72 193Q54 263 53 344Q53 416 65 483T104 610Q133 676 176 729Q222 787 287 840Q340 881 399 907Q462
936 522 936Q598 936 655 907Q710 878 745 829Q778 780 795 711Q811 639 811 559Z" />
<glyph unicode="&#xf3;" glyph-name="oacute" horiz-adv-x="862" d="M850 1374L496 1026Q478 1030 471 1036L451 1061L723 1458L748 1452Q754 1450 780 1442L811 1430Q834 1422 836 1419L850 1374ZM668 504Q668 658 612 737Q555 819 453 819Q379 819 332 778Q283
735 254 674Q223 608 211 537Q197 451 197 399Q197 333 213 272T260 168Q295 119 328 98Q371 71 414 72Q461 72 496 92Q535 115 561 147Q586 176 610 227Q630 266 643 319Q655 370 662 416Q668 465 668 504ZM811 559Q811 487 797 424Q783 365 752 291Q725 230 680
168Q637 110 582 63Q562 47 526 23Q501 7 469 -10Q449 -20 408 -33Q381 -41 346 -41Q272 -41 221 -12Q164 19 129 70Q88 127 72 193Q54 263 53 344Q53 416 65 483T104 610Q133 676 176 729Q222 787 287 840Q340 881 399 907Q462 936 522 936Q598 936 655 907Q710
878 745 829Q778 780 795 711Q811 639 811 559Z" />
<glyph unicode="&#xf4;" glyph-name="ocircumflex" horiz-adv-x="862" d="M797 1071Q791 1063 784 1054T774 1042Q768 1032 752 1026L543 1290L270 1026Q260 1032 254 1042Q242 1058 238 1071L520 1442H612L797 1071ZM668 504Q668 658 612 737Q555 819 453 819Q379
819 332 778Q283 735 254 674Q223 608 211 537Q197 451 197 399Q197 333 213 272T260 168Q295 119 328 98Q371 71 414 72Q461 72 496 92Q535 115 561 147Q586 176 610 227Q630 266 643 319Q655 370 662 416Q668 465 668 504ZM811 559Q811 487 797 424Q783 365 752
291Q725 230 680 168Q637 110 582 63Q562 47 526 23Q501 7 469 -10Q449 -20 408 -33Q381 -41 346 -41Q272 -41 221 -12Q164 19 129 70Q88 127 72 193Q54 263 53 344Q53 416 65 483T104 610Q133 676 176 729Q222 787 287 840Q340 881 399 907Q462 936 522 936Q598
936 655 907Q710 878 745 829Q778 780 795 711Q811 639 811 559Z" />
<glyph unicode="&#xf5;" glyph-name="otilde" horiz-adv-x="862" d="M856 1325Q827 1272 809 1245Q776 1198 752 1174Q721 1143 684 1124Q643 1104 610 1104Q575 1104 553 1120Q520 1145 504 1159Q492 1169 457 1196Q434 1212 408 1212Q373 1212 336 1182Q309
1159 258 1094L215 1114Q244 1167 262 1194Q295 1241 319 1266Q354 1301 387 1317Q424 1335 463 1335Q498 1335 522 1319Q561 1294 573 1282L618 1243Q636 1227 662 1227Q693 1227 735 1260Q772 1289 811 1346L856 1325ZM668 504Q668 658 612 737Q555 819 453 819Q379
819 332 778Q283 735 254 674Q223 608 211 537Q197 451 197 399Q197 333 213 272T260 168Q295 119 328 98Q371 71 414 72Q461 72 496 92Q535 115 561 147Q586 176 610 227Q630 266 643 319Q655 370 662 416Q668 465 668 504ZM811 559Q811 487 797 424Q783 365 752
291Q725 230 680 168Q637 110 582 63Q562 47 526 23Q501 7 469 -10Q449 -20 408 -33Q381 -41 346 -41Q272 -41 221 -12Q164 19 129 70Q88 127 72 193Q54 263 53 344Q53 416 65 483T104 610Q133 676 176 729Q222 787 287 840Q340 881 399 907Q462 936 522 936Q598
936 655 907Q710 878 745 829Q778 780 795 711Q811 639 811 559Z" />
<glyph unicode="&#xf6;" glyph-name="odieresis" horiz-adv-x="862" d="M817 1262Q817 1231 809 1206Q800 1178 784 1157Q770 1137 743 1120Q720 1106 690 1106Q661 1106 643 1124T625 1176Q625 1201 635 1231Q644 1259 659 1280Q675 1303 698 1319Q718 1333 749
1333T798 1315T817 1262ZM444 1262Q444 1231 436 1206Q427 1178 412 1157Q398 1137 371 1120Q348 1106 319 1106Q288 1106 270 1124T252 1176Q252 1201 262 1231Q271 1259 287 1280Q303 1305 328 1319Q351 1333 379 1333Q410 1333 428 1315Q444 1299 444 1262ZM668
504Q668 658 612 737Q555 819 453 819Q379 819 332 778Q283 735 254 674Q223 608 211 537Q197 451 197 399Q197 333 213 272T260 168Q295 119 328 98Q371 71 414 72Q461 72 496 92Q535 115 561 147Q586 176 610 227Q630 266 643 319Q655 370 662 416Q668 465 668
504ZM811 559Q811 487 797 424Q783 365 752 291Q725 230 680 168Q637 110 582 63Q562 47 526 23Q501 7 469 -10Q449 -20 408 -33Q381 -41 346 -41Q272 -41 221 -12Q164 19 129 70Q88 127 72 193Q54 263 53 344Q53 416 65 483T104 610Q133 676 176 729Q222 787 287
840Q340 881 399 907Q462 936 522 936Q598 936 655 907Q710 878 745 829Q778 780 795 711Q811 639 811 559Z" />
<glyph unicode="&#xf7;" glyph-name="divide" horiz-adv-x="768" d="M715 596Q709 578 707 573L696 549Q694 545 691 537T686 524Q682 518 680 514T676 506H88L70 528Q74 536 78 548T88 575L111 621H696L715 596ZM432 340Q428 311 422 297T399 262Q389 250 369
238Q355 230 336 229Q303 229 291 249T285 307Q287 325 297 348Q303 362 319 383Q325 391 350 406Q366 416 383 416Q444 416 432 340ZM500 819Q497 797 487 776Q481 762 465 741Q459 733 434 719Q420 711 401 711Q368 711 358 729Q346 749 352 786Q355 808 365
829Q371 843 387 864Q395 874 416 887Q430 895 451 895Q512 895 500 819Z" />
<glyph unicode="&#xf8;" glyph-name="oslash" horiz-adv-x="862" d="M197 399Q197 360 203 324Q211 279 219 256L612 737Q557 819 453 819Q379 819 332 778Q283 735 254 674Q223 608 211 537Q197 450 197 399ZM668 504Q668 592 651 649L258 170Q285 125 328 99T414
72Q461 72 496 92Q535 115 561 147Q586 176 610 227Q630 266 643 319Q655 370 662 416Q668 465 668 504ZM811 559Q811 487 797 424Q783 365 752 291Q725 230 680 168Q637 110 582 63Q562 47 526 23Q501 7 469 -10Q449 -20 408 -33Q381 -41 346 -41Q289 -41 238
-18Q195 0 154 41L127 8Q118 -1 102 -10Q71 -28 68 -31Q56 -37 35 -49Q21 -57 6 -61L-14 -31L102 113Q77 162 66 219Q54 278 53 344Q53 416 65 483T104 610Q133 676 176 729Q222 787 287 840Q340 881 399 907Q462 936 522 936Q583 936 633 918Q678 902 715 864L735
889Q741 893 761 906T795 928Q826 948 854 958L877 926L768 791Q793 738 801 686Q811 620 811 559Z" />
<glyph unicode="&#xf9;" glyph-name="ugrave" horiz-adv-x="1021" d="M975 68Q905 21 838 -14Q785 -41 743 -41Q723 -41 705 -23T674 35Q662 75 655 139Q649 202 655 297Q615 223 569 162Q518 94 475 53Q428 8 375 -16Q324 -41 268 -41Q250 -41 223 -25Q192 -5
174 20Q154 51 137 98Q121 147 121 205Q121 234 127 281Q129 289 132 324T139 381Q151 451 157 489T176 598Q180 614 190 694Q194 723 195 760Q195 789 193 797Q189 813 184 817Q182 819 170 825Q166 827 154 827Q152 827 127 823Q111 821 94 815L51 803L39 840L123
877Q166 895 203 907L266 928Q291 936 305 936Q336 936 344 918Q354 898 354 852Q354 823 348 776Q338 694 334 674Q330 643 324 611T313 557Q305 510 295 440Q291 420 281 338Q275 291 274 262Q274 164 295 123Q315 80 352 80Q368 80 406 100Q433 114 479 162Q520
203 571 276Q628 358 674 446Q680 489 688 532Q694 567 702 618Q702 624 707 652T715 694Q719 743 719 760Q719 789 717 797Q713 813 709 817Q703 823 699 825T682 827Q678 827 658 823T627 815Q602 807 588 803L573 840L655 877Q688 891 731 907Q743 911 763 918T793
928Q816 936 831 936Q859 936 868 918Q876 902 877 852Q877 823 870 776Q860 694 856 674Q844 600 836 559Q830 528 815 442Q811 417 801 336Q795 287 795 254Q795 168 809 119Q821 76 846 76Q873 76 899 82Q915 86 961 104L975 68ZM651 1047Q626 1033 618 1030Q602
1026 590 1026L340 1411L371 1448Q375 1450 385 1451T401 1452Q426 1456 440 1456Q448 1456 460 1457T479 1458H512L651 1047Z" />
<glyph unicode="&#xfa;" glyph-name="uacute" horiz-adv-x="1021" d="M975 68Q905 21 838 -14Q785 -41 743 -41Q723 -41 705 -23T674 35Q662 75 655 139Q649 202 655 297Q615 223 569 162Q518 94 475 53Q428 8 375 -16Q324 -41 268 -41Q250 -41 223 -25Q192 -5
174 20Q154 51 137 98Q121 147 121 205Q121 234 127 281Q129 289 132 324T139 381Q151 451 157 489T176 598Q180 614 190 694Q194 723 195 760Q195 789 193 797Q189 813 184 817Q182 819 170 825Q166 827 154 827Q152 827 127 823Q111 821 94 815L51 803L39 840L123
877Q166 895 203 907L266 928Q291 936 305 936Q336 936 344 918Q354 898 354 852Q354 823 348 776Q338 694 334 674Q330 643 324 611T313 557Q305 510 295 440Q291 420 281 338Q275 291 274 262Q274 164 295 123Q315 80 352 80Q368 80 406 100Q433 114 479 162Q520
203 571 276Q628 358 674 446Q680 489 688 532Q694 567 702 618Q702 624 707 652T715 694Q719 743 719 760Q719 789 717 797Q713 813 709 817Q703 823 699 825T682 827Q678 827 658 823T627 815Q602 807 588 803L573 840L655 877Q688 891 731 907Q743 911 763 918T793
928Q816 936 831 936Q859 936 868 918Q876 902 877 852Q877 823 870 776Q860 694 856 674Q844 600 836 559Q830 528 815 442Q811 417 801 336Q795 287 795 254Q795 168 809 119Q821 76 846 76Q873 76 899 82Q915 86 961 104L975 68ZM926 1374L571 1026Q553 1030
547 1036L526 1061L799 1458L823 1452Q827 1450 856 1442Q868 1438 889 1430Q907 1422 911 1419L926 1374Z" />
<glyph unicode="&#xfb;" glyph-name="ucircumflex" horiz-adv-x="1021" d="M975 68Q905 21 838 -14Q785 -41 743 -41Q723 -41 705 -23T674 35Q662 75 655 139Q649 202 655 297Q615 223 569 162Q518 94 475 53Q428 8 375 -16Q324 -41 268 -41Q250 -41 223 -25Q192
-5 174 20Q154 51 137 98Q121 147 121 205Q121 234 127 281Q129 289 132 324T139 381Q151 451 157 489T176 598Q180 614 190 694Q194 723 195 760Q195 789 193 797Q189 813 184 817Q182 819 170 825Q166 827 154 827Q152 827 127 823Q111 821 94 815L51 803L39
840L123 877Q166 895 203 907L266 928Q291 936 305 936Q336 936 344 918Q354 898 354 852Q354 823 348 776Q338 694 334 674Q330 643 324 611T313 557Q305 510 295 440Q291 420 281 338Q275 291 274 262Q274 164 295 123Q315 80 352 80Q368 80 406 100Q433 114
479 162Q520 203 571 276Q628 358 674 446Q680 489 688 532Q694 567 702 618Q702 624 707 652T715 694Q719 743 719 760Q719 789 717 797Q713 813 709 817Q703 823 699 825T682 827Q678 827 658 823T627 815Q602 807 588 803L573 840L655 877Q688 891 731 907Q743
911 763 918T793 928Q816 936 831 936Q859 936 868 918Q876 902 877 852Q877 823 870 776Q860 694 856 674Q844 600 836 559Q830 528 815 442Q811 417 801 336Q795 287 795 254Q795 168 809 119Q821 76 846 76Q873 76 899 82Q915 86 961 104L975 68ZM872 1071Q866
1063 859 1054T850 1042Q844 1032 827 1026L618 1290L346 1026Q336 1032 330 1042Q318 1058 313 1071L598 1442H688L872 1071Z" />
<glyph unicode="&#xfc;" glyph-name="udieresis" horiz-adv-x="1021" d="M895 1262Q895 1237 885 1206Q876 1178 860 1157Q846 1137 819 1120Q796 1106 768 1106Q737 1106 719 1124T700 1176Q700 1201 711 1231Q720 1259 735 1280Q751 1303 774 1319Q794 1333
825 1333T874 1315Q895 1295 895 1262ZM520 1262Q520 1231 512 1206Q503 1178 487 1157Q471 1134 449 1120T396 1106T347 1124T328 1176Q328 1201 338 1231Q347 1259 362 1280Q378 1305 403 1319Q426 1333 455 1333Q486 1333 504 1315Q520 1299 520 1262ZM975 68Q905
21 838 -14Q785 -41 743 -41Q723 -41 705 -23T674 35Q662 75 655 139Q649 202 655 297Q615 223 569 162Q518 94 475 53Q428 8 375 -16Q324 -41 268 -41Q250 -41 223 -25Q192 -5 174 20Q154 51 137 98Q121 147 121 205Q121 234 127 281Q129 289 132 324T139 381Q151
451 157 489T176 598Q180 614 190 694Q194 723 195 760Q195 789 193 797Q189 813 184 817Q182 819 170 825Q166 827 154 827Q152 827 127 823Q111 821 94 815L51 803L39 840L123 877Q166 895 203 907L266 928Q291 936 305 936Q336 936 344 918Q354 898 354 852Q354
823 348 776Q338 694 334 674Q330 643 324 611T313 557Q305 510 295 440Q291 420 281 338Q275 291 274 262Q274 164 295 123Q315 80 352 80Q368 80 406 100Q433 114 479 162Q520 203 571 276Q628 358 674 446Q680 489 688 532Q694 567 702 618Q702 624 707 652T715
694Q719 743 719 760Q719 789 717 797Q713 813 709 817Q703 823 699 825T682 827Q678 827 658 823T627 815Q602 807 588 803L573 840L655 877Q688 891 731 907Q743 911 763 918T793 928Q816 936 831 936Q859 936 868 918Q876 902 877 852Q877 823 870 776Q860 694
856 674Q844 600 836 559Q830 528 815 442Q811 417 801 336Q795 287 795 254Q795 168 809 119Q821 76 846 76Q873 76 899 82Q915 86 961 104L975 68Z" />
<glyph unicode="&#xff;" glyph-name="ydieresis" horiz-adv-x="925" d="M879 1262Q879 1237 868 1206Q859 1178 844 1157Q830 1137 803 1120Q780 1106 752 1106Q721 1106 703 1124T684 1176Q684 1201 694 1231Q703 1259 719 1280Q735 1303 758 1319Q778 1333 811
1333Q842 1333 860 1315T879 1262ZM506 1262Q506 1237 496 1206Q487 1178 471 1157Q455 1134 433 1120T381 1106Q348 1106 330 1124T311 1176Q311 1201 322 1231Q330 1254 348 1280T387 1319Q410 1333 438 1333Q469 1333 487 1315T506 1262ZM893 860Q893 823 874
772Q847 696 815 629L705 408L541 82Q469 -57 408 -156Q338 -267 270 -340Q198 -418 125 -459T-37 -500Q-74 -500 -92 -496Q-123 -490 -139 -484T-170 -467Q-180 -459 -180 -449Q-180 -435 -172 -416T-147 -371Q-132 -346 -117 -328Q-99 -308 -86 -301Q-53 -321
-45 -326Q-20 -338 -10 -340Q10 -344 23 -344H55Q139 -344 215 -266Q299 -180 377 -43Q369 2 352 86Q327 201 319 238L283 391Q263 477 246 537Q228 605 209 659Q189 720 176 745Q158 790 137 811Q121 827 104 827Q98 827 78 823Q53 819 45 815Q20 807 6 803L-6
840Q17 848 74 877Q113 895 143 907Q151 911 169 917T197 928Q215 936 231 936Q246 936 256 930Q268 922 276 907Q286 891 295 868L317 809Q348 715 358 682Q393 559 403 522Q407 504 423 443T449 346Q482 207 489 166L553 293L616 424Q653 500 672 545Q711 639
717 653Q742 719 748 737Q758 768 758 791Q758 840 705 844Q676 846 614 821L596 858Q657 895 723 918Q778 936 811 936Q834 936 844 934Q858 932 868 924Q880 915 887 899Q893 885 893 860Z" />
<glyph unicode="&#x131;" glyph-name="dotlessi" horiz-adv-x="503" d="M455 72L371 23L301 -12Q266 -28 246 -35Q221 -41 199 -41Q168 -41 145 -10Q125 19 125 76Q125 88 133 162Q139 217 152 285L174 426L199 565Q211 635 217 684Q225 754 225 760Q225 780 221
796T213 817Q207 823 201 825T184 827Q180 827 160 823T127 815Q121 813 114 811T97 807T84 803L70 840L154 877Q205 897 231 907L295 928Q320 936 334 936Q361 936 373 918T385 852Q385 840 377 766Q371 709 358 639L334 494L307 346Q295 274 289 221Q281 147
281 135Q281 106 287 90Q293 76 311 76Q346 76 371 84Q430 104 440 109L455 72Z" />
<glyph unicode="&#x152;" glyph-name="OE" horiz-adv-x="1488" d="M510 100Q584 100 639 113Q688 123 745 164L870 1081Q782 1165 657 1165Q581 1165 520 1135Q457 1104 412 1055Q369 1010 332 938Q298 873 276 803Q256 733 246 659Q236 581 236 524Q236 424 256
350Q281 264 311 217Q346 164 399 131Q449 100 510 100ZM1403 244Q1383 152 1364 94Q1358 78 1352 57T1342 22T1333 0H745Q696 0 662 -6Q652 -8 630 -11T598 -16Q557 -24 537 -27Q496 -31 467 -31Q375 -31 305 8Q229 51 186 115Q139 185 115 272T90 465Q90 563
113 670Q133 770 174 862Q217 960 268 1032Q323 1109 391 1167Q452 1220 537 1257Q611 1290 698 1290Q729 1290 762 1286Q778 1284 811 1276T860 1266Q909 1260 922 1260H1454L1479 1235Q1475 1219 1466 1178Q1462 1158 1450 1117T1432 1057Q1422 1026 1413 1010H1370Q1374
1071 1374 1087Q1374 1110 1366 1135Q1360 1155 1348 1161Q1332 1169 1319 1169H1026L967 735H1294L1315 707Q1313 705 1292 678Q1288 672 1279 662T1266 647L1239 621Q1235 617 1227 610T1217 600Q1205 615 1192 625Q1180 635 1159 641Q1136 649 1112 651Q1075
655 1047 655H956L887 154Q885 144 885 127Q885 115 897 106Q909 96 938 94Q979 90 1028 90H1143Q1194 90 1214 94Q1245 100 1268 117Q1293 135 1315 170Q1344 217 1366 262L1403 244Z" />
<glyph unicode="&#x153;" glyph-name="oe" horiz-adv-x="1372" d="M961 782Q924 749 895 709Q858 656 838 616Q807 557 795 510Q777 444 774 403Q876 442 926 467Q996 502 1030 524Q1075 553 1098 575Q1129 606 1137 623Q1153 656 1155 670Q1159 699 1159 715Q1159
750 1151 768Q1139 797 1130 805Q1116 819 1102 825Q1086 831 1067 831Q1053 831 1022 819Q986 805 961 782ZM647 504Q647 660 594 737Q537 819 442 819Q401 819 365 799Q330 781 303 748Q278 719 256 672Q236 633 223 584Q207 523 203 489Q197 440 197 399Q197
333 213 272Q229 209 256 168Q285 123 322 98Q361 71 403 72Q444 72 477 92Q511 114 539 147Q557 170 586 227Q611 274 621 319Q637 387 641 416Q647 465 647 504ZM1321 788T1321 760T1315 701T1288 637Q1265 602 1231 567Q1202 538 1133 494Q1092 467 985 414Q936
389 776 328Q782 265 799 225Q819 172 840 145Q865 112 891 94Q919 76 946 76Q956 76 997 80Q1020 82 1067 100Q1110 116 1157 143Q1202 168 1268 221Q1270 219 1284 201Q1294 189 1296 180Q1212 108 1151 66T1040 -2Q1001 -20 952 -33Q917 -41 877 -41Q844 -41
817 -31Q786 -19 756 6Q719 35 698 70Q667 119 655 164Q610 101 567 63Q540 40 514 23Q496 11 455 -10Q430 -22 395 -33Q368 -41 338 -41Q268 -41 219 -12Q164 21 129 70Q98 115 74 193Q54 261 53 344Q53 416 66 483Q76 542 106 610Q135 671 176 729Q215 782 283
840Q338 885 393 909Q452 936 512 936Q620 936 684 874Q747 813 772 707Q797 740 836 778Q877 819 911 846Q931 864 963 881Q990 895 1024 909Q1065 925 1087 930Q1122 936 1151 936Q1194 936 1227 920Q1262 904 1280 881Q1300 858 1310 823Z" />
<glyph unicode="&#x178;" glyph-name="Ydieresis" horiz-adv-x="1144" d="M995 1548Q995 1523 985 1493Q976 1465 961 1444Q947 1424 920 1407Q897 1393 868 1393Q837 1393 819 1411Q803 1427 803 1462Q803 1493 811 1518Q821 1549 836 1569Q848 1587 874 1606Q894
1620 928 1620Q959 1620 977 1602T995 1548ZM623 1548Q623 1523 612 1493Q603 1465 588 1444Q572 1421 549 1407T498 1393Q465 1393 447 1411T428 1462Q428 1487 438 1518Q446 1545 465 1569Q481 1592 503 1606T555 1620Q586 1620 604 1602T623 1548ZM733 0H287L293
43Q373 59 416 82Q449 98 453 115L512 551Q500 602 465 709Q451 756 401 874Q370 952 330 1032Q291 1112 260 1155Q252 1169 238 1180Q226 1190 211 1192Q191 1196 170 1196Q156 1196 111 1192L102 1235Q108 1237 129 1242T162 1249Q185 1253 225 1262Q264 1270
287 1272Q324 1276 334 1276Q361 1276 385 1237Q408 1202 430 1159Q463 1098 479 1063Q512 993 526 958Q565 866 569 852L602 756Q610 733 625 678L934 1151Q952 1178 928 1194Q910 1206 838 1217L844 1260H1204L1198 1217Q1155 1209 1100 1190Q1067 1180 1047
1151L657 543L598 115Q598 111 604 100Q610 92 627 82Q650 68 670 61Q693 53 739 43L733 0Z" />
<glyph unicode="&#x192;" glyph-name="florin" horiz-adv-x="557" d="M903 1403L858 1370Q850 1364 834 1354T811 1339Q797 1329 768 1315Q748 1305 737 1305Q723 1305 711 1323T682 1362Q672 1376 645 1399Q623 1417 596 1417Q557 1417 528 1395Q497 1370 477
1335Q455 1298 440 1249Q428 1210 414 1149Q402 1097 395 1044Q391 1009 383 952L377 905H633L653 877Q643 861 627 846L590 815Q578 805 553 788L526 770Q522 780 510 793Q504 799 481 807Q475 809 436 813Q418 815 373 815H367Q365 801 360 755T352 682Q346 612
338 541Q334 506 331 469T324 397L307 264Q305 241 300 203T293 152Q287 105 281 68Q261 -32 233 -109Q206 -187 176 -236Q141 -293 100 -334Q51 -383 2 -424Q-25 -444 -57 -461Q-88 -476 -119 -485Q-139 -491 -176 -495T-221 -500Q-254 -500 -281 -492Q-322 -480
-338 -471Q-363 -459 -381 -446Q-397 -436 -397 -424Q-397 -410 -385 -389Q-375 -371 -354 -350L-319 -315Q-303 -301 -291 -301Q-283 -301 -270 -313Q-252 -331 -238 -342Q-209 -362 -188 -371Q-157 -383 -115 -383Q-70 -383 -35 -357T33 -279Q58 -240 86 -154Q111
-80 129 12Q137 55 147 121Q151 144 156 190T164 254Q176 344 180 399Q184 438 188 474T195 547Q203 645 207 690Q213 749 219 815H68L53 846L154 905H229L254 1059Q264 1125 293 1198Q320 1270 356 1323Q397 1384 459 1427Q473 1437 487 1446T512 1462Q537 1480
561 1493Q590 1507 616 1513T674 1520Q715 1520 754 1503Q789 1489 817 1466Q858 1435 866 1427Q888 1409 903 1403Z" />
<glyph unicode="&#x2c6;" glyph-name="circumflex" horiz-adv-x="555" d="M662 1071Q656 1063 649 1054T639 1042Q633 1032 616 1026L408 1290L135 1026Q125 1032 119 1042Q107 1058 102 1071L385 1442H477L662 1071Z" />
<glyph unicode="&#x2c7;" glyph-name="caron" horiz-adv-x="555" d="M426 1051H334L147 1401L170 1427Q174 1429 181 1437Q188 1442 193 1446L401 1202L674 1446L692 1427Q694 1425 707 1401L426 1051Z" />
<glyph unicode="&#x2d8;" glyph-name="breve" horiz-adv-x="622" d="M709 1335Q674 1259 631 1200Q592 1145 549 1112Q508 1081 465 1065Q424 1051 383 1051Q336 1051 299 1065Q258 1081 229 1112Q194 1151 172 1200Q147 1255 129 1335Q141 1349 158 1362Q160
1364 184 1378Q200 1317 223 1284Q250 1245 274 1223T334 1190T393 1180Q420 1180 461 1190Q498 1198 532 1223Q567 1246 602 1284Q639 1323 666 1378Q680 1368 688 1362Q703 1347 709 1335Z" />
<glyph unicode="&#x2d9;" glyph-name="dotaccent" horiz-adv-x="335" d="M350 1262Q350 1231 342 1206Q333 1178 317 1157Q305 1139 279 1120Q259 1106 227 1106Q198 1106 180 1124Q164 1140 164 1176Q164 1207 172 1231Q181 1259 197 1280Q213 1303 236 1319Q256
1333 287 1333Q316 1333 334 1315Q350 1299 350 1262Z" />
<glyph unicode="&#x2da;" glyph-name="ring" horiz-adv-x="446" d="M389 1243Q389 1278 375 1305Q359 1334 330 1333Q302 1333 281 1321Q261 1309 244 1286Q230 1266 223 1241Q215 1208 215 1192Q215 1161 233 1128Q249 1099 281 1100Q304 1100 328 1114Q346 1124
362 1147Q376 1165 383 1194Q389 1218 389 1243ZM473 1280Q473 1233 457 1194Q437 1147 408 1112Q375 1073 338 1051Q298 1026 252 1026Q227 1026 203 1036Q180 1046 166 1063Q150 1083 141 1102Q131 1127 131 1149Q131 1192 150 1239Q170 1292 197 1323Q226 1358
268 1384Q307 1409 356 1409Q411 1409 442 1372T473 1280Z" />
<glyph unicode="&#x2db;" glyph-name="ogonek" horiz-adv-x="376" d="M293 -301Q273 -326 242 -354Q205 -387 186 -401Q163 -417 129 -434Q102 -446 76 -446Q53 -446 31 -440T-6 -422Q-24 -408 -33 -387Q-43 -362 -43 -332Q-43 -275 -14 -221Q11 -176 57 -125Q102
-76 156 -41Q230 8 260 25L311 18Q297 8 233 -41Q192 -74 156 -117Q119 -162 98 -201Q75 -246 76 -287Q76 -314 94 -326Q114 -340 143 -340Q165 -340 199 -322Q230 -306 274 -266L293 -301Z" />
<glyph unicode="&#x2dc;" glyph-name="tilde" horiz-adv-x="686" d="M764 1325Q735 1272 717 1245Q684 1198 659 1174Q628 1143 592 1124Q551 1104 518 1104Q483 1104 461 1120Q428 1145 412 1159Q400 1169 365 1196Q342 1212 315 1212Q280 1212 244 1182Q217
1159 166 1094L123 1114Q152 1167 170 1194Q197 1233 229 1266Q264 1301 297 1317Q334 1335 371 1335Q406 1335 430 1319Q469 1294 481 1282Q493 1272 504 1262T526 1243Q544 1227 569 1227Q600 1227 643 1260Q680 1289 719 1346L764 1325Z" />
<glyph unicode="&#x2dd;" glyph-name="hungarumlaut" horiz-adv-x="643" d="M174 1026Q160 1028 152 1034Q143 1040 127 1053L340 1458Q356 1454 362 1454Q370 1452 391 1448Q401 1446 418 1442Q422 1440 429 1437T438 1434L455 1393L174 1026ZM430 1026Q416 1028
408 1034Q404 1036 396 1043Q389 1048 385 1053L596 1458Q610 1454 618 1454Q626 1452 647 1448Q657 1446 674 1442Q678 1440 685 1437T694 1434L711 1393L430 1026Z" />
<glyph unicode="&#x3a9;" glyph-name="Omega" horiz-adv-x="1191" d="M47 0L23 27Q25 37 33 82Q43 131 47 147L66 215Q78 260 86 281H127Q129 209 141 154Q151 111 190 111H387Q305 193 252 274T172 430Q143 508 141 582Q137 664 150 739Q160 807 182 870Q207
938 244 999Q275 1052 332 1112Q383 1165 444 1206Q505 1245 578 1268Q652 1291 731 1290Q831 1290 907 1254T1034 1147Q1085 1075 1104 981Q1124 872 1108 762Q1096 678 1061 594Q1020 496 975 434Q914 348 846 279Q770 199 672 111H881Q897 111 911 121Q929 135
938 150Q954 181 967 205Q973 219 978 228T990 252T1006 285L1044 266Q1044 264 1039 240T1030 201Q1026 185 1021 168T1012 129Q1008 111 1003 94T993 59Q977 2 977 0H580L594 111L707 248Q791 354 795 358Q850 438 860 453Q885 492 907 543Q923 582 938 635Q948
672 958 739Q970 835 963 913Q954 996 920 1061Q885 1127 829 1161Q768 1200 690 1200Q631 1200 575 1178Q536 1162 483 1116Q442 1081 408 1030Q381 991 352 934Q329 891 313 836Q305 807 295 750Q285 687 283 641Q281 608 285 547Q287 506 301 455Q311 414 338
358Q346 340 397 248Q420 205 481 111L467 0H47Z" />
<glyph unicode="&#x3c0;" glyph-name="pi" horiz-adv-x="1011" d="M948 195Q901 115 870 76Q831 27 803 4Q770 -23 743 -31Q712 -41 688 -41Q668 -41 650 -33T615 -3T586 57Q576 88 575 152Q575 166 580 223Q582 252 596 334Q600 361 613 422T633 508Q651 592
692 764Q604 772 555 778Q471 790 410 795Q406 777 369 598Q340 459 328 391Q310 293 297 197Q281 72 279 33Q273 29 261 23T242 12L193 -10Q177 -18 139 -31L90 -47Q88 -45 84 -39Q82 -37 81 -33T78 -27T73 -21T68 -12L117 80Q125 98 140 136T158 180Q176 225
197 293Q215 354 233 428T270 594L311 801H276H240Q220 801 186 797Q161 794 137 784Q110 774 90 762Q86 760 67 749T37 729L20 764L84 829Q123 868 143 884T205 922Q234 936 264 936Q372 936 461 930Q494 928 548 923T623 915Q684 909 766 901Q831 895 895 895Q934
895 971 913Q1020 938 1040 954L1063 926Q1030 885 1012 864Q984 833 956 809Q931 786 901 770Q874 756 846 756H815Q811 756 801 757T786 758Q774 717 754 627Q748 600 740 551T729 496Q717 433 711 375Q705 320 705 279Q705 228 711 197Q717 162 725 150Q733
136 748 131Q764 127 774 127Q778 127 786 128T799 129Q811 129 827 139Q852 155 866 168Q884 186 915 227L948 195Z" />
<glyph unicode="&#x2013;" glyph-name="endash" horiz-adv-x="821" d="M762 541Q750 512 741 496L721 455H61L43 479Q55 508 63 522Q67 528 74 542T86 565H741L762 541Z" />
<glyph unicode="&#x2014;" glyph-name="emdash" horiz-adv-x="1509" d="M1448 541Q1442 523 1430 496Q1416 467 1407 455H61L43 479Q55 508 63 522Q67 528 74 542T86 565H1430L1448 541Z" />
<glyph unicode="&#x2018;" glyph-name="quoteleft" horiz-adv-x="409" d="M418 1415Q408 1405 379 1372Q361 1352 340 1317Q328 1297 311 1255Q299 1224 299 1198Q299 1161 326 1137Q353 1114 403 1116L412 1069Q402 1057 373 1042Q336 1022 314 1012T250 989Q215
979 201 981Q174 1001 160 1024T145 1085Q145 1134 168 1190Q184 1233 225 1290Q262 1345 301 1380Q356 1431 383 1450L418 1415Z" />
<glyph unicode="&#x2019;" glyph-name="quoteright" horiz-adv-x="409" d="M455 1323Q455 1274 432 1219Q416 1176 375 1118Q338 1063 299 1028Q258 989 217 958L182 993Q192 1003 221 1036Q229 1044 258 1094Q278 1129 289 1153Q301 1184 301 1210Q301 1247 274
1272Q245 1297 197 1294L188 1339Q200 1351 227 1366Q264 1386 287 1397Q322 1413 350 1421Q377 1429 397 1430Q425 1412 440 1386Q455 1364 455 1323Z" />
<glyph unicode="&#x201a;" glyph-name="quotesinglbase" horiz-adv-x="464" d="M285 113Q285 64 262 8Q246 -35 205 -92Q168 -147 129 -182Q74 -233 47 -252L12 -217Q18 -211 24 -204T38 -188T51 -172Q63 -158 88 -117Q108 -82 119 -57Q131 -26 131 0Q131 37 104
61Q79 84 27 84L18 129Q28 139 57 156Q94 176 117 186Q152 202 180 211Q207 219 227 219Q254 199 268 176Q285 150 285 113Z" />
<glyph unicode="&#x201c;" glyph-name="quotedblleft" horiz-adv-x="833" d="M418 1415Q408 1405 379 1372Q361 1352 340 1317Q328 1297 311 1255Q299 1224 299 1198Q299 1161 326 1137Q353 1114 403 1116L412 1069Q402 1057 373 1042Q336 1022 314 1012T250 989Q215
979 201 981Q174 1001 160 1024T145 1085Q145 1134 168 1190Q184 1233 225 1290Q262 1345 301 1380Q356 1431 383 1450L418 1415ZM811 1415Q801 1405 772 1372Q754 1352 733 1317Q721 1297 705 1255Q693 1224 692 1198Q692 1161 718 1137T795 1116L803 1069Q791
1057 764 1042Q727 1022 705 1012T641 989Q606 979 594 981Q567 1001 553 1024T539 1085Q539 1134 561 1190Q577 1233 618 1290Q655 1345 694 1380Q749 1431 774 1450L811 1415Z" />
<glyph unicode="&#x201d;" glyph-name="quotedblright" horiz-adv-x="833" d="M455 1323Q455 1274 432 1219Q416 1176 375 1118Q338 1063 299 1028Q258 989 217 958L182 993Q192 1003 221 1036Q229 1044 258 1094Q278 1129 289 1153Q301 1184 301 1210Q301 1247
274 1272Q245 1297 197 1294L188 1339Q200 1351 227 1366Q264 1386 287 1397Q322 1413 350 1421Q377 1429 397 1430Q425 1412 440 1386Q455 1364 455 1323ZM846 1323Q846 1274 823 1219Q807 1176 766 1118Q729 1063 690 1028Q639 981 610 958L575 993Q585 1003
614 1036Q622 1044 651 1094Q665 1119 680 1153Q692 1184 692 1210Q692 1247 666 1272Q637 1297 590 1294L582 1339Q588 1347 621 1366Q658 1386 680 1397Q715 1413 743 1421Q770 1429 791 1430Q818 1410 832 1387T846 1323Z" />
<glyph unicode="&#x201e;" glyph-name="quotedblbase" horiz-adv-x="833" d="M285 113Q285 64 262 8Q246 -35 205 -92Q168 -147 129 -182Q74 -233 47 -252L12 -217Q18 -211 24 -204T38 -188T51 -172Q63 -158 88 -117Q108 -82 119 -57Q131 -26 131 0Q131 37 104
61Q79 84 27 84L18 129Q28 139 57 156Q94 176 117 186Q152 202 180 211Q207 219 227 219Q254 199 268 176Q285 150 285 113ZM676 113Q676 64 653 8Q637 -35 596 -92Q559 -147 520 -182Q459 -239 440 -252L403 -217Q409 -211 415 -204T429 -188T442 -172Q460 -152
481 -117Q495 -92 510 -57Q522 -26 522 0Q522 37 496 61Q471 84 420 84L412 129Q418 137 451 156Q488 176 510 186Q545 202 573 211Q600 219 621 219Q648 199 662 177T676 113Z" />
<glyph unicode="&#x2020;" glyph-name="dagger" horiz-adv-x="878" d="M922 1073L879 997Q859 960 825 918Q762 945 707 952Q660 958 571 967Q565 920 561 823Q557 737 565 680Q532 574 510 457Q490 351 473 250Q471 240 461 127Q453 41 451 0Q435 -12 410 -23Q396
-27 385 -32T362 -41L340 -18Q352 33 367 119Q373 154 387 250Q397 324 408 459Q417 570 414 680Q437 743 457 823Q459 831 483 967L403 961Q376 959 328 950Q271 940 250 936Q242 934 226 931T196 925T170 918L154 961Q156 965 170 992T195 1036Q215 1073 248
1116Q297 1096 365 1081Q416 1071 498 1067Q508 1169 508 1241Q508 1325 496 1399Q527 1419 575 1444L649 1481L684 1454Q653 1366 627 1262Q607 1178 588 1067L668 1073Q691 1075 745 1083Q792 1091 823 1098Q827 1100 858 1106T905 1116L922 1073Z" />
<glyph unicode="&#x2021;" glyph-name="daggerdbl" horiz-adv-x="878" d="M922 1073L879 997Q859 960 825 918Q776 936 707 950Q666 958 573 967Q565 885 565 846Q565 780 573 721Q548 655 532 592Q522 551 506 473L588 479Q606 481 664 489Q717 497 743 504Q751
506 767 509T797 515T823 522L842 479L799 403Q779 366 745 324Q686 342 627 354Q566 366 492 373Q480 279 480 197T494 43Q453 16 416 -4L342 -41L305 -14Q342 92 365 176Q392 280 406 373Q394 373 367 369T326 365Q303 363 248 354Q174 342 170 342L88 324L72
367L115 442Q135 479 168 522Q217 502 285 487Q336 477 418 473Q426 551 426 594Q426 655 420 721Q447 797 461 848Q477 907 485 967Q379 959 328 950Q240 936 170 918L154 961Q156 965 170 992T195 1036Q215 1073 248 1116Q299 1093 365 1081Q420 1071 500 1067Q510
1147 510 1243Q510 1325 498 1399Q514 1409 578 1444L649 1481L686 1454Q655 1359 631 1264T588 1067L670 1073Q697 1075 745 1083Q802 1093 823 1098Q827 1100 858 1106T905 1116L922 1073Z" />
<glyph unicode="&#x2022;" glyph-name="bullet" horiz-adv-x="526" d="M479 713Q479 656 461 598Q443 537 410 494Q377 449 328 418Q283 389 215 389Q176 389 150 401Q125 411 102 438Q86 456 76 491T66 559Q66 614 84 674Q102 729 137 778Q168 821 221 854Q270
885 332 885Q369 885 397 872Q424 860 444 834Q462 809 471 780Q479 754 479 713Z" />
<glyph unicode="&#x2026;" glyph-name="ellipsis" horiz-adv-x="1228" d="M1104 152Q1104 134 1092 88Q1084 59 1063 29Q1049 9 1016 -14Q991 -30 954 -31Q913 -31 893 -4Q870 25 870 68Q870 99 883 129Q897 166 915 186Q940 215 963 229Q988 245 1022 246Q1059
246 1081 220T1104 152ZM692 152Q692 125 682 88Q674 59 653 29Q639 9 606 -14Q581 -30 545 -31Q504 -31 483 -4Q460 25 461 68Q461 99 473 129Q489 170 504 186Q526 211 553 229Q578 245 610 246Q647 246 669 220T692 152ZM283 152Q283 125 272 88Q266 65 242
29Q226 6 197 -14Q172 -30 135 -31Q94 -31 74 -4Q51 25 51 68Q51 99 63 129Q79 170 94 186Q119 215 141 229Q166 245 201 246Q238 246 260 220T283 152Z" />
<glyph unicode="&#x2030;" glyph-name="perthousand" horiz-adv-x="1914" d="M1675 387Q1675 479 1645 522T1571 565Q1540 565 1518 547Q1498 529 1477 496Q1461 469 1448 428Q1436 385 1430 350Q1422 293 1419 276Q1417 251 1417 215Q1417 131 1446 90Q1473 51
1522 51Q1553 51 1575 70Q1593 84 1614 117Q1628 137 1642 182Q1654 219 1661 256Q1669 305 1671 328Q1675 373 1675 387ZM1812 377Q1812 311 1788 240Q1761 162 1722 106Q1683 53 1620 8Q1563 -31 1487 -31Q1436 -31 1401 -10Q1364 10 1337 47Q1312 80 1296 133Q1282
178 1282 242Q1282 281 1292 332Q1301 378 1323 424T1372 510Q1399 549 1436 579T1516 628T1606 647Q1655 647 1694 627T1757 569Q1784 530 1798 483Q1812 438 1812 377ZM1075 387Q1075 479 1045 522T971 565Q938 565 918 547T877 496Q861 469 848 428Q836 385
829 350Q821 293 819 276Q817 251 817 215Q817 131 846 90Q873 51 922 51Q955 51 975 70Q993 84 1014 117Q1028 137 1042 182Q1054 219 1061 256Q1069 305 1071 328Q1075 373 1075 387ZM1212 377Q1212 311 1188 240Q1161 162 1122 106Q1083 53 1020 8Q963 -31 887
-31Q836 -31 801 -10Q764 10 737 47Q712 80 696 133Q682 178 682 242Q682 281 692 332Q701 378 722 424T772 510Q799 549 835 579T915 628T1006 647Q1055 647 1094 627T1157 569Q1184 530 1198 483Q1212 438 1212 377ZM256 16Q240 6 229 2Q223 0 211 -5T193 -12Q173
-18 154 -25L123 -35L104 0L1067 1188Q1090 1202 1130 1217Q1142 1221 1165 1228T1196 1237L1221 1204L256 16ZM506 975Q506 1067 475 1110T399 1153Q364 1153 344 1135Q326 1119 305 1085Q291 1060 276 1016Q264 975 258 938Q254 909 250 864Q246 815 246 803Q246
720 276 680Q307 639 352 639Q381 639 403 657T444 705Q458 725 473 770Q485 807 492 844Q500 893 502 915Q506 961 506 975ZM641 965Q641 926 631 874Q622 828 601 782T551 696Q520 651 487 625Q450 594 408 576T315 557Q264 557 229 578Q192 598 166 635Q143
666 125 723Q111 768 111 829Q111 868 121 920Q130 966 151 1012T201 1098Q230 1139 266 1169Q301 1198 344 1216T436 1235Q483 1235 522 1214Q565 1191 587 1157T627 1071Q641 1026 641 965Z" />
<glyph unicode="&#x2039;" glyph-name="guilsinglleft" horiz-adv-x="552" d="M57 414Q61 439 63 449Q65 457 66 471Q66 481 70 485L442 889L475 860L465 842L436 797L393 729L346 655L299 580L256 512L227 467L217 451L365 37L324 6L57 414Z" />
<glyph unicode="&#x203a;" glyph-name="guilsinglright" horiz-adv-x="552" d="M59 37L322 451Q320 459 311 479Q305 495 298 513T283 555Q277 573 269 600T248 655L211 754Q203 777 196 795T182 829L172 860L213 889L477 485V471Q477 465 473 449L469 414L94 6L59 37Z" />
<glyph unicode="&#x2044;" glyph-name="fraction" horiz-adv-x="1107" d="M244 2Q228 -8 201 -16Q164 -28 156 -31L137 0L987 1202L1028 1221Q1042 1227 1071 1235L1090 1206L244 2Z" />
<glyph unicode="&#x20ac;" glyph-name="Euro" horiz-adv-x="821" d="M520 467H227Q223 363 240 291Q256 217 286 174T358 111T449 90Q480 90 504 98Q522 104 563 127Q588 141 637 178Q668 203 729 256L737 248Q737 246 741 241T745 233Q749 227 752 221Q752 219
753 216T756 211Q674 125 643 96Q602 59 547 23Q502 -6 459 -18T367 -31Q299 -31 244 0Q185 33 150 90Q111 156 93 244T84 467H0L-16 492L-2 522Q6 547 12 557H92Q94 559 94 561Q96 577 99 593T104 625L117 686H57L41 711L53 743Q57 755 70 776H139Q170 876 225
975Q274 1061 338 1118Q408 1181 475 1206Q551 1235 633 1235Q682 1235 713 1227Q748 1217 772 1206Q795 1196 821 1174Q850 1149 864 1135Q866 1129 858 1114Q856 1112 831 1081Q811 1056 797 1042Q787 1032 781 1025T768 1012L737 1018Q727 1030 718 1040T700
1061Q684 1077 662 1094Q648 1104 610 1116Q585 1124 543 1124Q510 1124 475 1110Q438 1096 403 1057Q362 1014 332 950Q297 880 272 776H590L610 754L578 686H254Q254 680 250 666T246 643L240 598Q236 582 236 578L233 557H532L553 535L520 467Z" />
<glyph unicode="&#x2122;" glyph-name="trademark" horiz-adv-x="1157" d="M559 1251Q557 1247 556 1240T555 1229Q551 1213 549 1203T543 1176Q541 1168 537 1155H520Q516 1188 514 1202Q510 1218 496 1219H399L352 856Q350 854 360 846Q366 842 401 831L397
807H227L231 831Q266 841 274 846Q286 852 287 856L338 1219H238Q230 1219 227 1217L223 1213Q219 1210 217 1208Q213 1204 205 1188Q203 1184 186 1155L172 1161Q172 1165 176 1182Q176 1184 179 1194T184 1210T189 1227T193 1239Q197 1255 199 1260H551L559 1251ZM1100
1235Q1080 1235 1057 1227L1008 854Q1008 848 1018 842Q1022 838 1051 831L1047 807H891L893 831Q928 839 932 842Q946 848 946 854L985 1163L793 807H766L668 1157L623 854Q621 848 631 842Q635 840 666 831L662 807H520L524 831Q557 839 561 842Q573 848 573
854L629 1227Q617 1233 606 1233Q602 1233 595 1234T584 1235L588 1260H690Q698 1260 700 1255L709 1231L801 915L973 1231Q983 1254 987 1257Q989 1259 997 1260H1104L1100 1235Z" />
<glyph unicode="&#x2202;" glyph-name="partialdiff" horiz-adv-x="903" d="M680 563Q674 624 651 666Q622 719 594 748Q560 782 520 803Q481 823 442 823Q391 823 346 795Q303 766 268 717Q234 668 213 600Q184 512 178 455Q168 389 182 305Q194 237 223 182Q250
133 291 98Q328 67 367 68Q416 68 467 102Q516 136 559 201Q604 269 633 352Q662 434 678 555Q678 557 679 557T680 559V563ZM840 698Q815 530 784 436Q747 327 705 244Q666 168 610 106Q561 51 512 20Q457 -15 420 -25Q369 -39 342 -39Q258 -39 193 -4Q134 27
90 92Q51 151 39 240Q25 336 39 426Q49 492 72 553Q97 619 129 672Q166 731 205 776Q248 825 293 858Q348 899 387 913Q436 931 483 932Q512 932 543 918Q578 902 606 879Q647 846 666 825Q694 794 709 764Q723 909 709 1010Q693 1112 657 1171Q620 1232 573 1259T473
1286Q438 1286 422 1284Q410 1282 371 1270Q343 1261 309 1239Q241 1196 231 1188L197 1219L322 1360Q388 1387 422 1395Q475 1409 514 1409Q563 1409 612 1397Q659 1385 705 1356Q746 1329 780 1276Q815 1221 836 1147Q852 1084 856 958Q860 837 840 698Z" />
<glyph unicode="&#x2206;" glyph-name="uni2206" horiz-adv-x="1110" d="M807 166L737 496L709 637L680 784Q670 833 651 924Q637 992 627 1049L565 913L496 768L428 621L362 481L213 166Q211 162 203 137Q199 127 207 121Q216 115 238 115Q244 115 265 114T303
113H698Q714 113 737 114T766 115Q791 115 801 121Q809 127 809 137Q809 154 807 166ZM956 0H57L49 51L270 512L362 709L455 905L539 1085L608 1237Q614 1243 634 1259T666 1282L696 1300Q716 1312 725 1317Q739 1231 756 1149L795 952L838 743L881 537L981 51L956
0Z" />
<glyph unicode="&#x220f;" glyph-name="product" horiz-adv-x="1179" d="M0 0L4 43Q72 59 106 73T145 104L291 1155Q293 1167 262 1186Q237 1200 170 1217L174 1260H1231L1225 1217Q1147 1199 1122 1186Q1085 1168 1083 1155L938 104Q936 92 967 74Q990 60 1061
43L1055 0H649L653 43Q714 57 754 74Q789 88 793 104L934 1110Q934 1120 924 1135Q916 1145 893 1155Q858 1169 838 1174Q803 1180 760 1180H610Q579 1180 535 1171Q502 1165 478 1155T442 1135Q428 1121 428 1110L289 104Q287 92 317 74Q340 60 412 43L406 0H0Z"
/>
<glyph unicode="&#x2211;" glyph-name="summation" horiz-adv-x="1026" d="M897 344L881 256L860 160L842 70L827 0H41L18 43L494 635L201 1217L207 1260H862Q868 1260 884 1261T907 1262Q921 1262 954 1266Q970 1268 1008 1276L969 975L918 963Q912 1039 899
1077Q885 1120 877 1135Q865 1153 850 1155Q830 1159 823 1159H401L641 674L209 139H688Q715 139 735 149T772 182Q786 200 807 250L852 356L897 344Z" />
<glyph unicode="&#x221a;" glyph-name="radical" horiz-adv-x="1064" d="M1194 1389Q1182 1360 1174 1343Q1162 1318 1155 1300H1024L549 47Q539 24 522 10Q504 -5 485 -14Q460 -26 449 -31Q443 -33 418 -39L180 788H59L41 813Q47 835 59 856Q63 864 70 878T82
899L295 901L508 174L983 1413H1174L1194 1389Z" />
<glyph unicode="&#x221e;" glyph-name="infinity" horiz-adv-x="1198" d="M293 426Q311 426 344 430Q360 432 393 449Q424 463 451 485Q480 508 528 551Q508 588 496 606Q473 639 453 657Q428 679 397 694Q368 708 326 708T256 694Q227 678 213 662Q195 642 188
616Q188 612 183 597T176 575Q172 552 178 530Q186 499 197 481Q209 458 235 442T293 426ZM920 725Q889 725 864 719Q837 713 813 699T754 659Q740 649 680 598Q694 573 713 545Q736 512 756 494Q779 476 813 457Q842 443 885 442Q922 442 954 457Q979 467 999
492Q1011 506 1024 535Q1030 547 1034 575Q1038 598 1032 621Q1024 658 1014 670Q996 697 977 709Q955 725 920 725ZM406 838Q453 838 487 824T555 782Q580 762 606 725Q618 709 647 659Q715 716 752 743Q798 777 838 799Q875 819 913 829Q944 837 983 837T1049
821Q1084 801 1102 774Q1125 743 1133 705Q1143 662 1137 616Q1127 559 1098 506T1022 410Q981 373 918 340Q865 313 805 313Q760 313 721 330Q686 344 653 371Q633 387 600 428Q577 457 557 494Q467 418 446 401Q393 362 365 348Q322 328 295 322Q254 314 227
313Q192 313 162 332Q125 355 109 377Q84 412 76 448T74 535Q84 592 113 645Q146 702 188 743Q225 778 291 811Q345 838 406 838Z" />
<glyph unicode="&#x222b;" glyph-name="integral'" horiz-adv-x="620" d="M942 1403L897 1370Q889 1364 874 1354T852 1339Q838 1329 809 1315Q789 1305 777 1305T752 1323T723 1362Q717 1370 684 1399Q664 1417 637 1417Q598 1417 569 1395Q538 1370 518 1335Q491
1290 479 1249Q467 1210 453 1149Q441 1097 434 1044Q432 1032 429 1001T424 952L410 821Q400 731 393 662Q385 576 375 487Q367 407 356 319Q346 223 338 172Q329 107 319 68Q296 -47 274 -109Q247 -187 217 -236Q182 -293 141 -334Q92 -383 43 -424Q16 -444 -16
-461Q-43 -475 -80 -485Q-100 -491 -137 -495T-180 -500Q-215 -500 -242 -492Q-279 -482 -297 -471Q-322 -459 -340 -446Q-356 -436 -356 -424Q-356 -410 -344 -389Q-334 -371 -313 -350L-279 -315Q-263 -301 -253 -301T-229 -313Q-204 -336 -199 -342Q-170 -362
-150 -371Q-119 -383 -76 -383Q-29 -383 6 -356Q39 -331 72 -279Q101 -232 127 -154Q152 -80 170 12Q180 59 190 139Q202 237 209 293Q213 322 218 378T225 461Q227 492 232 538T242 629Q244 658 249 709T256 778Q262 852 268 899Q284 1005 293 1055Q303 1118 332
1196Q357 1264 395 1321Q434 1376 500 1427L551 1462Q571 1478 602 1493Q633 1509 655 1513Q684 1519 715 1520Q754 1520 793 1503Q828 1489 856 1466Q862 1462 880 1448T907 1427Q930 1407 942 1403Z" />
<glyph unicode="&#x2248;" glyph-name="approxequal" horiz-adv-x="839" d="M772 475Q661 317 537 317Q498 317 463 332Q426 348 391 364T319 397Q280 413 250 414Q207 414 172 387Q131 356 88 313L49 369Q158 527 285 526Q328 526 365 512Q410 496 440 479Q477
461 510 446Q547 430 571 430Q594 430 612 438Q641 450 655 461Q684 481 696 494Q721 519 731 532L772 475ZM811 760Q696 600 573 600Q540 600 502 616Q465 630 430 649T358 682Q323 696 287 696Q246 696 209 672Q184 656 127 598L86 651Q197 811 324 811Q365 811
401 797Q446 781 477 764Q514 746 547 731Q578 717 608 717Q631 717 649 725Q684 741 692 745Q721 765 733 778Q758 803 768 817L811 760Z" />
<glyph unicode="&#x2260;" glyph-name="notequal" horiz-adv-x="839" d="M766 446Q760 428 758 424L748 397Q746 393 742 386T735 375L725 354H352L213 158Q197 148 188 143Q186 143 174 137T154 129L117 117L86 106L72 141L221 354H70L49 379Q53 389 59 400T70
424Q74 430 80 445T90 469H301L430 655H109L90 680L109 725L131 770H512L647 963Q674 979 707 991Q719 995 742 1002T770 1012L793 979L645 770H786L805 745Q799 727 797 723L786 698Q784 694 781 686T776 674Q772 668 770 664T766 655H563L432 469H748L766 446Z"
/>
<glyph unicode="&#x2264;" glyph-name="lessequal" horiz-adv-x="839" d="M90 649Q96 663 109 700Q117 725 127 745L825 1020L844 993Q844 991 841 983T836 971Q834 963 831 957T825 942T820 928T815 915Q813 911 807 893L268 684L752 473L762 436Q750 426 741
420L725 406L705 391Q701 389 693 384T680 377L113 625L90 649ZM743 297Q743 295 741 290T738 281T735 272L725 248Q723 244 720 237T715 225L705 205H49L31 229L49 274L72 319H725L743 297Z" />
<glyph unicode="&#x2265;" glyph-name="greaterequal" horiz-adv-x="839" d="M788 770L811 745Q797 706 793 696Q781 663 772 649L76 377L55 401Q55 403 58 411T63 424Q65 430 68 438T74 452T79 467T84 481Q88 497 92 504L633 711L150 922L137 958Q149 968 158
975L174 989L195 1004Q197 1006 201 1009T210 1015T219 1020L788 770ZM743 297Q743 295 741 290T738 281T735 272L725 248Q723 244 720 237T715 225L705 205H49L31 229L49 274L72 319H725L743 297Z" />
<glyph unicode="&#x25ca;" glyph-name="lozenge" horiz-adv-x="610" d="M164 659H166L311 209L543 627H541L395 1077L164 659ZM45 627L371 1204Q380 1213 395 1223Q401 1225 409 1231T424 1241T436 1250T451 1260Q455 1264 463 1267T473 1272L662 659L336 84L311
66Q309 66 300 58T285 45L256 29Q252 25 244 22T233 16L45 627Z" />
<glyph unicode="&#xfb01;" glyph-name="uniFB01" horiz-adv-x="1062" d="M1040 1262Q1040 1231 1032 1206Q1023 1178 1008 1157Q996 1139 969 1120Q949 1106 918 1106T868 1124Q852 1140 852 1176Q852 1207 860 1231Q868 1254 886 1280T924 1319Q944 1333 975
1333T1024 1315Q1040 1299 1040 1262ZM903 1403L858 1370Q850 1364 834 1354T811 1339Q793 1325 770 1315Q750 1305 738 1305T713 1323Q711 1327 682 1362Q672 1376 645 1399Q622 1417 598 1417Q559 1417 530 1395Q499 1370 479 1335Q452 1290 440 1249Q428 1210
414 1149Q402 1097 395 1044Q391 1009 383 952L377 905H684Q727 905 750 909Q758 911 779 914T811 920Q839 926 860 932Q874 936 893 936Q920 936 932 918Q942 902 942 852Q942 821 936 766Q934 741 915 639L891 494Q875 394 866 346Q848 242 846 221Q840 166 840
135Q840 106 846 90Q852 76 868 76Q903 76 928 84Q987 104 997 109L1014 72Q987 56 928 23Q916 17 860 -12Q825 -28 805 -35Q780 -41 758 -41Q724 -41 702 -10Q682 19 682 76Q682 88 690 162Q696 217 709 285Q715 322 721 357T733 426Q739 461 745 495T758 565Q770
635 776 684Q782 737 782 760V774Q770 799 737 807Q706 815 633 815H367L295 193Q283 91 250 -20Q221 -116 172 -211Q133 -287 61 -369Q0 -440 -74 -485L-100 -422Q-49 -393 -10 -334Q33 -266 61 -197Q88 -131 113 -31Q131 39 141 139L219 815H68L51 846L154 905H229Q235
964 252 1059Q262 1125 291 1198Q316 1264 356 1323Q396 1381 461 1427L512 1462Q532 1478 563 1493Q594 1509 616 1513Q643 1519 676 1520Q715 1520 754 1503Q789 1489 817 1466Q823 1462 841 1448T868 1427Q891 1407 903 1403Z" />
<glyph unicode="&#xfb02;" glyph-name="uniFB02" horiz-adv-x="1038" d="M995 72L909 20Q860 -9 840 -16Q809 -28 785 -34T733 -41Q704 -41 682 -10Q662 19 662 78Q662 109 670 166Q674 189 680 240T690 317Q704 423 719 512L752 723L784 928Q788 953 797 1015T811
1106Q817 1149 817 1225Q817 1284 803 1315Q793 1340 775 1358T731 1389Q698 1405 680 1409Q643 1417 627 1417Q584 1417 549 1395T489 1335Q460 1292 444 1249Q430 1212 416 1149Q408 1114 395 1044Q385 989 383 952L377 905H674L692 877Q682 861 666 846Q660
840 649 830T631 815Q619 805 594 788L565 770Q559 786 545 792T502 807Q498 809 442 813Q419 815 373 815H367L295 193Q283 91 250 -20Q221 -116 172 -211Q133 -287 61 -369Q0 -440 -74 -485L-100 -422Q-49 -393 -10 -334Q33 -266 61 -197Q88 -131 113 -31Q131
39 141 139L219 815H68L53 846L154 905H229Q238 985 254 1059Q270 1135 297 1198Q328 1272 367 1323Q414 1386 471 1427Q520 1462 584 1493Q639 1520 705 1520Q734 1520 774 1513Q809 1507 860 1481Q909 1452 924 1440Q949 1420 971 1382Q979 1372 981 1354Q983
1342 983 1311Q983 1297 979 1260Q979 1246 977 1232T973 1204Q965 1128 948 1022L915 815Q907 762 898 709T881 602L850 406Q844 367 827 244Q819 181 819 135Q819 102 829 88Q838 76 854 76Q881 76 907 84Q964 100 983 109L995 72Z" />
</font>
</defs>
</svg>
